  0
SECTION
  2
HEADER
  9
$ACADVER
  1
AC1009
  9
$FILLMODE
 70
0
  9
$EXTMIN
 10
12.4968
 20
30.2768
 30
0.0000
  9
$EXTMAX
 10
99.2632
 20
83.8200
 30
0.0000
  0
ENDSEC
  0
SECTION
  2
TABLES
  0
TABLE
  2
LTYPE
 70
1
  0
LTYPE
  2
CONTINUOUS
 70
64
  3
Solid line
 72
65
 73
0
 40
0
  0
ENDTAB
  0
TABLE
  2
LAYER
 70
255
  0
LAYER
  2
31
 70
64
 62
253
  6
CONTINUOUS
  0
ENDTAB
  0
ENDSEC
  0
SECTION
  2
BLOCKS
  0
BLOCK
  8
0
  2
RECT
 70
64
 10
0.0000
 20
0.0000
 30
0.0000
  3
RECT
  0
SOLID
  8
0
 10
-0.5000
 20
-0.5000
 30
0.0000
 11
0.5000
 21
-0.5000
 31
0.0000
 12
-0.5000
 22
0.5000
 32
0.0000
 13
0.5000
 23
0.5000
 33
0.0000
  0
ENDBLK
  8
0
  0
BLOCK
  8
0
  2
PIE
 70
64
 10
0.0000
 20
0.0000
 30
0.0000
  3
PIE
  0
CIRCLE
  8
0
 10
0.0000
 20
0.0000
 30
0.0000
 40
0.5000
  0
ENDBLK
  8
0
  0
BLOCK
  8
0
  2
OCTAGONP
 70
64
 10
0.0000
 20
0.0000
 30
0.0000
  3
OCTAGONP
  0
POLYLINE
  8
0
 66
1
 10
0.0000
 20
0.0000
 30
0.0000
 40
0.0000
 41
0.0000
 70
1
  0
VERTEX
  8
0
 10
-0.5000
 20
-0.2071
 30
0.0000
  0
VERTEX
  8
0
 10
-0.5000
 20
0.2071
 30
0.0000
  0
VERTEX
  8
0
 10
-0.2071
 20
0.5000
 30
0.0000
  0
VERTEX
  8
0
 10
0.2071
 20
0.5000
 30
0.0000
  0
VERTEX
  8
0
 10
0.5000
 20
0.2071
 30
0.0000
  0
VERTEX
  8
0
 10
0.5000
 20
-0.2071
 30
0.0000
  0
VERTEX
  8
0
 10
0.2071
 20
-0.5000
 30
0.0000
  0
VERTEX
  8
0
 10
-0.2071
 20
-0.5000
 30
0.0000
  0
SEQEND
  8
0
  0
ENDBLK
  8
0
  0
BLOCK
  8
0
  2
SQUAREP
 70
64
 10
0.0000
 20
0.0000
 30
0.0000
  3
SQUAREP
  0
SOLID
  8
0
 10
-0.5000
 20
-0.5000
 30
0.0000
 11
0.5000
 21
-0.5000
 31
0.0000
 12
-0.5000
 22
0.5000
 32
0.0000
 13
0.5000
 23
0.5000
 33
0.0000
  0
ENDBLK
  8
0
  0
BLOCK
  8
0
  2
ROUNDP
 70
64
 10
0.0000
 20
0.0000
 30
0.0000
  3
ROUNDP
  0
CIRCLE
  8
0
 10
0.0000
 20
0.0000
 30
0.0000
 40
0.5000
  0
ENDBLK
  8
0
  0
BLOCK
  8
0
  2
ANNULUSP
 70
64
 10
0.0000
 20
0.0000
 30
0.0000
  3
ANNULUSP
  0
CIRCLE
  8
0
 10
0.0000
 20
0.0000
 30
0.0000
 40
0.5000
  0
ENDBLK
  8
0
  0
BLOCK
  8
0
  2
THERMALP
 70
64
 10
0.0000
 20
0.0000
 30
0.0000
  3
THERMALP
  0
POLYLINE
  8
0
 66
1
 10
0.0000
 20
0.0000
 30
0.0000
 40
0.0000
 41
0.0000
 70
1
  0
VERTEX
  8
0
 10
-0.2379
 20
0.4000
 30
0.0000
  0
VERTEX
  8
0
 10
0.2379
 20
0.4000
 30
0.0000
 42
1.0000
  0
VERTEX
  8
0
 10
0.2379
 20
0.5000
 30
0.0000
  0
VERTEX
  8
0
 10
-0.2379
 20
0.5000
 30
0.0000
 42
1.0000
  0
SEQEND
  8
0
  0
POLYLINE
  8
0
 66
1
 10
0.0000
 20
0.0000
 30
0.0000
 40
0.0000
 41
0.0000
 70
1
  0
VERTEX
  8
0
 10
0.4000
 20
0.2379
 30
0.0000
  0
VERTEX
  8
0
 10
0.4000
 20
-0.2379
 30
0.0000
 42
1.0000
  0
VERTEX
  8
0
 10
0.5000
 20
-0.2379
 30
0.0000
  0
VERTEX
  8
0
 10
0.5000
 20
0.2379
 30
0.0000
 42
1.0000
  0
SEQEND
  8
0
  0
POLYLINE
  8
0
 66
1
 10
0.0000
 20
0.0000
 30
0.0000
 40
0.0000
 41
0.0000
 70
1
  0
VERTEX
  8
0
 10
0.2379
 20
-0.4000
 30
0.0000
  0
VERTEX
  8
0
 10
-0.2379
 20
-0.4000
 30
0.0000
 42
1.0000
  0
VERTEX
  8
0
 10
-0.2379
 20
-0.5000
 30
0.0000
  0
VERTEX
  8
0
 10
0.2379
 20
-0.5000
 30
0.0000
 42
1.0000
  0
SEQEND
  8
0
  0
POLYLINE
  8
0
 66
1
 10
0.0000
 20
0.0000
 30
0.0000
 40
0.0000
 41
0.0000
 70
1
  0
VERTEX
  8
0
 10
-0.4000
 20
-0.2379
 30
0.0000
  0
VERTEX
  8
0
 10
-0.4000
 20
0.2379
 30
0.0000
 42
1.0000
  0
VERTEX
  8
0
 10
-0.5000
 20
0.2379
 30
0.0000
  0
VERTEX
  8
0
 10
-0.5000
 20
-0.2379
 30
0.0000
 42
1.0000
  0
SEQEND
  8
0
  0
ENDBLK
  8
0
  0
BLOCK
  8
0
  2
OCTAGONV
 70
64
 10
0.0000
 20
0.0000
 30
0.0000
  3
OCTAGONV
  0
POLYLINE
  8
0
 66
1
 10
0.0000
 20
0.0000
 30
0.0000
 40
0.0000
 41
0.0000
 70
1
  0
VERTEX
  8
0
 10
-0.5000
 20
-0.2071
 30
0.0000
  0
VERTEX
  8
0
 10
-0.5000
 20
0.2071
 30
0.0000
  0
VERTEX
  8
0
 10
-0.2071
 20
0.5000
 30
0.0000
  0
VERTEX
  8
0
 10
0.2071
 20
0.5000
 30
0.0000
  0
VERTEX
  8
0
 10
0.5000
 20
0.2071
 30
0.0000
  0
VERTEX
  8
0
 10
0.5000
 20
-0.2071
 30
0.0000
  0
VERTEX
  8
0
 10
0.2071
 20
-0.5000
 30
0.0000
  0
VERTEX
  8
0
 10
-0.2071
 20
-0.5000
 30
0.0000
  0
SEQEND
  8
0
  0
ENDBLK
  8
0
  0
BLOCK
  8
0
  2
SQUAREV
 70
64
 10
0.0000
 20
0.0000
 30
0.0000
  3
SQUAREV
  0
SOLID
  8
0
 10
-0.5000
 20
-0.5000
 30
0.0000
 11
0.5000
 21
-0.5000
 31
0.0000
 12
-0.5000
 22
0.5000
 32
0.0000
 13
0.5000
 23
0.5000
 33
0.0000
  0
ENDBLK
  8
0
  0
BLOCK
  8
0
  2
ROUNDV
 70
64
 10
0.0000
 20
0.0000
 30
0.0000
  3
ROUNDV
  0
CIRCLE
  8
0
 10
0.0000
 20
0.0000
 30
0.0000
 40
0.5000
  0
ENDBLK
  8
0
  0
BLOCK
  8
0
  2
ANNULUSV
 70
64
 10
0.0000
 20
0.0000
 30
0.0000
  3
ANNULUSV
  0
CIRCLE
  8
0
 10
0.0000
 20
0.0000
 30
0.0000
 40
0.5000
  0
ENDBLK
  8
0
  0
BLOCK
  8
0
  2
THERMALV
 70
64
 10
0.0000
 20
0.0000
 30
0.0000
  3
THERMALV
  0
POLYLINE
  8
0
 66
1
 10
0.0000
 20
0.0000
 30
0.0000
 40
0.0000
 41
0.0000
 70
1
  0
VERTEX
  8
0
 10
-0.2379
 20
0.4000
 30
0.0000
  0
VERTEX
  8
0
 10
0.2379
 20
0.4000
 30
0.0000
 42
1.0000
  0
VERTEX
  8
0
 10
0.2379
 20
0.5000
 30
0.0000
  0
VERTEX
  8
0
 10
-0.2379
 20
0.5000
 30
0.0000
 42
1.0000
  0
SEQEND
  8
0
  0
POLYLINE
  8
0
 66
1
 10
0.0000
 20
0.0000
 30
0.0000
 40
0.0000
 41
0.0000
 70
1
  0
VERTEX
  8
0
 10
0.4000
 20
0.2379
 30
0.0000
  0
VERTEX
  8
0
 10
0.4000
 20
-0.2379
 30
0.0000
 42
1.0000
  0
VERTEX
  8
0
 10
0.5000
 20
-0.2379
 30
0.0000
  0
VERTEX
  8
0
 10
0.5000
 20
0.2379
 30
0.0000
 42
1.0000
  0
SEQEND
  8
0
  0
POLYLINE
  8
0
 66
1
 10
0.0000
 20
0.0000
 30
0.0000
 40
0.0000
 41
0.0000
 70
1
  0
VERTEX
  8
0
 10
0.2379
 20
-0.4000
 30
0.0000
  0
VERTEX
  8
0
 10
-0.2379
 20
-0.4000
 30
0.0000
 42
1.0000
  0
VERTEX
  8
0
 10
-0.2379
 20
-0.5000
 30
0.0000
  0
VERTEX
  8
0
 10
0.2379
 20
-0.5000
 30
0.0000
 42
1.0000
  0
SEQEND
  8
0
  0
POLYLINE
  8
0
 66
1
 10
0.0000
 20
0.0000
 30
0.0000
 40
0.0000
 41
0.0000
 70
1
  0
VERTEX
  8
0
 10
-0.4000
 20
-0.2379
 30
0.0000
  0
VERTEX
  8
0
 10
-0.4000
 20
0.2379
 30
0.0000
 42
1.0000
  0
VERTEX
  8
0
 10
-0.5000
 20
0.2379
 30
0.0000
  0
VERTEX
  8
0
 10
-0.5000
 20
-0.2379
 30
0.0000
 42
1.0000
  0
SEQEND
  8
0
  0
ENDBLK
  8
0
  0
BLOCK
  8
0
  2
LONGP100
 70
64
 10
0.0000
 20
0.0000
 30
0.0000
  3
LONGP100
  0
POLYLINE
  8
0
 66
1
 10
0.0000
 20
0.0000
 30
0.0000
 40
0.0000
 41
0.0000
 70
1
  0
VERTEX
  8
0
 10
-0.5000
 20
-0.5000
 30
0.0000
  0
VERTEX
  8
0
 10
0.5000
 20
-0.5000
 30
0.0000
 42
1.0000
  0
VERTEX
  8
0
 10
0.5000
 20
0.5000
 30
0.0000
  0
VERTEX
  8
0
 10
-0.5000
 20
0.5000
 30
0.0000
 42
1.0000
  0
SEQEND
  8
0
  0
ENDBLK
  8
0
  0
BLOCK
  8
0
  2
OFFSETP100
 70
64
 10
0.0000
 20
0.0000
 30
0.0000
  3
OFFSETP100
  0
POLYLINE
  8
0
 66
1
 10
0.0000
 20
0.0000
 30
0.0000
 40
0.0000
 41
0.0000
 70
1
  0
VERTEX
  8
0
 10
0.0000
 20
-0.5000
 30
0.0000
  0
VERTEX
  8
0
 10
1.0000
 20
-0.5000
 30
0.0000
 42
1.0000
  0
VERTEX
  8
0
 10
1.0000
 20
0.5000
 30
0.0000
  0
VERTEX
  8
0
 10
0.0000
 20
0.5000
 30
0.0000
 42
1.0000
  0
SEQEND
  8
0
  0
ENDBLK
  8
0
  0
ENDSEC
  0
SECTION
  2
ENTITIES
  0
INSERT
  8
31
  2
RECT
 10
85.7250
 20
50.4350
 30
0.0000
 41
1.3000
 42
1.6000
 43
1.0000
 50
90.0000
  0
INSERT
  8
31
  2
RECT
 10
85.7250
 20
52.4350
 30
0.0000
 41
1.3000
 42
1.6000
 43
1.0000
 50
90.0000
  0
INSERT
  8
31
  2
RECT
 10
83.1850
 20
50.4350
 30
0.0000
 41
1.3000
 42
1.6000
 43
1.0000
 50
90.0000
  0
INSERT
  8
31
  2
RECT
 10
83.1850
 20
52.4350
 30
0.0000
 41
1.3000
 42
1.6000
 43
1.0000
 50
90.0000
  0
INSERT
  8
31
  2
RECT
 10
80.6450
 20
50.4350
 30
0.0000
 41
1.3000
 42
1.6000
 43
1.0000
 50
90.0000
  0
INSERT
  8
31
  2
RECT
 10
80.6450
 20
52.4350
 30
0.0000
 41
1.3000
 42
1.6000
 43
1.0000
 50
90.0000
  0
INSERT
  8
31
  2
RECT
 10
88.2650
 20
50.4350
 30
0.0000
 41
1.3000
 42
1.6000
 43
1.0000
 50
90.0000
  0
INSERT
  8
31
  2
RECT
 10
88.2650
 20
52.4350
 30
0.0000
 41
1.3000
 42
1.6000
 43
1.0000
 50
90.0000
  0
INSERT
  8
31
  2
RECT
 10
93.3450
 20
50.4350
 30
0.0000
 41
1.3000
 42
1.6000
 43
1.0000
 50
90.0000
  0
INSERT
  8
31
  2
RECT
 10
93.3450
 20
52.4350
 30
0.0000
 41
1.3000
 42
1.6000
 43
1.0000
 50
90.0000
  0
INSERT
  8
31
  2
RECT
 10
90.8050
 20
50.4350
 30
0.0000
 41
1.3000
 42
1.6000
 43
1.0000
 50
90.0000
  0
INSERT
  8
31
  2
RECT
 10
90.8050
 20
52.4350
 30
0.0000
 41
1.3000
 42
1.6000
 43
1.0000
 50
90.0000
  0
INSERT
  8
31
  2
RECT
 10
89.1700
 20
73.6600
 30
0.0000
 41
1.3000
 42
1.6000
 43
1.0000
 50
0.0000
  0
INSERT
  8
31
  2
RECT
 10
91.1700
 20
73.6600
 30
0.0000
 41
1.3000
 42
1.6000
 43
1.0000
 50
0.0000
  0
INSERT
  8
31
  2
RECT
 10
96.2500
 20
73.6600
 30
0.0000
 41
1.3000
 42
1.6000
 43
1.0000
 50
180.0000
  0
INSERT
  8
31
  2
RECT
 10
94.2500
 20
73.6600
 30
0.0000
 41
1.3000
 42
1.6000
 43
1.0000
 50
180.0000
  0
INSERT
  8
31
  2
RECT
 10
73.0250
 20
61.9600
 30
0.0000
 41
1.3000
 42
1.6000
 43
1.0000
 50
270.0000
  0
INSERT
  8
31
  2
RECT
 10
73.0250
 20
59.9600
 30
0.0000
 41
1.3000
 42
1.6000
 43
1.0000
 50
270.0000
  0
INSERT
  8
31
  2
RECT
 10
61.5950
 20
61.9600
 30
0.0000
 41
1.3000
 42
1.6000
 43
1.0000
 50
270.0000
  0
INSERT
  8
31
  2
RECT
 10
61.5950
 20
59.9600
 30
0.0000
 41
1.3000
 42
1.6000
 43
1.0000
 50
270.0000
  0
INSERT
  8
31
  2
RECT
 10
61.2775
 20
53.9275
 30
0.0000
 41
1.3000
 42
1.6000
 43
1.0000
 50
90.0000
  0
INSERT
  8
31
  2
RECT
 10
61.2775
 20
55.9275
 30
0.0000
 41
1.3000
 42
1.6000
 43
1.0000
 50
90.0000
  0
INSERT
  8
31
  2
RECT
 10
75.2000
 20
40.0050
 30
0.0000
 41
1.3000
 42
1.6000
 43
1.0000
 50
0.0000
  0
INSERT
  8
31
  2
RECT
 10
77.2000
 20
40.0050
 30
0.0000
 41
1.3000
 42
1.6000
 43
1.0000
 50
0.0000
  0
INSERT
  8
31
  2
RECT
 10
74.6125
 20
53.9275
 30
0.0000
 41
1.3000
 42
1.6000
 43
1.0000
 50
90.0000
  0
INSERT
  8
31
  2
RECT
 10
74.6125
 20
55.9275
 30
0.0000
 41
1.3000
 42
1.6000
 43
1.0000
 50
90.0000
  0
INSERT
  8
31
  2
RECT
 10
60.6900
 20
40.9575
 30
0.0000
 41
1.3000
 42
1.6000
 43
1.0000
 50
180.0000
  0
INSERT
  8
31
  2
RECT
 10
58.6900
 20
40.9575
 30
0.0000
 41
1.3000
 42
1.6000
 43
1.0000
 50
180.0000
  0
INSERT
  8
31
  2
RECT
 10
92.7100
 20
37.1950
 30
0.0000
 41
1.3000
 42
1.6000
 43
1.0000
 50
270.0000
  0
INSERT
  8
31
  2
RECT
 10
92.7100
 20
35.1950
 30
0.0000
 41
1.3000
 42
1.6000
 43
1.0000
 50
270.0000
  0
INSERT
  8
31
  2
RECT
 10
24.1300
 20
48.2125
 30
0.0000
 41
1.3000
 42
1.6000
 43
1.0000
 50
90.0000
  0
INSERT
  8
31
  2
RECT
 10
24.1300
 20
50.2125
 30
0.0000
 41
1.3000
 42
1.6000
 43
1.0000
 50
90.0000
  0
INSERT
  8
31
  2
RECT
 10
45.7200
 20
35.1950
 30
0.0000
 41
1.3000
 42
1.6000
 43
1.0000
 50
90.0000
  0
INSERT
  8
31
  2
RECT
 10
45.7200
 20
37.1950
 30
0.0000
 41
1.3000
 42
1.6000
 43
1.0000
 50
90.0000
  0
INSERT
  8
31
  2
RECT
 10
58.6900
 20
36.1950
 30
0.0000
 41
1.3000
 42
1.6000
 43
1.0000
 50
0.0000
  0
INSERT
  8
31
  2
RECT
 10
60.6900
 20
36.1950
 30
0.0000
 41
1.3000
 42
1.6000
 43
1.0000
 50
0.0000
  0
INSERT
  8
31
  2
RECT
 10
95.2500
 20
58.6900
 30
0.0000
 41
1.3000
 42
1.6000
 43
1.0000
 50
90.0000
  0
INSERT
  8
31
  2
RECT
 10
95.2500
 20
60.6900
 30
0.0000
 41
1.3000
 42
1.6000
 43
1.0000
 50
90.0000
  0
INSERT
  8
31
  2
RECT
 10
88.2650
 20
46.8884
 30
0.0000
 41
0.6604
 42
2.0320
 43
1.0000
 50
180.0000
  0
INSERT
  8
31
  2
RECT
 10
86.9950
 20
46.8884
 30
0.0000
 41
0.6604
 42
2.0320
 43
1.0000
 50
180.0000
  0
INSERT
  8
31
  2
RECT
 10
85.7250
 20
46.8884
 30
0.0000
 41
0.6604
 42
2.0320
 43
1.0000
 50
180.0000
  0
INSERT
  8
31
  2
RECT
 10
84.4550
 20
46.8884
 30
0.0000
 41
0.6604
 42
2.0320
 43
1.0000
 50
180.0000
  0
INSERT
  8
31
  2
RECT
 10
83.1850
 20
46.8884
 30
0.0000
 41
0.6604
 42
2.0320
 43
1.0000
 50
180.0000
  0
INSERT
  8
31
  2
RECT
 10
81.9150
 20
46.8884
 30
0.0000
 41
0.6604
 42
2.0320
 43
1.0000
 50
180.0000
  0
INSERT
  8
31
  2
RECT
 10
80.6450
 20
46.8884
 30
0.0000
 41
0.6604
 42
2.0320
 43
1.0000
 50
180.0000
  0
INSERT
  8
31
  2
RECT
 10
80.6450
 20
40.7416
 30
0.0000
 41
0.6604
 42
2.0320
 43
1.0000
 50
180.0000
  0
INSERT
  8
31
  2
RECT
 10
81.9150
 20
40.7416
 30
0.0000
 41
0.6604
 42
2.0320
 43
1.0000
 50
180.0000
  0
INSERT
  8
31
  2
RECT
 10
83.1850
 20
40.7416
 30
0.0000
 41
0.6604
 42
2.0320
 43
1.0000
 50
180.0000
  0
INSERT
  8
31
  2
RECT
 10
84.4550
 20
40.7416
 30
0.0000
 41
0.6604
 42
2.0320
 43
1.0000
 50
180.0000
  0
INSERT
  8
31
  2
RECT
 10
85.7250
 20
40.7416
 30
0.0000
 41
0.6604
 42
2.0320
 43
1.0000
 50
180.0000
  0
INSERT
  8
31
  2
RECT
 10
86.9950
 20
40.7416
 30
0.0000
 41
0.6604
 42
2.0320
 43
1.0000
 50
180.0000
  0
INSERT
  8
31
  2
RECT
 10
88.2650
 20
40.7416
 30
0.0000
 41
0.6604
 42
2.0320
 43
1.0000
 50
180.0000
  0
INSERT
  8
31
  2
RECT
 10
20.3200
 20
39.3100
 30
0.0000
 41
0.6000
 42
2.2000
 43
1.0000
 50
0.0000
  0
INSERT
  8
31
  2
RECT
 10
21.5900
 20
39.3100
 30
0.0000
 41
0.6000
 42
2.2000
 43
1.0000
 50
0.0000
  0
INSERT
  8
31
  2
RECT
 10
22.8600
 20
39.3100
 30
0.0000
 41
0.6000
 42
2.2000
 43
1.0000
 50
0.0000
  0
INSERT
  8
31
  2
RECT
 10
24.1300
 20
39.3100
 30
0.0000
 41
0.6000
 42
2.2000
 43
1.0000
 50
0.0000
  0
INSERT
  8
31
  2
RECT
 10
24.1300
 20
44.5100
 30
0.0000
 41
0.6000
 42
2.2000
 43
1.0000
 50
0.0000
  0
INSERT
  8
31
  2
RECT
 10
22.8600
 20
44.5100
 30
0.0000
 41
0.6000
 42
2.2000
 43
1.0000
 50
0.0000
  0
INSERT
  8
31
  2
RECT
 10
21.5900
 20
44.5100
 30
0.0000
 41
0.6000
 42
2.2000
 43
1.0000
 50
0.0000
  0
INSERT
  8
31
  2
RECT
 10
20.3200
 20
44.5100
 30
0.0000
 41
0.6000
 42
2.2000
 43
1.0000
 50
0.0000
  0
INSERT
  8
31
  2
RECT
 10
74.2396
 20
48.2628
 30
0.0000
 41
1.5000
 42
0.5000
 43
1.0000
 50
225.0000
  0
INSERT
  8
31
  2
RECT
 10
73.6740
 20
48.8285
 30
0.0000
 41
1.5000
 42
0.5000
 43
1.0000
 50
225.0000
  0
INSERT
  8
31
  2
RECT
 10
73.1083
 20
49.3942
 30
0.0000
 41
1.5000
 42
0.5000
 43
1.0000
 50
225.0000
  0
INSERT
  8
31
  2
RECT
 10
72.5426
 20
49.9598
 30
0.0000
 41
1.5000
 42
0.5000
 43
1.0000
 50
225.0000
  0
INSERT
  8
31
  2
RECT
 10
71.9769
 20
50.5255
 30
0.0000
 41
1.5000
 42
0.5000
 43
1.0000
 50
225.0000
  0
INSERT
  8
31
  2
RECT
 10
71.4112
 20
51.0912
 30
0.0000
 41
1.5000
 42
0.5000
 43
1.0000
 50
225.0000
  0
INSERT
  8
31
  2
RECT
 10
70.8455
 20
51.6569
 30
0.0000
 41
1.5000
 42
0.5000
 43
1.0000
 50
225.0000
  0
INSERT
  8
31
  2
RECT
 10
70.2798
 20
52.2226
 30
0.0000
 41
1.5000
 42
0.5000
 43
1.0000
 50
225.0000
  0
INSERT
  8
31
  2
RECT
 10
69.7142
 20
52.7883
 30
0.0000
 41
1.5000
 42
0.5000
 43
1.0000
 50
225.0000
  0
INSERT
  8
31
  2
RECT
 10
69.1485
 20
53.3540
 30
0.0000
 41
1.5000
 42
0.5000
 43
1.0000
 50
225.0000
  0
INSERT
  8
31
  2
RECT
 10
68.5828
 20
53.9196
 30
0.0000
 41
1.5000
 42
0.5000
 43
1.0000
 50
225.0000
  0
INSERT
  8
31
  2
RECT
 10
66.0372
 20
53.9196
 30
0.0000
 41
0.5000
 42
1.5000
 43
1.0000
 50
225.0000
  0
INSERT
  8
31
  2
RECT
 10
65.4715
 20
53.3540
 30
0.0000
 41
0.5000
 42
1.5000
 43
1.0000
 50
225.0000
  0
INSERT
  8
31
  2
RECT
 10
64.9058
 20
52.7883
 30
0.0000
 41
0.5000
 42
1.5000
 43
1.0000
 50
225.0000
  0
INSERT
  8
31
  2
RECT
 10
64.3402
 20
52.2226
 30
0.0000
 41
0.5000
 42
1.5000
 43
1.0000
 50
225.0000
  0
INSERT
  8
31
  2
RECT
 10
63.7745
 20
51.6569
 30
0.0000
 41
0.5000
 42
1.5000
 43
1.0000
 50
225.0000
  0
INSERT
  8
31
  2
RECT
 10
63.2088
 20
51.0912
 30
0.0000
 41
0.5000
 42
1.5000
 43
1.0000
 50
225.0000
  0
INSERT
  8
31
  2
RECT
 10
62.6431
 20
50.5255
 30
0.0000
 41
0.5000
 42
1.5000
 43
1.0000
 50
225.0000
  0
INSERT
  8
31
  2
RECT
 10
62.0774
 20
49.9598
 30
0.0000
 41
0.5000
 42
1.5000
 43
1.0000
 50
225.0000
  0
INSERT
  8
31
  2
RECT
 10
61.5117
 20
49.3942
 30
0.0000
 41
0.5000
 42
1.5000
 43
1.0000
 50
225.0000
  0
INSERT
  8
31
  2
RECT
 10
60.9460
 20
48.8285
 30
0.0000
 41
0.5000
 42
1.5000
 43
1.0000
 50
225.0000
  0
INSERT
  8
31
  2
RECT
 10
60.3804
 20
48.2628
 30
0.0000
 41
0.5000
 42
1.5000
 43
1.0000
 50
225.0000
  0
INSERT
  8
31
  2
RECT
 10
60.3804
 20
45.7172
 30
0.0000
 41
1.5000
 42
0.5000
 43
1.0000
 50
225.0000
  0
INSERT
  8
31
  2
RECT
 10
60.9460
 20
45.1515
 30
0.0000
 41
1.5000
 42
0.5000
 43
1.0000
 50
225.0000
  0
INSERT
  8
31
  2
RECT
 10
61.5117
 20
44.5858
 30
0.0000
 41
1.5000
 42
0.5000
 43
1.0000
 50
225.0000
  0
INSERT
  8
31
  2
RECT
 10
62.0774
 20
44.0202
 30
0.0000
 41
1.5000
 42
0.5000
 43
1.0000
 50
225.0000
  0
INSERT
  8
31
  2
RECT
 10
62.6431
 20
43.4545
 30
0.0000
 41
1.5000
 42
0.5000
 43
1.0000
 50
225.0000
  0
INSERT
  8
31
  2
RECT
 10
63.2088
 20
42.8888
 30
0.0000
 41
1.5000
 42
0.5000
 43
1.0000
 50
225.0000
  0
INSERT
  8
31
  2
RECT
 10
63.7745
 20
42.3231
 30
0.0000
 41
1.5000
 42
0.5000
 43
1.0000
 50
225.0000
  0
INSERT
  8
31
  2
RECT
 10
64.3402
 20
41.7574
 30
0.0000
 41
1.5000
 42
0.5000
 43
1.0000
 50
225.0000
  0
INSERT
  8
31
  2
RECT
 10
64.9058
 20
41.1917
 30
0.0000
 41
1.5000
 42
0.5000
 43
1.0000
 50
225.0000
  0
INSERT
  8
31
  2
RECT
 10
65.4715
 20
40.6260
 30
0.0000
 41
1.5000
 42
0.5000
 43
1.0000
 50
225.0000
  0
INSERT
  8
31
  2
RECT
 10
66.0372
 20
40.0604
 30
0.0000
 41
1.5000
 42
0.5000
 43
1.0000
 50
225.0000
  0
INSERT
  8
31
  2
RECT
 10
68.5828
 20
40.0604
 30
0.0000
 41
0.5000
 42
1.5000
 43
1.0000
 50
225.0000
  0
INSERT
  8
31
  2
RECT
 10
69.1485
 20
40.6260
 30
0.0000
 41
0.5000
 42
1.5000
 43
1.0000
 50
225.0000
  0
INSERT
  8
31
  2
RECT
 10
69.7142
 20
41.1917
 30
0.0000
 41
0.5000
 42
1.5000
 43
1.0000
 50
225.0000
  0
INSERT
  8
31
  2
RECT
 10
70.2798
 20
41.7574
 30
0.0000
 41
0.5000
 42
1.5000
 43
1.0000
 50
225.0000
  0
INSERT
  8
31
  2
RECT
 10
70.8455
 20
42.3231
 30
0.0000
 41
0.5000
 42
1.5000
 43
1.0000
 50
225.0000
  0
INSERT
  8
31
  2
RECT
 10
71.4112
 20
42.8888
 30
0.0000
 41
0.5000
 42
1.5000
 43
1.0000
 50
225.0000
  0
INSERT
  8
31
  2
RECT
 10
71.9769
 20
43.4545
 30
0.0000
 41
0.5000
 42
1.5000
 43
1.0000
 50
225.0000
  0
INSERT
  8
31
  2
RECT
 10
72.5426
 20
44.0202
 30
0.0000
 41
0.5000
 42
1.5000
 43
1.0000
 50
225.0000
  0
INSERT
  8
31
  2
RECT
 10
73.1083
 20
44.5858
 30
0.0000
 41
0.5000
 42
1.5000
 43
1.0000
 50
225.0000
  0
INSERT
  8
31
  2
RECT
 10
73.6740
 20
45.1515
 30
0.0000
 41
0.5000
 42
1.5000
 43
1.0000
 50
225.0000
  0
INSERT
  8
31
  2
RECT
 10
74.2396
 20
45.7172
 30
0.0000
 41
0.5000
 42
1.5000
 43
1.0000
 50
225.0000
  0
INSERT
  8
31
  2
RECT
 10
27.3050
 20
37.3100
 30
0.0000
 41
0.6000
 42
2.2000
 43
1.0000
 50
0.0000
  0
INSERT
  8
31
  2
RECT
 10
28.5750
 20
37.3100
 30
0.0000
 41
0.6000
 42
2.2000
 43
1.0000
 50
0.0000
  0
INSERT
  8
31
  2
RECT
 10
29.8450
 20
37.3100
 30
0.0000
 41
0.6000
 42
2.2000
 43
1.0000
 50
0.0000
  0
INSERT
  8
31
  2
RECT
 10
31.1150
 20
37.3100
 30
0.0000
 41
0.6000
 42
2.2000
 43
1.0000
 50
0.0000
  0
INSERT
  8
31
  2
RECT
 10
32.3850
 20
37.3100
 30
0.0000
 41
0.6000
 42
2.2000
 43
1.0000
 50
0.0000
  0
INSERT
  8
31
  2
RECT
 10
33.6550
 20
37.3100
 30
0.0000
 41
0.6000
 42
2.2000
 43
1.0000
 50
0.0000
  0
INSERT
  8
31
  2
RECT
 10
34.9250
 20
37.3100
 30
0.0000
 41
0.6000
 42
2.2000
 43
1.0000
 50
0.0000
  0
INSERT
  8
31
  2
RECT
 10
36.1950
 20
37.3100
 30
0.0000
 41
0.6000
 42
2.2000
 43
1.0000
 50
0.0000
  0
INSERT
  8
31
  2
RECT
 10
36.1950
 20
46.5100
 30
0.0000
 41
0.6000
 42
2.2000
 43
1.0000
 50
0.0000
  0
INSERT
  8
31
  2
RECT
 10
34.9250
 20
46.5100
 30
0.0000
 41
0.6000
 42
2.2000
 43
1.0000
 50
0.0000
  0
INSERT
  8
31
  2
RECT
 10
33.6550
 20
46.5100
 30
0.0000
 41
0.6000
 42
2.2000
 43
1.0000
 50
0.0000
  0
INSERT
  8
31
  2
RECT
 10
32.3850
 20
46.5100
 30
0.0000
 41
0.6000
 42
2.2000
 43
1.0000
 50
0.0000
  0
INSERT
  8
31
  2
RECT
 10
31.1150
 20
46.5100
 30
0.0000
 41
0.6000
 42
2.2000
 43
1.0000
 50
0.0000
  0
INSERT
  8
31
  2
RECT
 10
29.8450
 20
46.5100
 30
0.0000
 41
0.6000
 42
2.2000
 43
1.0000
 50
0.0000
  0
INSERT
  8
31
  2
RECT
 10
28.5750
 20
46.5100
 30
0.0000
 41
0.6000
 42
2.2000
 43
1.0000
 50
0.0000
  0
INSERT
  8
31
  2
RECT
 10
27.3050
 20
46.5100
 30
0.0000
 41
0.6000
 42
2.2000
 43
1.0000
 50
0.0000
  0
INSERT
  8
31
  2
RECT
 10
65.4600
 20
58.5400
 30
0.0000
 41
1.9000
 42
1.1000
 43
1.0000
 50
0.0000
  0
INSERT
  8
31
  2
RECT
 10
69.1600
 20
58.5400
 30
0.0000
 41
1.9000
 42
1.1000
 43
1.0000
 50
0.0000
  0
INSERT
  8
31
  2
RECT
 10
69.1600
 20
60.8400
 30
0.0000
 41
1.9000
 42
1.1000
 43
1.0000
 50
0.0000
  0
INSERT
  8
31
  2
RECT
 10
65.4600
 20
60.8400
 30
0.0000
 41
1.9000
 42
1.1000
 43
1.0000
 50
0.0000
  0
INSERT
  8
31
  2
RECT
 10
43.1775
 20
45.5500
 30
0.0000
 41
1.0000
 42
1.4000
 43
1.0000
 50
180.0000
  0
INSERT
  8
31
  2
RECT
 10
41.2775
 20
45.5500
 30
0.0000
 41
1.0000
 42
1.4000
 43
1.0000
 50
180.0000
  0
INSERT
  8
31
  2
RECT
 10
42.2275
 20
43.3500
 30
0.0000
 41
1.0000
 42
1.4000
 43
1.0000
 50
180.0000
  0
INSERT
  8
31
  2
RECT
 10
82.5500
 20
37.1450
 30
0.0000
 41
1.3000
 42
1.6000
 43
1.0000
 50
270.0000
  0
INSERT
  8
31
  2
RECT
 10
82.5500
 20
35.2450
 30
0.0000
 41
1.3000
 42
1.6000
 43
1.0000
 50
270.0000
  0
INSERT
  8
31
  2
RECT
 10
80.0100
 20
37.1450
 30
0.0000
 41
1.3000
 42
1.6000
 43
1.0000
 50
270.0000
  0
INSERT
  8
31
  2
RECT
 10
80.0100
 20
35.2450
 30
0.0000
 41
1.3000
 42
1.6000
 43
1.0000
 50
270.0000
  0
INSERT
  8
31
  2
RECT
 10
77.4700
 20
37.1450
 30
0.0000
 41
1.3000
 42
1.6000
 43
1.0000
 50
270.0000
  0
INSERT
  8
31
  2
RECT
 10
77.4700
 20
35.2450
 30
0.0000
 41
1.3000
 42
1.6000
 43
1.0000
 50
270.0000
  0
INSERT
  8
31
  2
RECT
 10
85.0900
 20
37.1450
 30
0.0000
 41
1.3000
 42
1.6000
 43
1.0000
 50
270.0000
  0
INSERT
  8
31
  2
RECT
 10
85.0900
 20
35.2450
 30
0.0000
 41
1.3000
 42
1.6000
 43
1.0000
 50
270.0000
  0
INSERT
  8
31
  2
RECT
 10
90.1700
 20
37.1450
 30
0.0000
 41
1.3000
 42
1.6000
 43
1.0000
 50
270.0000
  0
INSERT
  8
31
  2
RECT
 10
90.1700
 20
35.2450
 30
0.0000
 41
1.3000
 42
1.6000
 43
1.0000
 50
270.0000
  0
INSERT
  8
31
  2
RECT
 10
87.6300
 20
37.1450
 30
0.0000
 41
1.3000
 42
1.6000
 43
1.0000
 50
270.0000
  0
INSERT
  8
31
  2
RECT
 10
87.6300
 20
35.2450
 30
0.0000
 41
1.3000
 42
1.6000
 43
1.0000
 50
270.0000
  0
INSERT
  8
31
  2
RECT
 10
64.7675
 20
36.1950
 30
0.0000
 41
1.3000
 42
1.6000
 43
1.0000
 50
180.0000
  0
INSERT
  8
31
  2
RECT
 10
62.8675
 20
36.1950
 30
0.0000
 41
1.3000
 42
1.6000
 43
1.0000
 50
180.0000
  0
INSERT
  8
31
  2
RECT
 10
56.5150
 20
60.0100
 30
0.0000
 41
1.3000
 42
1.6000
 43
1.0000
 50
90.0000
  0
INSERT
  8
31
  2
RECT
 10
56.5150
 20
61.9100
 30
0.0000
 41
1.3000
 42
1.6000
 43
1.0000
 50
90.0000
  0
INSERT
  8
31
  2
RECT
 10
53.9750
 20
60.0100
 30
0.0000
 41
1.3000
 42
1.6000
 43
1.0000
 50
90.0000
  0
INSERT
  8
31
  2
RECT
 10
53.9750
 20
61.9100
 30
0.0000
 41
1.3000
 42
1.6000
 43
1.0000
 50
90.0000
  0
INSERT
  8
31
  2
RECT
 10
67.3100
 20
37.1450
 30
0.0000
 41
1.3000
 42
1.6000
 43
1.0000
 50
270.0000
  0
INSERT
  8
31
  2
RECT
 10
67.3100
 20
35.2450
 30
0.0000
 41
1.3000
 42
1.6000
 43
1.0000
 50
270.0000
  0
INSERT
  8
31
  2
RECT
 10
69.8500
 20
37.1450
 30
0.0000
 41
1.3000
 42
1.6000
 43
1.0000
 50
270.0000
  0
INSERT
  8
31
  2
RECT
 10
69.8500
 20
35.2450
 30
0.0000
 41
1.3000
 42
1.6000
 43
1.0000
 50
270.0000
  0
INSERT
  8
31
  2
RECT
 10
72.3900
 20
37.1450
 30
0.0000
 41
1.3000
 42
1.6000
 43
1.0000
 50
270.0000
  0
INSERT
  8
31
  2
RECT
 10
72.3900
 20
35.2450
 30
0.0000
 41
1.3000
 42
1.6000
 43
1.0000
 50
270.0000
  0
INSERT
  8
31
  2
RECT
 10
74.9300
 20
37.1450
 30
0.0000
 41
1.3000
 42
1.6000
 43
1.0000
 50
270.0000
  0
INSERT
  8
31
  2
RECT
 10
74.9300
 20
35.2450
 30
0.0000
 41
1.3000
 42
1.6000
 43
1.0000
 50
270.0000
  0
INSERT
  8
31
  2
RECT
 10
34.2900
 20
58.1000
 30
0.0000
 41
1.3000
 42
1.6000
 43
1.0000
 50
270.0000
  0
INSERT
  8
31
  2
RECT
 10
34.2900
 20
56.2000
 30
0.0000
 41
1.3000
 42
1.6000
 43
1.0000
 50
270.0000
  0
INSERT
  8
31
  2
RECT
 10
48.2600
 20
61.9100
 30
0.0000
 41
1.3000
 42
1.6000
 43
1.0000
 50
270.0000
  0
INSERT
  8
31
  2
RECT
 10
48.2600
 20
60.0100
 30
0.0000
 41
1.3000
 42
1.6000
 43
1.0000
 50
270.0000
  0
INSERT
  8
31
  2
RECT
 10
50.8000
 20
61.9100
 30
0.0000
 41
1.3000
 42
1.6000
 43
1.0000
 50
270.0000
  0
INSERT
  8
31
  2
RECT
 10
50.8000
 20
60.0100
 30
0.0000
 41
1.3000
 42
1.6000
 43
1.0000
 50
270.0000
  0
INSERT
  8
31
  2
RECT
 10
59.0550
 20
60.0100
 30
0.0000
 41
1.3000
 42
1.6000
 43
1.0000
 50
90.0000
  0
INSERT
  8
31
  2
RECT
 10
59.0550
 20
61.9100
 30
0.0000
 41
1.3000
 42
1.6000
 43
1.0000
 50
90.0000
  0
INSERT
  8
31
  2
RECT
 10
82.5500
 20
58.7400
 30
0.0000
 41
1.3000
 42
1.6000
 43
1.0000
 50
90.0000
  0
INSERT
  8
31
  2
RECT
 10
82.5500
 20
60.6400
 30
0.0000
 41
1.3000
 42
1.6000
 43
1.0000
 50
90.0000
  0
INSERT
  8
31
  2
RECT
 10
43.5000
 20
47.9425
 30
0.0000
 41
1.3000
 42
1.6000
 43
1.0000
 50
0.0000
  0
INSERT
  8
31
  2
RECT
 10
45.4000
 20
47.9425
 30
0.0000
 41
1.3000
 42
1.6000
 43
1.0000
 50
0.0000
  0
INSERT
  8
31
  2
RECT
 10
45.7200
 20
39.3725
 30
0.0000
 41
1.3000
 42
1.6000
 43
1.0000
 50
90.0000
  0
INSERT
  8
31
  2
RECT
 10
45.7200
 20
41.2725
 30
0.0000
 41
1.3000
 42
1.6000
 43
1.0000
 50
90.0000
  0
INSERT
  8
31
  2
RECT
 10
45.7200
 20
45.4000
 30
0.0000
 41
1.3000
 42
1.6000
 43
1.0000
 50
270.0000
  0
INSERT
  8
31
  2
RECT
 10
45.7200
 20
43.5000
 30
0.0000
 41
1.3000
 42
1.6000
 43
1.0000
 50
270.0000
  0
INSERT
  8
31
  2
RECT
 10
43.1800
 20
41.2725
 30
0.0000
 41
1.3000
 42
1.6000
 43
1.0000
 50
270.0000
  0
INSERT
  8
31
  2
RECT
 10
43.1800
 20
39.3725
 30
0.0000
 41
1.3000
 42
1.6000
 43
1.0000
 50
270.0000
  0
INSERT
  8
31
  2
RECT
 10
43.1800
 20
37.1450
 30
0.0000
 41
1.3000
 42
1.6000
 43
1.0000
 50
270.0000
  0
INSERT
  8
31
  2
RECT
 10
43.1800
 20
35.2450
 30
0.0000
 41
1.3000
 42
1.6000
 43
1.0000
 50
270.0000
  0
INSERT
  8
31
  2
RECT
 10
16.8250
 20
36.1950
 30
0.0000
 41
1.3000
 42
1.6000
 43
1.0000
 50
180.0000
  0
INSERT
  8
31
  2
RECT
 10
14.9250
 20
36.1950
 30
0.0000
 41
1.3000
 42
1.6000
 43
1.0000
 50
180.0000
  0
INSERT
  8
31
  2
RECT
 10
21.2700
 20
36.1950
 30
0.0000
 41
1.3000
 42
1.6000
 43
1.0000
 50
180.0000
  0
INSERT
  8
31
  2
RECT
 10
19.3700
 20
36.1950
 30
0.0000
 41
1.3000
 42
1.6000
 43
1.0000
 50
180.0000
  0
INSERT
  8
31
  2
RECT
 10
16.8750
 20
43.7350
 30
0.0000
 41
1.2000
 42
1.2000
 43
1.0000
 50
180.0000
  0
INSERT
  8
31
  2
RECT
 10
15.8750
 20
40.4100
 30
0.0000
 41
1.5000
 42
1.6000
 43
1.0000
 50
180.0000
  0
INSERT
  8
31
  2
RECT
 10
14.8750
 20
43.7350
 30
0.0000
 41
1.2000
 42
1.2000
 43
1.0000
 50
180.0000
  0
ENDSEC
  0
EOF
