G75*
G70*
%OFA0B0*%
%FSLAX24Y24*%
%IPPOS*%
%LPD*%
%AMOC8*
5,1,8,0,0,1.08239X$1,22.5*
%
%ADD10C,0.0000*%
%ADD11R,0.0260X0.0800*%
%ADD12R,0.0630X0.0512*%
%ADD13R,0.0512X0.0630*%
%ADD14R,0.0236X0.0866*%
%ADD15R,0.0591X0.0197*%
%ADD16R,0.0197X0.0591*%
%ADD17R,0.0748X0.0433*%
%ADD18R,0.0591X0.0630*%
%ADD19R,0.0472X0.0472*%
%ADD20R,0.0394X0.0551*%
D10*
X000182Y000188D02*
X000182Y019688D01*
X033682Y019688D01*
X034182Y019188D01*
X034182Y000188D01*
X000182Y000188D01*
D11*
X026932Y004228D03*
X027432Y004228D03*
X027932Y004228D03*
X028432Y004228D03*
X028932Y004228D03*
X029432Y004228D03*
X029932Y004228D03*
X029932Y006648D03*
X029432Y006648D03*
X028932Y006648D03*
X028432Y006648D03*
X027932Y006648D03*
X027432Y006648D03*
X026932Y006648D03*
D12*
X026932Y008044D03*
X027932Y008044D03*
X028932Y008044D03*
X029932Y008044D03*
X030932Y008044D03*
X031932Y008044D03*
X031932Y008831D03*
X030932Y008831D03*
X029932Y008831D03*
X028932Y008831D03*
X027932Y008831D03*
X026932Y008831D03*
X024557Y009419D03*
X024557Y010206D03*
X023932Y011794D03*
X023932Y012581D03*
X027682Y012062D03*
X027682Y011314D03*
X032682Y011294D03*
X032682Y012081D03*
X019432Y011794D03*
X018432Y011814D03*
X018432Y012562D03*
X017432Y012562D03*
X017432Y011814D03*
X016432Y011814D03*
X016432Y012562D03*
X015182Y012562D03*
X015182Y011814D03*
X014182Y011814D03*
X014182Y012562D03*
X019432Y012581D03*
X019307Y010206D03*
X019307Y009419D03*
X013182Y006062D03*
X013182Y005314D03*
X013182Y004437D03*
X013182Y003689D03*
X012182Y003689D03*
X012182Y004437D03*
X012182Y002812D03*
X013182Y002831D03*
X013182Y002044D03*
X012182Y002064D03*
X004682Y007169D03*
X004682Y007956D03*
X008682Y010314D03*
X008682Y011062D03*
X021682Y002812D03*
X022682Y002812D03*
X023682Y002812D03*
X024682Y002812D03*
X025682Y002812D03*
X026682Y002812D03*
X027682Y002812D03*
X028682Y002812D03*
X029682Y002812D03*
X030682Y002812D03*
X031682Y002831D03*
X031682Y002044D03*
X030682Y002064D03*
X029682Y002064D03*
X028682Y002064D03*
X027682Y002064D03*
X026682Y002064D03*
X025682Y002064D03*
X024682Y002064D03*
X023682Y002064D03*
X022682Y002064D03*
X021682Y002064D03*
D13*
X020681Y002438D03*
X019933Y002438D03*
X019076Y002438D03*
X018289Y002438D03*
X018289Y004313D03*
X019076Y004313D03*
X024789Y003938D03*
X025576Y003938D03*
X013056Y007063D03*
X012308Y007063D03*
X003556Y002438D03*
X002808Y002438D03*
X001806Y002438D03*
X001058Y002438D03*
X030289Y017188D03*
X031076Y017188D03*
X032289Y017188D03*
X033076Y017188D03*
D14*
X009432Y006499D03*
X008932Y006499D03*
X008432Y006499D03*
X007932Y006499D03*
X007432Y006499D03*
X006932Y006499D03*
X006432Y006499D03*
X005932Y006499D03*
X004682Y005711D03*
X004182Y005711D03*
X003682Y005711D03*
X003182Y005711D03*
X003182Y003664D03*
X003682Y003664D03*
X004182Y003664D03*
X004682Y003664D03*
X005932Y002877D03*
X006432Y002877D03*
X006932Y002877D03*
X007432Y002877D03*
X007932Y002877D03*
X008432Y002877D03*
X008932Y002877D03*
X009432Y002877D03*
D15*
G36*
X018677Y006048D02*
X019093Y006464D01*
X019231Y006326D01*
X018815Y005910D01*
X018677Y006048D01*
G37*
G36*
X018900Y005825D02*
X019316Y006241D01*
X019454Y006103D01*
X019038Y005687D01*
X018900Y005825D01*
G37*
G36*
X019123Y005602D02*
X019539Y006018D01*
X019677Y005880D01*
X019261Y005464D01*
X019123Y005602D01*
G37*
G36*
X019345Y005379D02*
X019761Y005795D01*
X019899Y005657D01*
X019483Y005241D01*
X019345Y005379D01*
G37*
G36*
X019568Y005157D02*
X019984Y005573D01*
X020122Y005435D01*
X019706Y005019D01*
X019568Y005157D01*
G37*
G36*
X019791Y004934D02*
X020207Y005350D01*
X020345Y005212D01*
X019929Y004796D01*
X019791Y004934D01*
G37*
G36*
X020013Y004711D02*
X020429Y005127D01*
X020567Y004989D01*
X020151Y004573D01*
X020013Y004711D01*
G37*
G36*
X020236Y004489D02*
X020652Y004905D01*
X020790Y004767D01*
X020374Y004351D01*
X020236Y004489D01*
G37*
G36*
X020459Y004266D02*
X020875Y004682D01*
X021013Y004544D01*
X020597Y004128D01*
X020459Y004266D01*
G37*
G36*
X020682Y004043D02*
X021098Y004459D01*
X021236Y004321D01*
X020820Y003905D01*
X020682Y004043D01*
G37*
G36*
X020904Y003820D02*
X021320Y004236D01*
X021458Y004098D01*
X021042Y003682D01*
X020904Y003820D01*
G37*
G36*
X024134Y007050D02*
X024550Y007466D01*
X024688Y007328D01*
X024272Y006912D01*
X024134Y007050D01*
G37*
G36*
X023911Y007272D02*
X024327Y007688D01*
X024465Y007550D01*
X024049Y007134D01*
X023911Y007272D01*
G37*
G36*
X023688Y007495D02*
X024104Y007911D01*
X024242Y007773D01*
X023826Y007357D01*
X023688Y007495D01*
G37*
G36*
X023465Y007718D02*
X023881Y008134D01*
X024019Y007996D01*
X023603Y007580D01*
X023465Y007718D01*
G37*
G36*
X023243Y007941D02*
X023659Y008357D01*
X023797Y008219D01*
X023381Y007803D01*
X023243Y007941D01*
G37*
G36*
X023020Y008163D02*
X023436Y008579D01*
X023574Y008441D01*
X023158Y008025D01*
X023020Y008163D01*
G37*
G36*
X022797Y008386D02*
X023213Y008802D01*
X023351Y008664D01*
X022935Y008248D01*
X022797Y008386D01*
G37*
G36*
X022575Y008609D02*
X022991Y009025D01*
X023129Y008887D01*
X022713Y008471D01*
X022575Y008609D01*
G37*
G36*
X022352Y008831D02*
X022768Y009247D01*
X022906Y009109D01*
X022490Y008693D01*
X022352Y008831D01*
G37*
G36*
X022129Y009054D02*
X022545Y009470D01*
X022683Y009332D01*
X022267Y008916D01*
X022129Y009054D01*
G37*
G36*
X021906Y009277D02*
X022322Y009693D01*
X022460Y009555D01*
X022044Y009139D01*
X021906Y009277D01*
G37*
D16*
G36*
X020904Y009555D02*
X021042Y009693D01*
X021458Y009277D01*
X021320Y009139D01*
X020904Y009555D01*
G37*
G36*
X020682Y009332D02*
X020820Y009470D01*
X021236Y009054D01*
X021098Y008916D01*
X020682Y009332D01*
G37*
G36*
X020459Y009109D02*
X020597Y009247D01*
X021013Y008831D01*
X020875Y008693D01*
X020459Y009109D01*
G37*
G36*
X020236Y008887D02*
X020374Y009025D01*
X020790Y008609D01*
X020652Y008471D01*
X020236Y008887D01*
G37*
G36*
X020013Y008664D02*
X020151Y008802D01*
X020567Y008386D01*
X020429Y008248D01*
X020013Y008664D01*
G37*
G36*
X019791Y008441D02*
X019929Y008579D01*
X020345Y008163D01*
X020207Y008025D01*
X019791Y008441D01*
G37*
G36*
X019568Y008219D02*
X019706Y008357D01*
X020122Y007941D01*
X019984Y007803D01*
X019568Y008219D01*
G37*
G36*
X019345Y007996D02*
X019483Y008134D01*
X019899Y007718D01*
X019761Y007580D01*
X019345Y007996D01*
G37*
G36*
X019123Y007773D02*
X019261Y007911D01*
X019677Y007495D01*
X019539Y007357D01*
X019123Y007773D01*
G37*
G36*
X018900Y007550D02*
X019038Y007688D01*
X019454Y007272D01*
X019316Y007134D01*
X018900Y007550D01*
G37*
G36*
X018677Y007328D02*
X018815Y007466D01*
X019231Y007050D01*
X019093Y006912D01*
X018677Y007328D01*
G37*
G36*
X022575Y004767D02*
X022713Y004905D01*
X023129Y004489D01*
X022991Y004351D01*
X022575Y004767D01*
G37*
G36*
X022352Y004544D02*
X022490Y004682D01*
X022906Y004266D01*
X022768Y004128D01*
X022352Y004544D01*
G37*
G36*
X022129Y004321D02*
X022267Y004459D01*
X022683Y004043D01*
X022545Y003905D01*
X022129Y004321D01*
G37*
G36*
X021906Y004098D02*
X022044Y004236D01*
X022460Y003820D01*
X022322Y003682D01*
X021906Y004098D01*
G37*
G36*
X022797Y004989D02*
X022935Y005127D01*
X023351Y004711D01*
X023213Y004573D01*
X022797Y004989D01*
G37*
G36*
X023020Y005212D02*
X023158Y005350D01*
X023574Y004934D01*
X023436Y004796D01*
X023020Y005212D01*
G37*
G36*
X023243Y005435D02*
X023381Y005573D01*
X023797Y005157D01*
X023659Y005019D01*
X023243Y005435D01*
G37*
G36*
X023465Y005657D02*
X023603Y005795D01*
X024019Y005379D01*
X023881Y005241D01*
X023465Y005657D01*
G37*
G36*
X023688Y005880D02*
X023826Y006018D01*
X024242Y005602D01*
X024104Y005464D01*
X023688Y005880D01*
G37*
G36*
X023911Y006103D02*
X024049Y006241D01*
X024465Y005825D01*
X024327Y005687D01*
X023911Y006103D01*
G37*
G36*
X024134Y006326D02*
X024272Y006464D01*
X024688Y006048D01*
X024550Y005910D01*
X024134Y006326D01*
G37*
D17*
X022411Y011235D03*
X022411Y012140D03*
X020954Y012140D03*
X020954Y011235D03*
D18*
X001432Y004097D03*
D19*
X001039Y005406D03*
X001826Y005406D03*
D20*
X011433Y006121D03*
X012181Y006121D03*
X011807Y005255D03*
M02*
