G75*
G70*
%OFA0B0*%
%FSLAX24Y24*%
%IPPOS*%
%LPD*%
%AMOC8*
5,1,8,0,0,1.08239X$1,22.5*
%
%ADD10C,0.0000*%
%ADD11C,0.0320*%
%ADD12R,0.0300X0.0840*%
%ADD13C,0.0640*%
%ADD14R,0.0670X0.0552*%
%ADD15C,0.1620*%
%ADD16C,0.0640*%
%ADD17C,0.0700*%
%ADD18OC8,0.0660*%
%ADD19C,0.0660*%
%ADD20R,0.0552X0.0670*%
%ADD21C,0.0926*%
%ADD22R,0.0276X0.0906*%
%ADD23R,0.0640X0.0640*%
%ADD24C,0.0560*%
%ADD25C,0.0820*%
%ADD26OC8,0.0820*%
%ADD27R,0.0631X0.0237*%
%ADD28R,0.0237X0.0631*%
%ADD29OC8,0.0640*%
%ADD30R,0.0788X0.0473*%
%ADD31OC8,0.0600*%
%ADD32R,0.0631X0.0670*%
%ADD33R,0.0512X0.0512*%
%ADD34R,0.0434X0.0591*%
D10*
X000182Y000188D02*
X000182Y019688D01*
X033682Y019688D01*
X034182Y019188D01*
X034182Y000188D01*
X000182Y000188D01*
D11*
X000807Y000938D02*
X000809Y000960D01*
X000815Y000981D01*
X000824Y001000D01*
X000836Y001018D01*
X000852Y001034D01*
X000869Y001046D01*
X000889Y001055D01*
X000910Y001061D01*
X000932Y001063D01*
X000954Y001061D01*
X000975Y001055D01*
X000994Y001046D01*
X001012Y001034D01*
X001028Y001018D01*
X001040Y001000D01*
X001049Y000981D01*
X001055Y000960D01*
X001057Y000938D01*
X001055Y000916D01*
X001049Y000895D01*
X001040Y000876D01*
X001028Y000858D01*
X001012Y000842D01*
X000995Y000830D01*
X000975Y000821D01*
X000954Y000815D01*
X000932Y000813D01*
X000910Y000815D01*
X000889Y000821D01*
X000869Y000830D01*
X000852Y000842D01*
X000836Y000858D01*
X000824Y000875D01*
X000815Y000895D01*
X000809Y000916D01*
X000807Y000938D01*
X002057Y018938D02*
X002059Y018960D01*
X002065Y018981D01*
X002074Y019000D01*
X002086Y019018D01*
X002102Y019034D01*
X002119Y019046D01*
X002139Y019055D01*
X002160Y019061D01*
X002182Y019063D01*
X002204Y019061D01*
X002225Y019055D01*
X002244Y019046D01*
X002262Y019034D01*
X002278Y019018D01*
X002290Y019000D01*
X002299Y018981D01*
X002305Y018960D01*
X002307Y018938D01*
X002305Y018916D01*
X002299Y018895D01*
X002290Y018876D01*
X002278Y018858D01*
X002262Y018842D01*
X002245Y018830D01*
X002225Y018821D01*
X002204Y018815D01*
X002182Y018813D01*
X002160Y018815D01*
X002139Y018821D01*
X002119Y018830D01*
X002102Y018842D01*
X002086Y018858D01*
X002074Y018875D01*
X002065Y018895D01*
X002059Y018916D01*
X002057Y018938D01*
X033307Y000938D02*
X033309Y000960D01*
X033315Y000981D01*
X033324Y001000D01*
X033336Y001018D01*
X033352Y001034D01*
X033369Y001046D01*
X033389Y001055D01*
X033410Y001061D01*
X033432Y001063D01*
X033454Y001061D01*
X033475Y001055D01*
X033494Y001046D01*
X033512Y001034D01*
X033528Y001018D01*
X033540Y001000D01*
X033549Y000981D01*
X033555Y000960D01*
X033557Y000938D01*
X033555Y000916D01*
X033549Y000895D01*
X033540Y000876D01*
X033528Y000858D01*
X033512Y000842D01*
X033495Y000830D01*
X033475Y000821D01*
X033454Y000815D01*
X033432Y000813D01*
X033410Y000815D01*
X033389Y000821D01*
X033369Y000830D01*
X033352Y000842D01*
X033336Y000858D01*
X033324Y000875D01*
X033315Y000895D01*
X033309Y000916D01*
X033307Y000938D01*
D12*
X029932Y004228D03*
X029432Y004228D03*
X028932Y004228D03*
X028432Y004228D03*
X027932Y004228D03*
X027432Y004228D03*
X026932Y004228D03*
X026932Y006648D03*
X027432Y006648D03*
X027932Y006648D03*
X028432Y006648D03*
X028932Y006648D03*
X029432Y006648D03*
X029932Y006648D03*
D13*
X033432Y006188D03*
X033432Y007188D03*
X033432Y008188D03*
X033432Y005188D03*
X033432Y004188D03*
X033432Y003188D03*
X031682Y000938D03*
X030682Y000938D03*
X029682Y000938D03*
X028682Y000938D03*
X027682Y000938D03*
X026682Y000938D03*
X025682Y000938D03*
X024682Y000938D03*
X023682Y000938D03*
X022682Y000938D03*
X020682Y000938D03*
X019682Y000938D03*
X018682Y000938D03*
X013182Y000938D03*
X012182Y000938D03*
X011182Y000938D03*
X010182Y000938D03*
X009182Y000938D03*
X008182Y000938D03*
X007182Y000938D03*
X006182Y000938D03*
X005182Y000938D03*
X004182Y000938D03*
X003182Y000938D03*
X002182Y000938D03*
X001432Y008688D03*
X001432Y009688D03*
D14*
X004682Y007956D03*
X004682Y007169D03*
X008682Y010314D03*
X008682Y011062D03*
X014182Y011814D03*
X014182Y012562D03*
X015182Y012562D03*
X015182Y011814D03*
X016432Y011814D03*
X016432Y012562D03*
X017432Y012562D03*
X017432Y011814D03*
X018432Y011814D03*
X018432Y012562D03*
X019432Y012581D03*
X019432Y011794D03*
X019307Y010206D03*
X019307Y009419D03*
X023932Y011794D03*
X023932Y012581D03*
X027682Y012062D03*
X027682Y011314D03*
X024557Y010206D03*
X024557Y009419D03*
X026932Y008831D03*
X027932Y008831D03*
X028932Y008831D03*
X029932Y008831D03*
X030932Y008831D03*
X031932Y008831D03*
X031932Y008044D03*
X030932Y008044D03*
X029932Y008044D03*
X028932Y008044D03*
X027932Y008044D03*
X026932Y008044D03*
X032682Y011294D03*
X032682Y012081D03*
X031682Y002831D03*
X030682Y002812D03*
X029682Y002812D03*
X028682Y002812D03*
X027682Y002812D03*
X026682Y002812D03*
X025682Y002812D03*
X024682Y002812D03*
X023682Y002812D03*
X022682Y002812D03*
X021682Y002812D03*
X021682Y002064D03*
X022682Y002064D03*
X023682Y002064D03*
X024682Y002064D03*
X025682Y002064D03*
X026682Y002064D03*
X027682Y002064D03*
X028682Y002064D03*
X029682Y002064D03*
X030682Y002064D03*
X031682Y002044D03*
X013182Y002044D03*
X012182Y002064D03*
X012182Y002812D03*
X013182Y002831D03*
X013182Y003689D03*
X013182Y004437D03*
X012182Y004437D03*
X012182Y003689D03*
X013182Y005314D03*
X013182Y006062D03*
D15*
X027182Y015394D03*
X025332Y016575D03*
X027182Y017756D03*
D16*
X030682Y018388D02*
X030682Y018988D01*
X031682Y018988D02*
X031682Y018388D01*
X032682Y018388D02*
X032682Y018988D01*
D17*
X029182Y013938D03*
X025182Y013938D03*
D18*
X030932Y015438D03*
X032432Y015438D03*
D19*
X033432Y015438D03*
X029932Y015438D03*
D20*
X030289Y017188D03*
X031076Y017188D03*
X032289Y017188D03*
X033076Y017188D03*
X013056Y007063D03*
X012308Y007063D03*
X018289Y004313D03*
X019076Y004313D03*
X019076Y002438D03*
X018289Y002438D03*
X019933Y002438D03*
X020681Y002438D03*
X024789Y003938D03*
X025576Y003938D03*
X003556Y002438D03*
X002808Y002438D03*
X001806Y002438D03*
X001058Y002438D03*
D21*
X000993Y012988D03*
X000993Y015488D03*
X000993Y017988D03*
X007371Y017988D03*
X007371Y015488D03*
X007371Y012988D03*
D22*
X007432Y006499D03*
X006932Y006499D03*
X006432Y006499D03*
X005932Y006499D03*
X004682Y005711D03*
X004182Y005711D03*
X003682Y005711D03*
X003182Y005711D03*
X003182Y003664D03*
X003682Y003664D03*
X004182Y003664D03*
X004682Y003664D03*
X005932Y002877D03*
X006432Y002877D03*
X006932Y002877D03*
X007432Y002877D03*
X007932Y002877D03*
X008432Y002877D03*
X008932Y002877D03*
X009432Y002877D03*
X009432Y006499D03*
X008932Y006499D03*
X008432Y006499D03*
X007932Y006499D03*
D23*
X001432Y007688D03*
X021682Y000938D03*
D24*
X012682Y008668D02*
X012682Y009188D01*
X011682Y009188D02*
X011682Y008668D01*
X010682Y008668D02*
X010682Y009188D01*
X009682Y008928D02*
X009682Y009448D01*
X009682Y011928D02*
X009682Y012448D01*
X010682Y012188D02*
X010682Y012708D01*
X011682Y012708D02*
X011682Y012188D01*
X012682Y012188D02*
X012682Y012708D01*
D25*
X012182Y014598D02*
X012182Y015378D01*
X020182Y015378D02*
X020182Y014598D01*
D26*
X018182Y013988D03*
X017182Y014988D03*
X015182Y014988D03*
X014182Y013988D03*
X010182Y013988D03*
X009182Y014988D03*
X011182Y018988D03*
X013182Y018988D03*
X019182Y018988D03*
X021182Y018988D03*
X023182Y014988D03*
X022182Y013988D03*
D27*
G36*
X021877Y009277D02*
X022322Y009722D01*
X022489Y009555D01*
X022044Y009110D01*
X021877Y009277D01*
G37*
G36*
X022100Y009054D02*
X022545Y009499D01*
X022712Y009332D01*
X022267Y008887D01*
X022100Y009054D01*
G37*
G36*
X022323Y008831D02*
X022768Y009276D01*
X022935Y009109D01*
X022490Y008664D01*
X022323Y008831D01*
G37*
G36*
X022546Y008609D02*
X022991Y009054D01*
X023158Y008887D01*
X022713Y008442D01*
X022546Y008609D01*
G37*
G36*
X022768Y008386D02*
X023213Y008831D01*
X023380Y008664D01*
X022935Y008219D01*
X022768Y008386D01*
G37*
G36*
X022991Y008163D02*
X023436Y008608D01*
X023603Y008441D01*
X023158Y007996D01*
X022991Y008163D01*
G37*
G36*
X023214Y007941D02*
X023659Y008386D01*
X023826Y008219D01*
X023381Y007774D01*
X023214Y007941D01*
G37*
G36*
X023436Y007718D02*
X023881Y008163D01*
X024048Y007996D01*
X023603Y007551D01*
X023436Y007718D01*
G37*
G36*
X023659Y007495D02*
X024104Y007940D01*
X024271Y007773D01*
X023826Y007328D01*
X023659Y007495D01*
G37*
G36*
X023882Y007272D02*
X024327Y007717D01*
X024494Y007550D01*
X024049Y007105D01*
X023882Y007272D01*
G37*
G36*
X024105Y007050D02*
X024550Y007495D01*
X024717Y007328D01*
X024272Y006883D01*
X024105Y007050D01*
G37*
G36*
X019984Y004711D02*
X020429Y005156D01*
X020596Y004989D01*
X020151Y004544D01*
X019984Y004711D01*
G37*
G36*
X019762Y004934D02*
X020207Y005379D01*
X020374Y005212D01*
X019929Y004767D01*
X019762Y004934D01*
G37*
G36*
X019539Y005157D02*
X019984Y005602D01*
X020151Y005435D01*
X019706Y004990D01*
X019539Y005157D01*
G37*
G36*
X019316Y005379D02*
X019761Y005824D01*
X019928Y005657D01*
X019483Y005212D01*
X019316Y005379D01*
G37*
G36*
X019094Y005602D02*
X019539Y006047D01*
X019706Y005880D01*
X019261Y005435D01*
X019094Y005602D01*
G37*
G36*
X018871Y005825D02*
X019316Y006270D01*
X019483Y006103D01*
X019038Y005658D01*
X018871Y005825D01*
G37*
G36*
X018648Y006048D02*
X019093Y006493D01*
X019260Y006326D01*
X018815Y005881D01*
X018648Y006048D01*
G37*
G36*
X020207Y004489D02*
X020652Y004934D01*
X020819Y004767D01*
X020374Y004322D01*
X020207Y004489D01*
G37*
G36*
X020430Y004266D02*
X020875Y004711D01*
X021042Y004544D01*
X020597Y004099D01*
X020430Y004266D01*
G37*
G36*
X020653Y004043D02*
X021098Y004488D01*
X021265Y004321D01*
X020820Y003876D01*
X020653Y004043D01*
G37*
G36*
X020875Y003820D02*
X021320Y004265D01*
X021487Y004098D01*
X021042Y003653D01*
X020875Y003820D01*
G37*
D28*
G36*
X021877Y004098D02*
X022044Y004265D01*
X022489Y003820D01*
X022322Y003653D01*
X021877Y004098D01*
G37*
G36*
X022100Y004321D02*
X022267Y004488D01*
X022712Y004043D01*
X022545Y003876D01*
X022100Y004321D01*
G37*
G36*
X022323Y004544D02*
X022490Y004711D01*
X022935Y004266D01*
X022768Y004099D01*
X022323Y004544D01*
G37*
G36*
X022546Y004767D02*
X022713Y004934D01*
X023158Y004489D01*
X022991Y004322D01*
X022546Y004767D01*
G37*
G36*
X022768Y004989D02*
X022935Y005156D01*
X023380Y004711D01*
X023213Y004544D01*
X022768Y004989D01*
G37*
G36*
X022991Y005212D02*
X023158Y005379D01*
X023603Y004934D01*
X023436Y004767D01*
X022991Y005212D01*
G37*
G36*
X023214Y005435D02*
X023381Y005602D01*
X023826Y005157D01*
X023659Y004990D01*
X023214Y005435D01*
G37*
G36*
X023436Y005657D02*
X023603Y005824D01*
X024048Y005379D01*
X023881Y005212D01*
X023436Y005657D01*
G37*
G36*
X023659Y005880D02*
X023826Y006047D01*
X024271Y005602D01*
X024104Y005435D01*
X023659Y005880D01*
G37*
G36*
X023882Y006103D02*
X024049Y006270D01*
X024494Y005825D01*
X024327Y005658D01*
X023882Y006103D01*
G37*
G36*
X024105Y006326D02*
X024272Y006493D01*
X024717Y006048D01*
X024550Y005881D01*
X024105Y006326D01*
G37*
G36*
X019984Y008664D02*
X020151Y008831D01*
X020596Y008386D01*
X020429Y008219D01*
X019984Y008664D01*
G37*
G36*
X020207Y008887D02*
X020374Y009054D01*
X020819Y008609D01*
X020652Y008442D01*
X020207Y008887D01*
G37*
G36*
X020430Y009109D02*
X020597Y009276D01*
X021042Y008831D01*
X020875Y008664D01*
X020430Y009109D01*
G37*
G36*
X020653Y009332D02*
X020820Y009499D01*
X021265Y009054D01*
X021098Y008887D01*
X020653Y009332D01*
G37*
G36*
X020875Y009555D02*
X021042Y009722D01*
X021487Y009277D01*
X021320Y009110D01*
X020875Y009555D01*
G37*
G36*
X019762Y008441D02*
X019929Y008608D01*
X020374Y008163D01*
X020207Y007996D01*
X019762Y008441D01*
G37*
G36*
X019539Y008219D02*
X019706Y008386D01*
X020151Y007941D01*
X019984Y007774D01*
X019539Y008219D01*
G37*
G36*
X019316Y007996D02*
X019483Y008163D01*
X019928Y007718D01*
X019761Y007551D01*
X019316Y007996D01*
G37*
G36*
X019094Y007773D02*
X019261Y007940D01*
X019706Y007495D01*
X019539Y007328D01*
X019094Y007773D01*
G37*
G36*
X018871Y007550D02*
X019038Y007717D01*
X019483Y007272D01*
X019316Y007105D01*
X018871Y007550D01*
G37*
G36*
X018648Y007328D02*
X018815Y007495D01*
X019260Y007050D01*
X019093Y006883D01*
X018648Y007328D01*
G37*
D29*
X029182Y011188D03*
X030182Y011188D03*
X031182Y011188D03*
X031182Y012188D03*
X030182Y012188D03*
X029182Y012188D03*
D30*
X022411Y012140D03*
X022411Y011235D03*
X020954Y011235D03*
X020954Y012140D03*
D31*
X016432Y008188D03*
X015432Y008188D03*
X015432Y007188D03*
X016432Y007188D03*
X016432Y006188D03*
X015432Y006188D03*
X015432Y005188D03*
X016432Y005188D03*
X016432Y004188D03*
X015432Y004188D03*
X015432Y003188D03*
X016432Y003188D03*
X016432Y002188D03*
X015432Y002188D03*
D32*
X001432Y004097D03*
D33*
X001039Y005406D03*
X001826Y005406D03*
D34*
X011433Y006121D03*
X012181Y006121D03*
X011807Y005255D03*
M02*
