G75*
G70*
%OFA0B0*%
%FSLAX24Y24*%
%IPPOS*%
%LPD*%
%AMOC8*
5,1,8,0,0,1.08239X$1,22.5*
%
%ADD10C,0.0000*%
%ADD11C,0.0320*%
%ADD12R,0.0260X0.0800*%
%ADD13C,0.0600*%
%ADD14R,0.0630X0.0512*%
%ADD15C,0.1580*%
%ADD16C,0.0600*%
%ADD17C,0.0660*%
%ADD18OC8,0.0620*%
%ADD19C,0.0620*%
%ADD20R,0.0512X0.0630*%
%ADD21C,0.0886*%
%ADD22R,0.0236X0.0866*%
%ADD23R,0.0600X0.0600*%
%ADD24C,0.0520*%
%ADD25C,0.0780*%
%ADD26OC8,0.0780*%
%ADD27R,0.0591X0.0197*%
%ADD28R,0.0197X0.0591*%
%ADD29OC8,0.0600*%
%ADD30R,0.0748X0.0433*%
%ADD31OC8,0.0560*%
%ADD32R,0.0591X0.0630*%
%ADD33R,0.0472X0.0472*%
%ADD34R,0.0394X0.0551*%
%ADD35C,0.0160*%
%ADD36C,0.0320*%
%ADD37C,0.0400*%
%ADD38C,0.0240*%
D10*
X000182Y000188D02*
X000182Y019688D01*
X033682Y019688D01*
X034182Y019188D01*
X034182Y000188D01*
X000182Y000188D01*
D11*
X000807Y000938D02*
X000809Y000960D01*
X000815Y000981D01*
X000824Y001000D01*
X000836Y001018D01*
X000852Y001034D01*
X000869Y001046D01*
X000889Y001055D01*
X000910Y001061D01*
X000932Y001063D01*
X000954Y001061D01*
X000975Y001055D01*
X000994Y001046D01*
X001012Y001034D01*
X001028Y001018D01*
X001040Y001000D01*
X001049Y000981D01*
X001055Y000960D01*
X001057Y000938D01*
X001055Y000916D01*
X001049Y000895D01*
X001040Y000876D01*
X001028Y000858D01*
X001012Y000842D01*
X000995Y000830D01*
X000975Y000821D01*
X000954Y000815D01*
X000932Y000813D01*
X000910Y000815D01*
X000889Y000821D01*
X000869Y000830D01*
X000852Y000842D01*
X000836Y000858D01*
X000824Y000875D01*
X000815Y000895D01*
X000809Y000916D01*
X000807Y000938D01*
X001432Y001688D02*
X002432Y001688D01*
X003182Y000938D01*
X004182Y000938D02*
X004182Y001563D01*
X003932Y001813D01*
X003057Y001813D01*
X002808Y002062D01*
X002808Y002438D01*
X001806Y002438D01*
X001807Y002439D01*
X001807Y003188D01*
X001432Y003563D01*
X001432Y004097D01*
X000682Y004688D02*
X000682Y003438D01*
X001057Y003063D01*
X001057Y002439D01*
X001058Y002438D01*
X001058Y002062D01*
X001432Y001688D01*
X000682Y004688D02*
X001039Y005044D01*
X001039Y005406D01*
X001039Y006044D01*
X001432Y006438D01*
X003182Y006438D01*
X003932Y007188D01*
X004682Y007188D01*
X004682Y007169D01*
X004682Y007188D02*
X005932Y007188D01*
X005932Y007813D01*
X006432Y008313D01*
X007807Y008313D01*
X008182Y008688D01*
X005932Y007188D02*
X005932Y006499D01*
X003182Y006438D02*
X003182Y005711D01*
X013182Y003689D02*
X014056Y003689D01*
X014432Y003313D01*
X014432Y001813D01*
X014807Y001438D01*
X016182Y001438D01*
X016432Y001688D01*
X016432Y002188D01*
X017432Y002188D01*
X017682Y002438D01*
X018289Y002438D01*
X018289Y001831D01*
X018682Y001438D01*
X018682Y000938D01*
X025682Y002812D02*
X026682Y002812D01*
X027682Y002812D01*
X028682Y002812D01*
X029682Y002812D01*
X030182Y002812D01*
X030182Y003313D01*
X029932Y003563D01*
X029932Y004228D01*
X031682Y004688D02*
X032182Y005188D01*
X033432Y005188D01*
X031682Y004688D02*
X031682Y002831D01*
X031663Y002812D01*
X030682Y002812D01*
X030182Y002812D01*
X033307Y000938D02*
X033309Y000960D01*
X033315Y000981D01*
X033324Y001000D01*
X033336Y001018D01*
X033352Y001034D01*
X033369Y001046D01*
X033389Y001055D01*
X033410Y001061D01*
X033432Y001063D01*
X033454Y001061D01*
X033475Y001055D01*
X033494Y001046D01*
X033512Y001034D01*
X033528Y001018D01*
X033540Y001000D01*
X033549Y000981D01*
X033555Y000960D01*
X033557Y000938D01*
X033555Y000916D01*
X033549Y000895D01*
X033540Y000876D01*
X033528Y000858D01*
X033512Y000842D01*
X033495Y000830D01*
X033475Y000821D01*
X033454Y000815D01*
X033432Y000813D01*
X033410Y000815D01*
X033389Y000821D01*
X033369Y000830D01*
X033352Y000842D01*
X033336Y000858D01*
X033324Y000875D01*
X033315Y000895D01*
X033309Y000916D01*
X033307Y000938D01*
X015807Y011938D02*
X015683Y011814D01*
X015182Y011814D01*
X014182Y011814D01*
X013808Y011814D01*
X013432Y011438D01*
X015807Y011938D02*
X015807Y012438D01*
X015932Y012563D01*
X016431Y012563D01*
X016432Y012562D01*
X017432Y012562D01*
X002057Y018938D02*
X002059Y018960D01*
X002065Y018981D01*
X002074Y019000D01*
X002086Y019018D01*
X002102Y019034D01*
X002119Y019046D01*
X002139Y019055D01*
X002160Y019061D01*
X002182Y019063D01*
X002204Y019061D01*
X002225Y019055D01*
X002244Y019046D01*
X002262Y019034D01*
X002278Y019018D01*
X002290Y019000D01*
X002299Y018981D01*
X002305Y018960D01*
X002307Y018938D01*
X002305Y018916D01*
X002299Y018895D01*
X002290Y018876D01*
X002278Y018858D01*
X002262Y018842D01*
X002245Y018830D01*
X002225Y018821D01*
X002204Y018815D01*
X002182Y018813D01*
X002160Y018815D01*
X002139Y018821D01*
X002119Y018830D01*
X002102Y018842D01*
X002086Y018858D01*
X002074Y018875D01*
X002065Y018895D01*
X002059Y018916D01*
X002057Y018938D01*
D12*
X026932Y006648D03*
X027432Y006648D03*
X027932Y006648D03*
X028432Y006648D03*
X028932Y006648D03*
X029432Y006648D03*
X029932Y006648D03*
X029932Y004228D03*
X029432Y004228D03*
X028932Y004228D03*
X028432Y004228D03*
X027932Y004228D03*
X027432Y004228D03*
X026932Y004228D03*
D13*
X026682Y000938D03*
X025682Y000938D03*
X024682Y000938D03*
X023682Y000938D03*
X022682Y000938D03*
X020682Y000938D03*
X019682Y000938D03*
X018682Y000938D03*
X013182Y000938D03*
X012182Y000938D03*
X011182Y000938D03*
X010182Y000938D03*
X009182Y000938D03*
X008182Y000938D03*
X007182Y000938D03*
X006182Y000938D03*
X005182Y000938D03*
X004182Y000938D03*
X003182Y000938D03*
X002182Y000938D03*
X001432Y008688D03*
X001432Y009688D03*
X027682Y000938D03*
X028682Y000938D03*
X029682Y000938D03*
X030682Y000938D03*
X031682Y000938D03*
X033432Y003188D03*
X033432Y004188D03*
X033432Y005188D03*
X033432Y006188D03*
X033432Y007188D03*
X033432Y008188D03*
D14*
X031932Y008044D03*
X030932Y008044D03*
X029932Y008044D03*
X028932Y008044D03*
X027932Y008044D03*
X026932Y008044D03*
X026932Y008831D03*
X027932Y008831D03*
X028932Y008831D03*
X029932Y008831D03*
X030932Y008831D03*
X031932Y008831D03*
X032682Y011294D03*
X032682Y012081D03*
X027682Y012062D03*
X027682Y011314D03*
X024557Y010206D03*
X024557Y009419D03*
X023932Y011794D03*
X023932Y012581D03*
X019432Y012581D03*
X018432Y012562D03*
X018432Y011814D03*
X017432Y011814D03*
X017432Y012562D03*
X016432Y012562D03*
X016432Y011814D03*
X015182Y011814D03*
X015182Y012562D03*
X014182Y012562D03*
X014182Y011814D03*
X019432Y011794D03*
X019307Y010206D03*
X019307Y009419D03*
X013182Y006062D03*
X013182Y005314D03*
X013182Y004437D03*
X013182Y003689D03*
X012182Y003689D03*
X012182Y004437D03*
X012182Y002812D03*
X013182Y002831D03*
X013182Y002044D03*
X012182Y002064D03*
X004682Y007169D03*
X004682Y007956D03*
X008682Y010314D03*
X008682Y011062D03*
X021682Y002812D03*
X022682Y002812D03*
X023682Y002812D03*
X024682Y002812D03*
X025682Y002812D03*
X026682Y002812D03*
X027682Y002812D03*
X028682Y002812D03*
X029682Y002812D03*
X030682Y002812D03*
X031682Y002831D03*
X031682Y002044D03*
X030682Y002064D03*
X029682Y002064D03*
X028682Y002064D03*
X027682Y002064D03*
X026682Y002064D03*
X025682Y002064D03*
X024682Y002064D03*
X023682Y002064D03*
X022682Y002064D03*
X021682Y002064D03*
D15*
X027182Y015394D03*
X025332Y016575D03*
X027182Y017756D03*
D16*
X029932Y016188D02*
X029932Y015438D01*
X029932Y016188D02*
X030289Y016544D01*
X030289Y017188D01*
X030289Y017669D01*
X030682Y018063D01*
X030682Y018688D01*
X030682Y018388D02*
X030682Y018988D01*
X031682Y018988D02*
X031682Y018388D01*
X032682Y018388D02*
X032682Y018988D01*
X032682Y018688D02*
X032682Y018063D01*
X033076Y017669D01*
X033076Y017188D01*
X033076Y016544D01*
X033432Y016188D01*
X033432Y015438D01*
D17*
X029182Y013938D03*
X025182Y013938D03*
D18*
X030932Y015438D03*
X032432Y015438D03*
D19*
X033432Y015438D03*
X029932Y015438D03*
D20*
X030289Y017188D03*
X031076Y017188D03*
X032289Y017188D03*
X033076Y017188D03*
X013056Y007063D03*
X012308Y007063D03*
X018289Y004313D03*
X019076Y004313D03*
X019076Y002438D03*
X018289Y002438D03*
X019933Y002438D03*
X020681Y002438D03*
X024789Y003938D03*
X025576Y003938D03*
X003556Y002438D03*
X002808Y002438D03*
X001806Y002438D03*
X001058Y002438D03*
D21*
X000993Y012988D03*
X000993Y015488D03*
X000993Y017988D03*
X007371Y017988D03*
X007371Y015488D03*
X007371Y012988D03*
D22*
X007432Y006499D03*
X006932Y006499D03*
X006432Y006499D03*
X005932Y006499D03*
X004682Y005711D03*
X004182Y005711D03*
X003682Y005711D03*
X003182Y005711D03*
X003182Y003664D03*
X003682Y003664D03*
X004182Y003664D03*
X004682Y003664D03*
X005932Y002877D03*
X006432Y002877D03*
X006932Y002877D03*
X007432Y002877D03*
X007932Y002877D03*
X008432Y002877D03*
X008932Y002877D03*
X009432Y002877D03*
X009432Y006499D03*
X008932Y006499D03*
X008432Y006499D03*
X007932Y006499D03*
D23*
X001432Y007688D03*
X021682Y000938D03*
D24*
X012682Y008668D02*
X012682Y009188D01*
X011682Y009188D02*
X011682Y008668D01*
X010682Y008668D02*
X010682Y009188D01*
X009682Y008928D02*
X009682Y009448D01*
X009682Y011928D02*
X009682Y012448D01*
X010682Y012188D02*
X010682Y012708D01*
X011682Y012708D02*
X011682Y012188D01*
X012682Y012188D02*
X012682Y012708D01*
D25*
X012182Y014598D02*
X012182Y015378D01*
X020182Y015378D02*
X020182Y014598D01*
D26*
X018182Y013988D03*
X017182Y014988D03*
X015182Y014988D03*
X014182Y013988D03*
X010182Y013988D03*
X009182Y014988D03*
X011182Y018988D03*
X013182Y018988D03*
X019182Y018988D03*
X021182Y018988D03*
X023182Y014988D03*
X022182Y013988D03*
D27*
G36*
X021906Y009277D02*
X022322Y009693D01*
X022460Y009555D01*
X022044Y009139D01*
X021906Y009277D01*
G37*
G36*
X022129Y009054D02*
X022545Y009470D01*
X022683Y009332D01*
X022267Y008916D01*
X022129Y009054D01*
G37*
G36*
X022352Y008831D02*
X022768Y009247D01*
X022906Y009109D01*
X022490Y008693D01*
X022352Y008831D01*
G37*
G36*
X022575Y008609D02*
X022991Y009025D01*
X023129Y008887D01*
X022713Y008471D01*
X022575Y008609D01*
G37*
G36*
X022797Y008386D02*
X023213Y008802D01*
X023351Y008664D01*
X022935Y008248D01*
X022797Y008386D01*
G37*
G36*
X023020Y008163D02*
X023436Y008579D01*
X023574Y008441D01*
X023158Y008025D01*
X023020Y008163D01*
G37*
G36*
X023243Y007941D02*
X023659Y008357D01*
X023797Y008219D01*
X023381Y007803D01*
X023243Y007941D01*
G37*
G36*
X023465Y007718D02*
X023881Y008134D01*
X024019Y007996D01*
X023603Y007580D01*
X023465Y007718D01*
G37*
G36*
X023688Y007495D02*
X024104Y007911D01*
X024242Y007773D01*
X023826Y007357D01*
X023688Y007495D01*
G37*
G36*
X023911Y007272D02*
X024327Y007688D01*
X024465Y007550D01*
X024049Y007134D01*
X023911Y007272D01*
G37*
G36*
X024134Y007050D02*
X024550Y007466D01*
X024688Y007328D01*
X024272Y006912D01*
X024134Y007050D01*
G37*
G36*
X020013Y004711D02*
X020429Y005127D01*
X020567Y004989D01*
X020151Y004573D01*
X020013Y004711D01*
G37*
G36*
X019791Y004934D02*
X020207Y005350D01*
X020345Y005212D01*
X019929Y004796D01*
X019791Y004934D01*
G37*
G36*
X019568Y005157D02*
X019984Y005573D01*
X020122Y005435D01*
X019706Y005019D01*
X019568Y005157D01*
G37*
G36*
X019345Y005379D02*
X019761Y005795D01*
X019899Y005657D01*
X019483Y005241D01*
X019345Y005379D01*
G37*
G36*
X019123Y005602D02*
X019539Y006018D01*
X019677Y005880D01*
X019261Y005464D01*
X019123Y005602D01*
G37*
G36*
X018900Y005825D02*
X019316Y006241D01*
X019454Y006103D01*
X019038Y005687D01*
X018900Y005825D01*
G37*
G36*
X018677Y006048D02*
X019093Y006464D01*
X019231Y006326D01*
X018815Y005910D01*
X018677Y006048D01*
G37*
G36*
X020236Y004489D02*
X020652Y004905D01*
X020790Y004767D01*
X020374Y004351D01*
X020236Y004489D01*
G37*
G36*
X020459Y004266D02*
X020875Y004682D01*
X021013Y004544D01*
X020597Y004128D01*
X020459Y004266D01*
G37*
G36*
X020682Y004043D02*
X021098Y004459D01*
X021236Y004321D01*
X020820Y003905D01*
X020682Y004043D01*
G37*
G36*
X020904Y003820D02*
X021320Y004236D01*
X021458Y004098D01*
X021042Y003682D01*
X020904Y003820D01*
G37*
D28*
G36*
X021906Y004098D02*
X022044Y004236D01*
X022460Y003820D01*
X022322Y003682D01*
X021906Y004098D01*
G37*
G36*
X022129Y004321D02*
X022267Y004459D01*
X022683Y004043D01*
X022545Y003905D01*
X022129Y004321D01*
G37*
G36*
X022352Y004544D02*
X022490Y004682D01*
X022906Y004266D01*
X022768Y004128D01*
X022352Y004544D01*
G37*
G36*
X022575Y004767D02*
X022713Y004905D01*
X023129Y004489D01*
X022991Y004351D01*
X022575Y004767D01*
G37*
G36*
X022797Y004989D02*
X022935Y005127D01*
X023351Y004711D01*
X023213Y004573D01*
X022797Y004989D01*
G37*
G36*
X023020Y005212D02*
X023158Y005350D01*
X023574Y004934D01*
X023436Y004796D01*
X023020Y005212D01*
G37*
G36*
X023243Y005435D02*
X023381Y005573D01*
X023797Y005157D01*
X023659Y005019D01*
X023243Y005435D01*
G37*
G36*
X023465Y005657D02*
X023603Y005795D01*
X024019Y005379D01*
X023881Y005241D01*
X023465Y005657D01*
G37*
G36*
X023688Y005880D02*
X023826Y006018D01*
X024242Y005602D01*
X024104Y005464D01*
X023688Y005880D01*
G37*
G36*
X023911Y006103D02*
X024049Y006241D01*
X024465Y005825D01*
X024327Y005687D01*
X023911Y006103D01*
G37*
G36*
X024134Y006326D02*
X024272Y006464D01*
X024688Y006048D01*
X024550Y005910D01*
X024134Y006326D01*
G37*
G36*
X020013Y008664D02*
X020151Y008802D01*
X020567Y008386D01*
X020429Y008248D01*
X020013Y008664D01*
G37*
G36*
X020236Y008887D02*
X020374Y009025D01*
X020790Y008609D01*
X020652Y008471D01*
X020236Y008887D01*
G37*
G36*
X020459Y009109D02*
X020597Y009247D01*
X021013Y008831D01*
X020875Y008693D01*
X020459Y009109D01*
G37*
G36*
X020682Y009332D02*
X020820Y009470D01*
X021236Y009054D01*
X021098Y008916D01*
X020682Y009332D01*
G37*
G36*
X020904Y009555D02*
X021042Y009693D01*
X021458Y009277D01*
X021320Y009139D01*
X020904Y009555D01*
G37*
G36*
X019791Y008441D02*
X019929Y008579D01*
X020345Y008163D01*
X020207Y008025D01*
X019791Y008441D01*
G37*
G36*
X019568Y008219D02*
X019706Y008357D01*
X020122Y007941D01*
X019984Y007803D01*
X019568Y008219D01*
G37*
G36*
X019345Y007996D02*
X019483Y008134D01*
X019899Y007718D01*
X019761Y007580D01*
X019345Y007996D01*
G37*
G36*
X019123Y007773D02*
X019261Y007911D01*
X019677Y007495D01*
X019539Y007357D01*
X019123Y007773D01*
G37*
G36*
X018900Y007550D02*
X019038Y007688D01*
X019454Y007272D01*
X019316Y007134D01*
X018900Y007550D01*
G37*
G36*
X018677Y007328D02*
X018815Y007466D01*
X019231Y007050D01*
X019093Y006912D01*
X018677Y007328D01*
G37*
D29*
X029182Y011188D03*
X030182Y011188D03*
X031182Y011188D03*
X031182Y012188D03*
X030182Y012188D03*
X029182Y012188D03*
D30*
X022411Y012140D03*
X022411Y011235D03*
X020954Y011235D03*
X020954Y012140D03*
D31*
X016432Y008188D03*
X015432Y008188D03*
X015432Y007188D03*
X016432Y007188D03*
X016432Y006188D03*
X015432Y006188D03*
X015432Y005188D03*
X016432Y005188D03*
X016432Y004188D03*
X015432Y004188D03*
X015432Y003188D03*
X016432Y003188D03*
X016432Y002188D03*
X015432Y002188D03*
D32*
X001432Y004097D03*
D33*
X001039Y005406D03*
X001826Y005406D03*
D34*
X011433Y006121D03*
X012181Y006121D03*
X011807Y005255D03*
D35*
X011431Y005310D02*
X010817Y005310D01*
X010817Y005467D02*
X010846Y005495D01*
X010897Y005620D01*
X010897Y005755D01*
X010846Y005880D01*
X010750Y005976D01*
X010625Y006028D01*
X010490Y006028D01*
X010365Y005976D01*
X010269Y005880D01*
X010217Y005755D01*
X010217Y005653D01*
X010115Y005653D01*
X009990Y005601D01*
X009894Y005505D01*
X009842Y005380D01*
X009842Y005278D01*
X009740Y005278D01*
X009692Y005258D01*
X009692Y005953D01*
X009730Y005991D01*
X009730Y007006D01*
X009625Y007112D01*
X009240Y007112D01*
X009182Y007054D01*
X009125Y007112D01*
X008740Y007112D01*
X008682Y007054D01*
X008625Y007112D01*
X008240Y007112D01*
X008182Y007054D01*
X008125Y007112D01*
X007740Y007112D01*
X007682Y007054D01*
X007625Y007112D01*
X007240Y007112D01*
X007192Y007064D01*
X007192Y007330D01*
X007290Y007428D01*
X011872Y007428D01*
X011872Y006673D01*
X011933Y006613D01*
X011928Y006608D01*
X011915Y006576D01*
X011910Y006576D01*
X011805Y006471D01*
X011805Y006441D01*
X011798Y006466D01*
X011774Y006507D01*
X011741Y006540D01*
X011700Y006564D01*
X011654Y006576D01*
X011452Y006576D01*
X011452Y006139D01*
X011415Y006139D01*
X011415Y006102D01*
X011452Y006102D01*
X011452Y005665D01*
X011491Y005665D01*
X011431Y005605D01*
X011431Y004904D01*
X011507Y004828D01*
X011507Y004752D01*
X011553Y004642D01*
X011687Y004507D01*
X011687Y004106D01*
X011731Y004063D01*
X011687Y004019D01*
X011687Y003358D01*
X011793Y003253D01*
X011882Y003253D01*
X011882Y003248D01*
X011793Y003248D01*
X011687Y003142D01*
X011687Y002481D01*
X011731Y002438D01*
X011687Y002394D01*
X011687Y001733D01*
X011793Y001628D01*
X011882Y001628D01*
X011882Y001316D01*
X011775Y001210D01*
X011702Y001033D01*
X011702Y000842D01*
X011775Y000666D01*
X011910Y000531D01*
X012087Y000458D01*
X012278Y000458D01*
X012454Y000531D01*
X012589Y000666D01*
X012662Y000842D01*
X012662Y001033D01*
X012589Y001210D01*
X012482Y001316D01*
X012482Y001628D01*
X012572Y001628D01*
X012677Y001733D01*
X012677Y002394D01*
X012634Y002438D01*
X012677Y002481D01*
X012677Y002512D01*
X012687Y002512D01*
X012687Y002501D01*
X012751Y002438D01*
X012723Y002410D01*
X012700Y002369D01*
X012687Y002324D01*
X012687Y002092D01*
X013134Y002092D01*
X013134Y001996D01*
X012687Y001996D01*
X012687Y001764D01*
X012700Y001719D01*
X012723Y001678D01*
X012757Y001644D01*
X012798Y001620D01*
X012844Y001608D01*
X013134Y001608D01*
X013134Y001996D01*
X013230Y001996D01*
X013230Y001608D01*
X013521Y001608D01*
X013567Y001620D01*
X013608Y001644D01*
X013641Y001678D01*
X013665Y001719D01*
X013677Y001764D01*
X013677Y001996D01*
X013231Y001996D01*
X013231Y002092D01*
X013677Y002092D01*
X013677Y002324D01*
X013665Y002369D01*
X013641Y002410D01*
X013614Y002438D01*
X013677Y002501D01*
X013677Y003162D01*
X013579Y003260D01*
X013668Y003349D01*
X013916Y003349D01*
X014092Y003172D01*
X014092Y001745D01*
X014144Y001620D01*
X014240Y001524D01*
X014615Y001149D01*
X014740Y001098D01*
X014875Y001098D01*
X016250Y001098D01*
X016375Y001149D01*
X016471Y001245D01*
X016625Y001399D01*
X016721Y001495D01*
X016772Y001620D01*
X016772Y001848D01*
X017500Y001848D01*
X017625Y001899D01*
X017721Y001995D01*
X017823Y002098D01*
X017853Y002098D01*
X017853Y002048D01*
X017949Y001952D01*
X017949Y001899D01*
X017949Y001764D01*
X018000Y001639D01*
X018342Y001297D01*
X018342Y001277D01*
X018275Y001210D01*
X018202Y001033D01*
X018202Y000842D01*
X018275Y000666D01*
X018410Y000531D01*
X018587Y000458D01*
X018778Y000458D01*
X018954Y000531D01*
X019089Y000666D01*
X019162Y000842D01*
X019162Y001033D01*
X019089Y001210D01*
X019022Y001277D01*
X019022Y001370D01*
X019022Y001505D01*
X019422Y001505D01*
X019422Y001511D02*
X019422Y001350D01*
X019410Y001345D01*
X019275Y001210D01*
X019202Y001033D01*
X019202Y000842D01*
X019275Y000666D01*
X019410Y000531D01*
X019587Y000458D01*
X019778Y000458D01*
X019954Y000531D01*
X020089Y000666D01*
X020162Y000842D01*
X020162Y001033D01*
X020089Y001210D01*
X019954Y001345D01*
X019942Y001350D01*
X019942Y001455D01*
X020080Y001592D01*
X020153Y001665D01*
X020192Y001761D01*
X020192Y001943D01*
X020264Y001943D01*
X020307Y001986D01*
X020315Y001979D01*
X020356Y001955D01*
X020402Y001943D01*
X020633Y001943D01*
X020633Y002389D01*
X020729Y002389D01*
X020729Y001943D01*
X020961Y001943D01*
X021007Y001955D01*
X021048Y001979D01*
X021081Y002012D01*
X021105Y002053D01*
X021117Y002099D01*
X021117Y002390D01*
X020730Y002390D01*
X020730Y002486D01*
X021117Y002486D01*
X021117Y002776D01*
X021105Y002822D01*
X021081Y002863D01*
X021048Y002897D01*
X021007Y002920D01*
X020961Y002933D01*
X020729Y002933D01*
X020729Y002486D01*
X020633Y002486D01*
X020633Y002933D01*
X020522Y002933D01*
X021091Y003501D01*
X021117Y003501D01*
X021640Y004024D01*
X021640Y004173D01*
X021395Y004418D01*
X021172Y004641D01*
X020950Y004863D01*
X020727Y005086D01*
X020727Y005086D01*
X020504Y005309D01*
X020498Y005309D01*
X020490Y005323D01*
X020404Y005409D01*
X020068Y005073D01*
X020068Y005073D01*
X020404Y005409D01*
X020365Y005448D01*
X020475Y005558D01*
X020508Y005558D01*
X020648Y005616D01*
X020754Y005722D01*
X020812Y005862D01*
X020812Y006013D01*
X020754Y006153D01*
X020648Y006260D01*
X020508Y006318D01*
X020357Y006318D01*
X020217Y006260D01*
X020110Y006153D01*
X020052Y006013D01*
X020052Y005871D01*
X019997Y005816D01*
X019836Y005977D01*
X019613Y006200D01*
X019391Y006422D01*
X019168Y006645D01*
X019019Y006645D01*
X018941Y006567D01*
X017600Y007908D01*
X017553Y007928D01*
X017847Y007928D01*
X018496Y007279D01*
X018496Y007253D01*
X019019Y006730D01*
X019168Y006730D01*
X019412Y006975D01*
X019635Y007198D01*
X019858Y007420D01*
X020081Y007643D01*
X020081Y007649D01*
X020095Y007657D01*
X020181Y007743D01*
X019845Y008079D01*
X019845Y008079D01*
X020181Y007744D01*
X020192Y007754D01*
X020427Y007518D01*
X020427Y007487D01*
X020485Y007347D01*
X020592Y007241D01*
X020732Y007183D01*
X020883Y007183D01*
X021023Y007241D01*
X021129Y007347D01*
X021187Y007487D01*
X021187Y007638D01*
X021129Y007778D01*
X021023Y007885D01*
X020883Y007943D01*
X020852Y007943D01*
X020791Y008003D01*
X020865Y007973D01*
X021000Y007973D01*
X021125Y008024D01*
X021221Y008120D01*
X021268Y008234D01*
X021285Y008217D01*
X023035Y006467D01*
X023131Y006428D01*
X023234Y006428D01*
X023980Y006428D01*
X023952Y006400D01*
X023729Y006178D01*
X023507Y005955D01*
X023284Y005732D01*
X023061Y005509D01*
X023061Y005504D01*
X023047Y005495D01*
X022961Y005409D01*
X022950Y005398D01*
X022796Y005553D01*
X022754Y005653D01*
X022648Y005760D01*
X022508Y005818D01*
X022357Y005818D01*
X022217Y005760D01*
X022110Y005653D01*
X022052Y005513D01*
X022052Y005362D01*
X022110Y005222D01*
X022217Y005116D01*
X022357Y005058D01*
X022443Y005058D01*
X022526Y004974D01*
X022393Y004841D01*
X022192Y004641D01*
X021948Y004396D01*
X021725Y004173D01*
X021725Y004024D01*
X021803Y003946D01*
X021462Y003606D01*
X021422Y003510D01*
X021422Y003407D01*
X021422Y003248D01*
X021293Y003248D01*
X021187Y003142D01*
X021187Y002481D01*
X021231Y002438D01*
X021187Y002394D01*
X021187Y001733D01*
X021293Y001628D01*
X021422Y001628D01*
X021422Y001418D01*
X021308Y001418D01*
X021202Y001312D01*
X021202Y000563D01*
X021308Y000458D01*
X022057Y000458D01*
X022162Y000563D01*
X022162Y001312D01*
X022057Y001418D01*
X021942Y001418D01*
X021942Y001628D01*
X022072Y001628D01*
X022177Y001733D01*
X022177Y002394D01*
X022134Y002438D01*
X022177Y002481D01*
X022177Y003142D01*
X022072Y003248D01*
X021942Y003248D01*
X021942Y003351D01*
X022170Y003579D01*
X022248Y003501D01*
X022397Y003501D01*
X022422Y003526D01*
X022422Y003248D01*
X022293Y003248D01*
X022187Y003142D01*
X022187Y002481D01*
X022231Y002438D01*
X022187Y002394D01*
X022187Y001733D01*
X022293Y001628D01*
X022422Y001628D01*
X022422Y001350D01*
X022410Y001345D01*
X022275Y001210D01*
X022202Y001033D01*
X022202Y000842D01*
X022275Y000666D01*
X022410Y000531D01*
X022587Y000458D01*
X022778Y000458D01*
X022954Y000531D01*
X023089Y000666D01*
X023162Y000842D01*
X023162Y001033D01*
X023089Y001210D01*
X022954Y001345D01*
X022942Y001350D01*
X022942Y001628D01*
X023072Y001628D01*
X023177Y001733D01*
X023177Y002394D01*
X023134Y002438D01*
X023177Y002481D01*
X023177Y003142D01*
X023072Y003248D01*
X022942Y003248D01*
X022942Y003724D01*
X023419Y003248D01*
X023293Y003248D01*
X023187Y003142D01*
X023187Y002481D01*
X023231Y002438D01*
X023187Y002394D01*
X023187Y001733D01*
X023293Y001628D01*
X023422Y001628D01*
X023422Y001350D01*
X023410Y001345D01*
X023275Y001210D01*
X023202Y001033D01*
X023202Y000842D01*
X023275Y000666D01*
X023410Y000531D01*
X023587Y000458D01*
X023778Y000458D01*
X023954Y000531D01*
X024089Y000666D01*
X024162Y000842D01*
X024162Y001033D01*
X024089Y001210D01*
X023954Y001345D01*
X023942Y001350D01*
X023942Y001628D01*
X024072Y001628D01*
X024177Y001733D01*
X024177Y002394D01*
X024134Y002438D01*
X024177Y002481D01*
X024177Y002934D01*
X024187Y002924D01*
X024187Y002481D01*
X024231Y002438D01*
X024187Y002394D01*
X024187Y001733D01*
X024293Y001628D01*
X024422Y001628D01*
X024422Y001350D01*
X024410Y001345D01*
X024275Y001210D01*
X024202Y001033D01*
X024202Y000842D01*
X024275Y000666D01*
X024410Y000531D01*
X024587Y000458D01*
X024778Y000458D01*
X024954Y000531D01*
X025089Y000666D01*
X025162Y000842D01*
X025162Y001033D01*
X025089Y001210D01*
X024954Y001345D01*
X024942Y001350D01*
X024942Y001628D01*
X025072Y001628D01*
X025177Y001733D01*
X025177Y002394D01*
X025134Y002438D01*
X025177Y002481D01*
X025177Y003142D01*
X025072Y003248D01*
X024599Y003248D01*
X024169Y003678D01*
X024353Y003678D01*
X024353Y003548D01*
X024458Y003443D01*
X025119Y003443D01*
X025182Y003506D01*
X025210Y003479D01*
X025251Y003455D01*
X025296Y003443D01*
X025528Y003443D01*
X025528Y003889D01*
X025624Y003889D01*
X025624Y003443D01*
X025856Y003443D01*
X025901Y003455D01*
X025942Y003479D01*
X025976Y003512D01*
X026000Y003553D01*
X026012Y003599D01*
X026012Y003890D01*
X025624Y003890D01*
X025624Y003986D01*
X025528Y003986D01*
X025528Y004433D01*
X025296Y004433D01*
X025251Y004420D01*
X025210Y004397D01*
X025182Y004369D01*
X025119Y004433D01*
X024458Y004433D01*
X024353Y004327D01*
X024353Y004198D01*
X024095Y004198D01*
X023594Y004698D01*
X023633Y004737D01*
X023672Y004776D01*
X023855Y004592D01*
X023951Y004553D01*
X024054Y004553D01*
X026622Y004553D01*
X026622Y003753D01*
X026728Y003648D01*
X027137Y003648D01*
X027172Y003683D01*
X027172Y003659D01*
X027144Y003630D01*
X027092Y003505D01*
X027092Y003370D01*
X027144Y003245D01*
X027217Y003172D01*
X027197Y003152D01*
X027168Y003152D01*
X027072Y003248D01*
X026293Y003248D01*
X026197Y003152D01*
X026168Y003152D01*
X026072Y003248D01*
X025293Y003248D01*
X025187Y003142D01*
X025187Y002481D01*
X025231Y002438D01*
X025187Y002394D01*
X025187Y001733D01*
X025293Y001628D01*
X025422Y001628D01*
X025422Y001350D01*
X025410Y001345D01*
X025275Y001210D01*
X025202Y001033D01*
X025202Y000842D01*
X025275Y000666D01*
X025410Y000531D01*
X025587Y000458D01*
X025778Y000458D01*
X025954Y000531D01*
X026089Y000666D01*
X026162Y000842D01*
X026162Y001033D01*
X026089Y001210D01*
X025954Y001345D01*
X025942Y001350D01*
X025942Y001628D01*
X026072Y001628D01*
X026177Y001733D01*
X026177Y002394D01*
X026134Y002438D01*
X026168Y002472D01*
X026197Y002472D01*
X026231Y002438D01*
X026187Y002394D01*
X026187Y001733D01*
X026293Y001628D01*
X026422Y001628D01*
X026422Y001350D01*
X026410Y001345D01*
X026275Y001210D01*
X026202Y001033D01*
X026202Y000842D01*
X026275Y000666D01*
X026410Y000531D01*
X026587Y000458D01*
X026778Y000458D01*
X026954Y000531D01*
X027089Y000666D01*
X027162Y000842D01*
X027162Y001033D01*
X027089Y001210D01*
X026954Y001345D01*
X026942Y001350D01*
X026942Y001628D01*
X027072Y001628D01*
X027177Y001733D01*
X027177Y002394D01*
X027134Y002438D01*
X027168Y002472D01*
X027197Y002472D01*
X027231Y002438D01*
X027187Y002394D01*
X027187Y001733D01*
X027293Y001628D01*
X027422Y001628D01*
X027422Y001350D01*
X027410Y001345D01*
X027275Y001210D01*
X027202Y001033D01*
X027202Y000842D01*
X027275Y000666D01*
X027410Y000531D01*
X027587Y000458D01*
X027778Y000458D01*
X027954Y000531D01*
X028089Y000666D01*
X028162Y000842D01*
X028162Y001033D01*
X028089Y001210D01*
X027954Y001345D01*
X027942Y001350D01*
X027942Y001628D01*
X028072Y001628D01*
X028177Y001733D01*
X028177Y002394D01*
X028134Y002438D01*
X028168Y002472D01*
X028197Y002472D01*
X028231Y002438D01*
X028187Y002394D01*
X028187Y001733D01*
X028293Y001628D01*
X028422Y001628D01*
X028422Y001350D01*
X028410Y001345D01*
X028275Y001210D01*
X028202Y001033D01*
X028202Y000842D01*
X028275Y000666D01*
X028410Y000531D01*
X028587Y000458D01*
X028778Y000458D01*
X028954Y000531D01*
X029089Y000666D01*
X029162Y000842D01*
X029162Y001033D01*
X029089Y001210D01*
X028954Y001345D01*
X028942Y001350D01*
X028942Y001628D01*
X029072Y001628D01*
X029177Y001733D01*
X029177Y002394D01*
X029134Y002438D01*
X029168Y002472D01*
X029197Y002472D01*
X029231Y002438D01*
X029187Y002394D01*
X029187Y001733D01*
X029293Y001628D01*
X029422Y001628D01*
X029422Y001350D01*
X029410Y001345D01*
X029275Y001210D01*
X029202Y001033D01*
X029202Y000842D01*
X029275Y000666D01*
X029410Y000531D01*
X029587Y000458D01*
X029778Y000458D01*
X029954Y000531D01*
X030089Y000666D01*
X030162Y000842D01*
X030162Y001033D01*
X030089Y001210D01*
X029954Y001345D01*
X029942Y001350D01*
X029942Y001628D01*
X030072Y001628D01*
X030177Y001733D01*
X030177Y002394D01*
X030134Y002438D01*
X030168Y002472D01*
X030197Y002472D01*
X030231Y002438D01*
X030187Y002394D01*
X030187Y001733D01*
X030293Y001628D01*
X030422Y001628D01*
X030422Y001350D01*
X030410Y001345D01*
X030275Y001210D01*
X030202Y001033D01*
X030202Y000842D01*
X030275Y000666D01*
X030410Y000531D01*
X030587Y000458D01*
X030778Y000458D01*
X030954Y000531D01*
X031089Y000666D01*
X031162Y000842D01*
X031162Y001033D01*
X031089Y001210D01*
X030954Y001345D01*
X030942Y001350D01*
X030942Y001628D01*
X031072Y001628D01*
X031177Y001733D01*
X031177Y002394D01*
X031134Y002438D01*
X031168Y002472D01*
X031217Y002472D01*
X031251Y002438D01*
X031223Y002410D01*
X031200Y002369D01*
X031187Y002324D01*
X031187Y002092D01*
X031634Y002092D01*
X031634Y001996D01*
X031187Y001996D01*
X031187Y001764D01*
X031200Y001719D01*
X031223Y001678D01*
X031257Y001644D01*
X031298Y001620D01*
X031344Y001608D01*
X031634Y001608D01*
X031634Y001996D01*
X031730Y001996D01*
X031730Y001608D01*
X032021Y001608D01*
X032067Y001620D01*
X032108Y001644D01*
X032141Y001678D01*
X032165Y001719D01*
X032177Y001764D01*
X032177Y001996D01*
X031731Y001996D01*
X031731Y002092D01*
X032177Y002092D01*
X032177Y002324D01*
X032165Y002369D01*
X032141Y002410D01*
X032114Y002438D01*
X032177Y002501D01*
X032177Y003162D01*
X032072Y003267D01*
X032022Y003267D01*
X032022Y004547D01*
X032323Y004848D01*
X033094Y004848D01*
X033160Y004781D01*
X033337Y004708D01*
X033528Y004708D01*
X033704Y004781D01*
X033839Y004916D01*
X033912Y005092D01*
X033912Y005283D01*
X033839Y005460D01*
X033704Y005595D01*
X033528Y005668D01*
X033337Y005668D01*
X033160Y005595D01*
X033094Y005528D01*
X032250Y005528D01*
X032115Y005528D01*
X031990Y005476D01*
X031394Y004880D01*
X031342Y004755D01*
X031342Y004620D01*
X031342Y003267D01*
X031293Y003267D01*
X031187Y003162D01*
X031187Y003152D01*
X031168Y003152D01*
X031072Y003248D01*
X030522Y003248D01*
X030522Y003380D01*
X030471Y003505D01*
X030375Y003601D01*
X030272Y003704D01*
X030272Y004295D01*
X030242Y004368D01*
X030242Y004702D01*
X030137Y004808D01*
X029728Y004808D01*
X029692Y004772D01*
X029692Y005080D01*
X029790Y005178D01*
X030234Y005178D01*
X030330Y005217D01*
X030403Y005290D01*
X030653Y005540D01*
X030692Y005636D01*
X030692Y005739D01*
X030692Y006705D01*
X030790Y006803D01*
X031734Y006803D01*
X031830Y006842D01*
X031903Y006915D01*
X032153Y007165D01*
X032192Y007261D01*
X032192Y007364D01*
X032192Y007608D01*
X032297Y007608D01*
X032297Y006614D01*
X032297Y006511D01*
X032337Y006415D01*
X032712Y006040D01*
X032785Y005967D01*
X032881Y005928D01*
X033021Y005928D01*
X033025Y005916D01*
X033160Y005781D01*
X033337Y005708D01*
X033528Y005708D01*
X033704Y005781D01*
X033839Y005916D01*
X033912Y006092D01*
X033912Y006283D01*
X033839Y006460D01*
X033704Y006595D01*
X033528Y006668D01*
X033337Y006668D01*
X033160Y006595D01*
X033027Y006461D01*
X032817Y006670D01*
X032817Y007060D01*
X032837Y007040D01*
X032910Y006967D01*
X033006Y006928D01*
X033021Y006928D01*
X033025Y006916D01*
X033160Y006781D01*
X033337Y006708D01*
X033528Y006708D01*
X033704Y006781D01*
X033839Y006916D01*
X033912Y007092D01*
X033912Y007283D01*
X033839Y007460D01*
X033704Y007595D01*
X033528Y007668D01*
X033337Y007668D01*
X033160Y007595D01*
X033089Y007523D01*
X033067Y007545D01*
X033067Y007874D01*
X033160Y007781D01*
X033337Y007708D01*
X033528Y007708D01*
X033704Y007781D01*
X033839Y007916D01*
X033912Y008092D01*
X033912Y008283D01*
X033839Y008460D01*
X033704Y008595D01*
X033528Y008668D01*
X033337Y008668D01*
X033325Y008663D01*
X033317Y008670D01*
X033317Y009261D01*
X033317Y009364D01*
X033278Y009460D01*
X032942Y009795D01*
X032942Y010858D01*
X033072Y010858D01*
X033177Y010964D01*
X033177Y011624D01*
X033114Y011688D01*
X033177Y011751D01*
X033177Y012412D01*
X033072Y012517D01*
X032931Y012517D01*
X032903Y012585D01*
X032772Y012715D01*
X032772Y012755D01*
X032721Y012880D01*
X032625Y012976D01*
X032500Y013028D01*
X032365Y013028D01*
X032240Y012976D01*
X032144Y012880D01*
X032092Y012755D01*
X032092Y012620D01*
X032144Y012495D01*
X032207Y012432D01*
X032187Y012412D01*
X032187Y011751D01*
X032251Y011688D01*
X032187Y011624D01*
X032187Y010964D01*
X032293Y010858D01*
X032422Y010858D01*
X032422Y009823D01*
X032381Y009823D01*
X030503Y009823D01*
X030522Y009870D01*
X030522Y010005D01*
X030471Y010130D01*
X030423Y010178D01*
X030484Y010178D01*
X030580Y010217D01*
X030830Y010467D01*
X030903Y010540D01*
X030942Y010636D01*
X030942Y010749D01*
X030984Y010708D01*
X031381Y010708D01*
X031662Y010989D01*
X031662Y011300D01*
X031903Y011540D01*
X031942Y011636D01*
X031942Y011739D01*
X031942Y012489D01*
X031903Y012585D01*
X031830Y012658D01*
X031580Y012908D01*
X031484Y012948D01*
X031381Y012948D01*
X028631Y012948D01*
X028535Y012908D01*
X028462Y012835D01*
X028409Y012782D01*
X028336Y012709D01*
X028296Y012613D01*
X028296Y012510D01*
X028297Y012508D01*
X028297Y012322D01*
X028177Y012322D01*
X028177Y012392D01*
X028072Y012498D01*
X027293Y012498D01*
X027187Y012392D01*
X027187Y011731D01*
X027231Y011688D01*
X027187Y011644D01*
X027187Y011573D01*
X027131Y011573D01*
X027035Y011533D01*
X026962Y011460D01*
X026700Y011198D01*
X026006Y011198D01*
X025910Y011158D01*
X025837Y011085D01*
X025212Y010460D01*
X025172Y010364D01*
X025172Y010261D01*
X025172Y008795D01*
X025075Y008698D01*
X024505Y008698D01*
X024778Y008970D01*
X024783Y008983D01*
X024947Y008983D01*
X025052Y009089D01*
X025052Y009749D01*
X024989Y009813D01*
X025016Y009840D01*
X025040Y009881D01*
X025052Y009927D01*
X025052Y010158D01*
X024606Y010158D01*
X024606Y010254D01*
X025052Y010254D01*
X025052Y010486D01*
X025040Y010532D01*
X025016Y010573D01*
X024983Y010606D01*
X024942Y010630D01*
X024896Y010642D01*
X024605Y010642D01*
X024605Y010255D01*
X024509Y010255D01*
X024509Y010642D01*
X024219Y010642D01*
X024173Y010630D01*
X024132Y010606D01*
X024098Y010573D01*
X024075Y010532D01*
X024062Y010486D01*
X024062Y010254D01*
X024509Y010254D01*
X024509Y010158D01*
X024062Y010158D01*
X024062Y009927D01*
X024075Y009881D01*
X024098Y009840D01*
X024126Y009813D01*
X024062Y009749D01*
X024062Y009089D01*
X024112Y009039D01*
X023672Y008599D01*
X023633Y008638D01*
X023297Y008302D01*
X023297Y008303D01*
X023633Y008639D01*
X023594Y008677D01*
X023903Y008986D01*
X023942Y009081D01*
X023942Y009185D01*
X023942Y010364D01*
X023903Y010460D01*
X023830Y010533D01*
X023567Y010795D01*
X023567Y011358D01*
X024322Y011358D01*
X024427Y011464D01*
X024427Y012124D01*
X024364Y012188D01*
X024391Y012215D01*
X024415Y012256D01*
X024427Y012302D01*
X024427Y012533D01*
X023981Y012533D01*
X023981Y012629D01*
X024427Y012629D01*
X024427Y012861D01*
X024415Y012907D01*
X024391Y012948D01*
X024358Y012981D01*
X024317Y013005D01*
X024271Y013017D01*
X023980Y013017D01*
X023980Y012630D01*
X023884Y012630D01*
X023884Y013017D01*
X023594Y013017D01*
X023548Y013005D01*
X023507Y012981D01*
X023473Y012948D01*
X023450Y012907D01*
X023437Y012861D01*
X023437Y012629D01*
X023884Y012629D01*
X023884Y012533D01*
X023437Y012533D01*
X023437Y012302D01*
X023450Y012256D01*
X023473Y012215D01*
X023501Y012188D01*
X023437Y012124D01*
X023437Y012054D01*
X023434Y012054D01*
X023127Y012361D01*
X023031Y012400D01*
X022965Y012400D01*
X022965Y012432D01*
X022859Y012537D01*
X021962Y012537D01*
X021857Y012432D01*
X021857Y011948D01*
X021609Y011948D01*
X021508Y011948D01*
X021508Y012432D01*
X021403Y012537D01*
X020505Y012537D01*
X020400Y012432D01*
X020400Y011849D01*
X020505Y011744D01*
X021246Y011744D01*
X021133Y011631D01*
X020505Y011631D01*
X020400Y011526D01*
X020400Y011495D01*
X019927Y011495D01*
X019927Y012124D01*
X019864Y012188D01*
X019891Y012215D01*
X019915Y012256D01*
X019927Y012302D01*
X019927Y012533D01*
X019481Y012533D01*
X019481Y012629D01*
X019927Y012629D01*
X019927Y012861D01*
X019915Y012907D01*
X019903Y012928D01*
X021434Y012928D01*
X021530Y012967D01*
X021603Y013040D01*
X021980Y013418D01*
X022418Y013418D01*
X022752Y013752D01*
X022752Y014224D01*
X022418Y014558D01*
X021946Y014558D01*
X021612Y014224D01*
X021612Y013785D01*
X021275Y013448D01*
X018734Y013448D01*
X018631Y013448D01*
X018535Y013408D01*
X018212Y013085D01*
X018176Y012998D01*
X018043Y012998D01*
X017937Y012892D01*
X017937Y012231D01*
X017981Y012188D01*
X017937Y012144D01*
X017937Y011483D01*
X018043Y011378D01*
X018176Y011378D01*
X018212Y011290D01*
X018837Y010665D01*
X018891Y010612D01*
X018882Y010606D01*
X018848Y010573D01*
X018825Y010532D01*
X018812Y010486D01*
X018812Y010254D01*
X019259Y010254D01*
X019259Y010158D01*
X018812Y010158D01*
X018812Y009927D01*
X018825Y009881D01*
X018848Y009840D01*
X018876Y009813D01*
X018812Y009749D01*
X018812Y009089D01*
X018918Y008983D01*
X019059Y008983D01*
X019087Y008915D01*
X019548Y008455D01*
X019509Y008416D01*
X019845Y008080D01*
X019844Y008080D01*
X019509Y008416D01*
X019470Y008377D01*
X018692Y009155D01*
X018692Y010386D01*
X018692Y010489D01*
X018653Y010585D01*
X018022Y011215D01*
X018022Y011255D01*
X017971Y011380D01*
X017897Y011453D01*
X017927Y011483D01*
X017927Y012144D01*
X017884Y012188D01*
X017927Y012231D01*
X017927Y012892D01*
X017822Y012998D01*
X017043Y012998D01*
X016947Y012902D01*
X016918Y012902D01*
X016822Y012998D01*
X016043Y012998D01*
X015948Y012903D01*
X015865Y012903D01*
X015740Y012851D01*
X015677Y012788D01*
X015677Y012892D01*
X015572Y012998D01*
X015442Y012998D01*
X015442Y013080D01*
X015540Y013178D01*
X017581Y013178D01*
X017684Y013178D01*
X017780Y013217D01*
X017980Y013418D01*
X018418Y013418D01*
X018752Y013752D01*
X018752Y014224D01*
X018418Y014558D01*
X017946Y014558D01*
X017612Y014224D01*
X017612Y013785D01*
X017525Y013698D01*
X015381Y013698D01*
X015285Y013658D01*
X015212Y013585D01*
X014962Y013335D01*
X014922Y013239D01*
X014922Y013136D01*
X014922Y012998D01*
X014793Y012998D01*
X014687Y012892D01*
X014687Y012231D01*
X014731Y012188D01*
X014697Y012154D01*
X014668Y012154D01*
X014634Y012188D01*
X014677Y012231D01*
X014677Y012892D01*
X014572Y012998D01*
X013793Y012998D01*
X013687Y012892D01*
X013687Y012862D01*
X013616Y012862D01*
X013497Y012862D01*
X013386Y012816D01*
X013122Y012552D01*
X013122Y012795D01*
X013055Y012957D01*
X012932Y013081D01*
X012770Y013148D01*
X012595Y013148D01*
X012433Y013081D01*
X012309Y012957D01*
X012242Y012795D01*
X012242Y012100D01*
X012309Y011938D01*
X012433Y011815D01*
X012595Y011748D01*
X012770Y011748D01*
X012932Y011815D01*
X013005Y011888D01*
X013242Y011888D01*
X013352Y011933D01*
X013437Y012018D01*
X013681Y012262D01*
X013687Y012262D01*
X013687Y012231D01*
X013731Y012188D01*
X013687Y012144D01*
X013687Y012132D01*
X013616Y012102D01*
X013144Y011630D01*
X013092Y011505D01*
X013092Y011370D01*
X013144Y011245D01*
X013240Y011149D01*
X013365Y011098D01*
X013500Y011098D01*
X013625Y011149D01*
X013853Y011378D01*
X014572Y011378D01*
X014668Y011474D01*
X014697Y011474D01*
X014793Y011378D01*
X015572Y011378D01*
X015668Y011474D01*
X015751Y011474D01*
X015876Y011525D01*
X015937Y011587D01*
X015937Y011483D01*
X016043Y011378D01*
X016172Y011378D01*
X016172Y011295D01*
X016075Y011198D01*
X014131Y011198D01*
X014035Y011158D01*
X013962Y011085D01*
X013410Y010533D01*
X013337Y010460D01*
X013297Y010364D01*
X013297Y008545D01*
X012950Y008198D01*
X008173Y008198D01*
X008471Y008495D01*
X008522Y008620D01*
X008522Y008755D01*
X008471Y008880D01*
X008375Y008976D01*
X008250Y009028D01*
X008115Y009028D01*
X007990Y008976D01*
X007667Y008653D01*
X006365Y008653D01*
X006240Y008601D01*
X006144Y008505D01*
X005644Y008005D01*
X005592Y007880D01*
X005592Y007745D01*
X005592Y007528D01*
X005149Y007528D01*
X005114Y007563D01*
X005141Y007590D01*
X005165Y007631D01*
X005177Y007677D01*
X005177Y007908D01*
X004731Y007908D01*
X004731Y008004D01*
X005177Y008004D01*
X005177Y008236D01*
X005165Y008282D01*
X005141Y008323D01*
X005108Y008356D01*
X005067Y008380D01*
X005021Y008392D01*
X004730Y008392D01*
X004730Y008005D01*
X004634Y008005D01*
X004634Y008392D01*
X004344Y008392D01*
X004298Y008380D01*
X004257Y008356D01*
X004223Y008323D01*
X004200Y008282D01*
X004187Y008236D01*
X004187Y008004D01*
X004634Y008004D01*
X004634Y007908D01*
X004187Y007908D01*
X004187Y007677D01*
X004200Y007631D01*
X004223Y007590D01*
X004251Y007563D01*
X004216Y007528D01*
X003865Y007528D01*
X003740Y007476D01*
X003644Y007380D01*
X003042Y006778D01*
X001365Y006778D01*
X001240Y006726D01*
X001144Y006630D01*
X000750Y006237D01*
X000699Y006112D01*
X000699Y005976D01*
X000699Y005793D01*
X000622Y005717D01*
X000622Y005109D01*
X000490Y004976D01*
X000490Y004976D01*
X000394Y004880D01*
X000362Y004803D01*
X000362Y019508D01*
X010896Y019508D01*
X010612Y019224D01*
X010612Y019038D01*
X011132Y019038D01*
X011132Y018938D01*
X010612Y018938D01*
X010612Y018752D01*
X010946Y018418D01*
X011132Y018418D01*
X011132Y018937D01*
X011232Y018937D01*
X011232Y018418D01*
X011418Y018418D01*
X011752Y018752D01*
X011752Y018938D01*
X011233Y018938D01*
X011233Y019038D01*
X011752Y019038D01*
X011752Y019224D01*
X011468Y019508D01*
X012896Y019508D01*
X012612Y019224D01*
X012612Y019038D01*
X013132Y019038D01*
X013132Y018938D01*
X012612Y018938D01*
X012612Y018752D01*
X012946Y018418D01*
X013132Y018418D01*
X013132Y018937D01*
X013232Y018937D01*
X013232Y018418D01*
X013418Y018418D01*
X013752Y018752D01*
X013752Y018938D01*
X013233Y018938D01*
X013233Y019038D01*
X013752Y019038D01*
X013752Y019224D01*
X013468Y019508D01*
X018896Y019508D01*
X018612Y019224D01*
X018612Y019038D01*
X019132Y019038D01*
X019132Y018938D01*
X018612Y018938D01*
X018612Y018752D01*
X018946Y018418D01*
X019132Y018418D01*
X019132Y018937D01*
X019232Y018937D01*
X019232Y018418D01*
X019418Y018418D01*
X019752Y018752D01*
X019752Y018938D01*
X019233Y018938D01*
X019233Y019038D01*
X019752Y019038D01*
X019752Y019224D01*
X019468Y019508D01*
X020896Y019508D01*
X020612Y019224D01*
X020612Y019038D01*
X021132Y019038D01*
X021132Y018938D01*
X020612Y018938D01*
X020612Y018752D01*
X020946Y018418D01*
X021132Y018418D01*
X021132Y018937D01*
X021232Y018937D01*
X021232Y018418D01*
X021418Y018418D01*
X021752Y018752D01*
X021752Y018938D01*
X021233Y018938D01*
X021233Y019038D01*
X021752Y019038D01*
X021752Y019224D01*
X021468Y019508D01*
X033608Y019508D01*
X034002Y019113D01*
X034002Y000368D01*
X000362Y000368D01*
X000362Y003322D01*
X000394Y003245D01*
X000717Y002922D01*
X000622Y002827D01*
X000622Y002048D01*
X000728Y001943D01*
X000740Y001943D01*
X000770Y001869D01*
X001144Y001495D01*
X001240Y001399D01*
X001365Y001348D01*
X001930Y001348D01*
X001870Y001304D01*
X001816Y001250D01*
X001772Y001189D01*
X001738Y001122D01*
X001714Y001050D01*
X001702Y000975D01*
X001702Y000958D01*
X002162Y000958D01*
X002162Y000918D01*
X001702Y000918D01*
X001702Y000900D01*
X001714Y000825D01*
X001738Y000753D01*
X001772Y000686D01*
X001816Y000625D01*
X001870Y000572D01*
X001931Y000527D01*
X001998Y000493D01*
X002070Y000470D01*
X002145Y000458D01*
X002162Y000458D01*
X002162Y000917D01*
X002202Y000917D01*
X002202Y000458D01*
X002220Y000458D01*
X002295Y000470D01*
X002367Y000493D01*
X002434Y000527D01*
X002495Y000572D01*
X002548Y000625D01*
X002593Y000686D01*
X002627Y000753D01*
X002651Y000825D01*
X002662Y000900D01*
X002662Y000918D01*
X002203Y000918D01*
X002203Y000958D01*
X002662Y000958D01*
X002662Y000975D01*
X002662Y000977D01*
X002702Y000937D01*
X002702Y000842D01*
X002775Y000666D01*
X002910Y000531D01*
X003087Y000458D01*
X003278Y000458D01*
X003454Y000531D01*
X003589Y000666D01*
X003662Y000842D01*
X003662Y001033D01*
X003589Y001210D01*
X003454Y001345D01*
X003278Y001418D01*
X003183Y001418D01*
X003128Y001473D01*
X003792Y001473D01*
X003842Y001422D01*
X003842Y001276D01*
X003775Y001210D01*
X003702Y001033D01*
X003702Y000842D01*
X003775Y000666D01*
X003910Y000531D01*
X004087Y000458D01*
X004278Y000458D01*
X004454Y000531D01*
X004589Y000666D01*
X004662Y000842D01*
X004662Y001033D01*
X004589Y001210D01*
X004522Y001276D01*
X004522Y001630D01*
X004471Y001755D01*
X004375Y001851D01*
X004125Y002101D01*
X004000Y002153D01*
X003992Y002153D01*
X003992Y002390D01*
X003605Y002390D01*
X003605Y002486D01*
X003992Y002486D01*
X003992Y002776D01*
X003980Y002822D01*
X003956Y002863D01*
X003923Y002897D01*
X003882Y002920D01*
X003836Y002933D01*
X003604Y002933D01*
X003604Y002486D01*
X003508Y002486D01*
X003508Y002933D01*
X003277Y002933D01*
X003231Y002920D01*
X003190Y002897D01*
X003182Y002889D01*
X003139Y002933D01*
X002478Y002933D01*
X002372Y002827D01*
X002372Y002778D01*
X002242Y002778D01*
X002242Y002827D01*
X002147Y002922D01*
X002147Y003255D01*
X002096Y003380D01*
X002000Y003476D01*
X002000Y003476D01*
X001838Y003638D01*
X001908Y003708D01*
X001908Y004487D01*
X001802Y004592D01*
X001067Y004592D01*
X001327Y004851D01*
X001379Y004976D01*
X001379Y005019D01*
X001436Y005077D01*
X001446Y005059D01*
X001479Y005026D01*
X001520Y005002D01*
X001566Y004990D01*
X001788Y004990D01*
X001788Y005368D01*
X001864Y005368D01*
X001864Y004990D01*
X002086Y004990D01*
X002132Y005002D01*
X002173Y005026D01*
X002206Y005059D01*
X002230Y005101D01*
X002242Y005146D01*
X002242Y005368D01*
X001864Y005368D01*
X001864Y005444D01*
X002242Y005444D01*
X002242Y005666D01*
X002230Y005712D01*
X002206Y005753D01*
X002173Y005786D01*
X002842Y005786D01*
X002842Y005644D02*
X002884Y005543D01*
X002884Y005204D01*
X002990Y005098D01*
X003375Y005098D01*
X003432Y005156D01*
X003454Y005134D01*
X003495Y005111D01*
X003541Y005098D01*
X003682Y005098D01*
X003682Y005711D01*
X003683Y005711D01*
X003683Y005098D01*
X003824Y005098D01*
X003870Y005111D01*
X003911Y005134D01*
X003922Y005146D01*
X003922Y005114D01*
X003922Y005011D01*
X003962Y004915D01*
X004337Y004540D01*
X004410Y004467D01*
X004506Y004428D01*
X006256Y004428D01*
X006359Y004428D01*
X006455Y004467D01*
X007028Y005040D01*
X007067Y005136D01*
X007067Y005239D01*
X007067Y005705D01*
X007153Y005790D01*
X007192Y005886D01*
X007192Y005933D01*
X007240Y005886D01*
X007625Y005886D01*
X007672Y005933D01*
X007672Y005909D01*
X007644Y005880D01*
X007592Y005755D01*
X007592Y005620D01*
X007644Y005495D01*
X007740Y005399D01*
X007865Y005348D01*
X008000Y005348D01*
X008095Y005387D01*
X008092Y005380D01*
X008092Y005245D01*
X008144Y005120D01*
X008240Y005024D01*
X008365Y004973D01*
X008500Y004973D01*
X008595Y005012D01*
X008592Y005005D01*
X008592Y004870D01*
X008644Y004745D01*
X008740Y004649D01*
X008865Y004598D01*
X009000Y004598D01*
X009125Y004649D01*
X009172Y004697D01*
X009172Y004636D01*
X009212Y004540D01*
X009285Y004467D01*
X009547Y004205D01*
X009547Y003490D01*
X009433Y003490D01*
X009433Y002877D01*
X009432Y002877D01*
X009432Y003490D01*
X009291Y003490D01*
X009245Y003477D01*
X009204Y003454D01*
X009182Y003432D01*
X009125Y003490D01*
X008740Y003490D01*
X008682Y003432D01*
X008625Y003490D01*
X008240Y003490D01*
X008182Y003432D01*
X008125Y003490D01*
X007740Y003490D01*
X007682Y003432D01*
X007625Y003490D01*
X007240Y003490D01*
X007182Y003432D01*
X007161Y003454D01*
X007120Y003477D01*
X007074Y003490D01*
X006933Y003490D01*
X006933Y002877D01*
X006932Y002877D01*
X006932Y003490D01*
X006791Y003490D01*
X006745Y003477D01*
X006704Y003454D01*
X006682Y003432D01*
X006661Y003454D01*
X006620Y003477D01*
X006574Y003490D01*
X006433Y003490D01*
X006433Y002877D01*
X006730Y002877D01*
X006932Y002877D01*
X006932Y002876D01*
X006634Y002876D01*
X006433Y002876D01*
X006433Y002877D01*
X006432Y002877D01*
X006432Y003490D01*
X006291Y003490D01*
X006245Y003477D01*
X006204Y003454D01*
X006182Y003432D01*
X006161Y003454D01*
X006120Y003477D01*
X006074Y003490D01*
X005933Y003490D01*
X005933Y002877D01*
X006230Y002877D01*
X006432Y002877D01*
X006432Y002876D01*
X006230Y002876D01*
X005933Y002876D01*
X005933Y002877D01*
X005932Y002877D01*
X005932Y003490D01*
X005791Y003490D01*
X005745Y003477D01*
X005704Y003454D01*
X005670Y003420D01*
X005647Y003379D01*
X005634Y003333D01*
X005634Y002877D01*
X005932Y002877D01*
X005932Y002876D01*
X005634Y002876D01*
X005634Y002448D01*
X005381Y002448D01*
X005285Y002408D01*
X005212Y002335D01*
X005035Y002158D01*
X004962Y002085D01*
X004922Y001989D01*
X004922Y001350D01*
X004910Y001345D01*
X004775Y001210D01*
X004702Y001033D01*
X004702Y000842D01*
X004775Y000666D01*
X004910Y000531D01*
X005087Y000458D01*
X005278Y000458D01*
X005454Y000531D01*
X005589Y000666D01*
X005662Y000842D01*
X005662Y001033D01*
X005589Y001210D01*
X005454Y001345D01*
X005442Y001350D01*
X005442Y001830D01*
X005540Y001928D01*
X006055Y001928D01*
X006035Y001908D01*
X005962Y001835D01*
X005922Y001739D01*
X005922Y001350D01*
X005910Y001345D01*
X005775Y001210D01*
X005702Y001033D01*
X005702Y000842D01*
X005775Y000666D01*
X005910Y000531D01*
X006087Y000458D01*
X006278Y000458D01*
X006454Y000531D01*
X006589Y000666D01*
X006662Y000842D01*
X006662Y001033D01*
X006589Y001210D01*
X006454Y001345D01*
X006442Y001350D01*
X006442Y001580D01*
X006540Y001678D01*
X007055Y001678D01*
X007035Y001658D01*
X006962Y001585D01*
X006922Y001489D01*
X006922Y001350D01*
X006910Y001345D01*
X006775Y001210D01*
X006702Y001033D01*
X006702Y000842D01*
X006775Y000666D01*
X006910Y000531D01*
X007087Y000458D01*
X007278Y000458D01*
X007454Y000531D01*
X007589Y000666D01*
X007662Y000842D01*
X007662Y001033D01*
X007589Y001210D01*
X007456Y001343D01*
X007540Y001428D01*
X008305Y001428D01*
X008290Y001413D01*
X008278Y001418D01*
X008087Y001418D01*
X007910Y001345D01*
X007775Y001210D01*
X007702Y001033D01*
X007702Y000842D01*
X007775Y000666D01*
X007910Y000531D01*
X008087Y000458D01*
X008278Y000458D01*
X008454Y000531D01*
X008589Y000666D01*
X008662Y000842D01*
X008662Y001033D01*
X008657Y001045D01*
X008743Y001130D01*
X008702Y001033D01*
X008702Y000842D01*
X008775Y000666D01*
X008910Y000531D01*
X009087Y000458D01*
X009278Y000458D01*
X009454Y000531D01*
X009589Y000666D01*
X009662Y000842D01*
X009662Y001033D01*
X009657Y001045D01*
X009743Y001130D01*
X009702Y001033D01*
X009702Y000842D01*
X009775Y000666D01*
X009910Y000531D01*
X010087Y000458D01*
X010278Y000458D01*
X010454Y000531D01*
X010589Y000666D01*
X010662Y000842D01*
X010662Y001033D01*
X010622Y001130D01*
X010707Y001045D01*
X010702Y001033D01*
X010702Y000842D01*
X010775Y000666D01*
X010910Y000531D01*
X011087Y000458D01*
X011278Y000458D01*
X011454Y000531D01*
X011589Y000666D01*
X011662Y000842D01*
X011662Y001033D01*
X011589Y001210D01*
X011454Y001345D01*
X011278Y001418D01*
X011087Y001418D01*
X011075Y001413D01*
X010817Y001670D01*
X010817Y005467D01*
X010819Y005469D02*
X011431Y005469D01*
X011453Y005627D02*
X010897Y005627D01*
X010885Y005786D02*
X011066Y005786D01*
X011069Y005776D02*
X011092Y005735D01*
X011126Y005701D01*
X011167Y005677D01*
X011213Y005665D01*
X011415Y005665D01*
X011415Y006102D01*
X011056Y006102D01*
X011056Y005821D01*
X011069Y005776D01*
X011056Y005945D02*
X010781Y005945D01*
X011056Y006139D02*
X011415Y006139D01*
X011415Y006576D01*
X011213Y006576D01*
X011167Y006564D01*
X011126Y006540D01*
X011092Y006507D01*
X011069Y006466D01*
X011056Y006420D01*
X011056Y006139D01*
X011056Y006262D02*
X009730Y006262D01*
X009730Y006420D02*
X011057Y006420D01*
X011415Y006420D02*
X011452Y006420D01*
X011452Y006262D02*
X011415Y006262D01*
X011415Y006103D02*
X009730Y006103D01*
X009692Y005945D02*
X010333Y005945D01*
X010230Y005786D02*
X009692Y005786D01*
X009692Y005627D02*
X010054Y005627D01*
X009879Y005469D02*
X009692Y005469D01*
X009692Y005310D02*
X009842Y005310D01*
X010182Y005313D02*
X010307Y005188D01*
X010307Y001563D01*
X010182Y001438D01*
X010182Y000938D01*
X009756Y000713D02*
X009609Y000713D01*
X009662Y000871D02*
X009702Y000871D01*
X009702Y001030D02*
X009662Y001030D01*
X009182Y000938D02*
X010057Y001813D01*
X010057Y004688D01*
X009807Y004938D01*
X009432Y004688D02*
X009432Y006499D01*
X009730Y006579D02*
X011916Y006579D01*
X011872Y006737D02*
X009730Y006737D01*
X009730Y006896D02*
X011872Y006896D01*
X011872Y007054D02*
X009682Y007054D01*
X008932Y006499D02*
X008932Y004938D01*
X008607Y004835D02*
X006822Y004835D01*
X006981Y004993D02*
X008315Y004993D01*
X008550Y004993D02*
X008592Y004993D01*
X008432Y005313D02*
X008432Y006499D01*
X007932Y006499D02*
X007932Y005688D01*
X007670Y005469D02*
X007067Y005469D01*
X007067Y005627D02*
X007592Y005627D01*
X007605Y005786D02*
X007148Y005786D01*
X006932Y005938D02*
X006807Y005813D01*
X006807Y005188D01*
X006307Y004688D01*
X004557Y004688D01*
X004182Y005063D01*
X004182Y005711D01*
X004682Y005711D02*
X004682Y005188D01*
X004932Y004938D01*
X006182Y004938D01*
X006557Y005313D01*
X006557Y005813D01*
X006432Y005938D01*
X006432Y006499D01*
X006432Y007438D01*
X006932Y007938D01*
X013057Y007938D01*
X013557Y008438D01*
X013557Y010313D01*
X014182Y010938D01*
X016182Y010938D01*
X016432Y011188D01*
X017182Y011188D01*
X018182Y010188D01*
X018182Y008851D01*
X019400Y007634D01*
X019622Y007857D02*
X018432Y009047D01*
X018432Y010438D01*
X017682Y011188D01*
X017432Y011438D01*
X017432Y011814D01*
X017927Y011811D02*
X017937Y011811D01*
X017927Y011969D02*
X017937Y011969D01*
X017927Y012128D02*
X017937Y012128D01*
X017927Y012286D02*
X017937Y012286D01*
X017927Y012445D02*
X017937Y012445D01*
X017927Y012603D02*
X017937Y012603D01*
X017927Y012762D02*
X017937Y012762D01*
X017966Y012920D02*
X017899Y012920D01*
X018209Y013079D02*
X015442Y013079D01*
X015649Y012920D02*
X015966Y012920D01*
X015432Y013438D02*
X015182Y013188D01*
X015182Y012562D01*
X014687Y012603D02*
X014677Y012603D01*
X014677Y012445D02*
X014687Y012445D01*
X014677Y012286D02*
X014687Y012286D01*
X014677Y012762D02*
X014687Y012762D01*
X014716Y012920D02*
X014649Y012920D01*
X014922Y013079D02*
X012933Y013079D01*
X013070Y012920D02*
X013716Y012920D01*
X013332Y012762D02*
X013122Y012762D01*
X013122Y012603D02*
X013174Y012603D01*
X012431Y013079D02*
X011920Y013079D01*
X011913Y013084D02*
X011851Y013115D01*
X011785Y013137D01*
X011717Y013148D01*
X011683Y013148D01*
X011683Y012188D01*
X012122Y012188D01*
X012122Y012742D01*
X012111Y012811D01*
X012090Y012877D01*
X012059Y012938D01*
X012018Y012994D01*
X011969Y013043D01*
X011913Y013084D01*
X012068Y012920D02*
X012294Y012920D01*
X012242Y012762D02*
X012119Y012762D01*
X012122Y012603D02*
X012242Y012603D01*
X012242Y012445D02*
X012122Y012445D01*
X012122Y012286D02*
X012242Y012286D01*
X012122Y012187D02*
X011683Y012187D01*
X011683Y012188D01*
X011682Y012188D01*
X011682Y012187D01*
X011683Y012187D01*
X011683Y011748D01*
X011717Y011748D01*
X011785Y011759D01*
X011851Y011780D01*
X011913Y011811D01*
X011969Y011852D01*
X012018Y011901D01*
X012059Y011957D01*
X012090Y012019D01*
X012111Y012085D01*
X012122Y012153D01*
X012122Y012187D01*
X012118Y012128D02*
X012242Y012128D01*
X012297Y011969D02*
X012065Y011969D01*
X011912Y011811D02*
X012443Y011811D01*
X012922Y011811D02*
X013325Y011811D01*
X013388Y011969D02*
X013483Y011969D01*
X013437Y012018D02*
X013437Y012018D01*
X013547Y012128D02*
X013678Y012128D01*
X013166Y011652D02*
X010029Y011652D01*
X010055Y011678D02*
X010122Y011840D01*
X010122Y012535D01*
X010055Y012697D01*
X009932Y012821D01*
X009770Y012888D01*
X009595Y012888D01*
X009433Y012821D01*
X009309Y012697D01*
X009242Y012535D01*
X009242Y011840D01*
X009309Y011678D01*
X009422Y011565D01*
X009422Y010739D01*
X009422Y010636D01*
X009462Y010540D01*
X009712Y010290D01*
X009785Y010217D01*
X009881Y010178D01*
X011325Y010178D01*
X011422Y010080D01*
X011422Y009550D01*
X011309Y009437D01*
X011242Y009275D01*
X011242Y008580D01*
X011309Y008418D01*
X011433Y008295D01*
X011595Y008228D01*
X011770Y008228D01*
X011932Y008295D01*
X012055Y008418D01*
X012122Y008580D01*
X012122Y009275D01*
X012055Y009437D01*
X011942Y009550D01*
X011942Y010239D01*
X011903Y010335D01*
X011830Y010408D01*
X011580Y010658D01*
X011484Y010698D01*
X011381Y010698D01*
X010040Y010698D01*
X009942Y010795D01*
X009942Y011565D01*
X010055Y011678D01*
X010110Y011811D02*
X010443Y011811D01*
X010433Y011815D02*
X010595Y011748D01*
X010770Y011748D01*
X010932Y011815D01*
X011055Y011938D01*
X011122Y012100D01*
X011122Y012795D01*
X011055Y012957D01*
X010932Y013081D01*
X010770Y013148D01*
X010595Y013148D01*
X010433Y013081D01*
X010309Y012957D01*
X010242Y012795D01*
X010242Y012100D01*
X010309Y011938D01*
X010433Y011815D01*
X010297Y011969D02*
X010122Y011969D01*
X010122Y012128D02*
X010242Y012128D01*
X010242Y012286D02*
X010122Y012286D01*
X010122Y012445D02*
X010242Y012445D01*
X010242Y012603D02*
X010094Y012603D01*
X009990Y012762D02*
X010242Y012762D01*
X010294Y012920D02*
X008942Y012920D01*
X008942Y012762D02*
X009374Y012762D01*
X009271Y012603D02*
X008942Y012603D01*
X008942Y012445D02*
X009242Y012445D01*
X009242Y012286D02*
X008942Y012286D01*
X008942Y012128D02*
X009242Y012128D01*
X009242Y011969D02*
X008942Y011969D01*
X008942Y011811D02*
X009255Y011811D01*
X009336Y011652D02*
X008942Y011652D01*
X008942Y011498D02*
X008942Y013580D01*
X009090Y013728D01*
X009636Y013728D01*
X009946Y013418D01*
X010418Y013418D01*
X010752Y013752D01*
X010752Y014224D01*
X010418Y014558D01*
X009946Y014558D01*
X009636Y014248D01*
X009034Y014248D01*
X008931Y014248D01*
X008835Y014208D01*
X008535Y013908D01*
X008462Y013835D01*
X008422Y013739D01*
X008422Y011498D01*
X008293Y011498D01*
X008187Y011392D01*
X008187Y010731D01*
X008231Y010688D01*
X008187Y010644D01*
X008187Y009983D01*
X008293Y009878D01*
X008422Y009878D01*
X008422Y009489D01*
X008422Y009386D01*
X008462Y009290D01*
X008712Y009040D01*
X008785Y008967D01*
X008881Y008928D01*
X009242Y008928D01*
X009242Y008840D01*
X009309Y008678D01*
X009433Y008555D01*
X009595Y008488D01*
X009770Y008488D01*
X009932Y008555D01*
X010055Y008678D01*
X010122Y008840D01*
X010122Y008928D01*
X010242Y008928D01*
X010242Y008580D01*
X010309Y008418D01*
X010433Y008295D01*
X010595Y008228D01*
X010770Y008228D01*
X010932Y008295D01*
X011055Y008418D01*
X011122Y008580D01*
X011122Y009275D01*
X011055Y009437D01*
X010932Y009561D01*
X010770Y009628D01*
X010595Y009628D01*
X010433Y009561D01*
X010320Y009448D01*
X010122Y009448D01*
X010122Y009535D01*
X010055Y009697D01*
X009932Y009821D01*
X009770Y009888D01*
X009595Y009888D01*
X009433Y009821D01*
X009309Y009697D01*
X009242Y009535D01*
X009242Y009448D01*
X009040Y009448D01*
X008942Y009545D01*
X008942Y009878D01*
X009072Y009878D01*
X009177Y009983D01*
X009177Y010644D01*
X009134Y010688D01*
X009177Y010731D01*
X009177Y011392D01*
X009072Y011498D01*
X008942Y011498D01*
X009076Y011494D02*
X009422Y011494D01*
X009422Y011335D02*
X009177Y011335D01*
X009177Y011176D02*
X009422Y011176D01*
X009422Y011018D02*
X009177Y011018D01*
X009177Y010859D02*
X009422Y010859D01*
X009422Y010701D02*
X009147Y010701D01*
X009177Y010542D02*
X009461Y010542D01*
X009619Y010384D02*
X009177Y010384D01*
X009177Y010225D02*
X009777Y010225D01*
X009932Y010438D02*
X011432Y010438D01*
X011682Y010188D01*
X011682Y009188D01*
X011242Y009115D02*
X011122Y009115D01*
X011122Y008957D02*
X011242Y008957D01*
X011242Y008798D02*
X011122Y008798D01*
X011122Y008640D02*
X011242Y008640D01*
X011283Y008481D02*
X011081Y008481D01*
X010960Y008323D02*
X011405Y008323D01*
X011960Y008323D02*
X012405Y008323D01*
X012433Y008295D02*
X012595Y008228D01*
X012770Y008228D01*
X012932Y008295D01*
X013055Y008418D01*
X013122Y008580D01*
X013122Y009275D01*
X013055Y009437D01*
X012932Y009561D01*
X012770Y009628D01*
X012595Y009628D01*
X012433Y009561D01*
X012309Y009437D01*
X012242Y009275D01*
X012242Y008580D01*
X012309Y008418D01*
X012433Y008295D01*
X012283Y008481D02*
X012081Y008481D01*
X012122Y008640D02*
X012242Y008640D01*
X012242Y008798D02*
X012122Y008798D01*
X012122Y008957D02*
X012242Y008957D01*
X012242Y009115D02*
X012122Y009115D01*
X012122Y009274D02*
X012242Y009274D01*
X012308Y009433D02*
X012057Y009433D01*
X011942Y009591D02*
X012506Y009591D01*
X012858Y009591D02*
X013297Y009591D01*
X013297Y009433D02*
X013057Y009433D01*
X013122Y009274D02*
X013297Y009274D01*
X013297Y009115D02*
X013122Y009115D01*
X013122Y008957D02*
X013297Y008957D01*
X013297Y008798D02*
X013122Y008798D01*
X013122Y008640D02*
X013297Y008640D01*
X013233Y008481D02*
X013081Y008481D01*
X013075Y008323D02*
X012960Y008323D01*
X013182Y007688D02*
X007182Y007688D01*
X006932Y007438D01*
X006932Y006499D01*
X006932Y005938D01*
X006297Y005705D02*
X006297Y005420D01*
X006075Y005198D01*
X005040Y005198D01*
X004980Y005257D01*
X004980Y006219D01*
X004875Y006324D01*
X004490Y006324D01*
X004432Y006267D01*
X004375Y006324D01*
X003990Y006324D01*
X003932Y006267D01*
X003911Y006288D01*
X003870Y006312D01*
X003824Y006324D01*
X003683Y006324D01*
X003683Y005712D01*
X003682Y005712D01*
X003682Y006324D01*
X003550Y006324D01*
X004073Y006848D01*
X004187Y006848D01*
X004187Y006839D01*
X004293Y006733D01*
X005072Y006733D01*
X005177Y006839D01*
X005177Y006848D01*
X005592Y006848D01*
X005592Y006431D01*
X005634Y006330D01*
X005634Y005991D01*
X005740Y005886D01*
X006125Y005886D01*
X006172Y005933D01*
X006172Y005886D01*
X006212Y005790D01*
X006297Y005705D01*
X006297Y005627D02*
X004980Y005627D01*
X004980Y005469D02*
X006297Y005469D01*
X006187Y005310D02*
X004980Y005310D01*
X004980Y005786D02*
X006216Y005786D01*
X005681Y005945D02*
X004980Y005945D01*
X004980Y006103D02*
X005634Y006103D01*
X005634Y006262D02*
X004938Y006262D01*
X005076Y006737D02*
X005592Y006737D01*
X005592Y006579D02*
X003804Y006579D01*
X003963Y006737D02*
X004289Y006737D01*
X003646Y006420D02*
X005597Y006420D01*
X007192Y007213D02*
X011872Y007213D01*
X011872Y007371D02*
X007234Y007371D01*
X008298Y008323D02*
X010405Y008323D01*
X010283Y008481D02*
X008457Y008481D01*
X008522Y008640D02*
X009348Y008640D01*
X009260Y008798D02*
X008505Y008798D01*
X008394Y008957D02*
X008810Y008957D01*
X008637Y009115D02*
X001654Y009115D01*
X001704Y009095D02*
X001528Y009168D01*
X001337Y009168D01*
X001160Y009095D01*
X001025Y008960D01*
X000952Y008783D01*
X000952Y008592D01*
X001025Y008416D01*
X001160Y008281D01*
X001337Y008208D01*
X001528Y008208D01*
X001704Y008281D01*
X001839Y008416D01*
X001912Y008592D01*
X001912Y008783D01*
X001839Y008960D01*
X001704Y009095D01*
X001688Y009274D02*
X008478Y009274D01*
X008422Y009433D02*
X001846Y009433D01*
X001839Y009416D02*
X001912Y009592D01*
X001912Y009783D01*
X001839Y009960D01*
X001704Y010095D01*
X001528Y010168D01*
X001337Y010168D01*
X001160Y010095D01*
X001025Y009960D01*
X000952Y009783D01*
X000952Y009592D01*
X001025Y009416D01*
X001160Y009281D01*
X001337Y009208D01*
X001528Y009208D01*
X001704Y009281D01*
X001839Y009416D01*
X001912Y009591D02*
X008422Y009591D01*
X008422Y009750D02*
X001912Y009750D01*
X001861Y009908D02*
X008262Y009908D01*
X008187Y010067D02*
X001732Y010067D01*
X001133Y010067D02*
X000362Y010067D01*
X000362Y010225D02*
X008187Y010225D01*
X008187Y010384D02*
X000362Y010384D01*
X000362Y010542D02*
X008187Y010542D01*
X008218Y010701D02*
X000362Y010701D01*
X000362Y010859D02*
X008187Y010859D01*
X008187Y011018D02*
X000362Y011018D01*
X000362Y011176D02*
X008187Y011176D01*
X008187Y011335D02*
X000362Y011335D01*
X000362Y011494D02*
X008289Y011494D01*
X008422Y011652D02*
X000362Y011652D01*
X000362Y011811D02*
X008422Y011811D01*
X008422Y011969D02*
X000362Y011969D01*
X000362Y012128D02*
X008422Y012128D01*
X008422Y012286D02*
X000362Y012286D01*
X000362Y012445D02*
X000676Y012445D01*
X000641Y012460D02*
X000869Y012365D01*
X001117Y012365D01*
X001346Y012460D01*
X001521Y012635D01*
X001616Y012864D01*
X001616Y013112D01*
X001521Y013341D01*
X001346Y013516D01*
X001117Y013611D01*
X000869Y013611D01*
X000641Y013516D01*
X000465Y013341D01*
X000370Y013112D01*
X000370Y012864D01*
X000465Y012635D01*
X000641Y012460D01*
X000497Y012603D02*
X000362Y012603D01*
X000362Y012762D02*
X000413Y012762D01*
X000370Y012920D02*
X000362Y012920D01*
X000362Y013079D02*
X000370Y013079D01*
X000362Y013238D02*
X000423Y013238D01*
X000362Y013396D02*
X000521Y013396D01*
X000362Y013555D02*
X000734Y013555D01*
X000362Y013713D02*
X008422Y013713D01*
X008422Y013555D02*
X007630Y013555D01*
X007724Y013516D02*
X007495Y013611D01*
X007247Y013611D01*
X007018Y013516D01*
X006843Y013341D01*
X006748Y013112D01*
X006748Y012864D01*
X006843Y012635D01*
X007018Y012460D01*
X007247Y012365D01*
X007495Y012365D01*
X007724Y012460D01*
X007899Y012635D01*
X007994Y012864D01*
X007994Y013112D01*
X007899Y013341D01*
X007724Y013516D01*
X007844Y013396D02*
X008422Y013396D01*
X008422Y013238D02*
X007942Y013238D01*
X007994Y013079D02*
X008422Y013079D01*
X008422Y012920D02*
X007994Y012920D01*
X007952Y012762D02*
X008422Y012762D01*
X008422Y012603D02*
X007868Y012603D01*
X007688Y012445D02*
X008422Y012445D01*
X008942Y013079D02*
X010431Y013079D01*
X010933Y013079D02*
X011445Y013079D01*
X011452Y013084D02*
X011396Y013043D01*
X011347Y012994D01*
X011306Y012938D01*
X011275Y012877D01*
X011253Y012811D01*
X011242Y012742D01*
X011242Y012188D01*
X011682Y012188D01*
X011682Y013148D01*
X011648Y013148D01*
X011579Y013137D01*
X011513Y013115D01*
X011452Y013084D01*
X011297Y012920D02*
X011070Y012920D01*
X011122Y012762D02*
X011245Y012762D01*
X011242Y012603D02*
X011122Y012603D01*
X011122Y012445D02*
X011242Y012445D01*
X011242Y012286D02*
X011122Y012286D01*
X011242Y012187D02*
X011242Y012153D01*
X011253Y012085D01*
X011275Y012019D01*
X011306Y011957D01*
X011347Y011901D01*
X011396Y011852D01*
X011452Y011811D01*
X011513Y011780D01*
X011579Y011759D01*
X011648Y011748D01*
X011682Y011748D01*
X011682Y012187D01*
X011242Y012187D01*
X011246Y012128D02*
X011122Y012128D01*
X011068Y011969D02*
X011300Y011969D01*
X011453Y011811D02*
X010922Y011811D01*
X011682Y011811D02*
X011683Y011811D01*
X011682Y011969D02*
X011683Y011969D01*
X011682Y012128D02*
X011683Y012128D01*
X011682Y012286D02*
X011683Y012286D01*
X011682Y012445D02*
X011683Y012445D01*
X011682Y012603D02*
X011683Y012603D01*
X011682Y012762D02*
X011683Y012762D01*
X011682Y012920D02*
X011683Y012920D01*
X011682Y013079D02*
X011683Y013079D01*
X010714Y013713D02*
X013651Y013713D01*
X013612Y013752D02*
X013946Y013418D01*
X014418Y013418D01*
X014752Y013752D01*
X014752Y014224D01*
X014418Y014558D01*
X013946Y014558D01*
X013612Y014224D01*
X013612Y013752D01*
X013612Y013872D02*
X010752Y013872D01*
X010752Y014030D02*
X012063Y014030D01*
X012069Y014028D02*
X012296Y014028D01*
X012505Y014114D01*
X012666Y014275D01*
X012752Y014484D01*
X012752Y015491D01*
X012666Y015701D01*
X012505Y015861D01*
X012296Y015948D01*
X012069Y015948D01*
X011859Y015861D01*
X011699Y015701D01*
X011612Y015491D01*
X011612Y014484D01*
X011699Y014275D01*
X011859Y014114D01*
X012069Y014028D01*
X012302Y014030D02*
X013612Y014030D01*
X013612Y014189D02*
X012580Y014189D01*
X012696Y014347D02*
X013736Y014347D01*
X013894Y014506D02*
X012752Y014506D01*
X012752Y014664D02*
X014700Y014664D01*
X014612Y014752D02*
X014946Y014418D01*
X015418Y014418D01*
X015752Y014752D01*
X015752Y015224D01*
X015418Y015558D01*
X014946Y015558D01*
X014612Y015224D01*
X014612Y014752D01*
X014612Y014823D02*
X012752Y014823D01*
X012752Y014982D02*
X014612Y014982D01*
X014612Y015140D02*
X012752Y015140D01*
X012752Y015299D02*
X014687Y015299D01*
X014846Y015457D02*
X012752Y015457D01*
X012701Y015616D02*
X019664Y015616D01*
X019654Y015596D02*
X019626Y015511D01*
X019612Y015423D01*
X019612Y015038D01*
X020132Y015038D01*
X020132Y014938D01*
X019612Y014938D01*
X019612Y014553D01*
X019626Y014464D01*
X019654Y014379D01*
X019695Y014299D01*
X019748Y014226D01*
X019811Y014163D01*
X019884Y014110D01*
X019964Y014069D01*
X020049Y014042D01*
X020132Y014029D01*
X020132Y014937D01*
X020232Y014937D01*
X020232Y014029D01*
X020316Y014042D01*
X020401Y014069D01*
X020481Y014110D01*
X020554Y014163D01*
X020617Y014226D01*
X020670Y014299D01*
X020711Y014379D01*
X020738Y014464D01*
X020752Y014553D01*
X020752Y014938D01*
X020233Y014938D01*
X020233Y015038D01*
X020752Y015038D01*
X020752Y015423D01*
X020738Y015511D01*
X020711Y015596D01*
X020670Y015676D01*
X020617Y015749D01*
X020554Y015812D01*
X020481Y015865D01*
X020401Y015906D01*
X020316Y015934D01*
X020232Y015947D01*
X020232Y015038D01*
X020132Y015038D01*
X020132Y015947D01*
X020049Y015934D01*
X019964Y015906D01*
X019884Y015865D01*
X019811Y015812D01*
X019748Y015749D01*
X019695Y015676D01*
X019654Y015596D01*
X019618Y015457D02*
X017519Y015457D01*
X017418Y015558D02*
X016946Y015558D01*
X016612Y015224D01*
X016612Y014752D01*
X016946Y014418D01*
X017418Y014418D01*
X017752Y014752D01*
X017752Y015224D01*
X017418Y015558D01*
X016846Y015457D02*
X015519Y015457D01*
X015677Y015299D02*
X016687Y015299D01*
X016612Y015140D02*
X015752Y015140D01*
X015752Y014982D02*
X016612Y014982D01*
X016612Y014823D02*
X015752Y014823D01*
X015665Y014664D02*
X016700Y014664D01*
X016858Y014506D02*
X015507Y014506D01*
X014858Y014506D02*
X014470Y014506D01*
X014629Y014347D02*
X017736Y014347D01*
X017612Y014189D02*
X014752Y014189D01*
X014752Y014030D02*
X017612Y014030D01*
X017612Y013872D02*
X014752Y013872D01*
X014714Y013713D02*
X017540Y013713D01*
X017632Y013438D02*
X018182Y013988D01*
X018752Y014030D02*
X020121Y014030D01*
X020132Y014030D02*
X020232Y014030D01*
X020244Y014030D02*
X021612Y014030D01*
X021612Y013872D02*
X018752Y013872D01*
X018714Y013713D02*
X021540Y013713D01*
X021382Y013555D02*
X018555Y013555D01*
X018523Y013396D02*
X017958Y013396D01*
X017800Y013238D02*
X018365Y013238D01*
X018432Y012938D02*
X018682Y013188D01*
X021382Y013188D01*
X022182Y013988D01*
X022752Y014030D02*
X024672Y014030D01*
X024672Y014039D02*
X024672Y013836D01*
X024750Y013649D01*
X024893Y013505D01*
X025081Y013428D01*
X025284Y013428D01*
X025471Y013505D01*
X025615Y013649D01*
X025692Y013836D01*
X025692Y014039D01*
X025615Y014227D01*
X025471Y014370D01*
X025284Y014448D01*
X025081Y014448D01*
X024893Y014370D01*
X024750Y014227D01*
X024672Y014039D01*
X024734Y014189D02*
X022752Y014189D01*
X022629Y014347D02*
X024871Y014347D01*
X024672Y013872D02*
X022752Y013872D01*
X022714Y013713D02*
X024723Y013713D01*
X024844Y013555D02*
X022555Y013555D01*
X021958Y013396D02*
X034002Y013396D01*
X034002Y013238D02*
X021800Y013238D01*
X021641Y013079D02*
X034002Y013079D01*
X034002Y012920D02*
X032680Y012920D01*
X032770Y012762D02*
X034002Y012762D01*
X034002Y012603D02*
X032884Y012603D01*
X032682Y012438D02*
X032432Y012688D01*
X032184Y012920D02*
X031550Y012920D01*
X031726Y012762D02*
X032095Y012762D01*
X032099Y012603D02*
X031884Y012603D01*
X031942Y012445D02*
X032194Y012445D01*
X032187Y012286D02*
X031942Y012286D01*
X031942Y012128D02*
X032187Y012128D01*
X032187Y011969D02*
X031942Y011969D01*
X031942Y011811D02*
X032187Y011811D01*
X032215Y011652D02*
X031942Y011652D01*
X031856Y011494D02*
X032187Y011494D01*
X032187Y011335D02*
X031697Y011335D01*
X031662Y011176D02*
X032187Y011176D01*
X032187Y011018D02*
X031662Y011018D01*
X031533Y010859D02*
X032292Y010859D01*
X032422Y010701D02*
X030942Y010701D01*
X030904Y010542D02*
X032422Y010542D01*
X032422Y010384D02*
X030746Y010384D01*
X030588Y010225D02*
X032422Y010225D01*
X032422Y010067D02*
X030497Y010067D01*
X030522Y009908D02*
X032422Y009908D01*
X032682Y009688D02*
X032682Y011294D01*
X033177Y011335D02*
X034002Y011335D01*
X034002Y011176D02*
X033177Y011176D01*
X033177Y011018D02*
X034002Y011018D01*
X034002Y010859D02*
X033073Y010859D01*
X032942Y010701D02*
X034002Y010701D01*
X034002Y010542D02*
X032942Y010542D01*
X032942Y010384D02*
X034002Y010384D01*
X034002Y010225D02*
X032942Y010225D01*
X032942Y010067D02*
X034002Y010067D01*
X034002Y009908D02*
X032942Y009908D01*
X032988Y009750D02*
X034002Y009750D01*
X034002Y009591D02*
X033147Y009591D01*
X033289Y009433D02*
X034002Y009433D01*
X034002Y009274D02*
X033317Y009274D01*
X033317Y009115D02*
X034002Y009115D01*
X034002Y008957D02*
X033317Y008957D01*
X033317Y008798D02*
X034002Y008798D01*
X034002Y008640D02*
X033595Y008640D01*
X033818Y008481D02*
X034002Y008481D01*
X034002Y008323D02*
X033896Y008323D01*
X033912Y008164D02*
X034002Y008164D01*
X034002Y008006D02*
X033876Y008006D01*
X033771Y007847D02*
X034002Y007847D01*
X034002Y007689D02*
X033067Y007689D01*
X033067Y007847D02*
X033094Y007847D01*
X033083Y007530D02*
X033096Y007530D01*
X032807Y007438D02*
X033057Y007188D01*
X033432Y007188D01*
X033876Y007371D02*
X034002Y007371D01*
X034002Y007213D02*
X033912Y007213D01*
X033897Y007054D02*
X034002Y007054D01*
X034002Y006896D02*
X033819Y006896D01*
X034002Y006737D02*
X033599Y006737D01*
X033720Y006579D02*
X034002Y006579D01*
X034002Y006420D02*
X033856Y006420D01*
X033912Y006262D02*
X034002Y006262D01*
X034002Y006103D02*
X033912Y006103D01*
X033851Y005945D02*
X034002Y005945D01*
X034002Y005786D02*
X033709Y005786D01*
X033625Y005627D02*
X034002Y005627D01*
X034002Y005469D02*
X033830Y005469D01*
X033901Y005310D02*
X034002Y005310D01*
X034002Y005152D02*
X033912Y005152D01*
X033871Y004993D02*
X034002Y004993D01*
X034002Y004835D02*
X033758Y004835D01*
X033617Y004633D02*
X033545Y004656D01*
X033470Y004668D01*
X033452Y004668D01*
X033452Y004208D01*
X033412Y004208D01*
X033412Y004168D01*
X032952Y004168D01*
X032952Y004150D01*
X032964Y004075D01*
X032988Y004003D01*
X033022Y003936D01*
X033066Y003875D01*
X033120Y003822D01*
X033181Y003777D01*
X033248Y003743D01*
X033320Y003720D01*
X033395Y003708D01*
X033412Y003708D01*
X033412Y004167D01*
X033452Y004167D01*
X033452Y003708D01*
X033470Y003708D01*
X033545Y003720D01*
X033617Y003743D01*
X033684Y003777D01*
X033745Y003822D01*
X033798Y003875D01*
X033843Y003936D01*
X033877Y004003D01*
X033901Y004075D01*
X033912Y004150D01*
X033912Y004168D01*
X033453Y004168D01*
X033453Y004208D01*
X033912Y004208D01*
X033912Y004225D01*
X033901Y004300D01*
X033877Y004372D01*
X033843Y004439D01*
X033798Y004500D01*
X033745Y004554D01*
X033684Y004598D01*
X033617Y004633D01*
X033781Y004518D02*
X034002Y004518D01*
X034002Y004676D02*
X032152Y004676D01*
X032022Y004518D02*
X033084Y004518D01*
X033066Y004500D02*
X033022Y004439D01*
X032988Y004372D01*
X032964Y004300D01*
X032952Y004225D01*
X032952Y004208D01*
X033412Y004208D01*
X033412Y004668D01*
X033395Y004668D01*
X033320Y004656D01*
X033248Y004633D01*
X033181Y004598D01*
X033120Y004554D01*
X033066Y004500D01*
X032983Y004359D02*
X032022Y004359D01*
X032022Y004201D02*
X033412Y004201D01*
X033453Y004201D02*
X034002Y004201D01*
X034002Y004359D02*
X033881Y004359D01*
X033452Y004359D02*
X033412Y004359D01*
X033412Y004518D02*
X033452Y004518D01*
X033106Y004835D02*
X032310Y004835D01*
X031824Y005310D02*
X030423Y005310D01*
X030581Y005469D02*
X031983Y005469D01*
X031666Y005152D02*
X029764Y005152D01*
X029692Y004993D02*
X031507Y004993D01*
X031375Y004835D02*
X029692Y004835D01*
X029432Y005188D02*
X029432Y004228D01*
X029432Y003438D01*
X030272Y003725D02*
X031342Y003725D01*
X031342Y003884D02*
X030272Y003884D01*
X030272Y004042D02*
X031342Y004042D01*
X031342Y004201D02*
X030272Y004201D01*
X030246Y004359D02*
X031342Y004359D01*
X031342Y004518D02*
X030242Y004518D01*
X030242Y004676D02*
X031342Y004676D01*
X032022Y004042D02*
X032975Y004042D01*
X033060Y003884D02*
X032022Y003884D01*
X032022Y003725D02*
X033303Y003725D01*
X033320Y003656D02*
X033248Y003633D01*
X033181Y003598D01*
X033120Y003554D01*
X033066Y003500D01*
X033022Y003439D01*
X032988Y003372D01*
X032964Y003300D01*
X032952Y003225D01*
X032952Y003208D01*
X033412Y003208D01*
X033412Y003168D01*
X032952Y003168D01*
X032952Y003150D01*
X032964Y003075D01*
X032988Y003003D01*
X033022Y002936D01*
X033066Y002875D01*
X033120Y002822D01*
X033181Y002777D01*
X033248Y002743D01*
X033320Y002720D01*
X033395Y002708D01*
X033412Y002708D01*
X033412Y003167D01*
X033452Y003167D01*
X033452Y002708D01*
X033470Y002708D01*
X033545Y002720D01*
X033617Y002743D01*
X033684Y002777D01*
X033745Y002822D01*
X033798Y002875D01*
X033843Y002936D01*
X033877Y003003D01*
X033901Y003075D01*
X033912Y003150D01*
X033912Y003168D01*
X033453Y003168D01*
X033453Y003208D01*
X033912Y003208D01*
X033912Y003225D01*
X033901Y003300D01*
X033877Y003372D01*
X033843Y003439D01*
X033798Y003500D01*
X033745Y003554D01*
X033684Y003598D01*
X033617Y003633D01*
X033545Y003656D01*
X033470Y003668D01*
X033452Y003668D01*
X033452Y003208D01*
X033412Y003208D01*
X033412Y003668D01*
X033395Y003668D01*
X033320Y003656D01*
X033412Y003725D02*
X033452Y003725D01*
X033561Y003725D02*
X034002Y003725D01*
X034002Y003884D02*
X033805Y003884D01*
X033890Y004042D02*
X034002Y004042D01*
X033452Y004042D02*
X033412Y004042D01*
X033412Y003884D02*
X033452Y003884D01*
X033452Y003566D02*
X033412Y003566D01*
X033412Y003408D02*
X033452Y003408D01*
X033452Y003249D02*
X033412Y003249D01*
X033412Y003091D02*
X033452Y003091D01*
X033452Y002932D02*
X033412Y002932D01*
X033412Y002774D02*
X033452Y002774D01*
X033677Y002774D02*
X034002Y002774D01*
X034002Y002932D02*
X033840Y002932D01*
X033903Y003091D02*
X034002Y003091D01*
X034002Y003249D02*
X033909Y003249D01*
X033859Y003408D02*
X034002Y003408D01*
X034002Y003566D02*
X033728Y003566D01*
X033137Y003566D02*
X032022Y003566D01*
X032022Y003408D02*
X033006Y003408D01*
X032956Y003249D02*
X032090Y003249D01*
X032177Y003091D02*
X032962Y003091D01*
X033025Y002932D02*
X032177Y002932D01*
X032177Y002774D02*
X033188Y002774D01*
X034002Y002615D02*
X032177Y002615D01*
X032133Y002457D02*
X034002Y002457D01*
X034002Y002298D02*
X032177Y002298D01*
X032177Y002140D02*
X034002Y002140D01*
X034002Y001981D02*
X032177Y001981D01*
X032177Y001822D02*
X034002Y001822D01*
X034002Y001664D02*
X032128Y001664D01*
X031934Y001348D02*
X031867Y001383D01*
X031795Y001406D01*
X031720Y001418D01*
X031702Y001418D01*
X031702Y000958D01*
X031662Y000958D01*
X031662Y000918D01*
X031202Y000918D01*
X031202Y000900D01*
X031214Y000825D01*
X031238Y000753D01*
X031272Y000686D01*
X031316Y000625D01*
X031370Y000572D01*
X031431Y000527D01*
X031498Y000493D01*
X031570Y000470D01*
X031645Y000458D01*
X031662Y000458D01*
X031662Y000917D01*
X031702Y000917D01*
X031702Y000458D01*
X031720Y000458D01*
X031795Y000470D01*
X031867Y000493D01*
X031934Y000527D01*
X031995Y000572D01*
X032048Y000625D01*
X032093Y000686D01*
X032127Y000753D01*
X032151Y000825D01*
X032162Y000900D01*
X032162Y000918D01*
X031703Y000918D01*
X031703Y000958D01*
X032162Y000958D01*
X032162Y000975D01*
X032151Y001050D01*
X032127Y001122D01*
X032093Y001189D01*
X032048Y001250D01*
X031995Y001304D01*
X031934Y001348D01*
X031936Y001347D02*
X033223Y001347D01*
X033239Y001361D02*
X033041Y001189D01*
X032967Y000938D01*
X033041Y000686D01*
X033239Y000515D01*
X033499Y000477D01*
X033737Y000586D01*
X033879Y000807D01*
X033879Y001069D01*
X033737Y001289D01*
X033499Y001398D01*
X033239Y001361D01*
X033041Y001188D02*
X032093Y001188D01*
X032154Y001030D02*
X032994Y001030D01*
X032987Y000871D02*
X032158Y000871D01*
X032106Y000713D02*
X033033Y000713D01*
X033194Y000554D02*
X031971Y000554D01*
X031702Y000554D02*
X031662Y000554D01*
X031662Y000713D02*
X031702Y000713D01*
X031702Y000871D02*
X031662Y000871D01*
X031662Y000958D02*
X031202Y000958D01*
X031202Y000975D01*
X031214Y001050D01*
X031238Y001122D01*
X031272Y001189D01*
X031316Y001250D01*
X031370Y001304D01*
X031431Y001348D01*
X031498Y001383D01*
X031570Y001406D01*
X031645Y001418D01*
X031662Y001418D01*
X031662Y000958D01*
X031662Y001030D02*
X031702Y001030D01*
X031702Y001188D02*
X031662Y001188D01*
X031662Y001347D02*
X031702Y001347D01*
X031429Y001347D02*
X030949Y001347D01*
X030942Y001505D02*
X034002Y001505D01*
X034002Y001347D02*
X033611Y001347D01*
X033802Y001188D02*
X034002Y001188D01*
X034002Y001030D02*
X033879Y001030D01*
X033879Y000871D02*
X034002Y000871D01*
X034002Y000713D02*
X033818Y000713D01*
X033666Y000554D02*
X034002Y000554D01*
X034002Y000396D02*
X000362Y000396D01*
X000362Y000554D02*
X000694Y000554D01*
X000739Y000515D02*
X000999Y000477D01*
X001237Y000586D01*
X001379Y000807D01*
X001379Y001069D01*
X001237Y001289D01*
X000999Y001398D01*
X000739Y001361D01*
X000541Y001189D01*
X000467Y000938D01*
X000541Y000686D01*
X000739Y000515D01*
X000533Y000713D02*
X000362Y000713D01*
X000362Y000871D02*
X000487Y000871D01*
X000494Y001030D02*
X000362Y001030D01*
X000362Y001188D02*
X000541Y001188D01*
X000362Y001347D02*
X000723Y001347D01*
X001111Y001347D02*
X001929Y001347D01*
X001771Y001188D02*
X001302Y001188D01*
X001379Y001030D02*
X001711Y001030D01*
X001707Y000871D02*
X001379Y000871D01*
X001318Y000713D02*
X001758Y000713D01*
X001894Y000554D02*
X001166Y000554D01*
X002162Y000554D02*
X002202Y000554D01*
X002202Y000713D02*
X002162Y000713D01*
X002162Y000871D02*
X002202Y000871D01*
X002606Y000713D02*
X002756Y000713D01*
X002702Y000871D02*
X002658Y000871D01*
X002471Y000554D02*
X002887Y000554D01*
X003478Y000554D02*
X003887Y000554D01*
X003756Y000713D02*
X003609Y000713D01*
X003662Y000871D02*
X003702Y000871D01*
X003702Y001030D02*
X003662Y001030D01*
X003598Y001188D02*
X003767Y001188D01*
X003842Y001347D02*
X003449Y001347D01*
X004403Y001822D02*
X004922Y001822D01*
X004922Y001664D02*
X004508Y001664D01*
X004522Y001505D02*
X004922Y001505D01*
X004916Y001347D02*
X004522Y001347D01*
X004598Y001188D02*
X004767Y001188D01*
X004702Y001030D02*
X004662Y001030D01*
X004662Y000871D02*
X004702Y000871D01*
X004756Y000713D02*
X004609Y000713D01*
X004478Y000554D02*
X004887Y000554D01*
X005478Y000554D02*
X005887Y000554D01*
X005756Y000713D02*
X005609Y000713D01*
X005662Y000871D02*
X005702Y000871D01*
X005702Y001030D02*
X005662Y001030D01*
X005598Y001188D02*
X005767Y001188D01*
X005916Y001347D02*
X005449Y001347D01*
X005442Y001505D02*
X005922Y001505D01*
X005922Y001664D02*
X005442Y001664D01*
X005442Y001822D02*
X005957Y001822D01*
X006182Y001688D02*
X006182Y000938D01*
X006609Y000713D02*
X006756Y000713D01*
X006702Y000871D02*
X006662Y000871D01*
X006662Y001030D02*
X006702Y001030D01*
X006767Y001188D02*
X006598Y001188D01*
X006449Y001347D02*
X006916Y001347D01*
X006929Y001505D02*
X006442Y001505D01*
X006526Y001664D02*
X007041Y001664D01*
X007182Y001438D02*
X007182Y000938D01*
X007609Y000713D02*
X007756Y000713D01*
X007702Y000871D02*
X007662Y000871D01*
X007662Y001030D02*
X007702Y001030D01*
X007767Y001188D02*
X007598Y001188D01*
X007459Y001347D02*
X007916Y001347D01*
X008182Y000938D02*
X008682Y001438D01*
X009307Y001438D01*
X009807Y001938D01*
X009807Y004313D01*
X009432Y004688D01*
X009172Y004676D02*
X009152Y004676D01*
X009235Y004518D02*
X006505Y004518D01*
X006664Y004676D02*
X008713Y004676D01*
X009393Y004359D02*
X001908Y004359D01*
X001908Y004201D02*
X002916Y004201D01*
X002920Y004208D02*
X002897Y004167D01*
X002884Y004121D01*
X002884Y003664D01*
X002884Y003207D01*
X002897Y003162D01*
X002920Y003120D01*
X002954Y003087D01*
X002995Y003063D01*
X003041Y003051D01*
X003182Y003051D01*
X003182Y003664D01*
X002884Y003664D01*
X003182Y003664D01*
X003182Y003664D01*
X003183Y003664D01*
X003183Y003664D01*
X003384Y003664D01*
X003682Y003664D01*
X003682Y003664D01*
X003480Y003664D01*
X003183Y003664D01*
X003183Y003051D01*
X003324Y003051D01*
X003370Y003063D01*
X003411Y003087D01*
X003432Y003108D01*
X003454Y003087D01*
X003495Y003063D01*
X003541Y003051D01*
X003682Y003051D01*
X003682Y003664D01*
X003683Y003664D01*
X003683Y003664D01*
X003884Y003664D01*
X004182Y003664D01*
X004182Y003664D01*
X003884Y003664D01*
X003683Y003664D01*
X003683Y003051D01*
X003824Y003051D01*
X003870Y003063D01*
X003911Y003087D01*
X003932Y003108D01*
X003954Y003087D01*
X003995Y003063D01*
X004041Y003051D01*
X004182Y003051D01*
X004182Y003664D01*
X004183Y003664D01*
X004183Y003664D01*
X004384Y003664D01*
X004682Y003664D01*
X004682Y003664D01*
X004384Y003664D01*
X004183Y003664D01*
X004183Y003051D01*
X004324Y003051D01*
X004370Y003063D01*
X004411Y003087D01*
X004432Y003108D01*
X004454Y003087D01*
X004495Y003063D01*
X004541Y003051D01*
X004682Y003051D01*
X004682Y003664D01*
X004683Y003664D01*
X004683Y003664D01*
X004980Y003664D01*
X004980Y003207D01*
X004968Y003162D01*
X004944Y003120D01*
X004911Y003087D01*
X004870Y003063D01*
X004824Y003051D01*
X004683Y003051D01*
X004683Y003664D01*
X004980Y003664D01*
X004980Y004121D01*
X004968Y004167D01*
X004944Y004208D01*
X004911Y004241D01*
X004870Y004265D01*
X004824Y004277D01*
X004683Y004277D01*
X004683Y003664D01*
X004682Y003664D01*
X004682Y004277D01*
X004541Y004277D01*
X004495Y004265D01*
X004454Y004241D01*
X004432Y004220D01*
X004411Y004241D01*
X004370Y004265D01*
X004324Y004277D01*
X004183Y004277D01*
X004183Y003664D01*
X004182Y003664D01*
X004182Y004277D01*
X004041Y004277D01*
X003995Y004265D01*
X003954Y004241D01*
X003932Y004220D01*
X003911Y004241D01*
X003870Y004265D01*
X003824Y004277D01*
X003683Y004277D01*
X003683Y003664D01*
X003682Y003664D01*
X003682Y004277D01*
X003541Y004277D01*
X003495Y004265D01*
X003454Y004241D01*
X003432Y004220D01*
X003411Y004241D01*
X003370Y004265D01*
X003324Y004277D01*
X003183Y004277D01*
X003183Y003664D01*
X003182Y003664D01*
X003182Y004277D01*
X003041Y004277D01*
X002995Y004265D01*
X002954Y004241D01*
X002920Y004208D01*
X002884Y004042D02*
X001908Y004042D01*
X001908Y003884D02*
X002884Y003884D01*
X002884Y003725D02*
X001908Y003725D01*
X001909Y003566D02*
X002884Y003566D01*
X002884Y003408D02*
X002068Y003408D01*
X002147Y003249D02*
X002884Y003249D01*
X002950Y003091D02*
X002147Y003091D01*
X002147Y002932D02*
X002477Y002932D01*
X003139Y002932D02*
X003275Y002932D01*
X003183Y003091D02*
X003182Y003091D01*
X003182Y003249D02*
X003183Y003249D01*
X003182Y003408D02*
X003183Y003408D01*
X003182Y003566D02*
X003183Y003566D01*
X003182Y003725D02*
X003183Y003725D01*
X003182Y003884D02*
X003183Y003884D01*
X003182Y004042D02*
X003183Y004042D01*
X003182Y004201D02*
X003183Y004201D01*
X003682Y004201D02*
X003683Y004201D01*
X003682Y004042D02*
X003683Y004042D01*
X003682Y003884D02*
X003683Y003884D01*
X003682Y003725D02*
X003683Y003725D01*
X003682Y003566D02*
X003683Y003566D01*
X003682Y003408D02*
X003683Y003408D01*
X003682Y003249D02*
X003683Y003249D01*
X003682Y003091D02*
X003683Y003091D01*
X003604Y002932D02*
X003508Y002932D01*
X003508Y002774D02*
X003604Y002774D01*
X003604Y002615D02*
X003508Y002615D01*
X003605Y002457D02*
X005634Y002457D01*
X005634Y002615D02*
X003992Y002615D01*
X003992Y002774D02*
X005634Y002774D01*
X005634Y002932D02*
X003837Y002932D01*
X003915Y003091D02*
X003950Y003091D01*
X004182Y003091D02*
X004183Y003091D01*
X004182Y003249D02*
X004183Y003249D01*
X004182Y003408D02*
X004183Y003408D01*
X004182Y003566D02*
X004183Y003566D01*
X004182Y003725D02*
X004183Y003725D01*
X004182Y003884D02*
X004183Y003884D01*
X004182Y004042D02*
X004183Y004042D01*
X004182Y004201D02*
X004183Y004201D01*
X004682Y004201D02*
X004683Y004201D01*
X004682Y004042D02*
X004683Y004042D01*
X004682Y003884D02*
X004683Y003884D01*
X004682Y003725D02*
X004683Y003725D01*
X004682Y003566D02*
X004683Y003566D01*
X004682Y003408D02*
X004683Y003408D01*
X004682Y003249D02*
X004683Y003249D01*
X004682Y003091D02*
X004683Y003091D01*
X004915Y003091D02*
X005634Y003091D01*
X005634Y003249D02*
X004980Y003249D01*
X004980Y003408D02*
X005663Y003408D01*
X005932Y003408D02*
X005933Y003408D01*
X005932Y003249D02*
X005933Y003249D01*
X005932Y003091D02*
X005933Y003091D01*
X005932Y002932D02*
X005933Y002932D01*
X006432Y002932D02*
X006433Y002932D01*
X006432Y003091D02*
X006433Y003091D01*
X006432Y003249D02*
X006433Y003249D01*
X006432Y003408D02*
X006433Y003408D01*
X006932Y003408D02*
X006933Y003408D01*
X006932Y003249D02*
X006933Y003249D01*
X006932Y003091D02*
X006933Y003091D01*
X006932Y002932D02*
X006933Y002932D01*
X007932Y002877D02*
X007932Y002438D01*
X007682Y002188D01*
X005432Y002188D01*
X005182Y001938D01*
X005182Y000938D01*
X006182Y001688D02*
X006432Y001938D01*
X008307Y001938D01*
X008432Y002063D01*
X008432Y002877D01*
X008932Y002877D02*
X008932Y001938D01*
X008682Y001688D01*
X007432Y001688D01*
X007182Y001438D01*
X006887Y000554D02*
X006478Y000554D01*
X007478Y000554D02*
X007887Y000554D01*
X008478Y000554D02*
X008887Y000554D01*
X008756Y000713D02*
X008609Y000713D01*
X008662Y000871D02*
X008702Y000871D01*
X008702Y001030D02*
X008662Y001030D01*
X009478Y000554D02*
X009887Y000554D01*
X010478Y000554D02*
X010887Y000554D01*
X010756Y000713D02*
X010609Y000713D01*
X010662Y000871D02*
X010702Y000871D01*
X010702Y001030D02*
X010662Y001030D01*
X011182Y000938D02*
X010557Y001563D01*
X010557Y005688D01*
X010817Y005152D02*
X011431Y005152D01*
X011431Y004993D02*
X010817Y004993D01*
X010817Y004835D02*
X011500Y004835D01*
X011539Y004676D02*
X010817Y004676D01*
X010817Y004518D02*
X011677Y004518D01*
X011687Y004359D02*
X010817Y004359D01*
X010817Y004201D02*
X011687Y004201D01*
X011710Y004042D02*
X010817Y004042D01*
X010817Y003884D02*
X011687Y003884D01*
X011687Y003725D02*
X010817Y003725D01*
X010817Y003566D02*
X011687Y003566D01*
X011687Y003408D02*
X010817Y003408D01*
X010817Y003249D02*
X011882Y003249D01*
X011687Y003091D02*
X010817Y003091D01*
X010817Y002932D02*
X011687Y002932D01*
X011687Y002774D02*
X010817Y002774D01*
X010817Y002615D02*
X011687Y002615D01*
X011712Y002457D02*
X010817Y002457D01*
X010817Y002298D02*
X011687Y002298D01*
X011687Y002140D02*
X010817Y002140D01*
X010817Y001981D02*
X011687Y001981D01*
X011687Y001822D02*
X010817Y001822D01*
X010824Y001664D02*
X011757Y001664D01*
X011882Y001505D02*
X010982Y001505D01*
X011449Y001347D02*
X011882Y001347D01*
X011767Y001188D02*
X011598Y001188D01*
X011662Y001030D02*
X011702Y001030D01*
X011702Y000871D02*
X011662Y000871D01*
X011609Y000713D02*
X011756Y000713D01*
X011887Y000554D02*
X011478Y000554D01*
X012478Y000554D02*
X012894Y000554D01*
X012870Y000572D02*
X012931Y000527D01*
X012998Y000493D01*
X013070Y000470D01*
X013145Y000458D01*
X013162Y000458D01*
X013162Y000917D01*
X013202Y000917D01*
X013202Y000458D01*
X013220Y000458D01*
X013295Y000470D01*
X013367Y000493D01*
X013434Y000527D01*
X013495Y000572D01*
X013548Y000625D01*
X013593Y000686D01*
X013627Y000753D01*
X013651Y000825D01*
X013662Y000900D01*
X013662Y000918D01*
X013203Y000918D01*
X013203Y000958D01*
X013662Y000958D01*
X013662Y000975D01*
X013651Y001050D01*
X013627Y001122D01*
X013593Y001189D01*
X013548Y001250D01*
X013495Y001304D01*
X013434Y001348D01*
X013367Y001383D01*
X013295Y001406D01*
X013220Y001418D01*
X013202Y001418D01*
X013202Y000958D01*
X013162Y000958D01*
X013162Y000918D01*
X012702Y000918D01*
X012702Y000900D01*
X012714Y000825D01*
X012738Y000753D01*
X012772Y000686D01*
X012816Y000625D01*
X012870Y000572D01*
X012758Y000713D02*
X012609Y000713D01*
X012662Y000871D02*
X012707Y000871D01*
X012702Y000958D02*
X013162Y000958D01*
X013162Y001418D01*
X013145Y001418D01*
X013070Y001406D01*
X012998Y001383D01*
X012931Y001348D01*
X012870Y001304D01*
X012816Y001250D01*
X012772Y001189D01*
X012738Y001122D01*
X012714Y001050D01*
X012702Y000975D01*
X012702Y000958D01*
X012711Y001030D02*
X012662Y001030D01*
X012598Y001188D02*
X012771Y001188D01*
X012929Y001347D02*
X012482Y001347D01*
X012482Y001505D02*
X014259Y001505D01*
X014126Y001664D02*
X013628Y001664D01*
X013677Y001822D02*
X014092Y001822D01*
X014092Y001981D02*
X013677Y001981D01*
X013677Y002140D02*
X014092Y002140D01*
X014092Y002298D02*
X013677Y002298D01*
X013633Y002457D02*
X014092Y002457D01*
X014092Y002615D02*
X013677Y002615D01*
X013677Y002774D02*
X014092Y002774D01*
X014092Y002932D02*
X013677Y002932D01*
X013677Y003091D02*
X014092Y003091D01*
X014015Y003249D02*
X013590Y003249D01*
X013668Y004029D02*
X013634Y004063D01*
X013677Y004106D01*
X013677Y004767D01*
X013572Y004873D01*
X013482Y004873D01*
X013482Y004878D01*
X013572Y004878D01*
X013677Y004983D01*
X013677Y005644D01*
X013634Y005688D01*
X013677Y005731D01*
X013677Y006392D01*
X013572Y006498D01*
X013482Y006498D01*
X013437Y006608D01*
X013432Y006613D01*
X013492Y006673D01*
X013492Y006803D01*
X014234Y006803D01*
X014330Y006842D01*
X014403Y006915D01*
X014903Y007415D01*
X014942Y007511D01*
X014942Y007614D01*
X014942Y008830D01*
X015290Y009178D01*
X016962Y009178D01*
X016990Y009149D01*
X017115Y009098D01*
X017250Y009098D01*
X017375Y009149D01*
X017471Y009245D01*
X017522Y009370D01*
X017522Y009505D01*
X017471Y009630D01*
X017375Y009726D01*
X017250Y009778D01*
X017115Y009778D01*
X016990Y009726D01*
X016962Y009698D01*
X015234Y009698D01*
X015131Y009698D01*
X015035Y009658D01*
X014535Y009158D01*
X014462Y009085D01*
X014422Y008989D01*
X014422Y007670D01*
X014075Y007323D01*
X013492Y007323D01*
X013492Y007452D01*
X013403Y007541D01*
X013955Y008092D01*
X014028Y008165D01*
X014067Y008261D01*
X014067Y010080D01*
X014415Y010428D01*
X016256Y010428D01*
X016359Y010428D01*
X016455Y010467D01*
X016540Y010553D01*
X016587Y010553D01*
X016615Y010524D01*
X016740Y010473D01*
X016875Y010473D01*
X017000Y010524D01*
X017096Y010620D01*
X017147Y010745D01*
X017147Y010855D01*
X017922Y010080D01*
X017922Y008948D01*
X017849Y008948D01*
X015984Y008948D01*
X015881Y008948D01*
X015785Y008908D01*
X015525Y008648D01*
X015242Y008648D01*
X014972Y008378D01*
X014972Y007997D01*
X015242Y007728D01*
X015605Y007728D01*
X015525Y007648D01*
X015242Y007648D01*
X014972Y007378D01*
X014972Y006997D01*
X015242Y006728D01*
X015605Y006728D01*
X015525Y006648D01*
X015242Y006648D01*
X014972Y006378D01*
X014972Y005997D01*
X015242Y005728D01*
X015623Y005728D01*
X015892Y005997D01*
X015892Y006280D01*
X015972Y006360D01*
X015972Y005997D01*
X016054Y005916D01*
X016035Y005908D01*
X015962Y005835D01*
X015712Y005585D01*
X015704Y005566D01*
X015623Y005648D01*
X015242Y005648D01*
X014972Y005378D01*
X014972Y005095D01*
X014712Y004835D01*
X014672Y004739D01*
X014672Y004636D01*
X014672Y003989D01*
X014672Y003886D01*
X014712Y003790D01*
X014962Y003540D01*
X015035Y003467D01*
X015054Y003460D01*
X014972Y003378D01*
X014972Y003198D01*
X015422Y003198D01*
X015422Y003178D01*
X014972Y003178D01*
X014972Y002997D01*
X015242Y002728D01*
X015422Y002728D01*
X015422Y003177D01*
X015442Y003177D01*
X015442Y002728D01*
X015623Y002728D01*
X015892Y002997D01*
X015892Y003178D01*
X015443Y003178D01*
X015443Y003198D01*
X015892Y003198D01*
X015892Y003378D01*
X015843Y003428D01*
X016022Y003428D01*
X015972Y003378D01*
X015972Y002997D01*
X016242Y002728D01*
X016623Y002728D01*
X016892Y002997D01*
X016892Y003235D01*
X017087Y003040D01*
X017160Y002967D01*
X017256Y002928D01*
X017953Y002928D01*
X017853Y002827D01*
X017853Y002778D01*
X017750Y002778D01*
X017615Y002778D01*
X017490Y002726D01*
X017292Y002528D01*
X016743Y002528D01*
X016623Y002648D01*
X016242Y002648D01*
X015972Y002378D01*
X015972Y001997D01*
X016092Y001877D01*
X016092Y001828D01*
X016042Y001778D01*
X015673Y001778D01*
X015892Y001997D01*
X015892Y002178D01*
X015443Y002178D01*
X015443Y002198D01*
X015892Y002198D01*
X015892Y002378D01*
X015623Y002648D01*
X015442Y002648D01*
X015442Y002198D01*
X015422Y002198D01*
X015422Y002178D01*
X014972Y002178D01*
X014972Y001997D01*
X015192Y001778D01*
X014948Y001778D01*
X014772Y001954D01*
X014772Y003380D01*
X014721Y003505D01*
X014625Y003601D01*
X014249Y003977D01*
X014124Y004029D01*
X013989Y004029D01*
X013668Y004029D01*
X013654Y004042D02*
X014672Y004042D01*
X014673Y003884D02*
X014342Y003884D01*
X014501Y003725D02*
X014777Y003725D01*
X014659Y003566D02*
X014936Y003566D01*
X015002Y003408D02*
X014761Y003408D01*
X014772Y003249D02*
X014972Y003249D01*
X014972Y003091D02*
X014772Y003091D01*
X014772Y002932D02*
X015037Y002932D01*
X015196Y002774D02*
X014772Y002774D01*
X014772Y002615D02*
X015209Y002615D01*
X015242Y002648D02*
X014972Y002378D01*
X014972Y002198D01*
X015422Y002198D01*
X015422Y002648D01*
X015242Y002648D01*
X015422Y002615D02*
X015442Y002615D01*
X015442Y002457D02*
X015422Y002457D01*
X015422Y002298D02*
X015442Y002298D01*
X015051Y002457D02*
X014772Y002457D01*
X014772Y002298D02*
X014972Y002298D01*
X014972Y002140D02*
X014772Y002140D01*
X014772Y001981D02*
X014989Y001981D01*
X014903Y001822D02*
X015147Y001822D01*
X015718Y001822D02*
X016086Y001822D01*
X015989Y001981D02*
X015876Y001981D01*
X015892Y002140D02*
X015972Y002140D01*
X015972Y002298D02*
X015892Y002298D01*
X015814Y002457D02*
X016051Y002457D01*
X016209Y002615D02*
X015655Y002615D01*
X015669Y002774D02*
X016196Y002774D01*
X016037Y002932D02*
X015827Y002932D01*
X015892Y003091D02*
X015972Y003091D01*
X015972Y003249D02*
X015892Y003249D01*
X015863Y003408D02*
X016002Y003408D01*
X015442Y003091D02*
X015422Y003091D01*
X015422Y002932D02*
X015442Y002932D01*
X015442Y002774D02*
X015422Y002774D01*
X015182Y003688D02*
X016807Y003688D01*
X017307Y003188D01*
X019964Y003188D01*
X020959Y004182D01*
X021181Y003959D02*
X019933Y002712D01*
X019933Y002438D01*
X019932Y002437D01*
X019932Y001813D01*
X019682Y001563D01*
X019682Y000938D01*
X019256Y000713D02*
X019109Y000713D01*
X019162Y000871D02*
X019202Y000871D01*
X019202Y001030D02*
X019162Y001030D01*
X019098Y001188D02*
X019267Y001188D01*
X019416Y001347D02*
X019022Y001347D01*
X019022Y001505D02*
X018971Y001630D01*
X018639Y001962D01*
X018682Y002006D01*
X018710Y001979D01*
X018751Y001955D01*
X018796Y001943D01*
X019028Y001943D01*
X019028Y002389D01*
X019124Y002389D01*
X019124Y001943D01*
X019356Y001943D01*
X019401Y001955D01*
X019442Y001979D01*
X019476Y002012D01*
X019497Y002049D01*
X019497Y002048D01*
X019603Y001943D01*
X019672Y001943D01*
X019672Y001920D01*
X019462Y001710D01*
X019422Y001614D01*
X019422Y001511D01*
X019443Y001664D02*
X018937Y001664D01*
X018778Y001822D02*
X019574Y001822D01*
X019565Y001981D02*
X019445Y001981D01*
X019124Y001981D02*
X019028Y001981D01*
X019028Y002140D02*
X019124Y002140D01*
X019124Y002298D02*
X019028Y002298D01*
X018707Y001981D02*
X018657Y001981D01*
X018134Y001505D02*
X016725Y001505D01*
X016625Y001399D02*
X016625Y001399D01*
X016572Y001347D02*
X018292Y001347D01*
X018267Y001188D02*
X016414Y001188D01*
X016471Y001245D02*
X016471Y001245D01*
X016772Y001664D02*
X017990Y001664D01*
X017949Y001822D02*
X016772Y001822D01*
X017706Y001981D02*
X017920Y001981D01*
X017379Y002615D02*
X016655Y002615D01*
X016669Y002774D02*
X017605Y002774D01*
X017245Y002932D02*
X016827Y002932D01*
X016892Y003091D02*
X017037Y003091D01*
X017432Y003438D02*
X019769Y003438D01*
X020736Y004405D01*
X020513Y004628D02*
X019573Y003688D01*
X017807Y003688D01*
X017307Y004188D01*
X017307Y005188D01*
X016807Y005688D01*
X016182Y005688D01*
X015932Y005438D01*
X015932Y004688D01*
X015432Y004188D01*
X014932Y003938D02*
X015182Y003688D01*
X014932Y003938D02*
X014932Y004688D01*
X015432Y005188D01*
X014972Y005152D02*
X013677Y005152D01*
X013677Y005310D02*
X014972Y005310D01*
X015063Y005469D02*
X013677Y005469D01*
X013677Y005627D02*
X015222Y005627D01*
X015184Y005786D02*
X013677Y005786D01*
X013677Y005945D02*
X015025Y005945D01*
X014972Y006103D02*
X013677Y006103D01*
X013677Y006262D02*
X014972Y006262D01*
X015014Y006420D02*
X013649Y006420D01*
X013449Y006579D02*
X015173Y006579D01*
X015232Y006737D02*
X013492Y006737D01*
X013056Y007063D02*
X014182Y007063D01*
X014682Y007563D01*
X014682Y008938D01*
X015182Y009438D01*
X017182Y009438D01*
X017047Y009750D02*
X014067Y009750D01*
X014067Y009908D02*
X017922Y009908D01*
X017922Y009750D02*
X017318Y009750D01*
X017487Y009591D02*
X017922Y009591D01*
X017922Y009433D02*
X017522Y009433D01*
X017482Y009274D02*
X017922Y009274D01*
X017922Y009115D02*
X017293Y009115D01*
X017072Y009115D02*
X015228Y009115D01*
X015069Y008957D02*
X017922Y008957D01*
X017901Y008688D02*
X019177Y007411D01*
X018954Y007189D02*
X017955Y008188D01*
X016432Y008188D01*
X015932Y008688D02*
X015432Y008188D01*
X014972Y008164D02*
X014942Y008164D01*
X014942Y008006D02*
X014972Y008006D01*
X014942Y007847D02*
X015122Y007847D01*
X014942Y007689D02*
X015566Y007689D01*
X015932Y007688D02*
X015432Y007188D01*
X014972Y007213D02*
X014700Y007213D01*
X014542Y007054D02*
X014972Y007054D01*
X015074Y006896D02*
X014383Y006896D01*
X014123Y007371D02*
X013492Y007371D01*
X013414Y007530D02*
X014282Y007530D01*
X014422Y007689D02*
X013551Y007689D01*
X013709Y007847D02*
X014422Y007847D01*
X014422Y008006D02*
X013868Y008006D01*
X014026Y008164D02*
X014422Y008164D01*
X014422Y008323D02*
X014067Y008323D01*
X014067Y008481D02*
X014422Y008481D01*
X014422Y008640D02*
X014067Y008640D01*
X014067Y008798D02*
X014422Y008798D01*
X014422Y008957D02*
X014067Y008957D01*
X014067Y009115D02*
X014492Y009115D01*
X014651Y009274D02*
X014067Y009274D01*
X014067Y009433D02*
X014809Y009433D01*
X014968Y009591D02*
X014067Y009591D01*
X014067Y010067D02*
X017922Y010067D01*
X017777Y010225D02*
X014213Y010225D01*
X014371Y010384D02*
X017619Y010384D01*
X017460Y010542D02*
X017018Y010542D01*
X017129Y010701D02*
X017301Y010701D01*
X016807Y010813D02*
X016432Y010813D01*
X016307Y010688D01*
X014307Y010688D01*
X013807Y010188D01*
X013807Y008313D01*
X013182Y007688D01*
X014859Y007371D02*
X014972Y007371D01*
X014942Y007530D02*
X015124Y007530D01*
X015932Y007688D02*
X017453Y007688D01*
X018954Y006187D01*
X019177Y005964D02*
X018901Y005688D01*
X018557Y005688D01*
X017057Y007188D01*
X016432Y007188D01*
X015932Y006688D02*
X015432Y006188D01*
X015892Y006262D02*
X015972Y006262D01*
X015972Y006103D02*
X015892Y006103D01*
X015840Y005945D02*
X016025Y005945D01*
X015913Y005786D02*
X015681Y005786D01*
X015643Y005627D02*
X015754Y005627D01*
X016432Y005188D02*
X016932Y004688D01*
X016932Y003938D01*
X017432Y003438D01*
X017853Y004010D02*
X017567Y004295D01*
X017567Y005060D01*
X017837Y004790D01*
X017889Y004738D01*
X017889Y004738D01*
X017865Y004697D01*
X017853Y004651D01*
X017853Y004361D01*
X018240Y004361D01*
X018240Y004265D01*
X017853Y004265D01*
X017853Y004010D01*
X017853Y004042D02*
X017821Y004042D01*
X017853Y004201D02*
X017662Y004201D01*
X017567Y004359D02*
X018240Y004359D01*
X017853Y004518D02*
X017567Y004518D01*
X017567Y004676D02*
X017859Y004676D01*
X017837Y004790D02*
X017837Y004790D01*
X017793Y004835D02*
X017567Y004835D01*
X017567Y004993D02*
X017634Y004993D01*
X018057Y004938D02*
X016807Y006188D01*
X016432Y006188D01*
X015932Y006688D02*
X016932Y006688D01*
X018307Y005313D01*
X018971Y005313D01*
X019400Y005741D01*
X019622Y005518D02*
X019042Y004938D01*
X018057Y004938D01*
X019076Y004527D02*
X019076Y004313D01*
X019076Y004527D02*
X019845Y005296D01*
X020432Y005883D01*
X020660Y005627D02*
X022100Y005627D01*
X022052Y005469D02*
X020386Y005469D01*
X020305Y005310D02*
X020305Y005310D01*
X020497Y005310D02*
X022074Y005310D01*
X022181Y005152D02*
X020661Y005152D01*
X020819Y004993D02*
X022507Y004993D01*
X022393Y004841D02*
X022393Y004841D01*
X022387Y004835D02*
X020978Y004835D01*
X021137Y004676D02*
X022228Y004676D01*
X022192Y004641D02*
X022192Y004641D01*
X022070Y004518D02*
X021295Y004518D01*
X021454Y004359D02*
X021911Y004359D01*
X021752Y004201D02*
X021612Y004201D01*
X021640Y004042D02*
X021725Y004042D01*
X021740Y003884D02*
X021499Y003884D01*
X021581Y003725D02*
X021340Y003725D01*
X021446Y003566D02*
X021182Y003566D01*
X020997Y003408D02*
X021422Y003408D01*
X021422Y003249D02*
X020839Y003249D01*
X020680Y003091D02*
X021187Y003091D01*
X021187Y002932D02*
X020962Y002932D01*
X021117Y002774D02*
X021187Y002774D01*
X021187Y002615D02*
X021117Y002615D01*
X021212Y002457D02*
X020730Y002457D01*
X020729Y002615D02*
X020633Y002615D01*
X020633Y002774D02*
X020729Y002774D01*
X020729Y002932D02*
X020633Y002932D01*
X020633Y002298D02*
X020729Y002298D01*
X020729Y002140D02*
X020633Y002140D01*
X020633Y001981D02*
X020729Y001981D01*
X021050Y001981D02*
X021187Y001981D01*
X021187Y001822D02*
X020192Y001822D01*
X020151Y001664D02*
X021257Y001664D01*
X021422Y001505D02*
X019993Y001505D01*
X019949Y001347D02*
X020429Y001347D01*
X020431Y001348D02*
X020370Y001304D01*
X020316Y001250D01*
X020272Y001189D01*
X020238Y001122D01*
X020214Y001050D01*
X020202Y000975D01*
X020202Y000958D01*
X020662Y000958D01*
X020662Y000918D01*
X020202Y000918D01*
X020202Y000900D01*
X020214Y000825D01*
X020238Y000753D01*
X020272Y000686D01*
X020316Y000625D01*
X020370Y000572D01*
X020431Y000527D01*
X020498Y000493D01*
X020570Y000470D01*
X020645Y000458D01*
X020662Y000458D01*
X020662Y000917D01*
X020702Y000917D01*
X020702Y000458D01*
X020720Y000458D01*
X020795Y000470D01*
X020867Y000493D01*
X020934Y000527D01*
X020995Y000572D01*
X021048Y000625D01*
X021093Y000686D01*
X021127Y000753D01*
X021151Y000825D01*
X021162Y000900D01*
X021162Y000918D01*
X020703Y000918D01*
X020703Y000958D01*
X021162Y000958D01*
X021162Y000975D01*
X021151Y001050D01*
X021127Y001122D01*
X021093Y001189D01*
X021048Y001250D01*
X020995Y001304D01*
X020934Y001348D01*
X020867Y001383D01*
X020795Y001406D01*
X020720Y001418D01*
X020702Y001418D01*
X020702Y000958D01*
X020662Y000958D01*
X020662Y001418D01*
X020645Y001418D01*
X020570Y001406D01*
X020498Y001383D01*
X020431Y001348D01*
X020271Y001188D02*
X020098Y001188D01*
X020162Y001030D02*
X020211Y001030D01*
X020207Y000871D02*
X020162Y000871D01*
X020109Y000713D02*
X020258Y000713D01*
X020394Y000554D02*
X019978Y000554D01*
X019387Y000554D02*
X018978Y000554D01*
X018387Y000554D02*
X013471Y000554D01*
X013606Y000713D02*
X018256Y000713D01*
X018202Y000871D02*
X013658Y000871D01*
X013654Y001030D02*
X018202Y001030D01*
X020302Y001981D02*
X020313Y001981D01*
X021117Y002140D02*
X021187Y002140D01*
X021187Y002298D02*
X021117Y002298D01*
X021682Y002064D02*
X021682Y000938D01*
X022162Y000871D02*
X022202Y000871D01*
X022202Y001030D02*
X022162Y001030D01*
X022162Y001188D02*
X022267Y001188D01*
X022128Y001347D02*
X022416Y001347D01*
X022422Y001505D02*
X021942Y001505D01*
X022108Y001664D02*
X022257Y001664D01*
X022187Y001822D02*
X022177Y001822D01*
X022177Y001981D02*
X022187Y001981D01*
X022177Y002140D02*
X022187Y002140D01*
X022177Y002298D02*
X022187Y002298D01*
X022212Y002457D02*
X022153Y002457D01*
X022177Y002615D02*
X022187Y002615D01*
X022177Y002774D02*
X022187Y002774D01*
X022177Y002932D02*
X022187Y002932D01*
X022177Y003091D02*
X022187Y003091D01*
X022422Y003249D02*
X021942Y003249D01*
X021999Y003408D02*
X022422Y003408D01*
X022183Y003566D02*
X022158Y003566D01*
X022183Y003959D02*
X021682Y003458D01*
X021682Y002812D01*
X022682Y002812D02*
X022682Y003906D01*
X022406Y004182D01*
X022629Y004405D02*
X023682Y003351D01*
X023682Y002812D01*
X023187Y002774D02*
X023177Y002774D01*
X023177Y002932D02*
X023187Y002932D01*
X023177Y003091D02*
X023187Y003091D01*
X023417Y003249D02*
X022942Y003249D01*
X022942Y003408D02*
X023258Y003408D01*
X023100Y003566D02*
X022942Y003566D01*
X023987Y003938D02*
X023074Y004850D01*
X022852Y004628D02*
X024667Y002812D01*
X024682Y002812D01*
X024187Y002774D02*
X024177Y002774D01*
X024177Y002932D02*
X024179Y002932D01*
X024177Y002615D02*
X024187Y002615D01*
X024212Y002457D02*
X024153Y002457D01*
X024177Y002298D02*
X024187Y002298D01*
X024177Y002140D02*
X024187Y002140D01*
X024177Y001981D02*
X024187Y001981D01*
X024177Y001822D02*
X024187Y001822D01*
X024257Y001664D02*
X024108Y001664D01*
X023942Y001505D02*
X024422Y001505D01*
X024416Y001347D02*
X023949Y001347D01*
X024098Y001188D02*
X024267Y001188D01*
X024202Y001030D02*
X024162Y001030D01*
X024162Y000871D02*
X024202Y000871D01*
X024256Y000713D02*
X024109Y000713D01*
X023978Y000554D02*
X024387Y000554D01*
X024682Y000938D02*
X024682Y002064D01*
X025177Y002140D02*
X025187Y002140D01*
X025177Y002298D02*
X025187Y002298D01*
X025212Y002457D02*
X025153Y002457D01*
X025177Y002615D02*
X025187Y002615D01*
X025177Y002774D02*
X025187Y002774D01*
X025177Y002932D02*
X025187Y002932D01*
X025177Y003091D02*
X025187Y003091D01*
X025528Y003566D02*
X025624Y003566D01*
X025624Y003725D02*
X025528Y003725D01*
X025528Y003884D02*
X025624Y003884D01*
X025624Y003986D02*
X026012Y003986D01*
X026012Y004276D01*
X026000Y004322D01*
X025976Y004363D01*
X025942Y004397D01*
X025901Y004420D01*
X025856Y004433D01*
X025624Y004433D01*
X025624Y003986D01*
X025624Y004042D02*
X025528Y004042D01*
X025528Y004201D02*
X025624Y004201D01*
X025624Y004359D02*
X025528Y004359D01*
X025978Y004359D02*
X026622Y004359D01*
X026622Y004201D02*
X026012Y004201D01*
X026012Y004042D02*
X026622Y004042D01*
X026622Y003884D02*
X026012Y003884D01*
X026012Y003725D02*
X026651Y003725D01*
X027118Y003566D02*
X026003Y003566D01*
X027092Y003408D02*
X024439Y003408D01*
X024353Y003566D02*
X024280Y003566D01*
X024598Y003249D02*
X027142Y003249D01*
X027432Y003438D02*
X027432Y004228D01*
X026932Y004228D02*
X026932Y004688D01*
X026807Y004813D01*
X024003Y004813D01*
X023520Y005296D01*
X023742Y005518D02*
X024198Y005063D01*
X027682Y005063D01*
X027932Y004813D01*
X027932Y004228D01*
X028432Y004228D02*
X028432Y003438D01*
X028932Y004228D02*
X028932Y005063D01*
X028682Y005313D01*
X024394Y005313D01*
X023965Y005741D01*
X023496Y005945D02*
X020812Y005945D01*
X020781Y005786D02*
X022280Y005786D01*
X022584Y005786D02*
X023338Y005786D01*
X023284Y005732D02*
X023284Y005732D01*
X023179Y005627D02*
X022765Y005627D01*
X022880Y005469D02*
X023021Y005469D01*
X022961Y005409D02*
X023297Y005073D01*
X023633Y004737D01*
X023297Y005073D01*
X023297Y005073D01*
X023297Y005073D01*
X022961Y005409D01*
X023059Y005310D02*
X023060Y005310D01*
X023218Y005152D02*
X023218Y005152D01*
X023376Y004993D02*
X023377Y004993D01*
X023535Y004835D02*
X023536Y004835D01*
X023616Y004676D02*
X023772Y004676D01*
X023775Y004518D02*
X026622Y004518D01*
X024789Y003938D02*
X023987Y003938D01*
X024092Y004201D02*
X024353Y004201D01*
X024385Y004359D02*
X023933Y004359D01*
X024589Y005563D02*
X029182Y005563D01*
X029432Y005813D01*
X029432Y006648D01*
X028932Y006648D02*
X028932Y007438D01*
X028932Y008044D01*
X029427Y008006D02*
X029437Y008006D01*
X029427Y008164D02*
X029437Y008164D01*
X029427Y008323D02*
X029437Y008323D01*
X029437Y008374D02*
X029437Y007778D01*
X029427Y007778D01*
X029427Y008374D01*
X029364Y008438D01*
X029391Y008465D01*
X029415Y008506D01*
X029427Y008552D01*
X029427Y008783D01*
X028981Y008783D01*
X028981Y008879D01*
X029427Y008879D01*
X029427Y009098D01*
X029437Y009098D01*
X029437Y008879D01*
X029884Y008879D01*
X029884Y008783D01*
X029437Y008783D01*
X029437Y008552D01*
X029450Y008506D01*
X029473Y008465D01*
X029501Y008438D01*
X029437Y008374D01*
X029464Y008481D02*
X029401Y008481D01*
X029427Y008640D02*
X029437Y008640D01*
X029884Y008798D02*
X028981Y008798D01*
X028980Y008880D02*
X028884Y008880D01*
X028884Y009267D01*
X028594Y009267D01*
X028548Y009255D01*
X028507Y009231D01*
X028473Y009198D01*
X028450Y009157D01*
X028437Y009111D01*
X028437Y008879D01*
X028884Y008879D01*
X028884Y008783D01*
X028437Y008783D01*
X028437Y008552D01*
X028450Y008506D01*
X028473Y008465D01*
X028501Y008438D01*
X028437Y008374D01*
X028437Y007778D01*
X028427Y007778D01*
X028427Y008374D01*
X028364Y008438D01*
X028391Y008465D01*
X028415Y008506D01*
X028427Y008552D01*
X028427Y008783D01*
X027981Y008783D01*
X027981Y008879D01*
X028427Y008879D01*
X028427Y009111D01*
X028415Y009157D01*
X028391Y009198D01*
X028358Y009231D01*
X028317Y009255D01*
X028271Y009267D01*
X027980Y009267D01*
X027980Y008880D01*
X027884Y008880D01*
X027884Y009267D01*
X027594Y009267D01*
X027548Y009255D01*
X027507Y009231D01*
X027473Y009198D01*
X027450Y009157D01*
X027437Y009111D01*
X027437Y008879D01*
X027884Y008879D01*
X027884Y008783D01*
X027437Y008783D01*
X027437Y008552D01*
X027450Y008506D01*
X027473Y008465D01*
X027501Y008438D01*
X027437Y008374D01*
X027437Y007778D01*
X027427Y007778D01*
X027427Y008374D01*
X027364Y008438D01*
X027391Y008465D01*
X027415Y008506D01*
X027427Y008552D01*
X027427Y008783D01*
X026981Y008783D01*
X026981Y008879D01*
X027427Y008879D01*
X027427Y009111D01*
X027415Y009157D01*
X027391Y009198D01*
X027358Y009231D01*
X027317Y009255D01*
X027271Y009267D01*
X026980Y009267D01*
X026980Y008880D01*
X026884Y008880D01*
X026884Y009267D01*
X026594Y009267D01*
X026548Y009255D01*
X026507Y009231D01*
X026473Y009198D01*
X026450Y009157D01*
X026442Y009129D01*
X026442Y009830D01*
X026540Y009928D01*
X028862Y009928D01*
X028842Y009880D01*
X028842Y009745D01*
X028894Y009620D01*
X028990Y009524D01*
X029092Y009482D01*
X029092Y009370D01*
X029135Y009267D01*
X028980Y009267D01*
X028980Y008880D01*
X028980Y008957D02*
X028884Y008957D01*
X028884Y009115D02*
X028980Y009115D01*
X029132Y009274D02*
X026442Y009274D01*
X026442Y009433D02*
X029092Y009433D01*
X028923Y009591D02*
X026442Y009591D01*
X026442Y009750D02*
X028842Y009750D01*
X028854Y009908D02*
X026520Y009908D01*
X026432Y010188D02*
X029932Y010188D01*
X030182Y009938D01*
X029932Y009563D02*
X029682Y009813D01*
X029182Y009813D01*
X029432Y009438D02*
X029682Y009438D01*
X029807Y009313D01*
X032307Y009313D01*
X032557Y009063D01*
X032557Y006563D01*
X032932Y006188D01*
X033432Y006188D01*
X033145Y006579D02*
X032909Y006579D01*
X032817Y006737D02*
X033265Y006737D01*
X033045Y006896D02*
X032817Y006896D01*
X032817Y007054D02*
X032823Y007054D01*
X032807Y007438D02*
X032807Y009188D01*
X032432Y009563D01*
X029932Y009563D01*
X030427Y009053D02*
X030437Y009053D01*
X030437Y008879D01*
X030884Y008879D01*
X030884Y008783D01*
X030437Y008783D01*
X030437Y008552D01*
X030450Y008506D01*
X030473Y008465D01*
X030501Y008438D01*
X030437Y008374D01*
X030437Y007778D01*
X030427Y007778D01*
X030427Y008374D01*
X030364Y008438D01*
X030391Y008465D01*
X030415Y008506D01*
X030427Y008552D01*
X030427Y008783D01*
X029981Y008783D01*
X029981Y008879D01*
X030427Y008879D01*
X030427Y009053D01*
X030427Y008957D02*
X030437Y008957D01*
X030884Y008798D02*
X029981Y008798D01*
X030427Y008640D02*
X030437Y008640D01*
X030464Y008481D02*
X030401Y008481D01*
X030427Y008323D02*
X030437Y008323D01*
X030427Y008164D02*
X030437Y008164D01*
X030427Y008006D02*
X030437Y008006D01*
X030427Y007847D02*
X030437Y007847D01*
X029932Y007688D02*
X029932Y008044D01*
X029932Y007688D02*
X029682Y007438D01*
X029432Y007438D01*
X029427Y007847D02*
X029437Y007847D01*
X029932Y007188D02*
X030182Y007438D01*
X030432Y007438D01*
X030682Y007438D01*
X030932Y007688D01*
X030932Y008044D01*
X031427Y008006D02*
X031437Y008006D01*
X031427Y008164D02*
X031437Y008164D01*
X031427Y008323D02*
X031437Y008323D01*
X031437Y008374D02*
X031437Y007714D01*
X031543Y007608D01*
X031672Y007608D01*
X031672Y007420D01*
X031575Y007323D01*
X030935Y007323D01*
X031153Y007540D01*
X031181Y007608D01*
X031322Y007608D01*
X031427Y007714D01*
X031427Y008374D01*
X031364Y008438D01*
X031391Y008465D01*
X031415Y008506D01*
X031427Y008552D01*
X031427Y008783D01*
X030981Y008783D01*
X030981Y008879D01*
X031427Y008879D01*
X031427Y009053D01*
X031437Y009053D01*
X031437Y008879D01*
X031884Y008879D01*
X031884Y008783D01*
X031437Y008783D01*
X031437Y008552D01*
X031450Y008506D01*
X031473Y008465D01*
X031501Y008438D01*
X031437Y008374D01*
X031464Y008481D02*
X031401Y008481D01*
X031427Y008640D02*
X031437Y008640D01*
X031884Y008798D02*
X030981Y008798D01*
X031427Y008957D02*
X031437Y008957D01*
X032682Y009688D02*
X033057Y009313D01*
X033057Y008563D01*
X033432Y008188D01*
X033769Y007530D02*
X034002Y007530D01*
X032297Y007530D02*
X032192Y007530D01*
X032192Y007371D02*
X032297Y007371D01*
X032297Y007213D02*
X032172Y007213D01*
X032297Y007054D02*
X032042Y007054D01*
X031883Y006896D02*
X032297Y006896D01*
X032297Y006737D02*
X030725Y006737D01*
X030692Y006579D02*
X032297Y006579D01*
X032335Y006420D02*
X030692Y006420D01*
X030692Y006262D02*
X032491Y006262D01*
X032649Y006103D02*
X030692Y006103D01*
X030692Y005945D02*
X032840Y005945D01*
X033155Y005786D02*
X030692Y005786D01*
X030689Y005627D02*
X033240Y005627D01*
X031682Y007063D02*
X030682Y007063D01*
X030432Y006813D01*
X030432Y005688D01*
X030182Y005438D01*
X029682Y005438D01*
X029432Y005188D01*
X028432Y006063D02*
X028182Y005813D01*
X024784Y005813D01*
X024411Y006187D01*
X024188Y005964D02*
X024589Y005563D01*
X025057Y006063D02*
X024432Y006688D01*
X023182Y006688D01*
X021432Y008438D01*
X021432Y008719D01*
X020959Y009193D01*
X021181Y009416D02*
X019784Y010813D01*
X019057Y010813D01*
X018432Y011438D01*
X018432Y011814D01*
X017937Y011652D02*
X017927Y011652D01*
X017927Y011494D02*
X017937Y011494D01*
X017989Y011335D02*
X018193Y011335D01*
X018061Y011176D02*
X018326Y011176D01*
X018220Y011018D02*
X018484Y011018D01*
X018378Y010859D02*
X018643Y010859D01*
X018537Y010701D02*
X018801Y010701D01*
X018831Y010542D02*
X018670Y010542D01*
X018692Y010384D02*
X018812Y010384D01*
X018692Y010225D02*
X019259Y010225D01*
X019356Y010225D02*
X020004Y010225D01*
X019802Y010254D02*
X019802Y010427D01*
X020661Y009568D01*
X020522Y009429D01*
X020299Y009206D01*
X020192Y009099D01*
X020192Y009217D01*
X020221Y009245D01*
X020272Y009370D01*
X020272Y009505D01*
X020221Y009630D01*
X020125Y009726D01*
X020000Y009778D01*
X019865Y009778D01*
X019801Y009751D01*
X019739Y009813D01*
X019766Y009840D01*
X019790Y009881D01*
X019802Y009927D01*
X019802Y010158D01*
X019356Y010158D01*
X019356Y010254D01*
X019802Y010254D01*
X019802Y010384D02*
X019846Y010384D01*
X019802Y010067D02*
X020163Y010067D01*
X020321Y009908D02*
X019797Y009908D01*
X020068Y009750D02*
X020480Y009750D01*
X020638Y009591D02*
X020237Y009591D01*
X020272Y009433D02*
X020526Y009433D01*
X020367Y009274D02*
X020232Y009274D01*
X020209Y009115D02*
X020192Y009115D01*
X019932Y008883D02*
X019932Y009438D01*
X019307Y009419D02*
X019307Y009063D01*
X020245Y008125D01*
X019919Y008006D02*
X019919Y008006D01*
X019761Y008164D02*
X019760Y008164D01*
X019602Y008323D02*
X019602Y008323D01*
X019521Y008481D02*
X019366Y008481D01*
X019363Y008640D02*
X019207Y008640D01*
X019204Y008798D02*
X019049Y008798D01*
X019070Y008957D02*
X018890Y008957D01*
X018812Y009115D02*
X018731Y009115D01*
X018692Y009274D02*
X018812Y009274D01*
X018812Y009433D02*
X018692Y009433D01*
X018692Y009591D02*
X018812Y009591D01*
X018813Y009750D02*
X018692Y009750D01*
X018692Y009908D02*
X018817Y009908D01*
X018812Y010067D02*
X018692Y010067D01*
X019165Y011073D02*
X018841Y011397D01*
X018927Y011483D01*
X018927Y012144D01*
X018884Y012188D01*
X018927Y012231D01*
X018927Y012892D01*
X018892Y012928D01*
X018962Y012928D01*
X018950Y012907D01*
X018937Y012861D01*
X018937Y012629D01*
X019384Y012629D01*
X019384Y012533D01*
X018937Y012533D01*
X018937Y012302D01*
X018950Y012256D01*
X018973Y012215D01*
X019001Y012188D01*
X018937Y012124D01*
X018937Y011464D01*
X019043Y011358D01*
X019184Y011358D01*
X019212Y011290D01*
X019285Y011217D01*
X019430Y011073D01*
X019165Y011073D01*
X019061Y011176D02*
X019326Y011176D01*
X019193Y011335D02*
X018903Y011335D01*
X018927Y011494D02*
X018937Y011494D01*
X018927Y011652D02*
X018937Y011652D01*
X018927Y011811D02*
X018937Y011811D01*
X018927Y011969D02*
X018937Y011969D01*
X018927Y012128D02*
X018941Y012128D01*
X018927Y012286D02*
X018942Y012286D01*
X018927Y012445D02*
X018937Y012445D01*
X018927Y012603D02*
X019384Y012603D01*
X019481Y012603D02*
X023884Y012603D01*
X023981Y012603D02*
X028296Y012603D01*
X028297Y012445D02*
X028125Y012445D01*
X028389Y012762D02*
X024427Y012762D01*
X024407Y012920D02*
X028565Y012920D01*
X028409Y012782D02*
X028409Y012782D01*
X028556Y012562D02*
X028682Y012688D01*
X031432Y012688D01*
X031682Y012438D01*
X031682Y011688D01*
X031182Y011188D01*
X030682Y010688D02*
X030682Y011688D01*
X031182Y012188D01*
X030182Y012188D02*
X029682Y011688D01*
X029682Y010938D01*
X029432Y010688D01*
X026182Y010688D01*
X025682Y010188D01*
X025682Y008563D01*
X025307Y008188D01*
X024519Y008188D01*
X023965Y007634D01*
X024188Y007411D02*
X024714Y007938D01*
X025432Y007938D01*
X025932Y008438D01*
X025932Y010063D01*
X026307Y010438D01*
X030432Y010438D01*
X030682Y010688D01*
X029422Y011626D02*
X029381Y011668D01*
X029202Y011668D01*
X029202Y011208D01*
X029162Y011208D01*
X029162Y011668D01*
X029030Y011668D01*
X029070Y011708D01*
X029381Y011708D01*
X029429Y011756D01*
X029422Y011739D01*
X029422Y011636D01*
X029422Y011626D01*
X029422Y011652D02*
X029397Y011652D01*
X029202Y011652D02*
X029162Y011652D01*
X029162Y011494D02*
X029202Y011494D01*
X029202Y011335D02*
X029162Y011335D01*
X029162Y011208D02*
X028702Y011208D01*
X028702Y011340D01*
X028529Y011166D01*
X028529Y011166D01*
X028456Y011093D01*
X028360Y011054D01*
X028177Y011054D01*
X028177Y010983D01*
X028142Y010948D01*
X028744Y010948D01*
X028702Y010989D01*
X028702Y011168D01*
X029162Y011168D01*
X029162Y011208D01*
X029162Y011176D02*
X028539Y011176D01*
X028697Y011335D02*
X028702Y011335D01*
X028308Y011314D02*
X029182Y012188D01*
X028557Y012188D02*
X028557Y012561D01*
X028556Y012562D01*
X028557Y012188D02*
X028431Y012062D01*
X027682Y012062D01*
X027187Y012128D02*
X024424Y012128D01*
X024423Y012286D02*
X027187Y012286D01*
X027240Y012445D02*
X024427Y012445D01*
X024427Y011969D02*
X027187Y011969D01*
X027187Y011811D02*
X024427Y011811D01*
X024427Y011652D02*
X027195Y011652D01*
X026996Y011494D02*
X024427Y011494D01*
X023932Y011794D02*
X023326Y011794D01*
X023307Y011813D01*
X022980Y012140D01*
X022411Y012140D01*
X022951Y012445D02*
X023437Y012445D01*
X023442Y012286D02*
X023201Y012286D01*
X023360Y012128D02*
X023441Y012128D01*
X023307Y011813D02*
X023307Y010688D01*
X023682Y010313D01*
X023682Y009133D01*
X023074Y008525D01*
X022852Y008748D02*
X023432Y009329D01*
X023432Y010188D01*
X023057Y010563D01*
X023057Y011563D01*
X022932Y011688D01*
X021557Y011688D01*
X021182Y011313D01*
X021032Y011313D01*
X020954Y011235D01*
X019635Y011235D01*
X019432Y011438D01*
X019432Y011794D01*
X019927Y011811D02*
X020439Y011811D01*
X020400Y011969D02*
X019927Y011969D01*
X019924Y012128D02*
X020400Y012128D01*
X020400Y012286D02*
X019923Y012286D01*
X019927Y012445D02*
X020413Y012445D01*
X019927Y012762D02*
X023437Y012762D01*
X023458Y012920D02*
X019907Y012920D01*
X018958Y012920D02*
X018899Y012920D01*
X018927Y012762D02*
X018937Y012762D01*
X018432Y012938D02*
X018432Y012562D01*
X018431Y012562D01*
X016966Y012920D02*
X016899Y012920D01*
X017632Y013438D02*
X015432Y013438D01*
X015212Y013585D02*
X015212Y013585D01*
X015182Y013555D02*
X014555Y013555D01*
X014922Y013238D02*
X008942Y013238D01*
X008942Y013396D02*
X015023Y013396D01*
X013809Y013555D02*
X010555Y013555D01*
X010182Y013988D02*
X008982Y013988D01*
X008682Y013688D01*
X008682Y011062D01*
X008682Y010314D02*
X008682Y009438D01*
X008932Y009188D01*
X009682Y009188D01*
X010682Y009188D01*
X011057Y009433D02*
X011308Y009433D01*
X011242Y009274D02*
X011122Y009274D01*
X010858Y009591D02*
X011422Y009591D01*
X011422Y009750D02*
X010003Y009750D01*
X010099Y009591D02*
X010506Y009591D01*
X011422Y009908D02*
X009102Y009908D01*
X009177Y010067D02*
X011422Y010067D01*
X011942Y010067D02*
X013297Y010067D01*
X013297Y010225D02*
X011942Y010225D01*
X011854Y010384D02*
X013305Y010384D01*
X013410Y010533D02*
X013410Y010533D01*
X013419Y010542D02*
X011695Y010542D01*
X011942Y009908D02*
X013297Y009908D01*
X013297Y009750D02*
X011942Y009750D01*
X013578Y010701D02*
X010037Y010701D01*
X009942Y010859D02*
X013736Y010859D01*
X013895Y011018D02*
X009942Y011018D01*
X009942Y011176D02*
X013213Y011176D01*
X013107Y011335D02*
X009942Y011335D01*
X009942Y011494D02*
X013092Y011494D01*
X013652Y011176D02*
X014079Y011176D01*
X013962Y011085D02*
X013962Y011085D01*
X013810Y011335D02*
X016172Y011335D01*
X015937Y011494D02*
X015799Y011494D01*
X016432Y011188D02*
X016432Y011814D01*
X016530Y010542D02*
X016597Y010542D01*
X015675Y008798D02*
X014942Y008798D01*
X014942Y008640D02*
X015234Y008640D01*
X015075Y008481D02*
X014942Y008481D01*
X014942Y008323D02*
X014972Y008323D01*
X015932Y008688D02*
X017901Y008688D01*
X017928Y007847D02*
X017661Y007847D01*
X017820Y007689D02*
X018087Y007689D01*
X017978Y007530D02*
X018245Y007530D01*
X018137Y007371D02*
X018404Y007371D01*
X018295Y007213D02*
X018536Y007213D01*
X018454Y007054D02*
X018695Y007054D01*
X018613Y006896D02*
X018853Y006896D01*
X018771Y006737D02*
X019012Y006737D01*
X019175Y006737D02*
X022765Y006737D01*
X022924Y006579D02*
X019234Y006579D01*
X019393Y006420D02*
X023972Y006420D01*
X023814Y006262D02*
X020643Y006262D01*
X020775Y006103D02*
X023655Y006103D01*
X023980Y006948D02*
X023290Y006948D01*
X022930Y007308D01*
X023008Y007308D01*
X023148Y007366D01*
X023170Y007388D01*
X023187Y007388D01*
X023298Y007433D01*
X023396Y007531D01*
X023529Y007399D01*
X023751Y007176D01*
X023974Y006953D01*
X023980Y006948D01*
X023873Y007054D02*
X023183Y007054D01*
X023025Y007213D02*
X023714Y007213D01*
X023556Y007371D02*
X023154Y007371D01*
X023394Y007530D02*
X023397Y007530D01*
X023742Y007857D02*
X024323Y008438D01*
X025182Y008438D01*
X025432Y008688D01*
X025432Y010313D01*
X026057Y010938D01*
X026807Y010938D01*
X027182Y011313D01*
X027681Y011313D01*
X027682Y011314D01*
X028308Y011314D01*
X028177Y011018D02*
X028702Y011018D01*
X026837Y011335D02*
X023567Y011335D01*
X023567Y011176D02*
X025954Y011176D01*
X025770Y011018D02*
X023567Y011018D01*
X023567Y010859D02*
X025611Y010859D01*
X025453Y010701D02*
X023662Y010701D01*
X023820Y010542D02*
X024081Y010542D01*
X024062Y010384D02*
X023934Y010384D01*
X023942Y010225D02*
X024509Y010225D01*
X024606Y010225D02*
X025172Y010225D01*
X025172Y010067D02*
X025052Y010067D01*
X025047Y009908D02*
X025172Y009908D01*
X025172Y009750D02*
X025052Y009750D01*
X025052Y009591D02*
X025172Y009591D01*
X025172Y009433D02*
X025052Y009433D01*
X025052Y009274D02*
X025172Y009274D01*
X025172Y009115D02*
X025052Y009115D01*
X025172Y008957D02*
X024765Y008957D01*
X024606Y008798D02*
X025172Y008798D01*
X024557Y009117D02*
X023520Y008080D01*
X023318Y008323D02*
X023317Y008323D01*
X023476Y008481D02*
X023476Y008481D01*
X023632Y008640D02*
X023712Y008640D01*
X023715Y008798D02*
X023871Y008798D01*
X023874Y008957D02*
X024029Y008957D01*
X024062Y009115D02*
X023942Y009115D01*
X023942Y009274D02*
X024062Y009274D01*
X024062Y009433D02*
X023942Y009433D01*
X023942Y009591D02*
X024062Y009591D01*
X024063Y009750D02*
X023942Y009750D01*
X023942Y009908D02*
X024067Y009908D01*
X024062Y010067D02*
X023942Y010067D01*
X024509Y010384D02*
X024605Y010384D01*
X024605Y010542D02*
X024509Y010542D01*
X025034Y010542D02*
X025294Y010542D01*
X025180Y010384D02*
X025052Y010384D01*
X024557Y009419D02*
X024557Y009117D01*
X023057Y009399D02*
X022629Y008970D01*
X022406Y009193D02*
X022682Y009469D01*
X022682Y009938D01*
X022368Y010067D02*
X021296Y010067D01*
X021137Y010225D02*
X022489Y010225D01*
X022490Y010226D02*
X022394Y010130D01*
X022342Y010005D01*
X022342Y009874D01*
X022248Y009874D01*
X021868Y009494D01*
X020764Y010599D01*
X020772Y010620D01*
X020772Y010755D01*
X020738Y010838D01*
X021403Y010838D01*
X021508Y010944D01*
X021508Y011271D01*
X021665Y011428D01*
X021857Y011428D01*
X021857Y010944D01*
X021962Y010838D01*
X022797Y010838D01*
X022797Y010511D01*
X022837Y010415D01*
X022910Y010342D01*
X023172Y010080D01*
X023172Y009883D01*
X023125Y009903D01*
X023022Y009903D01*
X023022Y010005D01*
X022971Y010130D01*
X022875Y010226D01*
X022750Y010278D01*
X022615Y010278D01*
X022490Y010226D01*
X022876Y010225D02*
X023027Y010225D01*
X022997Y010067D02*
X023172Y010067D01*
X023172Y009908D02*
X023022Y009908D01*
X022342Y009908D02*
X021455Y009908D01*
X021613Y009750D02*
X022123Y009750D01*
X021965Y009591D02*
X021772Y009591D01*
X022161Y009416D02*
X022183Y009416D01*
X021955Y009188D01*
X021807Y009188D01*
X020432Y010563D01*
X020432Y010688D01*
X020772Y010701D02*
X022797Y010701D01*
X022797Y010542D02*
X020820Y010542D01*
X020979Y010384D02*
X022869Y010384D01*
X021941Y010859D02*
X021424Y010859D01*
X021508Y011018D02*
X021857Y011018D01*
X021857Y011176D02*
X021508Y011176D01*
X021572Y011335D02*
X021857Y011335D01*
X021154Y011652D02*
X019927Y011652D01*
X021508Y011969D02*
X021857Y011969D01*
X021857Y012128D02*
X021508Y012128D01*
X021508Y012286D02*
X021857Y012286D01*
X021870Y012445D02*
X021495Y012445D01*
X023884Y012762D02*
X023980Y012762D01*
X023980Y012920D02*
X023884Y012920D01*
X025521Y013555D02*
X028844Y013555D01*
X028893Y013505D02*
X028750Y013649D01*
X028672Y013836D01*
X028672Y014039D01*
X028750Y014227D01*
X028893Y014370D01*
X029081Y014448D01*
X029284Y014448D01*
X029471Y014370D01*
X029615Y014227D01*
X029692Y014039D01*
X029692Y013836D01*
X029615Y013649D01*
X029471Y013505D01*
X029284Y013428D01*
X029081Y013428D01*
X028893Y013505D01*
X028723Y013713D02*
X025641Y013713D01*
X025692Y013872D02*
X028672Y013872D01*
X028672Y014030D02*
X025692Y014030D01*
X025630Y014189D02*
X028734Y014189D01*
X028871Y014347D02*
X025494Y014347D01*
X026332Y014924D02*
X026390Y014832D01*
X026458Y014747D01*
X026535Y014670D01*
X026620Y014602D01*
X026712Y014544D01*
X026811Y014496D01*
X026913Y014460D01*
X027020Y014436D01*
X027102Y014427D01*
X027102Y015314D01*
X026215Y015314D01*
X026225Y015231D01*
X026249Y015125D01*
X026285Y015022D01*
X026332Y014924D01*
X026304Y014982D02*
X023752Y014982D01*
X023752Y015140D02*
X026245Y015140D01*
X026217Y015299D02*
X023677Y015299D01*
X023752Y015224D02*
X023418Y015558D01*
X022946Y015558D01*
X022612Y015224D01*
X022612Y014752D01*
X022946Y014418D01*
X023418Y014418D01*
X023752Y014752D01*
X023752Y015224D01*
X023519Y015457D02*
X027102Y015457D01*
X027102Y015474D02*
X027102Y015314D01*
X027262Y015314D01*
X027262Y014427D01*
X027345Y014436D01*
X027451Y014460D01*
X027554Y014496D01*
X027652Y014544D01*
X027745Y014602D01*
X027830Y014670D01*
X027907Y014747D01*
X027975Y014832D01*
X028033Y014924D01*
X028080Y015022D01*
X028116Y015125D01*
X028140Y015231D01*
X028149Y015314D01*
X027263Y015314D01*
X027263Y015474D01*
X028149Y015474D01*
X028140Y015557D01*
X028116Y015663D01*
X028080Y015766D01*
X028033Y015864D01*
X027975Y015956D01*
X027907Y016041D01*
X027830Y016118D01*
X027745Y016186D01*
X027652Y016244D01*
X027554Y016292D01*
X027451Y016328D01*
X027345Y016352D01*
X027262Y016361D01*
X027262Y015474D01*
X027102Y015474D01*
X026215Y015474D01*
X026225Y015557D01*
X026249Y015663D01*
X026285Y015766D01*
X026332Y015864D01*
X026390Y015956D01*
X026458Y016041D01*
X026535Y016118D01*
X026620Y016186D01*
X026712Y016244D01*
X026811Y016292D01*
X026913Y016328D01*
X027020Y016352D01*
X027102Y016361D01*
X027102Y015474D01*
X027102Y015616D02*
X027262Y015616D01*
X027262Y015774D02*
X027102Y015774D01*
X027102Y015933D02*
X027262Y015933D01*
X027262Y016091D02*
X027102Y016091D01*
X027102Y016250D02*
X027262Y016250D01*
X027641Y016250D02*
X029452Y016250D01*
X029452Y016283D02*
X029452Y015559D01*
X029442Y015535D01*
X029442Y015340D01*
X029517Y015160D01*
X029655Y015022D01*
X029835Y014948D01*
X030030Y014948D01*
X030210Y015022D01*
X030348Y015160D01*
X030422Y015340D01*
X030422Y015535D01*
X030412Y015559D01*
X030412Y015989D01*
X030696Y016272D01*
X030769Y016449D01*
X030769Y016639D01*
X030769Y016700D01*
X030796Y016693D01*
X031028Y016693D01*
X031028Y017139D01*
X031124Y017139D01*
X031124Y016693D01*
X031356Y016693D01*
X031401Y016705D01*
X031442Y016729D01*
X031476Y016762D01*
X031500Y016803D01*
X031512Y016849D01*
X031512Y017140D01*
X031124Y017140D01*
X031124Y017236D01*
X031028Y017236D01*
X031028Y017683D01*
X030981Y017683D01*
X031089Y017791D01*
X031162Y017967D01*
X031162Y018292D01*
X031162Y019083D01*
X031089Y019260D01*
X030954Y019395D01*
X030778Y019468D01*
X030587Y019468D01*
X030410Y019395D01*
X030275Y019260D01*
X030202Y019083D01*
X030202Y018292D01*
X030202Y018262D01*
X029882Y017941D01*
X029809Y017764D01*
X029809Y017574D01*
X029809Y017283D01*
X029809Y016743D01*
X029660Y016595D01*
X029525Y016460D01*
X029452Y016283D01*
X029504Y016408D02*
X026302Y016408D01*
X026302Y016382D02*
X026154Y016026D01*
X025881Y015753D01*
X025525Y015605D01*
X025139Y015605D01*
X024782Y015753D01*
X024510Y016026D01*
X024362Y016382D01*
X024362Y016768D01*
X024510Y017125D01*
X024782Y017397D01*
X025139Y017545D01*
X025525Y017545D01*
X025881Y017397D01*
X026154Y017125D01*
X026302Y016768D01*
X026302Y016382D01*
X026247Y016250D02*
X026724Y016250D01*
X026508Y016091D02*
X026181Y016091D01*
X026061Y015933D02*
X026375Y015933D01*
X026289Y015774D02*
X025903Y015774D01*
X026238Y015616D02*
X025550Y015616D01*
X025113Y015616D02*
X020701Y015616D01*
X020747Y015457D02*
X022846Y015457D01*
X022687Y015299D02*
X020752Y015299D01*
X020752Y015140D02*
X022612Y015140D01*
X022612Y014982D02*
X020233Y014982D01*
X020132Y014982D02*
X017752Y014982D01*
X017752Y015140D02*
X019612Y015140D01*
X019612Y015299D02*
X017677Y015299D01*
X017752Y014823D02*
X019612Y014823D01*
X019612Y014664D02*
X017665Y014664D01*
X017507Y014506D02*
X017894Y014506D01*
X018470Y014506D02*
X019620Y014506D01*
X019670Y014347D02*
X018629Y014347D01*
X018752Y014189D02*
X019785Y014189D01*
X020132Y014189D02*
X020232Y014189D01*
X020232Y014347D02*
X020132Y014347D01*
X020132Y014506D02*
X020232Y014506D01*
X020232Y014664D02*
X020132Y014664D01*
X020132Y014823D02*
X020232Y014823D01*
X020232Y015140D02*
X020132Y015140D01*
X020132Y015299D02*
X020232Y015299D01*
X020232Y015457D02*
X020132Y015457D01*
X020132Y015616D02*
X020232Y015616D01*
X020232Y015774D02*
X020132Y015774D01*
X020132Y015933D02*
X020232Y015933D01*
X020319Y015933D02*
X024602Y015933D01*
X024482Y016091D02*
X007542Y016091D01*
X007495Y016111D02*
X007247Y016111D01*
X007018Y016016D01*
X006843Y015841D01*
X006748Y015612D01*
X006748Y015364D01*
X006843Y015135D01*
X007018Y014960D01*
X007247Y014865D01*
X007495Y014865D01*
X007724Y014960D01*
X007899Y015135D01*
X007994Y015364D01*
X007994Y015612D01*
X007899Y015841D01*
X007724Y016016D01*
X007495Y016111D01*
X007201Y016091D02*
X001164Y016091D01*
X001117Y016111D02*
X000869Y016111D01*
X000641Y016016D01*
X000465Y015841D01*
X000370Y015612D01*
X000370Y015364D01*
X000465Y015135D01*
X000641Y014960D01*
X000869Y014865D01*
X001117Y014865D01*
X001346Y014960D01*
X001521Y015135D01*
X001616Y015364D01*
X001616Y015612D01*
X001521Y015841D01*
X001346Y016016D01*
X001117Y016111D01*
X000823Y016091D02*
X000362Y016091D01*
X000362Y015933D02*
X000558Y015933D01*
X000438Y015774D02*
X000362Y015774D01*
X000362Y015616D02*
X000372Y015616D01*
X000362Y015457D02*
X000370Y015457D01*
X000362Y015299D02*
X000397Y015299D01*
X000362Y015140D02*
X000463Y015140D01*
X000362Y014982D02*
X000619Y014982D01*
X000362Y014823D02*
X008612Y014823D01*
X008612Y014752D02*
X008946Y014418D01*
X009418Y014418D01*
X009752Y014752D01*
X009752Y015224D01*
X009418Y015558D01*
X008946Y015558D01*
X008612Y015224D01*
X008612Y014752D01*
X008700Y014664D02*
X000362Y014664D01*
X000362Y014506D02*
X008858Y014506D01*
X008816Y014189D02*
X000362Y014189D01*
X000362Y014347D02*
X009736Y014347D01*
X009894Y014506D02*
X009507Y014506D01*
X009665Y014664D02*
X011612Y014664D01*
X011612Y014506D02*
X010470Y014506D01*
X010629Y014347D02*
X011669Y014347D01*
X011785Y014189D02*
X010752Y014189D01*
X011612Y014823D02*
X009752Y014823D01*
X009752Y014982D02*
X011612Y014982D01*
X011612Y015140D02*
X009752Y015140D01*
X009677Y015299D02*
X011612Y015299D01*
X011612Y015457D02*
X009519Y015457D01*
X008846Y015457D02*
X007994Y015457D01*
X007993Y015616D02*
X011664Y015616D01*
X011773Y015774D02*
X007927Y015774D01*
X007807Y015933D02*
X012033Y015933D01*
X012332Y015933D02*
X020046Y015933D01*
X019773Y015774D02*
X012592Y015774D01*
X009651Y013713D02*
X009076Y013713D01*
X008942Y013555D02*
X009809Y013555D01*
X008657Y014030D02*
X000362Y014030D01*
X000362Y013872D02*
X008499Y013872D01*
X007112Y013555D02*
X001252Y013555D01*
X001466Y013396D02*
X006899Y013396D01*
X006801Y013238D02*
X001564Y013238D01*
X001616Y013079D02*
X006748Y013079D01*
X006748Y012920D02*
X001616Y012920D01*
X001574Y012762D02*
X006791Y012762D01*
X006875Y012603D02*
X001490Y012603D01*
X001310Y012445D02*
X007054Y012445D01*
X009682Y012188D02*
X009682Y010688D01*
X009932Y010438D01*
X009362Y009750D02*
X008942Y009750D01*
X008942Y009591D02*
X009266Y009591D01*
X007971Y008957D02*
X001840Y008957D01*
X001906Y008798D02*
X007812Y008798D01*
X006334Y008640D02*
X001912Y008640D01*
X001866Y008481D02*
X006120Y008481D01*
X005962Y008323D02*
X005141Y008323D01*
X005177Y008164D02*
X005803Y008164D01*
X005644Y008006D02*
X005177Y008006D01*
X005177Y007847D02*
X005592Y007847D01*
X005592Y007689D02*
X005177Y007689D01*
X005147Y007530D02*
X005592Y007530D01*
X004730Y008006D02*
X004634Y008006D01*
X004634Y008164D02*
X004730Y008164D01*
X004730Y008323D02*
X004634Y008323D01*
X004223Y008323D02*
X001746Y008323D01*
X001807Y008168D02*
X001912Y008062D01*
X001912Y007313D01*
X001807Y007208D01*
X001058Y007208D01*
X000952Y007313D01*
X000952Y008062D01*
X001058Y008168D01*
X001807Y008168D01*
X001810Y008164D02*
X004187Y008164D01*
X004187Y008006D02*
X001912Y008006D01*
X001912Y007847D02*
X004187Y007847D01*
X004187Y007689D02*
X001912Y007689D01*
X001912Y007530D02*
X004218Y007530D01*
X003635Y007371D02*
X001912Y007371D01*
X001812Y007213D02*
X003477Y007213D01*
X003318Y007054D02*
X000362Y007054D01*
X000362Y006896D02*
X003160Y006896D01*
X003682Y006262D02*
X003683Y006262D01*
X003682Y006103D02*
X003683Y006103D01*
X003682Y005945D02*
X003683Y005945D01*
X003682Y005786D02*
X003683Y005786D01*
X003682Y005627D02*
X003683Y005627D01*
X003682Y005469D02*
X003683Y005469D01*
X003682Y005310D02*
X003683Y005310D01*
X003682Y005152D02*
X003683Y005152D01*
X003436Y005152D02*
X003429Y005152D01*
X002936Y005152D02*
X002242Y005152D01*
X002242Y005310D02*
X002884Y005310D01*
X002884Y005469D02*
X002242Y005469D01*
X002242Y005627D02*
X002849Y005627D01*
X002842Y005644D02*
X002842Y006098D01*
X001573Y006098D01*
X001379Y005903D01*
X001379Y005793D01*
X001436Y005736D01*
X001446Y005753D01*
X001479Y005786D01*
X001386Y005786D01*
X001479Y005786D02*
X001520Y005810D01*
X001566Y005822D01*
X001788Y005822D01*
X001788Y005445D01*
X001864Y005445D01*
X001864Y005822D01*
X002086Y005822D01*
X002132Y005810D01*
X002173Y005786D01*
X001864Y005786D02*
X001788Y005786D01*
X001788Y005627D02*
X001864Y005627D01*
X001864Y005469D02*
X001788Y005469D01*
X001788Y005310D02*
X001864Y005310D01*
X001864Y005152D02*
X001788Y005152D01*
X001788Y004993D02*
X001864Y004993D01*
X002098Y004993D02*
X003930Y004993D01*
X004043Y004835D02*
X001310Y004835D01*
X001379Y004993D02*
X001554Y004993D01*
X001152Y004676D02*
X004201Y004676D01*
X004360Y004518D02*
X001877Y004518D01*
X000622Y005152D02*
X000362Y005152D01*
X000362Y005310D02*
X000622Y005310D01*
X000622Y005469D02*
X000362Y005469D01*
X000362Y005627D02*
X000622Y005627D01*
X000692Y005786D02*
X000362Y005786D01*
X000362Y005945D02*
X000699Y005945D01*
X000699Y006103D02*
X000362Y006103D01*
X000362Y006262D02*
X000776Y006262D01*
X000934Y006420D02*
X000362Y006420D01*
X000362Y006579D02*
X001093Y006579D01*
X001144Y006630D02*
X001144Y006630D01*
X001267Y006737D02*
X000362Y006737D01*
X000362Y007213D02*
X001053Y007213D01*
X000952Y007371D02*
X000362Y007371D01*
X000362Y007530D02*
X000952Y007530D01*
X000952Y007689D02*
X000362Y007689D01*
X000362Y007847D02*
X000952Y007847D01*
X000952Y008006D02*
X000362Y008006D01*
X000362Y008164D02*
X001054Y008164D01*
X001119Y008323D02*
X000362Y008323D01*
X000362Y008481D02*
X000998Y008481D01*
X000952Y008640D02*
X000362Y008640D01*
X000362Y008798D02*
X000959Y008798D01*
X001024Y008957D02*
X000362Y008957D01*
X000362Y009115D02*
X001211Y009115D01*
X001177Y009274D02*
X000362Y009274D01*
X000362Y009433D02*
X001018Y009433D01*
X000953Y009591D02*
X000362Y009591D01*
X000362Y009750D02*
X000952Y009750D01*
X001004Y009908D02*
X000362Y009908D01*
X001420Y005945D02*
X002842Y005945D01*
X000507Y004993D02*
X000362Y004993D01*
X000362Y004835D02*
X000375Y004835D01*
X000362Y003249D02*
X000392Y003249D01*
X000362Y003091D02*
X000548Y003091D01*
X000707Y002932D02*
X000362Y002932D01*
X000362Y002774D02*
X000622Y002774D01*
X000622Y002615D02*
X000362Y002615D01*
X000362Y002457D02*
X000622Y002457D01*
X000622Y002298D02*
X000362Y002298D01*
X000362Y002140D02*
X000622Y002140D01*
X000690Y001981D02*
X000362Y001981D01*
X000362Y001822D02*
X000817Y001822D01*
X000975Y001664D02*
X000362Y001664D01*
X000362Y001505D02*
X001134Y001505D01*
X003415Y003091D02*
X003450Y003091D01*
X004415Y003091D02*
X004450Y003091D01*
X004980Y003566D02*
X009547Y003566D01*
X009547Y003725D02*
X004980Y003725D01*
X004980Y003884D02*
X009547Y003884D01*
X009547Y004042D02*
X004980Y004042D01*
X004949Y004201D02*
X009547Y004201D01*
X009432Y003408D02*
X009433Y003408D01*
X009432Y003249D02*
X009433Y003249D01*
X009432Y003091D02*
X009433Y003091D01*
X009432Y002932D02*
X009433Y002932D01*
X009433Y002876D02*
X009433Y002264D01*
X009547Y002264D01*
X009547Y002045D01*
X009200Y001698D01*
X009060Y001698D01*
X009080Y001717D01*
X009153Y001790D01*
X009192Y001886D01*
X009192Y002311D01*
X009204Y002300D01*
X009245Y002276D01*
X009291Y002264D01*
X009432Y002264D01*
X009432Y002876D01*
X009433Y002876D01*
X009432Y002774D02*
X009433Y002774D01*
X009432Y002615D02*
X009433Y002615D01*
X009432Y002457D02*
X009433Y002457D01*
X009432Y002298D02*
X009433Y002298D01*
X009547Y002140D02*
X009192Y002140D01*
X009192Y002298D02*
X009206Y002298D01*
X009192Y001981D02*
X009483Y001981D01*
X009324Y001822D02*
X009166Y001822D01*
X012608Y001664D02*
X012737Y001664D01*
X012687Y001822D02*
X012677Y001822D01*
X012677Y001981D02*
X012687Y001981D01*
X012677Y002140D02*
X012687Y002140D01*
X012677Y002298D02*
X012687Y002298D01*
X012653Y002457D02*
X012732Y002457D01*
X013134Y001981D02*
X013230Y001981D01*
X013230Y001822D02*
X013134Y001822D01*
X013134Y001664D02*
X013230Y001664D01*
X013202Y001347D02*
X013162Y001347D01*
X013162Y001188D02*
X013202Y001188D01*
X013202Y001030D02*
X013162Y001030D01*
X013162Y000871D02*
X013202Y000871D01*
X013202Y000713D02*
X013162Y000713D01*
X013162Y000554D02*
X013202Y000554D01*
X013593Y001188D02*
X014576Y001188D01*
X014417Y001347D02*
X013436Y001347D01*
X013677Y004201D02*
X014672Y004201D01*
X014672Y004359D02*
X013677Y004359D01*
X013677Y004518D02*
X014672Y004518D01*
X014672Y004676D02*
X013677Y004676D01*
X013610Y004835D02*
X014712Y004835D01*
X014870Y004993D02*
X013677Y004993D01*
X011452Y005786D02*
X011415Y005786D01*
X011415Y005945D02*
X011452Y005945D01*
X008131Y005152D02*
X007067Y005152D01*
X007067Y005310D02*
X008092Y005310D01*
X005212Y002335D02*
X005212Y002335D01*
X005175Y002298D02*
X003992Y002298D01*
X004032Y002140D02*
X005016Y002140D01*
X005035Y002158D02*
X005035Y002158D01*
X004922Y001981D02*
X004245Y001981D01*
X010017Y008640D02*
X010242Y008640D01*
X010242Y008798D02*
X010105Y008798D01*
X018930Y006579D02*
X018953Y006579D01*
X019551Y006262D02*
X020221Y006262D01*
X020090Y006103D02*
X019710Y006103D01*
X019868Y005945D02*
X020052Y005945D01*
X020146Y005152D02*
X020147Y005152D01*
X020068Y005073D02*
X019732Y004737D01*
X019818Y004651D01*
X019832Y004643D01*
X019832Y004637D01*
X019993Y004475D01*
X019512Y003994D01*
X019512Y004595D01*
X019693Y004776D01*
X019731Y004737D01*
X020067Y005073D01*
X020068Y005073D01*
X019988Y004993D02*
X019988Y004993D01*
X019830Y004835D02*
X019829Y004835D01*
X019792Y004676D02*
X019593Y004676D01*
X019512Y004518D02*
X019951Y004518D01*
X019877Y004359D02*
X019512Y004359D01*
X019512Y004201D02*
X019718Y004201D01*
X019560Y004042D02*
X019512Y004042D01*
X022682Y002064D02*
X022682Y000938D01*
X023109Y000713D02*
X023256Y000713D01*
X023202Y000871D02*
X023162Y000871D01*
X023162Y001030D02*
X023202Y001030D01*
X023267Y001188D02*
X023098Y001188D01*
X022949Y001347D02*
X023416Y001347D01*
X023422Y001505D02*
X022942Y001505D01*
X023108Y001664D02*
X023257Y001664D01*
X023187Y001822D02*
X023177Y001822D01*
X023177Y001981D02*
X023187Y001981D01*
X023177Y002140D02*
X023187Y002140D01*
X023177Y002298D02*
X023187Y002298D01*
X023212Y002457D02*
X023153Y002457D01*
X023177Y002615D02*
X023187Y002615D01*
X023682Y002064D02*
X023682Y000938D01*
X023387Y000554D02*
X022978Y000554D01*
X022387Y000554D02*
X022153Y000554D01*
X022162Y000713D02*
X022256Y000713D01*
X021202Y000713D02*
X021106Y000713D01*
X021158Y000871D02*
X021202Y000871D01*
X021202Y001030D02*
X021154Y001030D01*
X021202Y001188D02*
X021093Y001188D01*
X021237Y001347D02*
X020936Y001347D01*
X020702Y001347D02*
X020662Y001347D01*
X020662Y001188D02*
X020702Y001188D01*
X020702Y001030D02*
X020662Y001030D01*
X020662Y000871D02*
X020702Y000871D01*
X020702Y000713D02*
X020662Y000713D01*
X020662Y000554D02*
X020702Y000554D01*
X020971Y000554D02*
X021211Y000554D01*
X024978Y000554D02*
X025387Y000554D01*
X025256Y000713D02*
X025109Y000713D01*
X025162Y000871D02*
X025202Y000871D01*
X025202Y001030D02*
X025162Y001030D01*
X025098Y001188D02*
X025267Y001188D01*
X025416Y001347D02*
X024949Y001347D01*
X024942Y001505D02*
X025422Y001505D01*
X025257Y001664D02*
X025108Y001664D01*
X025177Y001822D02*
X025187Y001822D01*
X025177Y001981D02*
X025187Y001981D01*
X025682Y002064D02*
X025682Y000938D01*
X026109Y000713D02*
X026256Y000713D01*
X026202Y000871D02*
X026162Y000871D01*
X026162Y001030D02*
X026202Y001030D01*
X026267Y001188D02*
X026098Y001188D01*
X025949Y001347D02*
X026416Y001347D01*
X026422Y001505D02*
X025942Y001505D01*
X026108Y001664D02*
X026257Y001664D01*
X026187Y001822D02*
X026177Y001822D01*
X026177Y001981D02*
X026187Y001981D01*
X026177Y002140D02*
X026187Y002140D01*
X026177Y002298D02*
X026187Y002298D01*
X026212Y002457D02*
X026153Y002457D01*
X026682Y002064D02*
X026682Y000938D01*
X027109Y000713D02*
X027256Y000713D01*
X027202Y000871D02*
X027162Y000871D01*
X027162Y001030D02*
X027202Y001030D01*
X027267Y001188D02*
X027098Y001188D01*
X026949Y001347D02*
X027416Y001347D01*
X027422Y001505D02*
X026942Y001505D01*
X027108Y001664D02*
X027257Y001664D01*
X027187Y001822D02*
X027177Y001822D01*
X027177Y001981D02*
X027187Y001981D01*
X027177Y002140D02*
X027187Y002140D01*
X027177Y002298D02*
X027187Y002298D01*
X027212Y002457D02*
X027153Y002457D01*
X027682Y002064D02*
X027682Y000938D01*
X028109Y000713D02*
X028256Y000713D01*
X028202Y000871D02*
X028162Y000871D01*
X028162Y001030D02*
X028202Y001030D01*
X028267Y001188D02*
X028098Y001188D01*
X027949Y001347D02*
X028416Y001347D01*
X028422Y001505D02*
X027942Y001505D01*
X028108Y001664D02*
X028257Y001664D01*
X028187Y001822D02*
X028177Y001822D01*
X028177Y001981D02*
X028187Y001981D01*
X028177Y002140D02*
X028187Y002140D01*
X028177Y002298D02*
X028187Y002298D01*
X028212Y002457D02*
X028153Y002457D01*
X028682Y002064D02*
X028682Y000938D01*
X029109Y000713D02*
X029256Y000713D01*
X029202Y000871D02*
X029162Y000871D01*
X029162Y001030D02*
X029202Y001030D01*
X029267Y001188D02*
X029098Y001188D01*
X028949Y001347D02*
X029416Y001347D01*
X029422Y001505D02*
X028942Y001505D01*
X029108Y001664D02*
X029257Y001664D01*
X029187Y001822D02*
X029177Y001822D01*
X029177Y001981D02*
X029187Y001981D01*
X029177Y002140D02*
X029187Y002140D01*
X029177Y002298D02*
X029187Y002298D01*
X029212Y002457D02*
X029153Y002457D01*
X029682Y002064D02*
X029682Y000938D01*
X030109Y000713D02*
X030256Y000713D01*
X030202Y000871D02*
X030162Y000871D01*
X030162Y001030D02*
X030202Y001030D01*
X030267Y001188D02*
X030098Y001188D01*
X029949Y001347D02*
X030416Y001347D01*
X030422Y001505D02*
X029942Y001505D01*
X030108Y001664D02*
X030257Y001664D01*
X030187Y001822D02*
X030177Y001822D01*
X030177Y001981D02*
X030187Y001981D01*
X030177Y002140D02*
X030187Y002140D01*
X030177Y002298D02*
X030187Y002298D01*
X030212Y002457D02*
X030153Y002457D01*
X030682Y002064D02*
X030682Y000938D01*
X031109Y000713D02*
X031258Y000713D01*
X031207Y000871D02*
X031162Y000871D01*
X031162Y001030D02*
X031211Y001030D01*
X031271Y001188D02*
X031098Y001188D01*
X031108Y001664D02*
X031237Y001664D01*
X031187Y001822D02*
X031177Y001822D01*
X031177Y001981D02*
X031187Y001981D01*
X031177Y002140D02*
X031187Y002140D01*
X031177Y002298D02*
X031187Y002298D01*
X031153Y002457D02*
X031232Y002457D01*
X031634Y001981D02*
X031730Y001981D01*
X031730Y001822D02*
X031634Y001822D01*
X031634Y001664D02*
X031730Y001664D01*
X031394Y000554D02*
X030978Y000554D01*
X030387Y000554D02*
X029978Y000554D01*
X029387Y000554D02*
X028978Y000554D01*
X028387Y000554D02*
X027978Y000554D01*
X027387Y000554D02*
X026978Y000554D01*
X026387Y000554D02*
X025978Y000554D01*
X030522Y003249D02*
X031275Y003249D01*
X031342Y003408D02*
X030511Y003408D01*
X030409Y003566D02*
X031342Y003566D01*
X028432Y006063D02*
X028432Y006648D01*
X027932Y006648D02*
X027932Y007188D01*
X027682Y007438D01*
X027432Y007438D01*
X027182Y007438D01*
X026932Y007688D01*
X026932Y008044D01*
X027427Y008006D02*
X027437Y008006D01*
X027427Y008164D02*
X027437Y008164D01*
X027427Y008323D02*
X027437Y008323D01*
X027464Y008481D02*
X027401Y008481D01*
X027427Y008640D02*
X027437Y008640D01*
X027884Y008798D02*
X026981Y008798D01*
X026980Y008957D02*
X026884Y008957D01*
X026884Y009115D02*
X026980Y009115D01*
X027426Y009115D02*
X027439Y009115D01*
X027427Y008957D02*
X027437Y008957D01*
X027884Y008957D02*
X027980Y008957D01*
X027980Y009115D02*
X027884Y009115D01*
X027981Y008798D02*
X028884Y008798D01*
X029427Y008957D02*
X029437Y008957D01*
X028437Y008957D02*
X028427Y008957D01*
X028426Y009115D02*
X028439Y009115D01*
X028427Y008640D02*
X028437Y008640D01*
X028464Y008481D02*
X028401Y008481D01*
X028427Y008323D02*
X028437Y008323D01*
X028427Y008164D02*
X028437Y008164D01*
X028427Y008006D02*
X028437Y008006D01*
X028427Y007847D02*
X028437Y007847D01*
X028182Y007438D02*
X027932Y007688D01*
X027932Y008044D01*
X027437Y007847D02*
X027427Y007847D01*
X026881Y007371D02*
X024961Y007371D01*
X025017Y007428D02*
X025506Y007428D01*
X025609Y007428D01*
X025705Y007467D01*
X026330Y008092D01*
X026403Y008165D01*
X026437Y008249D01*
X026437Y007714D01*
X026543Y007608D01*
X026684Y007608D01*
X026712Y007540D01*
X026962Y007290D01*
X027025Y007228D01*
X026933Y007228D01*
X026933Y006648D01*
X026932Y006648D01*
X026932Y006647D01*
X026622Y006647D01*
X026622Y006323D01*
X025165Y006323D01*
X024653Y006835D01*
X024580Y006908D01*
X024540Y006924D01*
X024869Y007253D01*
X024869Y007279D01*
X025017Y007428D01*
X024909Y007688D02*
X024411Y007189D01*
X024670Y007054D02*
X026622Y007054D01*
X026622Y007071D02*
X026622Y006648D01*
X026932Y006648D01*
X026932Y007228D01*
X026779Y007228D01*
X026733Y007215D01*
X026692Y007192D01*
X026658Y007158D01*
X026635Y007117D01*
X026622Y007071D01*
X026622Y006896D02*
X024592Y006896D01*
X024653Y006835D02*
X024653Y006835D01*
X024750Y006737D02*
X026622Y006737D01*
X026622Y006579D02*
X024909Y006579D01*
X025068Y006420D02*
X026622Y006420D01*
X026932Y006737D02*
X026933Y006737D01*
X026932Y006896D02*
X026933Y006896D01*
X026932Y007054D02*
X026933Y007054D01*
X026932Y007213D02*
X026933Y007213D01*
X026729Y007213D02*
X024828Y007213D01*
X025767Y007530D02*
X026722Y007530D01*
X026462Y007689D02*
X025926Y007689D01*
X026084Y007847D02*
X026437Y007847D01*
X026437Y008006D02*
X026243Y008006D01*
X026401Y008164D02*
X026437Y008164D01*
X026182Y008313D02*
X026182Y009938D01*
X026432Y010188D01*
X026182Y008313D02*
X025557Y007688D01*
X024909Y007688D01*
X022860Y008068D02*
X022857Y008068D01*
X022717Y008010D01*
X022610Y007903D01*
X022552Y007763D01*
X022552Y007685D01*
X021692Y008545D01*
X021692Y008771D01*
X021653Y008867D01*
X021580Y008940D01*
X021580Y008940D01*
X021478Y009041D01*
X021532Y009095D01*
X021660Y008967D01*
X021756Y008928D01*
X021859Y008928D01*
X021904Y008928D01*
X022000Y008928D01*
X022192Y008735D01*
X022192Y008735D01*
X022415Y008512D01*
X022415Y008512D01*
X022638Y008289D01*
X022860Y008068D01*
X022763Y008164D02*
X022074Y008164D01*
X022232Y008006D02*
X022713Y008006D01*
X022587Y007847D02*
X022391Y007847D01*
X022549Y007689D02*
X022552Y007689D01*
X022131Y007371D02*
X021139Y007371D01*
X021187Y007530D02*
X021972Y007530D01*
X021814Y007689D02*
X021167Y007689D01*
X021060Y007847D02*
X021655Y007847D01*
X021497Y008006D02*
X021079Y008006D01*
X021239Y008164D02*
X021338Y008164D01*
X021756Y008481D02*
X022446Y008481D01*
X022604Y008323D02*
X021915Y008323D01*
X021692Y008640D02*
X022287Y008640D01*
X022129Y008798D02*
X021681Y008798D01*
X021685Y008957D02*
X021562Y008957D01*
X020932Y008329D02*
X020513Y008748D01*
X020290Y008525D02*
X019932Y008883D01*
X020932Y008329D02*
X020932Y008313D01*
X020257Y007689D02*
X020126Y007689D01*
X020077Y007847D02*
X020078Y007847D01*
X019967Y007530D02*
X020416Y007530D01*
X020475Y007371D02*
X019809Y007371D01*
X019650Y007213D02*
X020659Y007213D01*
X020956Y007213D02*
X022289Y007213D01*
X022448Y007054D02*
X019492Y007054D01*
X019333Y006896D02*
X022607Y006896D01*
X022638Y008289D02*
X022638Y008289D01*
X023057Y009399D02*
X023057Y009563D01*
X019638Y007857D02*
X019622Y007857D01*
X025057Y006063D02*
X027307Y006063D01*
X027432Y006188D01*
X027432Y006648D01*
X028182Y007438D02*
X028432Y007438D01*
X029932Y007188D02*
X029932Y006648D01*
X030984Y007371D02*
X031623Y007371D01*
X031672Y007530D02*
X031142Y007530D01*
X031402Y007689D02*
X031462Y007689D01*
X031437Y007847D02*
X031427Y007847D01*
X031932Y008044D02*
X031932Y007313D01*
X031682Y007063D01*
X033177Y011494D02*
X034002Y011494D01*
X034002Y011652D02*
X033150Y011652D01*
X033177Y011811D02*
X034002Y011811D01*
X034002Y011969D02*
X033177Y011969D01*
X033177Y012128D02*
X034002Y012128D01*
X034002Y012286D02*
X033177Y012286D01*
X033144Y012445D02*
X034002Y012445D01*
X032682Y012438D02*
X032682Y012081D01*
X034002Y013555D02*
X029521Y013555D01*
X029641Y013713D02*
X034002Y013713D01*
X034002Y013872D02*
X029692Y013872D01*
X029692Y014030D02*
X034002Y014030D01*
X034002Y014189D02*
X029630Y014189D01*
X029494Y014347D02*
X034002Y014347D01*
X034002Y014506D02*
X027574Y014506D01*
X027823Y014664D02*
X034002Y014664D01*
X034002Y014823D02*
X027968Y014823D01*
X028060Y014982D02*
X029753Y014982D01*
X029537Y015140D02*
X028119Y015140D01*
X028148Y015299D02*
X029460Y015299D01*
X029442Y015457D02*
X027263Y015457D01*
X027262Y015299D02*
X027102Y015299D01*
X027102Y015140D02*
X027262Y015140D01*
X027262Y014982D02*
X027102Y014982D01*
X027102Y014823D02*
X027262Y014823D01*
X027262Y014664D02*
X027102Y014664D01*
X027102Y014506D02*
X027262Y014506D01*
X026791Y014506D02*
X023507Y014506D01*
X023665Y014664D02*
X026541Y014664D01*
X026397Y014823D02*
X023752Y014823D01*
X022858Y014506D02*
X022470Y014506D01*
X022700Y014664D02*
X020752Y014664D01*
X020745Y014506D02*
X021894Y014506D01*
X021736Y014347D02*
X020694Y014347D01*
X020580Y014189D02*
X021612Y014189D01*
X020752Y014823D02*
X022612Y014823D01*
X020592Y015774D02*
X024761Y015774D01*
X024417Y016250D02*
X000362Y016250D01*
X000362Y016408D02*
X024362Y016408D01*
X024362Y016567D02*
X000362Y016567D01*
X000362Y016726D02*
X024362Y016726D01*
X024410Y016884D02*
X000362Y016884D01*
X000362Y017043D02*
X024476Y017043D01*
X024586Y017201D02*
X000362Y017201D01*
X000362Y017360D02*
X024745Y017360D01*
X025074Y017518D02*
X007783Y017518D01*
X007724Y017460D02*
X007899Y017635D01*
X007994Y017864D01*
X007994Y018112D01*
X007899Y018341D01*
X007724Y018516D01*
X007495Y018611D01*
X007247Y018611D01*
X007018Y018516D01*
X006843Y018341D01*
X006748Y018112D01*
X006748Y017864D01*
X006843Y017635D01*
X007018Y017460D01*
X007247Y017365D01*
X007495Y017365D01*
X007724Y017460D01*
X007917Y017677D02*
X026212Y017677D01*
X026212Y017563D02*
X026360Y017207D01*
X026633Y016934D01*
X026989Y016786D01*
X027375Y016786D01*
X027732Y016934D01*
X028005Y017207D01*
X028152Y017563D01*
X028152Y017949D01*
X028005Y018306D01*
X027732Y018579D01*
X027375Y018726D01*
X026989Y018726D01*
X026633Y018579D01*
X026360Y018306D01*
X026212Y017949D01*
X026212Y017563D01*
X026231Y017518D02*
X025590Y017518D01*
X025919Y017360D02*
X026297Y017360D01*
X026366Y017201D02*
X026078Y017201D01*
X026188Y017043D02*
X026524Y017043D01*
X026753Y016884D02*
X026254Y016884D01*
X026302Y016726D02*
X029791Y016726D01*
X029809Y016884D02*
X027611Y016884D01*
X027841Y017043D02*
X029809Y017043D01*
X029809Y017201D02*
X027999Y017201D01*
X028068Y017360D02*
X029809Y017360D01*
X029809Y017518D02*
X028134Y017518D01*
X028152Y017677D02*
X029809Y017677D01*
X029838Y017835D02*
X028152Y017835D01*
X028134Y017994D02*
X029935Y017994D01*
X030093Y018152D02*
X028068Y018152D01*
X027999Y018311D02*
X030202Y018311D01*
X030202Y018469D02*
X027841Y018469D01*
X027612Y018628D02*
X030202Y018628D01*
X030202Y018787D02*
X021752Y018787D01*
X021629Y018628D02*
X026752Y018628D01*
X026524Y018469D02*
X021470Y018469D01*
X021232Y018469D02*
X021132Y018469D01*
X021132Y018628D02*
X021232Y018628D01*
X021232Y018787D02*
X021132Y018787D01*
X021132Y018945D02*
X019233Y018945D01*
X019132Y018945D02*
X013233Y018945D01*
X013132Y018945D02*
X011233Y018945D01*
X011132Y018945D02*
X002629Y018945D01*
X002629Y019069D02*
X002629Y018807D01*
X002487Y018586D01*
X002249Y018477D01*
X001989Y018515D01*
X001791Y018686D01*
X001717Y018938D01*
X001791Y019189D01*
X001989Y019361D01*
X002249Y019398D01*
X002487Y019289D01*
X002629Y019069D01*
X002606Y019104D02*
X010612Y019104D01*
X010651Y019262D02*
X002504Y019262D01*
X002616Y018787D02*
X010612Y018787D01*
X010736Y018628D02*
X002514Y018628D01*
X001858Y018628D02*
X000362Y018628D01*
X000362Y018469D02*
X000594Y018469D01*
X000641Y018516D02*
X000465Y018341D01*
X000370Y018112D01*
X000370Y017864D01*
X000465Y017635D01*
X000641Y017460D01*
X000869Y017365D01*
X001117Y017365D01*
X001346Y017460D01*
X001521Y017635D01*
X001616Y017864D01*
X001616Y018112D01*
X001521Y018341D01*
X001346Y018516D01*
X001117Y018611D01*
X000869Y018611D01*
X000641Y018516D01*
X000453Y018311D02*
X000362Y018311D01*
X000362Y018152D02*
X000387Y018152D01*
X000370Y017994D02*
X000362Y017994D01*
X000362Y017835D02*
X000382Y017835D01*
X000362Y017677D02*
X000448Y017677D01*
X000362Y017518D02*
X000582Y017518D01*
X001405Y017518D02*
X006960Y017518D01*
X006826Y017677D02*
X001539Y017677D01*
X001604Y017835D02*
X006760Y017835D01*
X006748Y017994D02*
X001616Y017994D01*
X001599Y018152D02*
X006765Y018152D01*
X006831Y018311D02*
X001534Y018311D01*
X001392Y018469D02*
X006972Y018469D01*
X007770Y018469D02*
X010894Y018469D01*
X011132Y018469D02*
X011232Y018469D01*
X011232Y018628D02*
X011132Y018628D01*
X011132Y018787D02*
X011232Y018787D01*
X011629Y018628D02*
X012736Y018628D01*
X012612Y018787D02*
X011752Y018787D01*
X011752Y019104D02*
X012612Y019104D01*
X012651Y019262D02*
X011714Y019262D01*
X011555Y019421D02*
X012809Y019421D01*
X013555Y019421D02*
X018809Y019421D01*
X018651Y019262D02*
X013714Y019262D01*
X013752Y019104D02*
X018612Y019104D01*
X018612Y018787D02*
X013752Y018787D01*
X013629Y018628D02*
X018736Y018628D01*
X018894Y018469D02*
X013470Y018469D01*
X013232Y018469D02*
X013132Y018469D01*
X013132Y018628D02*
X013232Y018628D01*
X013232Y018787D02*
X013132Y018787D01*
X012894Y018469D02*
X011470Y018469D01*
X010809Y019421D02*
X000362Y019421D01*
X000362Y019262D02*
X001876Y019262D01*
X001766Y019104D02*
X000362Y019104D01*
X000362Y018945D02*
X001720Y018945D01*
X001762Y018787D02*
X000362Y018787D01*
X001429Y015933D02*
X006936Y015933D01*
X006816Y015774D02*
X001549Y015774D01*
X001615Y015616D02*
X006750Y015616D01*
X006748Y015457D02*
X001616Y015457D01*
X001589Y015299D02*
X006775Y015299D01*
X006841Y015140D02*
X001524Y015140D01*
X001368Y014982D02*
X006997Y014982D01*
X007746Y014982D02*
X008612Y014982D01*
X008612Y015140D02*
X007902Y015140D01*
X007967Y015299D02*
X008687Y015299D01*
X007982Y017835D02*
X026212Y017835D01*
X026231Y017994D02*
X007994Y017994D01*
X007977Y018152D02*
X026297Y018152D01*
X026365Y018311D02*
X007912Y018311D01*
X019132Y018469D02*
X019232Y018469D01*
X019232Y018628D02*
X019132Y018628D01*
X019132Y018787D02*
X019232Y018787D01*
X019470Y018469D02*
X020894Y018469D01*
X020736Y018628D02*
X019629Y018628D01*
X019752Y018787D02*
X020612Y018787D01*
X020612Y019104D02*
X019752Y019104D01*
X019714Y019262D02*
X020651Y019262D01*
X020809Y019421D02*
X019555Y019421D01*
X021233Y018945D02*
X030202Y018945D01*
X030211Y019104D02*
X021752Y019104D01*
X021714Y019262D02*
X030278Y019262D01*
X030474Y019421D02*
X021555Y019421D01*
X026302Y016567D02*
X029633Y016567D01*
X029452Y016091D02*
X027857Y016091D01*
X027989Y015933D02*
X029452Y015933D01*
X029452Y015774D02*
X028076Y015774D01*
X028127Y015616D02*
X029452Y015616D01*
X030111Y014982D02*
X030696Y014982D01*
X030729Y014948D02*
X030932Y014948D01*
X030932Y015437D01*
X030933Y015437D01*
X030933Y015438D01*
X031422Y015438D01*
X031422Y015641D01*
X031135Y015928D01*
X030933Y015928D01*
X030933Y015438D01*
X030932Y015438D01*
X030932Y015437D01*
X030442Y015437D01*
X030442Y015235D01*
X030729Y014948D01*
X030933Y014948D02*
X031135Y014948D01*
X031422Y015235D01*
X031422Y015437D01*
X030933Y015437D01*
X030933Y014948D01*
X030932Y014982D02*
X030933Y014982D01*
X030932Y015140D02*
X030933Y015140D01*
X030932Y015299D02*
X030933Y015299D01*
X030932Y015438D02*
X030442Y015438D01*
X030442Y015641D01*
X030729Y015928D01*
X030932Y015928D01*
X030932Y015438D01*
X030932Y015457D02*
X030933Y015457D01*
X030932Y015616D02*
X030933Y015616D01*
X030932Y015774D02*
X030933Y015774D01*
X031289Y015774D02*
X032076Y015774D01*
X031942Y015641D02*
X032229Y015928D01*
X032432Y015928D01*
X032432Y015438D01*
X032432Y015437D01*
X032433Y015437D01*
X032433Y015438D01*
X032922Y015438D01*
X032922Y015641D01*
X032635Y015928D01*
X032433Y015928D01*
X032433Y015438D01*
X032432Y015438D01*
X031942Y015438D01*
X031942Y015641D01*
X031942Y015616D02*
X031422Y015616D01*
X031422Y015457D02*
X031942Y015457D01*
X031942Y015437D02*
X031942Y015235D01*
X032229Y014948D01*
X032432Y014948D01*
X032432Y015437D01*
X031942Y015437D01*
X031942Y015299D02*
X031422Y015299D01*
X031328Y015140D02*
X032037Y015140D01*
X032196Y014982D02*
X031169Y014982D01*
X030537Y015140D02*
X030328Y015140D01*
X030405Y015299D02*
X030442Y015299D01*
X030442Y015457D02*
X030422Y015457D01*
X030412Y015616D02*
X030442Y015616D01*
X030412Y015774D02*
X030576Y015774D01*
X030412Y015933D02*
X032952Y015933D01*
X032952Y015989D02*
X032952Y015559D01*
X032942Y015535D01*
X032942Y015340D01*
X033017Y015160D01*
X033155Y015022D01*
X033335Y014948D01*
X033530Y014948D01*
X033710Y015022D01*
X033848Y015160D01*
X033922Y015340D01*
X033922Y015535D01*
X033912Y015559D01*
X033912Y016283D01*
X033839Y016460D01*
X033704Y016595D01*
X033556Y016743D01*
X033556Y017283D01*
X033556Y017574D01*
X033556Y017764D01*
X033483Y017941D01*
X033162Y018262D01*
X033162Y018292D01*
X033162Y019083D01*
X033089Y019260D01*
X032954Y019395D01*
X032778Y019468D01*
X032587Y019468D01*
X032410Y019395D01*
X032275Y019260D01*
X032202Y019083D01*
X032202Y018292D01*
X032202Y017967D01*
X032275Y017791D01*
X032384Y017683D01*
X032337Y017683D01*
X032337Y017236D01*
X032241Y017236D01*
X032241Y017683D01*
X032009Y017683D01*
X031963Y017670D01*
X031922Y017647D01*
X031889Y017613D01*
X031865Y017572D01*
X031853Y017526D01*
X031853Y017236D01*
X032240Y017236D01*
X032240Y017140D01*
X031853Y017140D01*
X031853Y016849D01*
X031865Y016803D01*
X031889Y016762D01*
X031922Y016729D01*
X031963Y016705D01*
X032009Y016693D01*
X032241Y016693D01*
X032241Y017139D01*
X032337Y017139D01*
X032337Y016693D01*
X032568Y016693D01*
X032596Y016700D01*
X032596Y016639D01*
X032596Y016449D01*
X032669Y016272D01*
X032952Y015989D01*
X032850Y016091D02*
X030515Y016091D01*
X030673Y016250D02*
X032691Y016250D01*
X032613Y016408D02*
X030752Y016408D01*
X030769Y016567D02*
X032596Y016567D01*
X032337Y016726D02*
X032241Y016726D01*
X032241Y016884D02*
X032337Y016884D01*
X032337Y017043D02*
X032241Y017043D01*
X032240Y017201D02*
X031124Y017201D01*
X031124Y017236D02*
X031512Y017236D01*
X031512Y017526D01*
X031500Y017572D01*
X031476Y017613D01*
X031442Y017647D01*
X031401Y017670D01*
X031356Y017683D01*
X031124Y017683D01*
X031124Y017236D01*
X031124Y017360D02*
X031028Y017360D01*
X031028Y017518D02*
X031124Y017518D01*
X031124Y017677D02*
X031028Y017677D01*
X031108Y017835D02*
X032257Y017835D01*
X032241Y017677D02*
X032337Y017677D01*
X032337Y017518D02*
X032241Y017518D01*
X032241Y017360D02*
X032337Y017360D01*
X031987Y017677D02*
X031378Y017677D01*
X031512Y017518D02*
X031853Y017518D01*
X031853Y017360D02*
X031512Y017360D01*
X031512Y017043D02*
X031853Y017043D01*
X031853Y016884D02*
X031512Y016884D01*
X031437Y016726D02*
X031928Y016726D01*
X031124Y016726D02*
X031028Y016726D01*
X031028Y016884D02*
X031124Y016884D01*
X031124Y017043D02*
X031028Y017043D01*
X031162Y017994D02*
X031408Y017994D01*
X031431Y017977D02*
X031498Y017943D01*
X031570Y017920D01*
X031645Y017908D01*
X031662Y017908D01*
X031662Y018667D01*
X031702Y018667D01*
X031702Y017908D01*
X031720Y017908D01*
X031795Y017920D01*
X031867Y017943D01*
X031934Y017977D01*
X031995Y018022D01*
X032048Y018075D01*
X032093Y018136D01*
X032127Y018203D01*
X032151Y018275D01*
X032162Y018350D01*
X032162Y018668D01*
X031703Y018668D01*
X031703Y018708D01*
X032162Y018708D01*
X032162Y019025D01*
X032151Y019100D01*
X032127Y019172D01*
X032093Y019239D01*
X032048Y019300D01*
X031995Y019354D01*
X031934Y019398D01*
X031867Y019433D01*
X031795Y019456D01*
X031720Y019468D01*
X031702Y019468D01*
X031702Y018708D01*
X031662Y018708D01*
X031662Y018668D01*
X031202Y018668D01*
X031202Y018350D01*
X031214Y018275D01*
X031238Y018203D01*
X031272Y018136D01*
X031316Y018075D01*
X031370Y018022D01*
X031431Y017977D01*
X031662Y017994D02*
X031702Y017994D01*
X031702Y018152D02*
X031662Y018152D01*
X031662Y018311D02*
X031702Y018311D01*
X031702Y018469D02*
X031662Y018469D01*
X031662Y018628D02*
X031702Y018628D01*
X031662Y018708D02*
X031202Y018708D01*
X031202Y019025D01*
X031214Y019100D01*
X031238Y019172D01*
X031272Y019239D01*
X031316Y019300D01*
X031370Y019354D01*
X031431Y019398D01*
X031498Y019433D01*
X031570Y019456D01*
X031645Y019468D01*
X031662Y019468D01*
X031662Y018708D01*
X031662Y018787D02*
X031702Y018787D01*
X031702Y018945D02*
X031662Y018945D01*
X031662Y019104D02*
X031702Y019104D01*
X031702Y019262D02*
X031662Y019262D01*
X031662Y019421D02*
X031702Y019421D01*
X031890Y019421D02*
X032474Y019421D01*
X032278Y019262D02*
X032076Y019262D01*
X032149Y019104D02*
X032211Y019104D01*
X032202Y018945D02*
X032162Y018945D01*
X032162Y018787D02*
X032202Y018787D01*
X032202Y018628D02*
X032162Y018628D01*
X032162Y018469D02*
X032202Y018469D01*
X032202Y018311D02*
X032156Y018311D01*
X032202Y018152D02*
X032101Y018152D01*
X032202Y017994D02*
X031957Y017994D01*
X031264Y018152D02*
X031162Y018152D01*
X031162Y018311D02*
X031209Y018311D01*
X031202Y018469D02*
X031162Y018469D01*
X031162Y018628D02*
X031202Y018628D01*
X031202Y018787D02*
X031162Y018787D01*
X031162Y018945D02*
X031202Y018945D01*
X031215Y019104D02*
X031154Y019104D01*
X031087Y019262D02*
X031289Y019262D01*
X031475Y019421D02*
X030891Y019421D01*
X032891Y019421D02*
X033695Y019421D01*
X033853Y019262D02*
X033087Y019262D01*
X033154Y019104D02*
X034002Y019104D01*
X034002Y018945D02*
X033162Y018945D01*
X033162Y018787D02*
X034002Y018787D01*
X034002Y018628D02*
X033162Y018628D01*
X033162Y018469D02*
X034002Y018469D01*
X034002Y018311D02*
X033162Y018311D01*
X033271Y018152D02*
X034002Y018152D01*
X034002Y017994D02*
X033430Y017994D01*
X033527Y017835D02*
X034002Y017835D01*
X034002Y017677D02*
X033556Y017677D01*
X033556Y017518D02*
X034002Y017518D01*
X034002Y017360D02*
X033556Y017360D01*
X033556Y017201D02*
X034002Y017201D01*
X034002Y017043D02*
X033556Y017043D01*
X033556Y016884D02*
X034002Y016884D01*
X034002Y016726D02*
X033573Y016726D01*
X033732Y016567D02*
X034002Y016567D01*
X034002Y016408D02*
X033860Y016408D01*
X033912Y016250D02*
X034002Y016250D01*
X034002Y016091D02*
X033912Y016091D01*
X033912Y015933D02*
X034002Y015933D01*
X034002Y015774D02*
X033912Y015774D01*
X033912Y015616D02*
X034002Y015616D01*
X034002Y015457D02*
X033922Y015457D01*
X033905Y015299D02*
X034002Y015299D01*
X034002Y015140D02*
X033828Y015140D01*
X034002Y014982D02*
X033611Y014982D01*
X033253Y014982D02*
X032669Y014982D01*
X032635Y014948D02*
X032922Y015235D01*
X032922Y015437D01*
X032433Y015437D01*
X032433Y014948D01*
X032635Y014948D01*
X032433Y014982D02*
X032432Y014982D01*
X032432Y015140D02*
X032433Y015140D01*
X032432Y015299D02*
X032433Y015299D01*
X032432Y015457D02*
X032433Y015457D01*
X032432Y015616D02*
X032433Y015616D01*
X032432Y015774D02*
X032433Y015774D01*
X032789Y015774D02*
X032952Y015774D01*
X032952Y015616D02*
X032922Y015616D01*
X032922Y015457D02*
X032942Y015457D01*
X032922Y015299D02*
X032960Y015299D01*
X033037Y015140D02*
X032828Y015140D01*
D36*
X032432Y012688D03*
X032057Y010313D03*
X030182Y009938D03*
X029432Y009438D03*
X029182Y009813D03*
X027432Y009688D03*
X024557Y010813D03*
X022682Y009938D03*
X023057Y009563D03*
X021932Y008563D03*
X020932Y008313D03*
X019932Y009438D03*
X020432Y010688D03*
X021682Y010438D03*
X018682Y010688D03*
X017682Y011188D03*
X016807Y010813D03*
X017432Y009938D03*
X017182Y009438D03*
X014432Y009938D03*
X013432Y011438D03*
X008182Y008688D03*
X010932Y006688D03*
X010557Y005688D03*
X010182Y005313D03*
X009807Y004938D03*
X008932Y004938D03*
X008432Y005313D03*
X007932Y005688D03*
X009182Y003938D03*
X006432Y003938D03*
X003932Y004438D03*
X002432Y005438D03*
X005432Y005938D03*
X003932Y007938D03*
X013932Y007688D03*
X014432Y005688D03*
X017682Y004563D03*
X019682Y004438D03*
X020932Y005438D03*
X022432Y006563D03*
X023432Y007188D03*
X026432Y007438D03*
X027432Y007438D03*
X028432Y007438D03*
X028932Y007438D03*
X029432Y007438D03*
X030432Y007438D03*
X031432Y007438D03*
X031182Y005438D03*
X029432Y003438D03*
X028432Y003438D03*
X027432Y003438D03*
X026182Y003438D03*
X020182Y006938D03*
X014432Y001813D03*
X020182Y012688D03*
D37*
X022932Y007688D03*
X020807Y007563D03*
X020432Y005938D03*
X022432Y005438D03*
D38*
X022487Y005438D01*
X023074Y004850D01*
X020432Y005883D02*
X020432Y005938D01*
X020807Y007563D02*
X020245Y008125D01*
X020068Y008302D01*
X020068Y008302D01*
X022932Y007688D02*
X023128Y007688D01*
X023520Y008080D01*
X014182Y012562D02*
X013556Y012562D01*
X013182Y012188D01*
X012682Y012188D01*
X012308Y007063D02*
X012308Y006564D01*
X012182Y006438D01*
X012182Y006122D01*
X012181Y006121D01*
X013056Y006564D02*
X013182Y006438D01*
X013182Y006062D01*
X013056Y006564D02*
X013056Y007063D01*
X013182Y005314D02*
X013182Y004437D01*
X012182Y004437D01*
X011807Y004812D01*
X011807Y005255D01*
X012182Y003689D02*
X012182Y002812D01*
X013163Y002812D01*
X013182Y002831D01*
X012182Y002064D02*
X012182Y000938D01*
M02*
