%
M48
M72
T01C0.0200
T02C0.0320
T03C0.0360
T04C0.0400
T05C0.0440
T06C0.0520
T07C0.0591
T08C0.1180
%
T01
X6432Y3938
X8432Y5313
X8932Y4938
X9807Y4938
X10182Y5313
X10557Y5688
X10932Y6688
X7932Y5688
X9182Y3938
X5432Y5938
X3932Y4438
X2432Y5438
X3932Y7938
X8182Y8688
X13432Y11438
X14432Y9938
X16807Y10813
X17682Y11188
X18682Y10688
X17432Y9938
X17182Y9438
X19932Y9438
X20932Y8313
X21932Y8563
X22932Y7688
X23432Y7188
X22432Y6563
X22432Y5438
X20932Y5438
X20432Y5938
X20182Y6938
X20807Y7563
X23057Y9563
X22682Y9938
X21682Y10438
X20432Y10688
X20182Y12688
X24557Y10813
X27432Y9688
X29182Y9813
X29432Y9438
X30182Y9938
X32057Y10313
X32432Y12688
X31432Y7438
X30432Y7438
X29432Y7438
X28932Y7438
X28432Y7438
X27432Y7438
X26432Y7438
X31182Y5438
X29432Y3438
X28432Y3438
X27432Y3438
X26182Y3438
X19682Y4438
X17682Y4563
X14432Y5688
X13932Y7688
X14432Y1813
T02
X12682Y9188
X11682Y9188
X10682Y9188
X9682Y9188
X9682Y12188
X10682Y12188
X11682Y12188
X12682Y12188
X29932Y15438
X30932Y15438
X32432Y15438
X33432Y15438
T03
X16432Y8188
X15432Y8188
X15432Y7188
X16432Y7188
X16432Y6188
X15432Y6188
X15432Y5188
X16432Y5188
X16432Y4188
X15432Y4188
X15432Y3188
X16432Y3188
X16432Y2188
X15432Y2188
T04
X2182Y938
X3182Y938
X4182Y938
X5182Y938
X6182Y938
X7182Y938
X8182Y938
X9182Y938
X10182Y938
X11182Y938
X12182Y938
X13182Y938
X18682Y938
X19682Y938
X20682Y938
X21682Y938
X22682Y938
X23682Y938
X24682Y938
X25682Y938
X26682Y938
X27682Y938
X28682Y938
X29682Y938
X30682Y938
X31682Y938
X33432Y3188
X33432Y4188
X33432Y5188
X33432Y6188
X33432Y7188
X33432Y8188
X31182Y11188
X30182Y11188
X29182Y11188
X29182Y12188
X30182Y12188
X31182Y12188
X30682Y18688
X31682Y18688
X32682Y18688
X1432Y9688
X1432Y8688
X1432Y7688
T05
X25182Y13938
X29182Y13938
T06
X23182Y14988
X22182Y13988
X20182Y14988
X18182Y13988
X17182Y14988
X15182Y14988
X14182Y13988
X12182Y14988
X10182Y13988
X9182Y14988
X11182Y18988
X13182Y18988
X19182Y18988
X21182Y18988
T07
X7371Y17988
X7371Y15488
X7371Y12988
X993Y12988
X993Y15488
X993Y17988
T08
X25332Y16575
X27182Y15394
X27182Y17756
M30
