G04 This is an RS-274x file exported by *
G04 gerbv version 2.5.0 *
G04 More information is available about gerbv at *
G04 http://gerbv.gpleda.org/ *
G04 --End of header info--*
%MOIN*%
%FSLAX23Y23*%
%IPPOS*%
G04 --Define apertures--*
%ADD10C,0.0000*%
%ADD11C,0.0320*%
%ADD12R,0.0300X0.0840*%
%ADD13C,0.0640*%
%ADD14R,0.0670X0.0552*%
%ADD15C,0.1620*%
%ADD16C,0.0640*%
%ADD17C,0.0700*%
%AMMACRO18*
5,1,8,0.000000,0.000000,0.071438,22.500000*
%
%ADD18MACRO18*%
%ADD19C,0.0660*%
%ADD20R,0.0552X0.0670*%
%ADD21C,0.0926*%
%ADD22R,0.0276X0.0906*%
%ADD23R,0.0640X0.0640*%
%ADD24C,0.0560*%
%ADD25C,0.0820*%
%AMMACRO26*
5,1,8,0.000000,0.000000,0.088756,22.500000*
%
%ADD26MACRO26*%
%ADD27R,0.0631X0.0237*%
%ADD28R,0.0237X0.0631*%
%AMMACRO29*
5,1,8,0.000000,0.000000,0.069273,22.500000*
%
%ADD29MACRO29*%
%ADD30R,0.0788X0.0473*%
%AMMACRO31*
5,1,8,0.000000,0.000000,0.064943,22.500000*
%
%ADD31MACRO31*%
%ADD32R,0.0631X0.0670*%
%ADD33R,0.0512X0.0512*%
%ADD34R,0.0434X0.0591*%
G04 --Start main section--*
G54D10*
G01X00018Y00019D02*
G01X00018Y01969D01*
G01X00018Y01969D02*
G01X03368Y01969D01*
G01X03368Y01969D02*
G01X03418Y01919D01*
G01X03418Y01919D02*
G01X03418Y00019D01*
G01X03418Y00019D02*
G01X00018Y00019D01*
G54D11*
G01X00081Y00094D02*
G01X00081Y00096D01*
G01X00081Y00096D02*
G01X00082Y00098D01*
G01X00082Y00098D02*
G01X00082Y00100D01*
G01X00082Y00100D02*
G01X00084Y00102D01*
G01X00084Y00102D02*
G01X00085Y00103D01*
G01X00085Y00103D02*
G01X00087Y00105D01*
G01X00087Y00105D02*
G01X00089Y00106D01*
G01X00089Y00106D02*
G01X00091Y00106D01*
G01X00091Y00106D02*
G01X00093Y00106D01*
G01X00093Y00106D02*
G01X00095Y00106D01*
G01X00095Y00106D02*
G01X00098Y00106D01*
G01X00098Y00106D02*
G01X00099Y00105D01*
G01X00099Y00105D02*
G01X00101Y00103D01*
G01X00101Y00103D02*
G01X00103Y00102D01*
G01X00103Y00102D02*
G01X00104Y00100D01*
G01X00104Y00100D02*
G01X00105Y00098D01*
G01X00105Y00098D02*
G01X00106Y00096D01*
G01X00106Y00096D02*
G01X00106Y00094D01*
G01X00106Y00094D02*
G01X00106Y00092D01*
G01X00106Y00092D02*
G01X00105Y00090D01*
G01X00105Y00090D02*
G01X00104Y00088D01*
G01X00104Y00088D02*
G01X00103Y00086D01*
G01X00103Y00086D02*
G01X00101Y00084D01*
G01X00101Y00084D02*
G01X00100Y00083D01*
G01X00100Y00083D02*
G01X00098Y00082D01*
G01X00098Y00082D02*
G01X00095Y00082D01*
G01X00095Y00082D02*
G01X00093Y00081D01*
G01X00093Y00081D02*
G01X00091Y00082D01*
G01X00091Y00082D02*
G01X00089Y00082D01*
G01X00089Y00082D02*
G01X00087Y00083D01*
G01X00087Y00083D02*
G01X00085Y00084D01*
G01X00085Y00084D02*
G01X00084Y00086D01*
G01X00084Y00086D02*
G01X00082Y00088D01*
G01X00082Y00088D02*
G01X00082Y00090D01*
G01X00082Y00090D02*
G01X00081Y00092D01*
G01X00081Y00092D02*
G01X00081Y00094D01*
G01X00206Y01894D02*
G01X00206Y01896D01*
G01X00206Y01896D02*
G01X00207Y01898D01*
G01X00207Y01898D02*
G01X00207Y01900D01*
G01X00207Y01900D02*
G01X00209Y01902D01*
G01X00209Y01902D02*
G01X00210Y01903D01*
G01X00210Y01903D02*
G01X00212Y01905D01*
G01X00212Y01905D02*
G01X00214Y01906D01*
G01X00214Y01906D02*
G01X00216Y01906D01*
G01X00216Y01906D02*
G01X00218Y01906D01*
G01X00218Y01906D02*
G01X00220Y01906D01*
G01X00220Y01906D02*
G01X00223Y01906D01*
G01X00223Y01906D02*
G01X00224Y01905D01*
G01X00224Y01905D02*
G01X00226Y01903D01*
G01X00226Y01903D02*
G01X00228Y01902D01*
G01X00228Y01902D02*
G01X00229Y01900D01*
G01X00229Y01900D02*
G01X00230Y01898D01*
G01X00230Y01898D02*
G01X00231Y01896D01*
G01X00231Y01896D02*
G01X00231Y01894D01*
G01X00231Y01894D02*
G01X00231Y01892D01*
G01X00231Y01892D02*
G01X00230Y01890D01*
G01X00230Y01890D02*
G01X00229Y01888D01*
G01X00229Y01888D02*
G01X00228Y01886D01*
G01X00228Y01886D02*
G01X00226Y01884D01*
G01X00226Y01884D02*
G01X00225Y01883D01*
G01X00225Y01883D02*
G01X00223Y01882D01*
G01X00223Y01882D02*
G01X00220Y01882D01*
G01X00220Y01882D02*
G01X00218Y01881D01*
G01X00218Y01881D02*
G01X00216Y01882D01*
G01X00216Y01882D02*
G01X00214Y01882D01*
G01X00214Y01882D02*
G01X00212Y01883D01*
G01X00212Y01883D02*
G01X00210Y01884D01*
G01X00210Y01884D02*
G01X00209Y01886D01*
G01X00209Y01886D02*
G01X00207Y01888D01*
G01X00207Y01888D02*
G01X00207Y01890D01*
G01X00207Y01890D02*
G01X00206Y01892D01*
G01X00206Y01892D02*
G01X00206Y01894D01*
G01X03331Y00094D02*
G01X03331Y00096D01*
G01X03331Y00096D02*
G01X03332Y00098D01*
G01X03332Y00098D02*
G01X03332Y00100D01*
G01X03332Y00100D02*
G01X03334Y00102D01*
G01X03334Y00102D02*
G01X03335Y00103D01*
G01X03335Y00103D02*
G01X03337Y00105D01*
G01X03337Y00105D02*
G01X03339Y00106D01*
G01X03339Y00106D02*
G01X03341Y00106D01*
G01X03341Y00106D02*
G01X03343Y00106D01*
G01X03343Y00106D02*
G01X03345Y00106D01*
G01X03345Y00106D02*
G01X03348Y00106D01*
G01X03348Y00106D02*
G01X03349Y00105D01*
G01X03349Y00105D02*
G01X03351Y00103D01*
G01X03351Y00103D02*
G01X03353Y00102D01*
G01X03353Y00102D02*
G01X03354Y00100D01*
G01X03354Y00100D02*
G01X03355Y00098D01*
G01X03355Y00098D02*
G01X03356Y00096D01*
G01X03356Y00096D02*
G01X03356Y00094D01*
G01X03356Y00094D02*
G01X03356Y00092D01*
G01X03356Y00092D02*
G01X03355Y00090D01*
G01X03355Y00090D02*
G01X03354Y00088D01*
G01X03354Y00088D02*
G01X03353Y00086D01*
G01X03353Y00086D02*
G01X03351Y00084D01*
G01X03351Y00084D02*
G01X03350Y00083D01*
G01X03350Y00083D02*
G01X03348Y00082D01*
G01X03348Y00082D02*
G01X03345Y00082D01*
G01X03345Y00082D02*
G01X03343Y00081D01*
G01X03343Y00081D02*
G01X03341Y00082D01*
G01X03341Y00082D02*
G01X03339Y00082D01*
G01X03339Y00082D02*
G01X03337Y00083D01*
G01X03337Y00083D02*
G01X03335Y00084D01*
G01X03335Y00084D02*
G01X03334Y00086D01*
G01X03334Y00086D02*
G01X03332Y00088D01*
G01X03332Y00088D02*
G01X03332Y00090D01*
G01X03332Y00090D02*
G01X03331Y00092D01*
G01X03331Y00092D02*
G01X03331Y00094D01*
G54D12*
G01X02993Y00423D03*
G01X02943Y00423D03*
G01X02893Y00423D03*
G01X02843Y00423D03*
G01X02793Y00423D03*
G01X02743Y00423D03*
G01X02693Y00423D03*
G01X02693Y00665D03*
G01X02743Y00665D03*
G01X02793Y00665D03*
G01X02843Y00665D03*
G01X02893Y00665D03*
G01X02943Y00665D03*
G01X02993Y00665D03*
G54D13*
G01X03343Y00619D03*
G01X03343Y00719D03*
G01X03343Y00819D03*
G01X03343Y00519D03*
G01X03343Y00419D03*
G01X03343Y00319D03*
G01X03168Y00094D03*
G01X03068Y00094D03*
G01X02968Y00094D03*
G01X02868Y00094D03*
G01X02768Y00094D03*
G01X02668Y00094D03*
G01X02568Y00094D03*
G01X02468Y00094D03*
G01X02368Y00094D03*
G01X02268Y00094D03*
G01X02068Y00094D03*
G01X01968Y00094D03*
G01X01868Y00094D03*
G01X01318Y00094D03*
G01X01218Y00094D03*
G01X01118Y00094D03*
G01X01018Y00094D03*
G01X00918Y00094D03*
G01X00818Y00094D03*
G01X00718Y00094D03*
G01X00618Y00094D03*
G01X00518Y00094D03*
G01X00418Y00094D03*
G01X00318Y00094D03*
G01X00218Y00094D03*
G01X00143Y00869D03*
G01X00143Y00969D03*
G54D14*
G01X00468Y00796D03*
G01X00468Y00717D03*
G01X00868Y01031D03*
G01X00868Y01106D03*
G01X01418Y01181D03*
G01X01418Y01256D03*
G01X01518Y01256D03*
G01X01518Y01181D03*
G01X01643Y01181D03*
G01X01643Y01256D03*
G01X01743Y01256D03*
G01X01743Y01181D03*
G01X01843Y01181D03*
G01X01843Y01256D03*
G01X01943Y01258D03*
G01X01943Y01179D03*
G01X01931Y01021D03*
G01X01931Y00942D03*
G01X02393Y01179D03*
G01X02393Y01258D03*
G01X02768Y01206D03*
G01X02768Y01131D03*
G01X02456Y01021D03*
G01X02456Y00942D03*
G01X02693Y00883D03*
G01X02793Y00883D03*
G01X02893Y00883D03*
G01X02993Y00883D03*
G01X03093Y00883D03*
G01X03193Y00883D03*
G01X03193Y00804D03*
G01X03093Y00804D03*
G01X02993Y00804D03*
G01X02893Y00804D03*
G01X02793Y00804D03*
G01X02693Y00804D03*
G01X03268Y01129D03*
G01X03268Y01208D03*
G01X03168Y00283D03*
G01X03068Y00281D03*
G01X02968Y00281D03*
G01X02868Y00281D03*
G01X02768Y00281D03*
G01X02668Y00281D03*
G01X02568Y00281D03*
G01X02468Y00281D03*
G01X02368Y00281D03*
G01X02268Y00281D03*
G01X02168Y00281D03*
G01X02168Y00206D03*
G01X02268Y00206D03*
G01X02368Y00206D03*
G01X02468Y00206D03*
G01X02568Y00206D03*
G01X02668Y00206D03*
G01X02768Y00206D03*
G01X02868Y00206D03*
G01X02968Y00206D03*
G01X03068Y00206D03*
G01X03168Y00204D03*
G01X01318Y00204D03*
G01X01218Y00206D03*
G01X01218Y00281D03*
G01X01318Y00283D03*
G01X01318Y00369D03*
G01X01318Y00444D03*
G01X01218Y00444D03*
G01X01218Y00369D03*
G01X01318Y00531D03*
G01X01318Y00606D03*
G54D15*
G01X02718Y01539D03*
G01X02533Y01658D03*
G01X02718Y01776D03*
G54D16*
G01X03068Y01839D02*
G01X03068Y01899D01*
G01X03168Y01899D02*
G01X03168Y01839D01*
G01X03268Y01839D02*
G01X03268Y01899D01*
G54D17*
G01X02918Y01394D03*
G01X02518Y01394D03*
G54D18*
G01X03093Y01544D03*
G01X03243Y01544D03*
G54D19*
G01X03343Y01544D03*
G01X02993Y01544D03*
G54D20*
G01X03029Y01719D03*
G01X03108Y01719D03*
G01X03229Y01719D03*
G01X03308Y01719D03*
G01X01306Y00706D03*
G01X01231Y00706D03*
G01X01829Y00431D03*
G01X01908Y00431D03*
G01X01908Y00244D03*
G01X01829Y00244D03*
G01X01993Y00244D03*
G01X02068Y00244D03*
G01X02479Y00394D03*
G01X02558Y00394D03*
G01X00356Y00244D03*
G01X00281Y00244D03*
G01X00181Y00244D03*
G01X00106Y00244D03*
G54D21*
G01X00099Y01299D03*
G01X00099Y01549D03*
G01X00099Y01799D03*
G01X00737Y01799D03*
G01X00737Y01549D03*
G01X00737Y01299D03*
G54D22*
G01X00743Y00650D03*
G01X00693Y00650D03*
G01X00643Y00650D03*
G01X00593Y00650D03*
G01X00468Y00571D03*
G01X00418Y00571D03*
G01X00368Y00571D03*
G01X00318Y00571D03*
G01X00318Y00366D03*
G01X00368Y00366D03*
G01X00418Y00366D03*
G01X00468Y00366D03*
G01X00593Y00288D03*
G01X00643Y00288D03*
G01X00693Y00288D03*
G01X00743Y00288D03*
G01X00793Y00288D03*
G01X00843Y00288D03*
G01X00893Y00288D03*
G01X00943Y00288D03*
G01X00943Y00650D03*
G01X00893Y00650D03*
G01X00843Y00650D03*
G01X00793Y00650D03*
G54D23*
G01X00143Y00769D03*
G01X02168Y00094D03*
G54D24*
G01X01268Y00867D02*
G01X01268Y00919D01*
G01X01168Y00919D02*
G01X01168Y00867D01*
G01X01068Y00867D02*
G01X01068Y00919D01*
G01X00968Y00893D02*
G01X00968Y00945D01*
G01X00968Y01193D02*
G01X00968Y01245D01*
G01X01068Y01219D02*
G01X01068Y01271D01*
G01X01168Y01271D02*
G01X01168Y01219D01*
G01X01268Y01219D02*
G01X01268Y01271D01*
G54D25*
G01X01218Y01460D02*
G01X01218Y01538D01*
G01X02018Y01538D02*
G01X02018Y01460D01*
G54D26*
G01X01818Y01399D03*
G01X01718Y01499D03*
G01X01518Y01499D03*
G01X01418Y01399D03*
G01X01018Y01399D03*
G01X00918Y01499D03*
G01X01118Y01899D03*
G01X01318Y01899D03*
G01X01918Y01899D03*
G01X02118Y01899D03*
G01X02318Y01499D03*
G01X02218Y01399D03*
G54D27*
G36*
G01X02188Y00928D02*
G01X02232Y00972D01*
G01X02249Y00956D01*
G01X02204Y00911D01*
G01X02188Y00928D01*
G37*
G36*
G01X02210Y00905D02*
G01X02255Y00950D01*
G01X02271Y00933D01*
G01X02227Y00889D01*
G01X02210Y00905D01*
G37*
G36*
G01X02232Y00883D02*
G01X02277Y00928D01*
G01X02294Y00911D01*
G01X02249Y00866D01*
G01X02232Y00883D01*
G37*
G36*
G01X02255Y00861D02*
G01X02299Y00905D01*
G01X02316Y00889D01*
G01X02271Y00844D01*
G01X02255Y00861D01*
G37*
G36*
G01X02277Y00839D02*
G01X02321Y00883D01*
G01X02338Y00866D01*
G01X02294Y00822D01*
G01X02277Y00839D01*
G37*
G36*
G01X02299Y00816D02*
G01X02344Y00861D01*
G01X02360Y00844D01*
G01X02316Y00800D01*
G01X02299Y00816D01*
G37*
G36*
G01X02321Y00794D02*
G01X02366Y00839D01*
G01X02383Y00822D01*
G01X02338Y00777D01*
G01X02321Y00794D01*
G37*
G36*
G01X02344Y00772D02*
G01X02388Y00816D01*
G01X02405Y00800D01*
G01X02360Y00755D01*
G01X02344Y00772D01*
G37*
G36*
G01X02366Y00750D02*
G01X02410Y00794D01*
G01X02427Y00777D01*
G01X02383Y00733D01*
G01X02366Y00750D01*
G37*
G36*
G01X02388Y00727D02*
G01X02433Y00772D01*
G01X02449Y00755D01*
G01X02405Y00711D01*
G01X02388Y00727D01*
G37*
G36*
G01X02411Y00705D02*
G01X02455Y00750D01*
G01X02472Y00733D01*
G01X02427Y00688D01*
G01X02411Y00705D01*
G37*
G36*
G01X01998Y00471D02*
G01X02043Y00516D01*
G01X02060Y00499D01*
G01X02015Y00454D01*
G01X01998Y00471D01*
G37*
G36*
G01X01976Y00493D02*
G01X02021Y00538D01*
G01X02037Y00521D01*
G01X01993Y00477D01*
G01X01976Y00493D01*
G37*
G36*
G01X01954Y00516D02*
G01X01998Y00560D01*
G01X02015Y00544D01*
G01X01971Y00499D01*
G01X01954Y00516D01*
G37*
G36*
G01X01932Y00538D02*
G01X01976Y00582D01*
G01X01993Y00566D01*
G01X01948Y00521D01*
G01X01932Y00538D01*
G37*
G36*
G01X01909Y00560D02*
G01X01954Y00605D01*
G01X01971Y00588D01*
G01X01926Y00544D01*
G01X01909Y00560D01*
G37*
G36*
G01X01887Y00583D02*
G01X01932Y00627D01*
G01X01948Y00610D01*
G01X01904Y00566D01*
G01X01887Y00583D01*
G37*
G36*
G01X01865Y00605D02*
G01X01909Y00649D01*
G01X01926Y00633D01*
G01X01882Y00588D01*
G01X01865Y00605D01*
G37*
G36*
G01X02021Y00449D02*
G01X02065Y00493D01*
G01X02082Y00477D01*
G01X02037Y00432D01*
G01X02021Y00449D01*
G37*
G36*
G01X02043Y00427D02*
G01X02088Y00471D01*
G01X02104Y00454D01*
G01X02060Y00410D01*
G01X02043Y00427D01*
G37*
G36*
G01X02065Y00404D02*
G01X02110Y00449D01*
G01X02127Y00432D01*
G01X02082Y00388D01*
G01X02065Y00404D01*
G37*
G36*
G01X02088Y00382D02*
G01X02132Y00427D01*
G01X02149Y00410D01*
G01X02104Y00365D01*
G01X02088Y00382D01*
G37*
G54D28*
G36*
G01X02188Y00410D02*
G01X02204Y00427D01*
G01X02249Y00382D01*
G01X02232Y00365D01*
G01X02188Y00410D01*
G37*
G36*
G01X02210Y00432D02*
G01X02227Y00449D01*
G01X02271Y00404D01*
G01X02255Y00388D01*
G01X02210Y00432D01*
G37*
G36*
G01X02232Y00454D02*
G01X02249Y00471D01*
G01X02294Y00427D01*
G01X02277Y00410D01*
G01X02232Y00454D01*
G37*
G36*
G01X02255Y00477D02*
G01X02271Y00493D01*
G01X02316Y00449D01*
G01X02299Y00432D01*
G01X02255Y00477D01*
G37*
G36*
G01X02277Y00499D02*
G01X02294Y00516D01*
G01X02338Y00471D01*
G01X02321Y00454D01*
G01X02277Y00499D01*
G37*
G36*
G01X02299Y00521D02*
G01X02316Y00538D01*
G01X02360Y00493D01*
G01X02344Y00477D01*
G01X02299Y00521D01*
G37*
G36*
G01X02321Y00544D02*
G01X02338Y00560D01*
G01X02383Y00516D01*
G01X02366Y00499D01*
G01X02321Y00544D01*
G37*
G36*
G01X02344Y00566D02*
G01X02360Y00582D01*
G01X02405Y00538D01*
G01X02388Y00521D01*
G01X02344Y00566D01*
G37*
G36*
G01X02366Y00588D02*
G01X02383Y00605D01*
G01X02427Y00560D01*
G01X02410Y00544D01*
G01X02366Y00588D01*
G37*
G36*
G01X02388Y00610D02*
G01X02405Y00627D01*
G01X02449Y00583D01*
G01X02433Y00566D01*
G01X02388Y00610D01*
G37*
G36*
G01X02411Y00633D02*
G01X02427Y00649D01*
G01X02472Y00605D01*
G01X02455Y00588D01*
G01X02411Y00633D01*
G37*
G36*
G01X01998Y00866D02*
G01X02015Y00883D01*
G01X02060Y00839D01*
G01X02043Y00822D01*
G01X01998Y00866D01*
G37*
G36*
G01X02021Y00889D02*
G01X02037Y00905D01*
G01X02082Y00861D01*
G01X02065Y00844D01*
G01X02021Y00889D01*
G37*
G36*
G01X02043Y00911D02*
G01X02060Y00928D01*
G01X02104Y00883D01*
G01X02088Y00866D01*
G01X02043Y00911D01*
G37*
G36*
G01X02065Y00933D02*
G01X02082Y00950D01*
G01X02127Y00905D01*
G01X02110Y00889D01*
G01X02065Y00933D01*
G37*
G36*
G01X02088Y00956D02*
G01X02104Y00972D01*
G01X02149Y00928D01*
G01X02132Y00911D01*
G01X02088Y00956D01*
G37*
G36*
G01X01976Y00844D02*
G01X01993Y00861D01*
G01X02037Y00816D01*
G01X02021Y00800D01*
G01X01976Y00844D01*
G37*
G36*
G01X01954Y00822D02*
G01X01971Y00839D01*
G01X02015Y00794D01*
G01X01998Y00777D01*
G01X01954Y00822D01*
G37*
G36*
G01X01932Y00800D02*
G01X01948Y00816D01*
G01X01993Y00772D01*
G01X01976Y00755D01*
G01X01932Y00800D01*
G37*
G36*
G01X01909Y00777D02*
G01X01926Y00794D01*
G01X01971Y00750D01*
G01X01954Y00733D01*
G01X01909Y00777D01*
G37*
G36*
G01X01887Y00755D02*
G01X01904Y00772D01*
G01X01948Y00727D01*
G01X01932Y00711D01*
G01X01887Y00755D01*
G37*
G36*
G01X01865Y00733D02*
G01X01882Y00750D01*
G01X01926Y00705D01*
G01X01909Y00688D01*
G01X01865Y00733D01*
G37*
G54D29*
G01X02918Y01119D03*
G01X03018Y01119D03*
G01X03118Y01119D03*
G01X03118Y01219D03*
G01X03018Y01219D03*
G01X02918Y01219D03*
G54D30*
G01X02241Y01214D03*
G01X02241Y01124D03*
G01X02095Y01124D03*
G01X02095Y01214D03*
G54D31*
G01X01643Y00819D03*
G01X01543Y00819D03*
G01X01543Y00719D03*
G01X01643Y00719D03*
G01X01643Y00619D03*
G01X01543Y00619D03*
G01X01543Y00519D03*
G01X01643Y00519D03*
G01X01643Y00419D03*
G01X01543Y00419D03*
G01X01543Y00319D03*
G01X01643Y00319D03*
G01X01643Y00219D03*
G01X01543Y00219D03*
G54D32*
G01X00143Y00410D03*
G54D33*
G01X00104Y00541D03*
G01X00183Y00541D03*
G54D34*
G01X01143Y00612D03*
G01X01218Y00612D03*
G01X01181Y00526D03*
M02*
