G75*
G70*
%OFA0B0*%
%FSLAX24Y24*%
%IPPOS*%
%LPD*%
%AMOC8*
5,1,8,0,0,1.08239X$1,22.5*
%
%ADD10C,0.0720*%
%ADD11C,0.1660*%
%ADD12C,0.0720*%
%ADD13C,0.0760*%
%ADD14OC8,0.0700*%
%ADD15C,0.0700*%
%ADD16OC8,0.0640*%
%ADD17C,0.0966*%
%ADD18R,0.0720X0.0720*%
%ADD19C,0.0640*%
%ADD20C,0.0860*%
%ADD21OC8,0.0860*%
%ADD22OC8,0.0720*%
%ADD23OC8,0.0680*%
D10*
X002334Y000940D03*
X003334Y000940D03*
X004334Y000940D03*
X005334Y000940D03*
X006334Y000940D03*
X007334Y000940D03*
X008334Y000940D03*
X009334Y000940D03*
X010334Y000940D03*
X011334Y000940D03*
X012334Y000940D03*
X013334Y000940D03*
X018834Y000940D03*
X019834Y000940D03*
X020834Y000940D03*
X022834Y000940D03*
X023834Y000940D03*
X024834Y000940D03*
X025834Y000940D03*
X026834Y000940D03*
X027834Y000940D03*
X028834Y000940D03*
X029834Y000940D03*
X030834Y000940D03*
X031834Y000940D03*
X033584Y003440D03*
X033584Y004440D03*
X033584Y005440D03*
X033584Y006440D03*
X033584Y007440D03*
X033584Y008440D03*
X001334Y008940D03*
X001334Y009940D03*
D11*
X025483Y016827D03*
X027334Y015646D03*
X027334Y018008D03*
D12*
X030834Y018620D02*
X030834Y019260D01*
X031834Y019260D02*
X031834Y018620D01*
X032834Y018620D02*
X032834Y019260D01*
D13*
X029334Y013940D03*
X025334Y013940D03*
D14*
X031334Y014940D03*
X032834Y011940D03*
D15*
X032834Y012940D03*
X031334Y013940D03*
D16*
X031334Y016440D03*
X032334Y017440D03*
X033334Y016440D03*
X030334Y017440D03*
D17*
X007523Y018240D03*
X007523Y015740D03*
X007523Y013240D03*
X001145Y013240D03*
X001145Y015740D03*
X001145Y018240D03*
D18*
X001334Y007940D03*
X021834Y000940D03*
D19*
X012834Y008880D02*
X012834Y009440D01*
X011834Y009440D02*
X011834Y008880D01*
X010834Y008880D02*
X010834Y009440D01*
X009834Y009160D02*
X009834Y009720D01*
X009834Y012160D02*
X009834Y012720D01*
X010834Y012440D02*
X010834Y013000D01*
X011834Y013000D02*
X011834Y012440D01*
X012834Y012440D02*
X012834Y013000D01*
D20*
X012334Y014850D02*
X012334Y015630D01*
X020334Y015630D02*
X020334Y014850D01*
D21*
X018334Y014240D03*
X017334Y015240D03*
X015334Y015240D03*
X014334Y014240D03*
X010334Y014240D03*
X009334Y015240D03*
X011334Y019240D03*
X013334Y019240D03*
X019334Y019240D03*
X021334Y019240D03*
X023334Y015240D03*
X022334Y014240D03*
D22*
X027834Y011440D03*
X028834Y011440D03*
X029834Y011440D03*
X029834Y010440D03*
X028834Y010440D03*
X027834Y010440D03*
D23*
X016584Y008190D03*
X015584Y008190D03*
X015584Y007190D03*
X016584Y007190D03*
X016584Y006190D03*
X015584Y006190D03*
X015584Y005190D03*
X016584Y005190D03*
X016584Y004190D03*
X015584Y004190D03*
X015584Y003190D03*
X016584Y003190D03*
X016584Y002190D03*
X015584Y002190D03*
M02*
