G75*
G70*
%OFA0B0*%
%FSLAX24Y24*%
%IPPOS*%
%LPD*%
%AMOC8*
5,1,8,0,0,1.08239X$1,22.5*
%
%ADD10C,0.0640*%
%ADD11C,0.1580*%
%ADD12C,0.0640*%
%ADD13C,0.0680*%
%ADD14OC8,0.0620*%
%ADD15C,0.0620*%
%ADD16OC8,0.0560*%
%ADD17C,0.0886*%
%ADD18R,0.0640X0.0640*%
%ADD19C,0.0560*%
%ADD20C,0.0780*%
%ADD21OC8,0.0780*%
%ADD22OC8,0.0640*%
%ADD23OC8,0.0600*%
%ADD24C,0.0400*%
%ADD25C,0.0160*%
%ADD26C,0.0660*%
%ADD27C,0.0600*%
%ADD28C,0.0320*%
%ADD29C,0.0240*%
D10*
X002334Y000940D03*
X003334Y000940D03*
X004334Y000940D03*
X005334Y000940D03*
X006334Y000940D03*
X007334Y000940D03*
X008334Y000940D03*
X009334Y000940D03*
X010334Y000940D03*
X011334Y000940D03*
X012334Y000940D03*
X013334Y000940D03*
X018834Y000940D03*
X019834Y000940D03*
X020834Y000940D03*
X022834Y000940D03*
X023834Y000940D03*
X024834Y000940D03*
X025834Y000940D03*
X026834Y000940D03*
X027834Y000940D03*
X028834Y000940D03*
X029834Y000940D03*
X030834Y000940D03*
X031834Y000940D03*
X033584Y003440D03*
X033584Y004440D03*
X033584Y005440D03*
X033584Y006440D03*
X033584Y007440D03*
X033584Y008440D03*
X001334Y008940D03*
X001334Y009940D03*
D11*
X025483Y016827D03*
X027334Y015646D03*
X027334Y018008D03*
D12*
X030834Y018620D02*
X030834Y019260D01*
X031834Y019260D02*
X031834Y018620D01*
X032834Y018620D02*
X032834Y019260D01*
D13*
X029334Y013940D03*
X025334Y013940D03*
D14*
X031334Y014940D03*
X032834Y011940D03*
D15*
X032834Y012940D03*
X031334Y013940D03*
D16*
X031334Y016440D03*
X032334Y017440D03*
X033334Y016440D03*
X030334Y017440D03*
D17*
X007523Y018240D03*
X007523Y015740D03*
X007523Y013240D03*
X001145Y013240D03*
X001145Y015740D03*
X001145Y018240D03*
D18*
X001334Y007940D03*
X021834Y000940D03*
D19*
X012834Y008880D02*
X012834Y009440D01*
X011834Y009440D02*
X011834Y008880D01*
X010834Y008880D02*
X010834Y009440D01*
X009834Y009160D02*
X009834Y009720D01*
X009834Y012160D02*
X009834Y012720D01*
X010834Y012440D02*
X010834Y013000D01*
X011834Y013000D02*
X011834Y012440D01*
X012834Y012440D02*
X012834Y013000D01*
D20*
X012334Y014850D02*
X012334Y015630D01*
X020334Y015630D02*
X020334Y014850D01*
D21*
X018334Y014240D03*
X017334Y015240D03*
X015334Y015240D03*
X014334Y014240D03*
X010334Y014240D03*
X009334Y015240D03*
X011334Y019240D03*
X013334Y019240D03*
X019334Y019240D03*
X021334Y019240D03*
X023334Y015240D03*
X022334Y014240D03*
D22*
X027834Y011440D03*
X028834Y011440D03*
X029834Y011440D03*
X029834Y010440D03*
X028834Y010440D03*
X027834Y010440D03*
D23*
X016584Y008190D03*
X015584Y008190D03*
X015584Y007190D03*
X016584Y007190D03*
X016584Y006190D03*
X015584Y006190D03*
X015584Y005190D03*
X016584Y005190D03*
X016584Y004190D03*
X015584Y004190D03*
X015584Y003190D03*
X016584Y003190D03*
X016584Y002190D03*
X015584Y002190D03*
D24*
X014584Y001815D03*
X017834Y004815D03*
X019834Y004690D03*
X021084Y005690D03*
X020584Y006190D03*
X020209Y006940D03*
X020834Y007940D03*
X021084Y008440D03*
X022084Y008815D03*
X023084Y007940D03*
X023584Y007440D03*
X022584Y006815D03*
X022584Y005690D03*
X026084Y007440D03*
X027584Y007440D03*
X028584Y007440D03*
X029084Y007440D03*
X029584Y007440D03*
X030584Y007440D03*
X031709Y006690D03*
X031334Y006190D03*
X029584Y003440D03*
X028584Y003440D03*
X027584Y003440D03*
X026334Y003690D03*
X029209Y009440D03*
X024334Y009940D03*
X023209Y009815D03*
X022834Y010190D03*
X022084Y010190D03*
X020584Y010940D03*
X019959Y010315D03*
X020084Y009690D03*
X018334Y011190D03*
X019209Y011690D03*
X017334Y010940D03*
X017334Y009440D03*
X013584Y011690D03*
X008584Y008690D03*
X011084Y006690D03*
X010709Y005690D03*
X010334Y005315D03*
X009959Y004940D03*
X009084Y004940D03*
X008584Y005315D03*
X008084Y005690D03*
X006584Y003690D03*
X003834Y004440D03*
X002584Y005440D03*
X004084Y007940D03*
X020459Y012940D03*
X023209Y011940D03*
D25*
X000514Y007960D02*
X000514Y000370D01*
X034154Y000370D01*
X034154Y019365D01*
X033759Y019760D01*
X021620Y019760D01*
X021904Y019476D01*
X021904Y019290D01*
X021384Y019290D01*
X021384Y019190D01*
X021904Y019190D01*
X021904Y019004D01*
X021570Y018670D01*
X021384Y018670D01*
X021384Y019189D01*
X021283Y019189D01*
X021283Y018670D01*
X021097Y018670D01*
X020764Y019004D01*
X020764Y019190D01*
X021283Y019190D01*
X021283Y019290D01*
X020764Y019290D01*
X020764Y019476D01*
X021048Y019760D01*
X019620Y019760D01*
X019904Y019476D01*
X019904Y019290D01*
X019384Y019290D01*
X019384Y019190D01*
X019904Y019190D01*
X019904Y019004D01*
X019570Y018670D01*
X019384Y018670D01*
X019384Y019189D01*
X019283Y019189D01*
X019283Y018670D01*
X019097Y018670D01*
X018764Y019004D01*
X018764Y019190D01*
X019283Y019190D01*
X019283Y019290D01*
X018764Y019290D01*
X018764Y019476D01*
X019048Y019760D01*
X013620Y019760D01*
X013904Y019476D01*
X013904Y019290D01*
X013384Y019290D01*
X013384Y019190D01*
X013904Y019190D01*
X013904Y019004D01*
X013570Y018670D01*
X013384Y018670D01*
X013384Y019189D01*
X013283Y019189D01*
X013283Y018670D01*
X013097Y018670D01*
X012764Y019004D01*
X012764Y019190D01*
X013283Y019190D01*
X013283Y019290D01*
X012764Y019290D01*
X012764Y019476D01*
X013048Y019760D01*
X011620Y019760D01*
X011904Y019476D01*
X011904Y019290D01*
X011384Y019290D01*
X011384Y019190D01*
X011904Y019190D01*
X011904Y019004D01*
X011570Y018670D01*
X011384Y018670D01*
X011384Y019189D01*
X011283Y019189D01*
X011283Y018670D01*
X011097Y018670D01*
X010764Y019004D01*
X010764Y019190D01*
X011283Y019190D01*
X011283Y019290D01*
X010764Y019290D01*
X010764Y019476D01*
X011048Y019760D01*
X000514Y019760D01*
X000514Y013033D01*
X000544Y013063D01*
X000522Y013116D01*
X000522Y013364D01*
X000616Y013593D01*
X000792Y013768D01*
X001021Y013863D01*
X001268Y013863D01*
X001497Y013768D01*
X001673Y013593D01*
X001767Y013364D01*
X001767Y013116D01*
X001673Y012887D01*
X001497Y012712D01*
X001268Y012617D01*
X001021Y012617D01*
X001009Y012622D01*
X001009Y010322D01*
X001050Y010364D01*
X001234Y010440D01*
X001433Y010440D01*
X001617Y010364D01*
X001725Y010255D01*
X002034Y010564D01*
X002034Y014426D01*
X001321Y015139D01*
X001268Y015117D01*
X001021Y015117D01*
X000792Y015212D01*
X000616Y015387D01*
X000522Y015616D01*
X000522Y015864D01*
X000616Y016093D01*
X000792Y016268D01*
X001021Y016363D01*
X001268Y016363D01*
X001497Y016268D01*
X001673Y016093D01*
X001767Y015864D01*
X001767Y015616D01*
X001746Y015563D01*
X002503Y014805D01*
X002534Y014775D01*
X002534Y016315D01*
X001232Y017617D01*
X001021Y017617D01*
X000792Y017712D01*
X000616Y017887D01*
X000522Y018116D01*
X000522Y018364D01*
X000616Y018593D01*
X000792Y018768D01*
X001021Y018863D01*
X001268Y018863D01*
X001497Y018768D01*
X001673Y018593D01*
X001767Y018364D01*
X001767Y018116D01*
X001713Y017984D01*
X003003Y016694D01*
X003088Y016610D01*
X003134Y016499D01*
X003134Y009499D01*
X003134Y009380D01*
X003088Y009270D01*
X002588Y008770D01*
X002503Y008685D01*
X002393Y008640D01*
X001741Y008640D01*
X001617Y008516D01*
X001433Y008440D01*
X001234Y008440D01*
X001050Y008516D01*
X001009Y008558D01*
X001009Y008440D01*
X001728Y008440D01*
X001834Y008334D01*
X001834Y007545D01*
X001728Y007440D01*
X000939Y007440D01*
X000834Y007545D01*
X000834Y007667D01*
X000789Y007685D01*
X000539Y007935D01*
X000514Y007960D01*
X000514Y007941D02*
X000533Y007941D01*
X000514Y007782D02*
X000692Y007782D01*
X000834Y007623D02*
X000514Y007623D01*
X000514Y007465D02*
X000914Y007465D01*
X000514Y007306D02*
X015104Y007306D01*
X015104Y007388D02*
X015104Y006991D01*
X015385Y006710D01*
X015782Y006710D01*
X016064Y006991D01*
X016064Y007388D01*
X015782Y007670D01*
X015385Y007670D01*
X015104Y007388D01*
X015180Y007465D02*
X001753Y007465D01*
X001834Y007623D02*
X015339Y007623D01*
X015385Y007710D02*
X015782Y007710D01*
X016064Y007991D01*
X016064Y008388D01*
X015782Y008670D01*
X015385Y008670D01*
X015104Y008388D01*
X015104Y007991D01*
X015385Y007710D01*
X015312Y007782D02*
X001834Y007782D01*
X001834Y007941D02*
X015154Y007941D01*
X015104Y008099D02*
X001834Y008099D01*
X001834Y008258D02*
X015104Y008258D01*
X015131Y008416D02*
X008847Y008416D01*
X008799Y008368D02*
X008906Y008474D01*
X008946Y008571D01*
X009122Y008747D01*
X009174Y008872D01*
X009174Y009007D01*
X009174Y011049D01*
X009224Y011100D01*
X010651Y011100D01*
X010776Y011151D01*
X010872Y011247D01*
X010896Y011271D01*
X010920Y011247D01*
X011016Y011151D01*
X011141Y011100D01*
X013266Y011100D01*
X013401Y011100D01*
X013526Y011151D01*
X013702Y011328D01*
X013799Y011368D01*
X013906Y011474D01*
X013964Y011614D01*
X013964Y011765D01*
X013906Y011905D01*
X013799Y012012D01*
X013659Y012070D01*
X013508Y012070D01*
X013368Y012012D01*
X013261Y011905D01*
X013221Y011808D01*
X013193Y011780D01*
X011349Y011780D01*
X011174Y011955D01*
X011174Y012129D01*
X011223Y012179D01*
X011294Y012348D01*
X011294Y013091D01*
X011223Y013260D01*
X011094Y013390D01*
X010925Y013460D01*
X010742Y013460D01*
X010573Y013390D01*
X010444Y013260D01*
X010374Y013091D01*
X010374Y012348D01*
X010444Y012179D01*
X010494Y012129D01*
X010494Y011882D01*
X010494Y011830D01*
X010443Y011780D01*
X010104Y011780D01*
X010223Y011899D01*
X010294Y012068D01*
X010294Y012811D01*
X010223Y012980D01*
X010094Y013110D01*
X009925Y013180D01*
X009742Y013180D01*
X009573Y013110D01*
X009444Y012980D01*
X009374Y012811D01*
X009374Y012068D01*
X009444Y011899D01*
X009563Y011780D01*
X009016Y011780D01*
X008891Y011728D01*
X008795Y011632D01*
X008641Y011478D01*
X008545Y011382D01*
X008494Y011257D01*
X008494Y009080D01*
X008465Y009052D01*
X008368Y009012D01*
X008261Y008905D01*
X008204Y008765D01*
X008204Y008614D01*
X008261Y008474D01*
X008368Y008368D01*
X008508Y008310D01*
X008659Y008310D01*
X008799Y008368D01*
X008949Y008575D02*
X010488Y008575D01*
X010444Y008619D02*
X010573Y008490D01*
X010742Y008420D01*
X010925Y008420D01*
X011094Y008490D01*
X011223Y008619D01*
X011294Y008788D01*
X011294Y009531D01*
X011223Y009700D01*
X011094Y009830D01*
X010925Y009900D01*
X010742Y009900D01*
X010573Y009830D01*
X010444Y009700D01*
X010374Y009531D01*
X010374Y008788D01*
X010444Y008619D01*
X010396Y008733D02*
X010006Y008733D01*
X009925Y008700D02*
X010094Y008770D01*
X010223Y008899D01*
X010294Y009068D01*
X010294Y009811D01*
X010223Y009980D01*
X010094Y010110D01*
X009925Y010180D01*
X009742Y010180D01*
X009573Y010110D01*
X009444Y009980D01*
X009374Y009811D01*
X009374Y009068D01*
X009444Y008899D01*
X009573Y008770D01*
X009742Y008700D01*
X009925Y008700D01*
X009661Y008733D02*
X009108Y008733D01*
X009174Y008892D02*
X009451Y008892D01*
X009381Y009050D02*
X009174Y009050D01*
X009174Y009209D02*
X009374Y009209D01*
X009374Y009367D02*
X009174Y009367D01*
X009174Y009526D02*
X009374Y009526D01*
X009374Y009684D02*
X009174Y009684D01*
X009174Y009843D02*
X009387Y009843D01*
X009465Y010002D02*
X009174Y010002D01*
X009174Y010160D02*
X009695Y010160D01*
X009972Y010160D02*
X022454Y010160D01*
X022454Y010114D02*
X022454Y010265D01*
X022511Y010405D01*
X022618Y010512D01*
X022695Y010543D01*
X024936Y012785D01*
X025032Y012825D01*
X025135Y012825D01*
X030510Y012825D01*
X030606Y012785D01*
X030679Y012712D01*
X031731Y011660D01*
X031804Y011587D01*
X031844Y011491D01*
X031844Y007045D01*
X031924Y007012D01*
X032031Y006905D01*
X032089Y006765D01*
X032089Y006614D01*
X032031Y006474D01*
X031924Y006368D01*
X031784Y006310D01*
X031695Y006310D01*
X031714Y006265D01*
X031714Y006114D01*
X031656Y005974D01*
X031549Y005868D01*
X031409Y005810D01*
X031258Y005810D01*
X031118Y005868D01*
X031011Y005974D01*
X030954Y006114D01*
X030954Y006265D01*
X031011Y006405D01*
X031074Y006467D01*
X031074Y011207D01*
X030226Y012055D01*
X025316Y012055D01*
X023469Y010207D01*
X023469Y010092D01*
X023531Y010030D01*
X023589Y009890D01*
X023589Y009739D01*
X023531Y009599D01*
X023424Y009493D01*
X023284Y009435D01*
X023133Y009435D01*
X022993Y009493D01*
X022886Y009599D01*
X022829Y009739D01*
X022829Y009810D01*
X022758Y009810D01*
X022618Y009868D01*
X022511Y009974D01*
X022454Y010114D01*
X022500Y010002D02*
X020309Y010002D01*
X020299Y010012D02*
X020159Y010070D01*
X020008Y010070D01*
X019868Y010012D01*
X019806Y009950D01*
X017635Y009950D01*
X017532Y009950D01*
X017436Y009910D01*
X017346Y009820D01*
X017258Y009820D01*
X017118Y009762D01*
X017011Y009655D01*
X016954Y009515D01*
X016954Y009364D01*
X017011Y009224D01*
X017118Y009118D01*
X017258Y009060D01*
X017409Y009060D01*
X017549Y009118D01*
X017656Y009224D01*
X017714Y009364D01*
X017714Y009430D01*
X019806Y009430D01*
X019868Y009368D01*
X020008Y009310D01*
X020159Y009310D01*
X020299Y009368D01*
X020406Y009474D01*
X020464Y009614D01*
X020464Y009765D01*
X020406Y009905D01*
X020299Y010012D01*
X020431Y009843D02*
X022677Y009843D01*
X022851Y009684D02*
X020464Y009684D01*
X020427Y009526D02*
X022960Y009526D01*
X023209Y009815D02*
X023209Y010315D01*
X025209Y012315D01*
X030334Y012315D01*
X031334Y011315D01*
X031334Y006190D01*
X031714Y006197D02*
X032494Y006197D01*
X032494Y006355D02*
X031894Y006355D01*
X032047Y006514D02*
X032494Y006514D01*
X032494Y006672D02*
X032089Y006672D01*
X032061Y006831D02*
X032494Y006831D01*
X032494Y006989D02*
X031946Y006989D01*
X031844Y007148D02*
X032494Y007148D01*
X032494Y007306D02*
X031844Y007306D01*
X031844Y007465D02*
X032494Y007465D01*
X032494Y007623D02*
X031844Y007623D01*
X031844Y007782D02*
X032494Y007782D01*
X032494Y007941D02*
X031844Y007941D01*
X031844Y008099D02*
X032494Y008099D01*
X032494Y008258D02*
X031844Y008258D01*
X031844Y008416D02*
X032494Y008416D01*
X032494Y008575D02*
X031844Y008575D01*
X031844Y008733D02*
X032494Y008733D01*
X032494Y008892D02*
X031844Y008892D01*
X031844Y009050D02*
X032494Y009050D01*
X032494Y009209D02*
X031844Y009209D01*
X031844Y009367D02*
X032494Y009367D01*
X032494Y009526D02*
X031844Y009526D01*
X031844Y009684D02*
X032494Y009684D01*
X032494Y009843D02*
X031844Y009843D01*
X031844Y010002D02*
X032494Y010002D01*
X032494Y010160D02*
X031844Y010160D01*
X031844Y010319D02*
X032494Y010319D01*
X032494Y010477D02*
X031844Y010477D01*
X031844Y010636D02*
X032494Y010636D01*
X032494Y010794D02*
X031844Y010794D01*
X031844Y010953D02*
X032494Y010953D01*
X032494Y011007D02*
X032494Y010872D01*
X032494Y005757D01*
X032494Y005622D01*
X032545Y005497D01*
X032795Y005247D01*
X032891Y005151D01*
X033016Y005100D01*
X033216Y005100D01*
X033300Y005016D01*
X033484Y004940D01*
X033683Y004940D01*
X033867Y005016D01*
X034007Y005156D01*
X034084Y005340D01*
X034084Y005539D01*
X034007Y005723D01*
X033867Y005864D01*
X033683Y005940D01*
X033867Y006016D01*
X034007Y006156D01*
X034084Y006340D01*
X034084Y006539D01*
X034007Y006723D01*
X033867Y006864D01*
X033683Y006940D01*
X033867Y007016D01*
X034007Y007156D01*
X034084Y007340D01*
X034084Y007539D01*
X034007Y007723D01*
X033867Y007864D01*
X033683Y007940D01*
X033867Y008016D01*
X034007Y008156D01*
X034084Y008340D01*
X034084Y008539D01*
X034007Y008723D01*
X033867Y008864D01*
X033683Y008940D01*
X033484Y008940D01*
X033300Y008864D01*
X033174Y008737D01*
X033174Y010799D01*
X033747Y011372D01*
X033799Y011497D01*
X033799Y011632D01*
X033799Y012382D01*
X033747Y012507D01*
X033651Y012603D01*
X033413Y012841D01*
X033740Y013168D01*
X033814Y013344D01*
X033814Y013535D01*
X033814Y016535D01*
X033814Y017594D01*
X033814Y017785D01*
X033740Y017962D01*
X033314Y018389D01*
X033314Y018472D01*
X033334Y018520D01*
X033334Y019359D01*
X033257Y019543D01*
X033117Y019684D01*
X032933Y019760D01*
X032734Y019760D01*
X032550Y019684D01*
X032410Y019543D01*
X032334Y019359D01*
X032334Y018520D01*
X032354Y018472D01*
X032354Y018094D01*
X032427Y017918D01*
X032445Y017900D01*
X032334Y017900D01*
X032334Y017440D01*
X032794Y017440D01*
X032794Y017551D01*
X032854Y017491D01*
X032854Y016535D01*
X032854Y013639D01*
X032580Y013365D01*
X032556Y013355D01*
X032418Y013217D01*
X032344Y013037D01*
X032344Y012842D01*
X032418Y012662D01*
X032556Y012524D01*
X032736Y012450D01*
X032843Y012450D01*
X032863Y012430D01*
X032834Y012430D01*
X032834Y011940D01*
X032833Y011940D01*
X032833Y011939D01*
X032834Y011939D01*
X032834Y011450D01*
X032863Y011450D01*
X032545Y011132D01*
X032494Y011007D01*
X032537Y011111D02*
X031844Y011111D01*
X031844Y011270D02*
X032683Y011270D01*
X032631Y011450D02*
X032833Y011450D01*
X032833Y011939D01*
X032344Y011939D01*
X032344Y011737D01*
X032631Y011450D01*
X032493Y011587D02*
X031804Y011587D01*
X031844Y011428D02*
X032842Y011428D01*
X032833Y011587D02*
X032834Y011587D01*
X032833Y011746D02*
X032834Y011746D01*
X032833Y011904D02*
X032834Y011904D01*
X032833Y011940D02*
X032344Y011940D01*
X032344Y012143D01*
X032631Y012430D01*
X032833Y012430D01*
X032833Y011940D01*
X032833Y012063D02*
X032834Y012063D01*
X032833Y012221D02*
X032834Y012221D01*
X032833Y012380D02*
X032834Y012380D01*
X032581Y012380D02*
X031011Y012380D01*
X030853Y012538D02*
X032542Y012538D01*
X032404Y012697D02*
X030694Y012697D01*
X030459Y012565D02*
X025084Y012565D01*
X022834Y010315D01*
X022834Y010190D01*
X022476Y010319D02*
X009174Y010319D01*
X009174Y010477D02*
X022584Y010477D01*
X022787Y010636D02*
X020817Y010636D01*
X020799Y010618D02*
X020906Y010724D01*
X020964Y010864D01*
X020964Y011015D01*
X020906Y011155D01*
X020844Y011217D01*
X020844Y011888D01*
X020844Y011991D01*
X020804Y012087D01*
X020304Y012587D01*
X020231Y012660D01*
X020135Y012700D01*
X013294Y012700D01*
X013294Y013091D01*
X013223Y013260D01*
X013094Y013390D01*
X012925Y013460D01*
X012742Y013460D01*
X012573Y013390D01*
X012444Y013260D01*
X012374Y013091D01*
X012374Y012348D01*
X012444Y012179D01*
X012573Y012050D01*
X012742Y011980D01*
X012925Y011980D01*
X013094Y012050D01*
X013223Y012179D01*
X013224Y012180D01*
X019976Y012180D01*
X020324Y011832D01*
X020324Y011217D01*
X020261Y011155D01*
X020204Y011015D01*
X020204Y010864D01*
X020261Y010724D01*
X020368Y010618D01*
X020508Y010560D01*
X020659Y010560D01*
X020799Y010618D01*
X020935Y010794D02*
X022945Y010794D01*
X023104Y010953D02*
X020964Y010953D01*
X020924Y011111D02*
X023263Y011111D01*
X023421Y011270D02*
X020844Y011270D01*
X020844Y011428D02*
X023580Y011428D01*
X023738Y011587D02*
X020844Y011587D01*
X020844Y011746D02*
X023897Y011746D01*
X024055Y011904D02*
X020844Y011904D01*
X020814Y012063D02*
X024214Y012063D01*
X024372Y012221D02*
X020670Y012221D01*
X020511Y012380D02*
X024531Y012380D01*
X024689Y012538D02*
X020353Y012538D01*
X020142Y012697D02*
X024848Y012697D01*
X025166Y011904D02*
X027591Y011904D01*
X027626Y011940D02*
X027334Y011647D01*
X027334Y011233D01*
X027626Y010940D01*
X028041Y010940D01*
X028334Y011233D01*
X028626Y010940D01*
X029041Y010940D01*
X028626Y010940D01*
X028334Y010647D01*
X028334Y010233D01*
X028626Y009940D01*
X028949Y009940D01*
X028949Y009717D01*
X028886Y009655D01*
X028829Y009515D01*
X028829Y009364D01*
X028886Y009224D01*
X028993Y009118D01*
X029133Y009060D01*
X029275Y009060D01*
X029260Y009045D01*
X023613Y009045D01*
X023437Y008972D01*
X023302Y008837D01*
X022885Y008420D01*
X021929Y008420D01*
X021738Y008420D01*
X021562Y008347D01*
X021234Y008019D01*
X021196Y008058D01*
X021190Y008072D01*
X021299Y008118D01*
X021406Y008224D01*
X021464Y008364D01*
X021464Y008515D01*
X021406Y008655D01*
X021299Y008762D01*
X021159Y008820D01*
X021008Y008820D01*
X020868Y008762D01*
X020806Y008700D01*
X017760Y008700D01*
X017657Y008700D01*
X017561Y008660D01*
X017064Y008162D01*
X017064Y008388D01*
X016782Y008670D01*
X016385Y008670D01*
X016104Y008388D01*
X016104Y007991D01*
X016385Y007710D01*
X016782Y007710D01*
X016949Y007876D01*
X016949Y007503D01*
X016782Y007670D01*
X016385Y007670D01*
X016104Y007388D01*
X016104Y006991D01*
X016385Y006710D01*
X016782Y006710D01*
X016949Y006876D01*
X016949Y006503D01*
X016782Y006670D01*
X016385Y006670D01*
X016104Y006388D01*
X016104Y005991D01*
X016385Y005710D01*
X016782Y005710D01*
X016949Y005876D01*
X016949Y005503D01*
X016782Y005670D01*
X016385Y005670D01*
X016104Y005388D01*
X016104Y004991D01*
X016385Y004710D01*
X016782Y004710D01*
X016949Y004876D01*
X016949Y004547D01*
X016927Y004525D01*
X016782Y004670D01*
X016385Y004670D01*
X016104Y004388D01*
X016104Y003991D01*
X016385Y003710D01*
X016782Y003710D01*
X017002Y003930D01*
X017010Y003930D01*
X017106Y003969D01*
X017179Y004042D01*
X017429Y004292D01*
X017469Y004388D01*
X017469Y004491D01*
X017469Y007832D01*
X017816Y008180D01*
X020536Y008180D01*
X020511Y008155D01*
X020454Y008015D01*
X020454Y007864D01*
X020511Y007724D01*
X020618Y007618D01*
X020715Y007577D01*
X020854Y007439D01*
X020854Y007344D01*
X020854Y006780D01*
X020766Y006780D01*
X020641Y006728D01*
X020465Y006552D01*
X020368Y006512D01*
X020261Y006405D01*
X020204Y006265D01*
X020204Y006114D01*
X020261Y005974D01*
X020368Y005868D01*
X020508Y005810D01*
X020659Y005810D01*
X020799Y005868D01*
X020906Y005974D01*
X020946Y006071D01*
X020974Y006100D01*
X020995Y006100D01*
X021062Y006033D01*
X021354Y005741D01*
X021354Y004389D01*
X020135Y003170D01*
X017282Y003170D01*
X016855Y003597D01*
X016782Y003670D01*
X016385Y003670D01*
X016312Y003597D01*
X016312Y003597D01*
X016177Y003462D01*
X016177Y003461D01*
X016104Y003388D01*
X016104Y002991D01*
X016177Y002918D01*
X016177Y002918D01*
X016405Y002690D01*
X016177Y002462D01*
X016177Y002461D01*
X016104Y002388D01*
X016104Y002285D01*
X016104Y002094D01*
X016104Y001991D01*
X016177Y001918D01*
X016177Y001918D01*
X016312Y001783D01*
X016385Y001710D01*
X016488Y001710D01*
X016679Y001710D01*
X016782Y001710D01*
X016855Y001783D01*
X016855Y001783D01*
X017282Y002210D01*
X020429Y002210D01*
X020605Y002283D01*
X020740Y002418D01*
X022240Y003918D01*
X022314Y004094D01*
X022314Y004285D01*
X022314Y005422D01*
X022368Y005368D01*
X022508Y005310D01*
X022659Y005310D01*
X022799Y005368D01*
X022906Y005474D01*
X022964Y005614D01*
X022964Y005765D01*
X022906Y005905D01*
X022799Y006012D01*
X022702Y006052D01*
X022526Y006228D01*
X022401Y006280D01*
X022266Y006280D01*
X022172Y006280D01*
X022105Y006347D01*
X021814Y006638D01*
X021814Y007241D01*
X022032Y007460D01*
X023179Y007460D01*
X023355Y007533D01*
X023490Y007668D01*
X023907Y008085D01*
X029363Y008085D01*
X029554Y008085D01*
X029730Y008158D01*
X030105Y008533D01*
X030240Y008668D01*
X030314Y008844D01*
X030314Y010213D01*
X030334Y010233D01*
X030334Y010647D01*
X030041Y010940D01*
X029626Y010940D01*
X030041Y010940D01*
X030334Y011233D01*
X030334Y011647D01*
X030041Y011940D01*
X029626Y011940D01*
X029334Y011647D01*
X029334Y011233D01*
X029626Y010940D01*
X029334Y010647D01*
X029334Y010307D01*
X029334Y010307D01*
X029334Y010647D01*
X029041Y010940D01*
X029334Y011233D01*
X029334Y011647D01*
X029041Y011940D01*
X028626Y011940D01*
X028334Y011647D01*
X028334Y011233D01*
X028334Y011647D01*
X028041Y011940D01*
X027626Y011940D01*
X027432Y011746D02*
X025007Y011746D01*
X024849Y011587D02*
X027334Y011587D01*
X027334Y011428D02*
X024690Y011428D01*
X024531Y011270D02*
X027334Y011270D01*
X027455Y011111D02*
X024373Y011111D01*
X024214Y010953D02*
X027613Y010953D01*
X027626Y010940D02*
X027334Y010647D01*
X027334Y010460D01*
X027813Y010460D01*
X027813Y010420D01*
X027334Y010420D01*
X027334Y010233D01*
X027626Y009940D01*
X027813Y009940D01*
X027813Y010419D01*
X027854Y010419D01*
X027854Y009940D01*
X028041Y009940D01*
X028334Y010233D01*
X028334Y010420D01*
X027854Y010420D01*
X027854Y010460D01*
X028334Y010460D01*
X028334Y010647D01*
X028041Y010940D01*
X027854Y010940D01*
X027854Y010460D01*
X027813Y010460D01*
X027813Y010940D01*
X027626Y010940D01*
X027481Y010794D02*
X024056Y010794D01*
X023897Y010636D02*
X027334Y010636D01*
X027334Y010477D02*
X023739Y010477D01*
X023580Y010319D02*
X027334Y010319D01*
X027406Y010160D02*
X023469Y010160D01*
X023542Y010002D02*
X027565Y010002D01*
X027813Y010002D02*
X027854Y010002D01*
X027854Y010160D02*
X027813Y010160D01*
X027813Y010319D02*
X027854Y010319D01*
X027854Y010477D02*
X027813Y010477D01*
X027813Y010636D02*
X027854Y010636D01*
X027854Y010794D02*
X027813Y010794D01*
X028054Y010953D02*
X028613Y010953D01*
X028481Y010794D02*
X028186Y010794D01*
X028334Y010636D02*
X028334Y010636D01*
X028334Y010477D02*
X028334Y010477D01*
X028334Y010319D02*
X028334Y010319D01*
X028261Y010160D02*
X028406Y010160D01*
X028565Y010002D02*
X028103Y010002D01*
X028834Y010440D02*
X029209Y010065D01*
X029209Y009440D01*
X028916Y009684D02*
X023566Y009684D01*
X023589Y009843D02*
X028949Y009843D01*
X028833Y009526D02*
X023457Y009526D01*
X023357Y008892D02*
X013294Y008892D01*
X013294Y008788D02*
X013223Y008619D01*
X013094Y008490D01*
X012925Y008420D01*
X012742Y008420D01*
X012573Y008490D01*
X012444Y008619D01*
X012374Y008788D01*
X012374Y009531D01*
X012444Y009700D01*
X012573Y009830D01*
X012742Y009900D01*
X012925Y009900D01*
X013094Y009830D01*
X013223Y009700D01*
X013294Y009531D01*
X013294Y008788D01*
X013271Y008733D02*
X020840Y008733D01*
X021084Y008440D02*
X017709Y008440D01*
X017209Y007940D01*
X017209Y004440D01*
X016959Y004190D01*
X016584Y004190D01*
X017113Y003977D02*
X020942Y003977D01*
X021101Y004135D02*
X017272Y004135D01*
X017430Y004294D02*
X021259Y004294D01*
X021354Y004453D02*
X017469Y004453D01*
X017469Y004611D02*
X021354Y004611D01*
X021354Y004770D02*
X017469Y004770D01*
X017469Y004928D02*
X021354Y004928D01*
X021354Y005087D02*
X017469Y005087D01*
X017469Y005245D02*
X021354Y005245D01*
X021354Y005404D02*
X017469Y005404D01*
X017469Y005562D02*
X021354Y005562D01*
X021354Y005721D02*
X017469Y005721D01*
X017469Y005879D02*
X020356Y005879D01*
X020235Y006038D02*
X017469Y006038D01*
X017469Y006197D02*
X020204Y006197D01*
X020241Y006355D02*
X017469Y006355D01*
X017469Y006514D02*
X020373Y006514D01*
X020585Y006672D02*
X017469Y006672D01*
X017469Y006831D02*
X020854Y006831D01*
X020854Y006989D02*
X017469Y006989D01*
X017469Y007148D02*
X020854Y007148D01*
X020854Y007306D02*
X017469Y007306D01*
X017469Y007465D02*
X020828Y007465D01*
X020612Y007623D02*
X017469Y007623D01*
X017469Y007782D02*
X020488Y007782D01*
X020454Y007941D02*
X017577Y007941D01*
X017736Y008099D02*
X020488Y008099D01*
X021254Y008099D02*
X021314Y008099D01*
X021419Y008258D02*
X021473Y008258D01*
X021464Y008416D02*
X021730Y008416D01*
X021439Y008575D02*
X023040Y008575D01*
X023198Y008733D02*
X021327Y008733D01*
X020298Y009367D02*
X028829Y009367D01*
X028902Y009209D02*
X017640Y009209D01*
X017714Y009367D02*
X019869Y009367D01*
X020084Y009690D02*
X017584Y009690D01*
X017334Y009440D01*
X017041Y009684D02*
X013230Y009684D01*
X013294Y009526D02*
X016958Y009526D01*
X016954Y009367D02*
X013294Y009367D01*
X013294Y009209D02*
X017027Y009209D01*
X016877Y008575D02*
X017476Y008575D01*
X017317Y008416D02*
X017036Y008416D01*
X017064Y008258D02*
X017159Y008258D01*
X016949Y007782D02*
X016855Y007782D01*
X016829Y007623D02*
X016949Y007623D01*
X016339Y007623D02*
X015829Y007623D01*
X015855Y007782D02*
X016312Y007782D01*
X016154Y007941D02*
X016013Y007941D01*
X016064Y008099D02*
X016104Y008099D01*
X016104Y008258D02*
X016064Y008258D01*
X016036Y008416D02*
X016131Y008416D01*
X016290Y008575D02*
X015877Y008575D01*
X015290Y008575D02*
X013179Y008575D01*
X012488Y008575D02*
X012179Y008575D01*
X012223Y008619D02*
X012094Y008490D01*
X011925Y008420D01*
X011742Y008420D01*
X011573Y008490D01*
X011444Y008619D01*
X011374Y008788D01*
X011374Y009531D01*
X011444Y009700D01*
X011573Y009830D01*
X011742Y009900D01*
X011925Y009900D01*
X012094Y009830D01*
X012223Y009700D01*
X012294Y009531D01*
X012294Y008788D01*
X012223Y008619D01*
X012271Y008733D02*
X012396Y008733D01*
X012374Y008892D02*
X012294Y008892D01*
X012294Y009050D02*
X012374Y009050D01*
X012374Y009209D02*
X012294Y009209D01*
X012294Y009367D02*
X012374Y009367D01*
X012374Y009526D02*
X012294Y009526D01*
X012230Y009684D02*
X012437Y009684D01*
X012605Y009843D02*
X012062Y009843D01*
X011605Y009843D02*
X011062Y009843D01*
X011230Y009684D02*
X011437Y009684D01*
X011374Y009526D02*
X011294Y009526D01*
X011294Y009367D02*
X011374Y009367D01*
X011374Y009209D02*
X011294Y009209D01*
X011294Y009050D02*
X011374Y009050D01*
X011374Y008892D02*
X011294Y008892D01*
X011271Y008733D02*
X011396Y008733D01*
X011488Y008575D02*
X011179Y008575D01*
X010374Y008892D02*
X010216Y008892D01*
X010286Y009050D02*
X010374Y009050D01*
X010374Y009209D02*
X010294Y009209D01*
X010294Y009367D02*
X010374Y009367D01*
X010374Y009526D02*
X010294Y009526D01*
X010294Y009684D02*
X010437Y009684D01*
X010280Y009843D02*
X010605Y009843D01*
X010202Y010002D02*
X019858Y010002D01*
X020350Y010636D02*
X017567Y010636D01*
X017549Y010618D02*
X017611Y010680D01*
X018032Y010680D01*
X018135Y010680D01*
X018231Y010719D01*
X018321Y010810D01*
X018409Y010810D01*
X018549Y010868D01*
X018656Y010974D01*
X018714Y011114D01*
X018714Y011265D01*
X018656Y011405D01*
X018549Y011512D01*
X018409Y011570D01*
X018258Y011570D01*
X018118Y011512D01*
X018011Y011405D01*
X017954Y011265D01*
X017954Y011200D01*
X017611Y011200D01*
X017549Y011262D01*
X017409Y011320D01*
X017258Y011320D01*
X017118Y011262D01*
X017011Y011155D01*
X016954Y011015D01*
X016954Y010864D01*
X017011Y010724D01*
X017118Y010618D01*
X017258Y010560D01*
X017409Y010560D01*
X017549Y010618D01*
X017334Y010940D02*
X018084Y010940D01*
X018334Y011190D01*
X018634Y010953D02*
X020204Y010953D01*
X020232Y010794D02*
X018306Y010794D01*
X018712Y011111D02*
X020243Y011111D01*
X020324Y011270D02*
X018712Y011270D01*
X018632Y011428D02*
X020324Y011428D01*
X020324Y011587D02*
X013952Y011587D01*
X013964Y011746D02*
X020324Y011746D01*
X020251Y011904D02*
X013906Y011904D01*
X013676Y012063D02*
X020093Y012063D01*
X020084Y012440D02*
X020584Y011940D01*
X020584Y010940D01*
X020084Y012440D02*
X012834Y012440D01*
X012426Y012221D02*
X012238Y012221D01*
X012227Y012199D02*
X012260Y012263D01*
X012282Y012332D01*
X012294Y012403D01*
X012294Y012439D01*
X011834Y012439D01*
X011834Y011980D01*
X011870Y011980D01*
X011941Y011991D01*
X012010Y012013D01*
X012075Y012046D01*
X012133Y012089D01*
X012184Y012140D01*
X012227Y012199D01*
X012097Y012063D02*
X012560Y012063D01*
X013107Y012063D02*
X013491Y012063D01*
X013261Y011904D02*
X011225Y011904D01*
X011174Y012063D02*
X011570Y012063D01*
X011592Y012046D02*
X011657Y012013D01*
X011726Y011991D01*
X011797Y011980D01*
X011833Y011980D01*
X011833Y012439D01*
X011834Y012439D01*
X011834Y012440D01*
X012294Y012440D01*
X012294Y013036D01*
X012282Y013107D01*
X012260Y013176D01*
X012227Y013241D01*
X012184Y013299D01*
X012133Y013351D01*
X012075Y013393D01*
X012010Y013426D01*
X011941Y013448D01*
X011870Y013460D01*
X011834Y013460D01*
X011834Y012440D01*
X011833Y012440D01*
X011833Y012439D01*
X011374Y012439D01*
X011374Y012403D01*
X011385Y012332D01*
X011407Y012263D01*
X011440Y012199D01*
X011483Y012140D01*
X011534Y012089D01*
X011592Y012046D01*
X011429Y012221D02*
X011241Y012221D01*
X011294Y012380D02*
X011377Y012380D01*
X011374Y012440D02*
X011833Y012440D01*
X011833Y013460D01*
X011797Y013460D01*
X011726Y013448D01*
X011657Y013426D01*
X011592Y013393D01*
X011534Y013351D01*
X011483Y013299D01*
X011440Y013241D01*
X011407Y013176D01*
X011385Y013107D01*
X011374Y013036D01*
X011374Y012440D01*
X011374Y012538D02*
X011294Y012538D01*
X011294Y012697D02*
X011374Y012697D01*
X011374Y012855D02*
X011294Y012855D01*
X011294Y013014D02*
X011374Y013014D01*
X011406Y013172D02*
X011260Y013172D01*
X011153Y013331D02*
X011514Y013331D01*
X011833Y013331D02*
X011834Y013331D01*
X011833Y013172D02*
X011834Y013172D01*
X011833Y013014D02*
X011834Y013014D01*
X011833Y012855D02*
X011834Y012855D01*
X011833Y012697D02*
X011834Y012697D01*
X011833Y012538D02*
X011834Y012538D01*
X011833Y012380D02*
X011834Y012380D01*
X011833Y012221D02*
X011834Y012221D01*
X011833Y012063D02*
X011834Y012063D01*
X012290Y012380D02*
X012374Y012380D01*
X012374Y012538D02*
X012294Y012538D01*
X012294Y012697D02*
X012374Y012697D01*
X012374Y012855D02*
X012294Y012855D01*
X012294Y013014D02*
X012374Y013014D01*
X012407Y013172D02*
X012261Y013172D01*
X012153Y013331D02*
X012514Y013331D01*
X013153Y013331D02*
X032532Y013331D01*
X032400Y013172D02*
X013260Y013172D01*
X013294Y013014D02*
X032344Y013014D01*
X032344Y012855D02*
X013294Y012855D01*
X014097Y013670D02*
X014570Y013670D01*
X014904Y014004D01*
X014904Y014476D01*
X014570Y014810D01*
X014097Y014810D01*
X013764Y014476D01*
X013764Y014004D01*
X014097Y013670D01*
X013961Y013807D02*
X010707Y013807D01*
X010570Y013670D02*
X010904Y014004D01*
X010904Y014476D01*
X010570Y014810D01*
X010097Y014810D01*
X009764Y014476D01*
X009764Y014004D01*
X010097Y013670D01*
X010570Y013670D01*
X010865Y013965D02*
X013802Y013965D01*
X013764Y014124D02*
X010904Y014124D01*
X010904Y014282D02*
X012214Y014282D01*
X012220Y014280D02*
X012447Y014280D01*
X012656Y014366D01*
X012817Y014527D01*
X012904Y014736D01*
X012904Y015743D01*
X012817Y015953D01*
X012656Y016113D01*
X012447Y016200D01*
X012220Y016200D01*
X012011Y016113D01*
X011850Y015953D01*
X011764Y015743D01*
X011764Y014736D01*
X011850Y014527D01*
X012011Y014366D01*
X012220Y014280D01*
X012453Y014282D02*
X013764Y014282D01*
X013764Y014441D02*
X012731Y014441D01*
X012847Y014599D02*
X013887Y014599D01*
X014046Y014758D02*
X012904Y014758D01*
X012904Y014916D02*
X014851Y014916D01*
X014764Y015004D02*
X015097Y014670D01*
X015570Y014670D01*
X015904Y015004D01*
X015904Y015476D01*
X015570Y015810D01*
X015097Y015810D01*
X014764Y015476D01*
X014764Y015004D01*
X014764Y015075D02*
X012904Y015075D01*
X012904Y015234D02*
X014764Y015234D01*
X014764Y015392D02*
X012904Y015392D01*
X012904Y015551D02*
X014838Y015551D01*
X014997Y015709D02*
X012904Y015709D01*
X012852Y015868D02*
X019815Y015868D01*
X019805Y015848D02*
X019778Y015763D01*
X019764Y015675D01*
X019764Y015290D01*
X020283Y015290D01*
X020283Y015190D01*
X019764Y015190D01*
X019764Y014805D01*
X019778Y014716D01*
X019805Y014631D01*
X019846Y014551D01*
X019899Y014478D01*
X019962Y014415D01*
X020035Y014362D01*
X020115Y014321D01*
X020200Y014294D01*
X020283Y014280D01*
X020283Y015189D01*
X020384Y015189D01*
X020384Y014280D01*
X020467Y014294D01*
X020552Y014321D01*
X020632Y014362D01*
X020705Y014415D01*
X020768Y014478D01*
X020821Y014551D01*
X020862Y014631D01*
X020889Y014716D01*
X020904Y014805D01*
X020904Y015190D01*
X020384Y015190D01*
X020384Y015290D01*
X020904Y015290D01*
X020904Y015675D01*
X020889Y015763D01*
X020862Y015848D01*
X020821Y015928D01*
X020768Y016001D01*
X020705Y016064D01*
X020632Y016117D01*
X020552Y016158D01*
X020467Y016186D01*
X020384Y016199D01*
X020384Y015290D01*
X020283Y015290D01*
X020283Y016199D01*
X020200Y016186D01*
X020115Y016158D01*
X020035Y016117D01*
X019962Y016064D01*
X019899Y016001D01*
X019846Y015928D01*
X019805Y015848D01*
X019769Y015709D02*
X017670Y015709D01*
X017570Y015810D02*
X017097Y015810D01*
X016764Y015476D01*
X016764Y015004D01*
X017097Y014670D01*
X017570Y014670D01*
X017904Y015004D01*
X017904Y015476D01*
X017570Y015810D01*
X017829Y015551D02*
X019764Y015551D01*
X019764Y015392D02*
X017904Y015392D01*
X017904Y015234D02*
X020283Y015234D01*
X020384Y015234D02*
X022764Y015234D01*
X022764Y015392D02*
X020904Y015392D01*
X020904Y015551D02*
X022838Y015551D01*
X022764Y015476D02*
X022764Y015004D01*
X023097Y014670D01*
X023570Y014670D01*
X023904Y015004D01*
X023904Y015476D01*
X023570Y015810D01*
X023097Y015810D01*
X022764Y015476D01*
X022997Y015709D02*
X020898Y015709D01*
X020852Y015868D02*
X024824Y015868D01*
X024824Y016026D02*
X020743Y016026D01*
X020470Y016185D02*
X024754Y016185D01*
X024824Y016115D02*
X024661Y016278D01*
X024513Y016634D01*
X024513Y017020D01*
X024661Y017377D01*
X024934Y017649D01*
X025290Y017797D01*
X025676Y017797D01*
X025716Y017781D01*
X026375Y018441D01*
X026481Y018484D01*
X026511Y018558D01*
X026784Y018830D01*
X027141Y018978D01*
X027526Y018978D01*
X027883Y018830D01*
X028156Y018558D01*
X028304Y018201D01*
X028304Y017815D01*
X028156Y017459D01*
X027883Y017186D01*
X027526Y017038D01*
X027141Y017038D01*
X026784Y017186D01*
X026674Y017296D01*
X026437Y017059D01*
X026453Y017020D01*
X026453Y016634D01*
X026305Y016278D01*
X026033Y016005D01*
X025844Y015926D01*
X025844Y014067D01*
X025854Y014043D01*
X025854Y013836D01*
X025774Y013645D01*
X025628Y013499D01*
X025437Y013420D01*
X025230Y013420D01*
X025039Y013499D01*
X024893Y013645D01*
X024814Y013836D01*
X024814Y014043D01*
X024824Y014067D01*
X024824Y016115D01*
X024634Y016343D02*
X007693Y016343D01*
X007646Y016363D02*
X007399Y016363D01*
X007170Y016268D01*
X006994Y016093D01*
X006900Y015864D01*
X006900Y015616D01*
X006994Y015387D01*
X007170Y015212D01*
X007399Y015117D01*
X007646Y015117D01*
X007875Y015212D01*
X008051Y015387D01*
X008145Y015616D01*
X008145Y015864D01*
X008051Y016093D01*
X007875Y016268D01*
X007646Y016363D01*
X007352Y016343D02*
X003134Y016343D01*
X003134Y016185D02*
X007087Y016185D01*
X006967Y016026D02*
X003134Y016026D01*
X003134Y015868D02*
X006901Y015868D01*
X006900Y015709D02*
X003134Y015709D01*
X003134Y015551D02*
X006927Y015551D01*
X006992Y015392D02*
X003134Y015392D01*
X003134Y015234D02*
X007148Y015234D01*
X007897Y015234D02*
X008764Y015234D01*
X008764Y015392D02*
X008053Y015392D01*
X008118Y015551D02*
X008838Y015551D01*
X008764Y015476D02*
X008764Y015004D01*
X009097Y014670D01*
X009570Y014670D01*
X009904Y015004D01*
X009904Y015476D01*
X009570Y015810D01*
X009097Y015810D01*
X008764Y015476D01*
X008997Y015709D02*
X008145Y015709D01*
X008144Y015868D02*
X011815Y015868D01*
X011764Y015709D02*
X009670Y015709D01*
X009829Y015551D02*
X011764Y015551D01*
X011764Y015392D02*
X009904Y015392D01*
X009904Y015234D02*
X011764Y015234D01*
X011764Y015075D02*
X009904Y015075D01*
X009816Y014916D02*
X011764Y014916D01*
X011764Y014758D02*
X010621Y014758D01*
X010780Y014599D02*
X011820Y014599D01*
X011936Y014441D02*
X010904Y014441D01*
X010046Y014758D02*
X009658Y014758D01*
X009887Y014599D02*
X003134Y014599D01*
X003134Y014441D02*
X009764Y014441D01*
X009764Y014282D02*
X003134Y014282D01*
X003134Y014124D02*
X009764Y014124D01*
X009802Y013965D02*
X003134Y013965D01*
X003134Y013807D02*
X007264Y013807D01*
X007170Y013768D02*
X007399Y013863D01*
X007646Y013863D01*
X007875Y013768D01*
X008051Y013593D01*
X008145Y013364D01*
X008145Y013116D01*
X008051Y012887D01*
X007875Y012712D01*
X007646Y012617D01*
X007399Y012617D01*
X007170Y012712D01*
X006994Y012887D01*
X006900Y013116D01*
X006900Y013364D01*
X006994Y013593D01*
X007170Y013768D01*
X007050Y013648D02*
X003134Y013648D01*
X003134Y013490D02*
X006952Y013490D01*
X006900Y013331D02*
X003134Y013331D01*
X003134Y013172D02*
X006900Y013172D01*
X006942Y013014D02*
X003134Y013014D01*
X003134Y012855D02*
X007026Y012855D01*
X007205Y012697D02*
X003134Y012697D01*
X003134Y012538D02*
X009374Y012538D01*
X009374Y012380D02*
X003134Y012380D01*
X003134Y012221D02*
X009374Y012221D01*
X009376Y012063D02*
X003134Y012063D01*
X003134Y011904D02*
X009441Y011904D01*
X008934Y011746D02*
X003134Y011746D01*
X003134Y011587D02*
X008750Y011587D01*
X008795Y011632D02*
X008795Y011632D01*
X008592Y011428D02*
X003134Y011428D01*
X003134Y011270D02*
X008499Y011270D01*
X008494Y011111D02*
X003134Y011111D01*
X003134Y010953D02*
X008494Y010953D01*
X008494Y010794D02*
X003134Y010794D01*
X003134Y010636D02*
X008494Y010636D01*
X008494Y010477D02*
X003134Y010477D01*
X003134Y010319D02*
X008494Y010319D01*
X008494Y010160D02*
X003134Y010160D01*
X003134Y010002D02*
X008494Y010002D01*
X008494Y009843D02*
X003134Y009843D01*
X003134Y009684D02*
X008494Y009684D01*
X008494Y009526D02*
X003134Y009526D01*
X003128Y009367D02*
X008494Y009367D01*
X008494Y009209D02*
X003027Y009209D01*
X002868Y009050D02*
X008461Y009050D01*
X008256Y008892D02*
X002710Y008892D01*
X002551Y008733D02*
X008204Y008733D01*
X008220Y008575D02*
X001676Y008575D01*
X001752Y008416D02*
X008320Y008416D01*
X009174Y010636D02*
X017100Y010636D01*
X016982Y010794D02*
X009174Y010794D01*
X009174Y010953D02*
X016954Y010953D01*
X016993Y011111D02*
X013429Y011111D01*
X013645Y011270D02*
X017138Y011270D01*
X017529Y011270D02*
X017955Y011270D01*
X018035Y011428D02*
X013860Y011428D01*
X013062Y009843D02*
X017369Y009843D01*
X016180Y007465D02*
X015987Y007465D01*
X016064Y007306D02*
X016104Y007306D01*
X016104Y007148D02*
X016064Y007148D01*
X016062Y006989D02*
X016105Y006989D01*
X016264Y006831D02*
X015903Y006831D01*
X015782Y006670D02*
X015385Y006670D01*
X015104Y006388D01*
X015104Y005991D01*
X015385Y005710D01*
X015782Y005710D01*
X016064Y005991D01*
X016064Y006388D01*
X015782Y006670D01*
X015938Y006514D02*
X016229Y006514D01*
X016104Y006355D02*
X016064Y006355D01*
X016064Y006197D02*
X016104Y006197D01*
X016104Y006038D02*
X016064Y006038D01*
X015952Y005879D02*
X016215Y005879D01*
X016374Y005721D02*
X015794Y005721D01*
X015782Y005670D02*
X015385Y005670D01*
X015104Y005388D01*
X015104Y004991D01*
X015385Y004710D01*
X015782Y004710D01*
X016064Y004991D01*
X016064Y005388D01*
X015782Y005670D01*
X015890Y005562D02*
X016277Y005562D01*
X016119Y005404D02*
X016048Y005404D01*
X016064Y005245D02*
X016104Y005245D01*
X016104Y005087D02*
X016064Y005087D01*
X016001Y004928D02*
X016166Y004928D01*
X016325Y004770D02*
X015842Y004770D01*
X015782Y004670D02*
X015385Y004670D01*
X015104Y004388D01*
X015104Y003991D01*
X015385Y003710D01*
X015782Y003710D01*
X016064Y003991D01*
X016064Y004388D01*
X015782Y004670D01*
X015841Y004611D02*
X016326Y004611D01*
X016168Y004453D02*
X015999Y004453D01*
X016064Y004294D02*
X016104Y004294D01*
X016104Y004135D02*
X016064Y004135D01*
X016050Y003977D02*
X016117Y003977D01*
X016276Y003818D02*
X015891Y003818D01*
X015782Y003670D02*
X015594Y003670D01*
X015594Y003200D01*
X016064Y003200D01*
X016064Y003388D01*
X015782Y003670D01*
X015792Y003660D02*
X016375Y003660D01*
X016216Y003501D02*
X015951Y003501D01*
X016064Y003343D02*
X016104Y003343D01*
X016104Y003184D02*
X015594Y003184D01*
X015594Y003180D02*
X015594Y003200D01*
X015573Y003200D01*
X015573Y003180D01*
X015104Y003180D01*
X015104Y002991D01*
X015385Y002710D01*
X015573Y002710D01*
X015573Y003179D01*
X015594Y003179D01*
X015594Y002710D01*
X015782Y002710D01*
X016064Y002991D01*
X016064Y003180D01*
X015594Y003180D01*
X015573Y003184D02*
X000514Y003184D01*
X000514Y003026D02*
X015104Y003026D01*
X015104Y003200D02*
X015573Y003200D01*
X015573Y003670D01*
X015385Y003670D01*
X015104Y003388D01*
X015104Y003200D01*
X015104Y003343D02*
X000514Y003343D01*
X000514Y003501D02*
X015216Y003501D01*
X015375Y003660D02*
X000514Y003660D01*
X000514Y003818D02*
X015276Y003818D01*
X015117Y003977D02*
X000514Y003977D01*
X000514Y004135D02*
X015104Y004135D01*
X015104Y004294D02*
X000514Y004294D01*
X000514Y004453D02*
X015168Y004453D01*
X015326Y004611D02*
X010158Y004611D01*
X010174Y004618D02*
X010281Y004724D01*
X010339Y004864D01*
X010339Y004935D01*
X010409Y004935D01*
X010549Y004993D01*
X010656Y005099D01*
X010714Y005239D01*
X010714Y005310D01*
X010784Y005310D01*
X010924Y005368D01*
X011031Y005474D01*
X011089Y005614D01*
X011089Y005765D01*
X011031Y005905D01*
X010924Y006012D01*
X010784Y006070D01*
X010633Y006070D01*
X010493Y006012D01*
X010431Y005950D01*
X008361Y005950D01*
X008299Y006012D01*
X008159Y006070D01*
X008008Y006070D01*
X007868Y006012D01*
X007761Y005905D01*
X007704Y005765D01*
X007704Y005614D01*
X007761Y005474D01*
X007868Y005368D01*
X008008Y005310D01*
X008159Y005310D01*
X008204Y005328D01*
X008204Y005239D01*
X008261Y005099D01*
X008368Y004993D01*
X008508Y004935D01*
X008659Y004935D01*
X008704Y004953D01*
X008704Y004864D01*
X008761Y004724D01*
X008868Y004618D01*
X009008Y004560D01*
X009159Y004560D01*
X009299Y004618D01*
X009361Y004680D01*
X009681Y004680D01*
X009743Y004618D01*
X009883Y004560D01*
X010034Y004560D01*
X010174Y004618D01*
X010299Y004770D02*
X015325Y004770D01*
X015166Y004928D02*
X010339Y004928D01*
X010643Y005087D02*
X015104Y005087D01*
X015104Y005245D02*
X010714Y005245D01*
X010960Y005404D02*
X015119Y005404D01*
X015277Y005562D02*
X011067Y005562D01*
X011089Y005721D02*
X015374Y005721D01*
X015215Y005879D02*
X011041Y005879D01*
X010861Y006038D02*
X015104Y006038D01*
X015104Y006197D02*
X000514Y006197D01*
X000514Y006355D02*
X015104Y006355D01*
X015229Y006514D02*
X000514Y006514D01*
X000514Y006672D02*
X016949Y006672D01*
X016938Y006514D02*
X016949Y006514D01*
X016949Y006831D02*
X016903Y006831D01*
X015264Y006831D02*
X000514Y006831D01*
X000514Y006989D02*
X015105Y006989D01*
X015104Y007148D02*
X000514Y007148D01*
X000514Y006038D02*
X007931Y006038D01*
X007751Y005879D02*
X000514Y005879D01*
X000514Y005721D02*
X007704Y005721D01*
X007725Y005562D02*
X000514Y005562D01*
X000514Y005404D02*
X007832Y005404D01*
X008084Y005690D02*
X010709Y005690D01*
X010556Y006038D02*
X008236Y006038D01*
X008204Y005245D02*
X000514Y005245D01*
X000514Y005087D02*
X008274Y005087D01*
X008584Y005315D02*
X010334Y005315D01*
X009959Y004940D02*
X009084Y004940D01*
X008704Y004928D02*
X000514Y004928D01*
X000514Y004770D02*
X008743Y004770D01*
X008884Y004611D02*
X000514Y004611D01*
X000514Y002867D02*
X015227Y002867D01*
X015385Y002670D02*
X015104Y002388D01*
X015104Y002200D01*
X015573Y002200D01*
X015573Y002180D01*
X015104Y002180D01*
X015104Y001991D01*
X015385Y001710D01*
X015573Y001710D01*
X015573Y002179D01*
X015594Y002179D01*
X015594Y001710D01*
X015782Y001710D01*
X016064Y001991D01*
X016064Y002180D01*
X015594Y002180D01*
X015594Y002200D01*
X016064Y002200D01*
X016064Y002388D01*
X015782Y002670D01*
X015594Y002670D01*
X015594Y002200D01*
X015573Y002200D01*
X015573Y002670D01*
X015385Y002670D01*
X015265Y002550D02*
X000514Y002550D01*
X000514Y002391D02*
X015107Y002391D01*
X015104Y002233D02*
X000514Y002233D01*
X000514Y002074D02*
X003487Y002074D01*
X003516Y002103D02*
X003420Y002007D01*
X003141Y001728D01*
X003045Y001632D01*
X002994Y001507D01*
X002994Y001307D01*
X002910Y001223D01*
X002834Y001039D01*
X002834Y000840D01*
X002910Y000656D01*
X003050Y000516D01*
X003234Y000440D01*
X003433Y000440D01*
X003617Y000516D01*
X003757Y000656D01*
X003834Y000840D01*
X003910Y000656D01*
X004050Y000516D01*
X004234Y000440D01*
X004433Y000440D01*
X004617Y000516D01*
X004757Y000656D01*
X004834Y000840D01*
X004910Y000656D01*
X005050Y000516D01*
X005234Y000440D01*
X005433Y000440D01*
X005617Y000516D01*
X005757Y000656D01*
X005834Y000840D01*
X005910Y000656D01*
X006050Y000516D01*
X006234Y000440D01*
X006433Y000440D01*
X006617Y000516D01*
X006757Y000656D01*
X006834Y000840D01*
X006910Y000656D01*
X007050Y000516D01*
X007234Y000440D01*
X007433Y000440D01*
X007617Y000516D01*
X007757Y000656D01*
X007834Y000840D01*
X007834Y001039D01*
X007834Y000840D01*
X007910Y000656D01*
X008050Y000516D01*
X008234Y000440D01*
X008433Y000440D01*
X008617Y000516D01*
X008757Y000656D01*
X008834Y000840D01*
X008910Y000656D01*
X009050Y000516D01*
X009234Y000440D01*
X009433Y000440D01*
X009617Y000516D01*
X009757Y000656D01*
X009834Y000840D01*
X009910Y000656D01*
X010050Y000516D01*
X010234Y000440D01*
X010433Y000440D01*
X010617Y000516D01*
X010757Y000656D01*
X010834Y000840D01*
X010910Y000656D01*
X011050Y000516D01*
X011234Y000440D01*
X011433Y000440D01*
X011617Y000516D01*
X011757Y000656D01*
X011834Y000840D01*
X011910Y000656D01*
X012050Y000516D01*
X012234Y000440D01*
X012433Y000440D01*
X012617Y000516D01*
X012757Y000656D01*
X012834Y000840D01*
X012834Y001039D01*
X012757Y001223D01*
X012617Y001364D01*
X012433Y001440D01*
X012234Y001440D01*
X012050Y001364D01*
X011910Y001223D01*
X011834Y001039D01*
X011834Y000840D01*
X011834Y001039D01*
X011757Y001223D01*
X011617Y001364D01*
X011433Y001440D01*
X011234Y001440D01*
X011050Y001364D01*
X010910Y001223D01*
X010834Y001039D01*
X010834Y000840D01*
X010834Y001039D01*
X010757Y001223D01*
X010617Y001364D01*
X010433Y001440D01*
X010234Y001440D01*
X010050Y001364D01*
X009910Y001223D01*
X009834Y001039D01*
X009834Y000840D01*
X009834Y001039D01*
X009757Y001223D01*
X009617Y001364D01*
X009433Y001440D01*
X009234Y001440D01*
X009050Y001364D01*
X008910Y001223D01*
X008834Y001039D01*
X008834Y000840D01*
X008834Y001039D01*
X008757Y001223D01*
X008617Y001364D01*
X008433Y001440D01*
X008234Y001440D01*
X008050Y001364D01*
X007910Y001223D01*
X007834Y001039D01*
X007757Y001223D01*
X007617Y001364D01*
X007433Y001440D01*
X007234Y001440D01*
X007050Y001364D01*
X006910Y001223D01*
X006834Y001039D01*
X006834Y000840D01*
X006834Y001039D01*
X006757Y001223D01*
X006617Y001364D01*
X006433Y001440D01*
X006234Y001440D01*
X006050Y001364D01*
X005910Y001223D01*
X005834Y001039D01*
X005834Y000840D01*
X005834Y001039D01*
X005757Y001223D01*
X005617Y001364D01*
X005433Y001440D01*
X005234Y001440D01*
X005050Y001364D01*
X004910Y001223D01*
X004834Y001039D01*
X004834Y000840D01*
X004834Y001039D01*
X004757Y001223D01*
X004617Y001364D01*
X004433Y001440D01*
X004234Y001440D01*
X004050Y001364D01*
X003910Y001223D01*
X003834Y001039D01*
X003834Y000840D01*
X003834Y001039D01*
X003757Y001223D01*
X003677Y001303D01*
X003849Y001475D01*
X014411Y001475D01*
X014508Y001435D01*
X014659Y001435D01*
X014799Y001493D01*
X014906Y001599D01*
X014964Y001739D01*
X014964Y001890D01*
X014906Y002030D01*
X014799Y002137D01*
X014659Y002195D01*
X014508Y002195D01*
X014411Y002155D01*
X003641Y002155D01*
X003516Y002103D01*
X003329Y001916D02*
X000514Y001916D01*
X000514Y001757D02*
X003170Y001757D01*
X003031Y001599D02*
X000514Y001599D01*
X000514Y001440D02*
X002994Y001440D01*
X002968Y001282D02*
X002699Y001282D01*
X002715Y001265D02*
X002659Y001321D01*
X002596Y001367D01*
X002525Y001403D01*
X002451Y001427D01*
X002373Y001440D01*
X002354Y001440D01*
X002354Y000960D01*
X002834Y000960D01*
X002834Y000979D01*
X002821Y001057D01*
X002797Y001132D01*
X002761Y001202D01*
X002715Y001265D01*
X002800Y001123D02*
X002868Y001123D01*
X002834Y000965D02*
X002834Y000965D01*
X002834Y000920D02*
X002354Y000920D01*
X002354Y000960D01*
X002313Y000960D01*
X002313Y000920D01*
X001834Y000920D01*
X001834Y000900D01*
X001846Y000823D01*
X001870Y000748D01*
X001906Y000678D01*
X001952Y000614D01*
X002008Y000558D01*
X002071Y000512D01*
X002142Y000476D01*
X002216Y000452D01*
X002294Y000440D01*
X002313Y000440D01*
X002313Y000919D01*
X002354Y000919D01*
X002354Y000440D01*
X002373Y000440D01*
X002451Y000452D01*
X002525Y000476D01*
X002596Y000512D01*
X002659Y000558D01*
X002715Y000614D01*
X002761Y000678D01*
X002797Y000748D01*
X002821Y000823D01*
X002834Y000900D01*
X002834Y000920D01*
X002848Y000806D02*
X002816Y000806D01*
X002739Y000648D02*
X002919Y000648D01*
X003115Y000489D02*
X002550Y000489D01*
X002354Y000489D02*
X002313Y000489D01*
X002313Y000648D02*
X002354Y000648D01*
X002354Y000806D02*
X002313Y000806D01*
X002313Y000960D02*
X001834Y000960D01*
X001834Y000979D01*
X001846Y001057D01*
X001870Y001132D01*
X001906Y001202D01*
X001952Y001265D01*
X002008Y001321D01*
X002071Y001367D01*
X002142Y001403D01*
X002216Y001427D01*
X002294Y001440D01*
X002313Y001440D01*
X002313Y000960D01*
X002313Y000965D02*
X002354Y000965D01*
X002354Y001123D02*
X002313Y001123D01*
X002313Y001282D02*
X002354Y001282D01*
X001968Y001282D02*
X000514Y001282D01*
X000514Y001123D02*
X001867Y001123D01*
X001834Y000965D02*
X000514Y000965D01*
X000514Y000806D02*
X001851Y000806D01*
X001928Y000648D02*
X000514Y000648D01*
X000514Y000489D02*
X002117Y000489D01*
X003552Y000489D02*
X004115Y000489D01*
X003919Y000648D02*
X003748Y000648D01*
X003819Y000806D02*
X003848Y000806D01*
X003834Y000965D02*
X003834Y000965D01*
X003799Y001123D02*
X003868Y001123D01*
X003968Y001282D02*
X003699Y001282D01*
X003815Y001440D02*
X014494Y001440D01*
X014673Y001440D02*
X025574Y001440D01*
X025574Y001373D02*
X025550Y001364D01*
X025410Y001223D01*
X025334Y001039D01*
X025334Y000840D01*
X025410Y000656D01*
X025550Y000516D01*
X025734Y000440D01*
X025933Y000440D01*
X026117Y000516D01*
X026257Y000656D01*
X026334Y000840D01*
X026410Y000656D01*
X026550Y000516D01*
X026734Y000440D01*
X026933Y000440D01*
X027117Y000516D01*
X027257Y000656D01*
X027334Y000840D01*
X027410Y000656D01*
X027550Y000516D01*
X027734Y000440D01*
X027933Y000440D01*
X028117Y000516D01*
X028257Y000656D01*
X028334Y000840D01*
X028410Y000656D01*
X028550Y000516D01*
X028734Y000440D01*
X028933Y000440D01*
X029117Y000516D01*
X029257Y000656D01*
X029334Y000840D01*
X029410Y000656D01*
X029550Y000516D01*
X029734Y000440D01*
X029933Y000440D01*
X030117Y000516D01*
X030257Y000656D01*
X030334Y000840D01*
X030410Y000656D01*
X030550Y000516D01*
X030734Y000440D01*
X030933Y000440D01*
X031117Y000516D01*
X031257Y000656D01*
X031334Y000840D01*
X031334Y001039D01*
X031257Y001223D01*
X031117Y001364D01*
X031094Y001373D01*
X031094Y001639D01*
X031094Y001742D01*
X031054Y001838D01*
X029844Y003048D01*
X029844Y003162D01*
X029906Y003224D01*
X029964Y003364D01*
X029964Y003515D01*
X029906Y003655D01*
X029799Y003762D01*
X029659Y003820D01*
X029508Y003820D01*
X029368Y003762D01*
X029344Y003737D01*
X029344Y005832D01*
X030571Y007060D01*
X030659Y007060D01*
X030799Y007118D01*
X030906Y007224D01*
X030964Y007364D01*
X030964Y007515D01*
X030906Y007655D01*
X030799Y007762D01*
X030659Y007820D01*
X030508Y007820D01*
X030368Y007762D01*
X030261Y007655D01*
X030204Y007515D01*
X030204Y007427D01*
X029844Y007067D01*
X029844Y007162D01*
X029906Y007224D01*
X029964Y007364D01*
X029964Y007515D01*
X029906Y007655D01*
X029799Y007762D01*
X029659Y007820D01*
X029508Y007820D01*
X029368Y007762D01*
X029334Y007727D01*
X029299Y007762D01*
X029159Y007820D01*
X029008Y007820D01*
X028868Y007762D01*
X028834Y007727D01*
X028799Y007762D01*
X028659Y007820D01*
X028508Y007820D01*
X028368Y007762D01*
X028261Y007655D01*
X028204Y007515D01*
X028204Y007427D01*
X027363Y006587D01*
X027344Y006539D01*
X027344Y006832D01*
X027571Y007060D01*
X027659Y007060D01*
X027799Y007118D01*
X027906Y007224D01*
X027964Y007364D01*
X027964Y007515D01*
X027906Y007655D01*
X027799Y007762D01*
X027659Y007820D01*
X027508Y007820D01*
X027368Y007762D01*
X027261Y007655D01*
X027204Y007515D01*
X027204Y007427D01*
X026863Y007087D01*
X026824Y006991D01*
X026824Y006888D01*
X026824Y003547D01*
X025613Y002337D01*
X025574Y002241D01*
X025574Y002138D01*
X025574Y001373D01*
X025468Y001282D02*
X025199Y001282D01*
X025257Y001223D02*
X025117Y001364D01*
X024933Y001440D01*
X024734Y001440D01*
X024550Y001364D01*
X024410Y001223D01*
X024334Y001039D01*
X024334Y000840D01*
X024257Y000656D01*
X024117Y000516D01*
X023933Y000440D01*
X023734Y000440D01*
X023550Y000516D01*
X023410Y000656D01*
X023334Y000840D01*
X023257Y000656D01*
X023117Y000516D01*
X022933Y000440D01*
X022734Y000440D01*
X022550Y000516D01*
X022410Y000656D01*
X022334Y000840D01*
X022334Y001039D01*
X022410Y001223D01*
X022550Y001364D01*
X022734Y001440D01*
X022933Y001440D01*
X023117Y001364D01*
X023257Y001223D01*
X023334Y001039D01*
X023334Y000840D01*
X023334Y001039D01*
X023410Y001223D01*
X023550Y001364D01*
X023734Y001440D01*
X023933Y001440D01*
X024117Y001364D01*
X024257Y001223D01*
X024334Y001039D01*
X024334Y000840D01*
X024410Y000656D01*
X024550Y000516D01*
X024734Y000440D01*
X024933Y000440D01*
X025117Y000516D01*
X025257Y000656D01*
X025334Y000840D01*
X025334Y001039D01*
X025257Y001223D01*
X025299Y001123D02*
X025368Y001123D01*
X025334Y000965D02*
X025334Y000965D01*
X025319Y000806D02*
X025348Y000806D01*
X025419Y000648D02*
X025248Y000648D01*
X025052Y000489D02*
X025615Y000489D01*
X026052Y000489D02*
X026615Y000489D01*
X026419Y000648D02*
X026248Y000648D01*
X026319Y000806D02*
X026348Y000806D01*
X026334Y000840D02*
X026334Y001039D01*
X026410Y001223D01*
X026550Y001364D01*
X026574Y001373D01*
X026574Y002138D01*
X026574Y002241D01*
X026613Y002337D01*
X027324Y003047D01*
X027324Y003162D01*
X027261Y003224D01*
X027254Y003242D01*
X027231Y003219D01*
X026094Y002082D01*
X026094Y001373D01*
X026117Y001364D01*
X026257Y001223D01*
X026334Y001039D01*
X026334Y000840D01*
X026334Y000965D02*
X026334Y000965D01*
X026299Y001123D02*
X026368Y001123D01*
X026468Y001282D02*
X026199Y001282D01*
X026094Y001440D02*
X026574Y001440D01*
X026574Y001599D02*
X026094Y001599D01*
X026094Y001757D02*
X026574Y001757D01*
X026574Y001916D02*
X026094Y001916D01*
X026094Y002074D02*
X026574Y002074D01*
X026574Y002233D02*
X026244Y002233D01*
X026403Y002391D02*
X026668Y002391D01*
X026562Y002550D02*
X026826Y002550D01*
X026720Y002709D02*
X026985Y002709D01*
X026879Y002867D02*
X027143Y002867D01*
X027037Y003026D02*
X027302Y003026D01*
X027302Y003184D02*
X027196Y003184D01*
X027084Y003440D02*
X027084Y006940D01*
X027584Y007440D01*
X027940Y007306D02*
X028083Y007306D01*
X027964Y007465D02*
X028204Y007465D01*
X028248Y007623D02*
X027919Y007623D01*
X027750Y007782D02*
X028417Y007782D01*
X028750Y007782D02*
X028917Y007782D01*
X029250Y007782D02*
X029417Y007782D01*
X029750Y007782D02*
X030417Y007782D01*
X030248Y007623D02*
X029919Y007623D01*
X029964Y007465D02*
X030204Y007465D01*
X030083Y007306D02*
X029940Y007306D01*
X029924Y007148D02*
X029844Y007148D01*
X029584Y006980D02*
X029584Y007440D01*
X029084Y007440D02*
X029084Y007190D01*
X028084Y006190D01*
X028084Y002440D01*
X027834Y002190D01*
X027834Y000940D01*
X028299Y001123D02*
X028368Y001123D01*
X028334Y001039D02*
X028410Y001223D01*
X028550Y001364D01*
X028574Y001373D01*
X028574Y002083D01*
X028363Y002293D01*
X028334Y002364D01*
X028304Y002292D01*
X028231Y002219D01*
X028094Y002082D01*
X028094Y001373D01*
X028117Y001364D01*
X028257Y001223D01*
X028334Y001039D01*
X028334Y000840D01*
X028334Y001039D01*
X028334Y000965D02*
X028334Y000965D01*
X028319Y000806D02*
X028348Y000806D01*
X028419Y000648D02*
X028248Y000648D01*
X028052Y000489D02*
X028615Y000489D01*
X029052Y000489D02*
X029615Y000489D01*
X029419Y000648D02*
X029248Y000648D01*
X029319Y000806D02*
X029348Y000806D01*
X029334Y000840D02*
X029334Y001039D01*
X029410Y001223D01*
X029550Y001364D01*
X029574Y001373D01*
X029574Y001832D01*
X028936Y002469D01*
X028863Y002542D01*
X028844Y002590D01*
X028844Y002548D01*
X028981Y002411D01*
X029054Y002338D01*
X029094Y002242D01*
X029094Y001373D01*
X029117Y001364D01*
X029257Y001223D01*
X029334Y001039D01*
X029334Y000840D01*
X029334Y000965D02*
X029334Y000965D01*
X029299Y001123D02*
X029368Y001123D01*
X029468Y001282D02*
X029199Y001282D01*
X029094Y001440D02*
X029574Y001440D01*
X029574Y001599D02*
X029094Y001599D01*
X029094Y001757D02*
X029574Y001757D01*
X029490Y001916D02*
X029094Y001916D01*
X029094Y002074D02*
X029331Y002074D01*
X029173Y002233D02*
X029094Y002233D01*
X029014Y002391D02*
X029000Y002391D01*
X028860Y002550D02*
X028844Y002550D01*
X029084Y002690D02*
X029084Y005940D01*
X030584Y007440D01*
X030940Y007306D02*
X031074Y007306D01*
X031074Y007148D02*
X030829Y007148D01*
X031074Y006989D02*
X030501Y006989D01*
X030342Y006831D02*
X031074Y006831D01*
X031074Y006672D02*
X030184Y006672D01*
X030025Y006514D02*
X031074Y006514D01*
X030991Y006355D02*
X029867Y006355D01*
X029708Y006197D02*
X030954Y006197D01*
X030985Y006038D02*
X029550Y006038D01*
X029391Y005879D02*
X031106Y005879D01*
X031561Y005879D02*
X032494Y005879D01*
X032494Y005721D02*
X029344Y005721D01*
X029344Y005562D02*
X032518Y005562D01*
X032639Y005404D02*
X029344Y005404D01*
X029344Y005245D02*
X032797Y005245D01*
X033229Y005087D02*
X029344Y005087D01*
X029344Y004928D02*
X033472Y004928D01*
X033466Y004927D02*
X033392Y004903D01*
X033321Y004867D01*
X033258Y004821D01*
X033202Y004765D01*
X033156Y004702D01*
X033120Y004632D01*
X033096Y004557D01*
X033084Y004479D01*
X033084Y004460D01*
X033563Y004460D01*
X033563Y004420D01*
X033084Y004420D01*
X033084Y004400D01*
X033096Y004323D01*
X033120Y004248D01*
X033156Y004178D01*
X033202Y004114D01*
X033258Y004058D01*
X033321Y004012D01*
X033392Y003976D01*
X033466Y003952D01*
X033544Y003940D01*
X033563Y003940D01*
X033563Y004419D01*
X033604Y004419D01*
X033604Y003940D01*
X033623Y003940D01*
X033701Y003952D01*
X033775Y003976D01*
X033846Y004012D01*
X033909Y004058D01*
X033965Y004114D01*
X034011Y004178D01*
X034047Y004248D01*
X034071Y004323D01*
X034084Y004400D01*
X034084Y004420D01*
X033604Y004420D01*
X033604Y004460D01*
X034084Y004460D01*
X034084Y004479D01*
X034071Y004557D01*
X034047Y004632D01*
X034011Y004702D01*
X033965Y004765D01*
X033909Y004821D01*
X033846Y004867D01*
X033775Y004903D01*
X033701Y004927D01*
X033623Y004940D01*
X033604Y004940D01*
X033604Y004460D01*
X033563Y004460D01*
X033563Y004940D01*
X033544Y004940D01*
X033466Y004927D01*
X033563Y004928D02*
X033604Y004928D01*
X033695Y004928D02*
X034154Y004928D01*
X034154Y004770D02*
X033961Y004770D01*
X034054Y004611D02*
X034154Y004611D01*
X034154Y004453D02*
X033604Y004453D01*
X033563Y004453D02*
X029344Y004453D01*
X029344Y004611D02*
X033114Y004611D01*
X033206Y004770D02*
X029344Y004770D01*
X029344Y004294D02*
X033105Y004294D01*
X033186Y004135D02*
X029344Y004135D01*
X029344Y003977D02*
X033390Y003977D01*
X033392Y003903D02*
X033321Y003867D01*
X033258Y003821D01*
X033202Y003765D01*
X033156Y003702D01*
X033120Y003632D01*
X033096Y003557D01*
X033084Y003479D01*
X033084Y003460D01*
X033563Y003460D01*
X033563Y003420D01*
X033084Y003420D01*
X033084Y003400D01*
X033096Y003323D01*
X033120Y003248D01*
X033156Y003178D01*
X033202Y003114D01*
X033258Y003058D01*
X033321Y003012D01*
X033392Y002976D01*
X033466Y002952D01*
X033544Y002940D01*
X033563Y002940D01*
X033563Y003419D01*
X033604Y003419D01*
X033604Y002940D01*
X033623Y002940D01*
X033701Y002952D01*
X033775Y002976D01*
X033846Y003012D01*
X033909Y003058D01*
X033965Y003114D01*
X034011Y003178D01*
X034047Y003248D01*
X034071Y003323D01*
X034084Y003400D01*
X034084Y003420D01*
X033604Y003420D01*
X033604Y003460D01*
X034084Y003460D01*
X034084Y003479D01*
X034071Y003557D01*
X034047Y003632D01*
X034011Y003702D01*
X033965Y003765D01*
X033909Y003821D01*
X033846Y003867D01*
X033775Y003903D01*
X033701Y003927D01*
X033623Y003940D01*
X033604Y003940D01*
X033604Y003460D01*
X033563Y003460D01*
X033563Y003940D01*
X033544Y003940D01*
X033466Y003927D01*
X033392Y003903D01*
X033255Y003818D02*
X029662Y003818D01*
X029505Y003818D02*
X029344Y003818D01*
X029901Y003660D02*
X033135Y003660D01*
X033087Y003501D02*
X029964Y003501D01*
X029955Y003343D02*
X033093Y003343D01*
X033153Y003184D02*
X029865Y003184D01*
X029866Y003026D02*
X033303Y003026D01*
X033563Y003026D02*
X033604Y003026D01*
X033604Y003184D02*
X033563Y003184D01*
X033563Y003343D02*
X033604Y003343D01*
X033604Y003501D02*
X033563Y003501D01*
X033563Y003660D02*
X033604Y003660D01*
X033604Y003818D02*
X033563Y003818D01*
X033563Y003977D02*
X033604Y003977D01*
X033604Y004135D02*
X033563Y004135D01*
X033563Y004294D02*
X033604Y004294D01*
X033777Y003977D02*
X034154Y003977D01*
X034154Y004135D02*
X033981Y004135D01*
X034062Y004294D02*
X034154Y004294D01*
X034154Y003818D02*
X033912Y003818D01*
X034033Y003660D02*
X034154Y003660D01*
X034154Y003501D02*
X034080Y003501D01*
X034074Y003343D02*
X034154Y003343D01*
X034154Y003184D02*
X034014Y003184D01*
X034154Y003026D02*
X033864Y003026D01*
X034154Y002867D02*
X030025Y002867D01*
X030183Y002709D02*
X034154Y002709D01*
X034154Y002550D02*
X030342Y002550D01*
X030500Y002391D02*
X034154Y002391D01*
X034154Y002233D02*
X030659Y002233D01*
X030817Y002074D02*
X034154Y002074D01*
X034154Y001916D02*
X030976Y001916D01*
X031087Y001757D02*
X034154Y001757D01*
X034154Y001599D02*
X031094Y001599D01*
X031094Y001440D02*
X034154Y001440D01*
X034154Y001282D02*
X032199Y001282D01*
X032215Y001265D02*
X032159Y001321D01*
X032096Y001367D01*
X032025Y001403D01*
X031951Y001427D01*
X031873Y001440D01*
X031854Y001440D01*
X031854Y000960D01*
X032334Y000960D01*
X032334Y000979D01*
X032321Y001057D01*
X032297Y001132D01*
X032261Y001202D01*
X032215Y001265D01*
X032300Y001123D02*
X034154Y001123D01*
X034154Y000965D02*
X032334Y000965D01*
X032334Y000920D02*
X031854Y000920D01*
X031854Y000960D01*
X031813Y000960D01*
X031813Y000920D01*
X031334Y000920D01*
X031334Y000900D01*
X031346Y000823D01*
X031370Y000748D01*
X031406Y000678D01*
X031452Y000614D01*
X031508Y000558D01*
X031571Y000512D01*
X031642Y000476D01*
X031716Y000452D01*
X031794Y000440D01*
X031813Y000440D01*
X031813Y000919D01*
X031854Y000919D01*
X031854Y000440D01*
X031873Y000440D01*
X031951Y000452D01*
X032025Y000476D01*
X032096Y000512D01*
X032159Y000558D01*
X032215Y000614D01*
X032261Y000678D01*
X032297Y000748D01*
X032321Y000823D01*
X032334Y000900D01*
X032334Y000920D01*
X032316Y000806D02*
X034154Y000806D01*
X034154Y000648D02*
X032239Y000648D01*
X032050Y000489D02*
X034154Y000489D01*
X031854Y000489D02*
X031813Y000489D01*
X031813Y000648D02*
X031854Y000648D01*
X031854Y000806D02*
X031813Y000806D01*
X031813Y000960D02*
X031334Y000960D01*
X031334Y000979D01*
X031346Y001057D01*
X031370Y001132D01*
X031406Y001202D01*
X031452Y001265D01*
X031508Y001321D01*
X031571Y001367D01*
X031642Y001403D01*
X031716Y001427D01*
X031794Y001440D01*
X031813Y001440D01*
X031813Y000960D01*
X031813Y000965D02*
X031854Y000965D01*
X031854Y001123D02*
X031813Y001123D01*
X031813Y001282D02*
X031854Y001282D01*
X031468Y001282D02*
X031199Y001282D01*
X031299Y001123D02*
X031367Y001123D01*
X031334Y000965D02*
X031334Y000965D01*
X031319Y000806D02*
X031351Y000806D01*
X031428Y000648D02*
X031248Y000648D01*
X031052Y000489D02*
X031617Y000489D01*
X030834Y000940D02*
X030834Y001691D01*
X029584Y002941D01*
X029584Y003440D01*
X029344Y002841D02*
X029363Y002793D01*
X030574Y001583D01*
X030574Y001373D01*
X030550Y001364D01*
X030410Y001223D01*
X030334Y001039D01*
X030334Y000840D01*
X030334Y001039D01*
X030257Y001223D01*
X030117Y001364D01*
X030094Y001373D01*
X030094Y001888D01*
X030094Y001991D01*
X030054Y002087D01*
X029344Y002797D01*
X029344Y002841D01*
X029432Y002709D02*
X029448Y002709D01*
X029591Y002550D02*
X029606Y002550D01*
X029749Y002391D02*
X029765Y002391D01*
X029908Y002233D02*
X029924Y002233D01*
X030059Y002074D02*
X030082Y002074D01*
X030094Y001916D02*
X030241Y001916D01*
X030094Y001757D02*
X030399Y001757D01*
X030558Y001599D02*
X030094Y001599D01*
X030094Y001440D02*
X030574Y001440D01*
X030468Y001282D02*
X030199Y001282D01*
X030299Y001123D02*
X030368Y001123D01*
X030334Y000965D02*
X030334Y000965D01*
X030319Y000806D02*
X030348Y000806D01*
X030419Y000648D02*
X030248Y000648D01*
X030052Y000489D02*
X030615Y000489D01*
X029834Y000940D02*
X029834Y001940D01*
X029084Y002690D01*
X028834Y002191D02*
X028834Y000940D01*
X028468Y001282D02*
X028199Y001282D01*
X028094Y001440D02*
X028574Y001440D01*
X028574Y001599D02*
X028094Y001599D01*
X028094Y001757D02*
X028574Y001757D01*
X028574Y001916D02*
X028094Y001916D01*
X028094Y002074D02*
X028574Y002074D01*
X028424Y002233D02*
X028244Y002233D01*
X028584Y002441D02*
X028834Y002191D01*
X028584Y002441D02*
X028584Y003440D01*
X028584Y005980D01*
X029584Y006980D01*
X028584Y007440D02*
X027584Y006440D01*
X027584Y003440D01*
X027584Y002940D01*
X026834Y002190D01*
X026834Y000940D01*
X027199Y001282D02*
X027468Y001282D01*
X027410Y001223D02*
X027334Y001039D01*
X027334Y000840D01*
X027334Y001039D01*
X027257Y001223D01*
X027117Y001364D01*
X027094Y001373D01*
X027094Y002082D01*
X027731Y002719D01*
X027804Y002792D01*
X027824Y002840D01*
X027824Y002547D01*
X027613Y002337D01*
X027574Y002241D01*
X027574Y002138D01*
X027574Y001373D01*
X027550Y001364D01*
X027410Y001223D01*
X027368Y001123D02*
X027299Y001123D01*
X027334Y000965D02*
X027334Y000965D01*
X027319Y000806D02*
X027348Y000806D01*
X027419Y000648D02*
X027248Y000648D01*
X027052Y000489D02*
X027615Y000489D01*
X027574Y001440D02*
X027094Y001440D01*
X027094Y001599D02*
X027574Y001599D01*
X027574Y001757D02*
X027094Y001757D01*
X027094Y001916D02*
X027574Y001916D01*
X027574Y002074D02*
X027094Y002074D01*
X027244Y002233D02*
X027574Y002233D01*
X027668Y002391D02*
X027403Y002391D01*
X027562Y002550D02*
X027824Y002550D01*
X027824Y002709D02*
X027720Y002709D01*
X027084Y003440D02*
X025834Y002190D01*
X025834Y000940D01*
X025574Y001599D02*
X014905Y001599D01*
X014964Y001757D02*
X015337Y001757D01*
X015179Y001916D02*
X014953Y001916D01*
X014861Y002074D02*
X015104Y002074D01*
X015573Y002074D02*
X015594Y002074D01*
X015594Y001916D02*
X015573Y001916D01*
X015573Y001757D02*
X015594Y001757D01*
X015830Y001757D02*
X016337Y001757D01*
X016312Y001783D02*
X016312Y001783D01*
X016179Y001916D02*
X015989Y001916D01*
X016064Y002074D02*
X016104Y002074D01*
X016104Y002233D02*
X016064Y002233D01*
X016060Y002391D02*
X016107Y002391D01*
X016265Y002550D02*
X015902Y002550D01*
X015594Y002550D02*
X015573Y002550D01*
X015573Y002391D02*
X015594Y002391D01*
X015594Y002233D02*
X015573Y002233D01*
X016386Y002709D02*
X000514Y002709D01*
X004699Y001282D02*
X004968Y001282D01*
X004868Y001123D02*
X004799Y001123D01*
X004834Y000965D02*
X004834Y000965D01*
X004819Y000806D02*
X004848Y000806D01*
X004919Y000648D02*
X004748Y000648D01*
X004552Y000489D02*
X005115Y000489D01*
X005552Y000489D02*
X006115Y000489D01*
X005919Y000648D02*
X005748Y000648D01*
X005819Y000806D02*
X005848Y000806D01*
X005834Y000965D02*
X005834Y000965D01*
X005799Y001123D02*
X005868Y001123D01*
X005968Y001282D02*
X005699Y001282D01*
X006699Y001282D02*
X006968Y001282D01*
X006868Y001123D02*
X006799Y001123D01*
X006834Y000965D02*
X006834Y000965D01*
X006819Y000806D02*
X006848Y000806D01*
X006919Y000648D02*
X006748Y000648D01*
X006552Y000489D02*
X007115Y000489D01*
X007552Y000489D02*
X008115Y000489D01*
X007919Y000648D02*
X007748Y000648D01*
X007819Y000806D02*
X007848Y000806D01*
X007834Y000965D02*
X007834Y000965D01*
X007799Y001123D02*
X007868Y001123D01*
X007968Y001282D02*
X007699Y001282D01*
X008699Y001282D02*
X008968Y001282D01*
X008868Y001123D02*
X008799Y001123D01*
X008834Y000965D02*
X008834Y000965D01*
X008819Y000806D02*
X008848Y000806D01*
X008919Y000648D02*
X008748Y000648D01*
X008552Y000489D02*
X009115Y000489D01*
X009552Y000489D02*
X010115Y000489D01*
X009919Y000648D02*
X009748Y000648D01*
X009819Y000806D02*
X009848Y000806D01*
X009834Y000965D02*
X009834Y000965D01*
X009799Y001123D02*
X009868Y001123D01*
X009968Y001282D02*
X009699Y001282D01*
X010699Y001282D02*
X010968Y001282D01*
X010868Y001123D02*
X010799Y001123D01*
X010834Y000965D02*
X010834Y000965D01*
X010819Y000806D02*
X010848Y000806D01*
X010919Y000648D02*
X010748Y000648D01*
X010552Y000489D02*
X011115Y000489D01*
X011552Y000489D02*
X012115Y000489D01*
X011919Y000648D02*
X011748Y000648D01*
X011819Y000806D02*
X011848Y000806D01*
X011834Y000965D02*
X011834Y000965D01*
X011799Y001123D02*
X011868Y001123D01*
X011968Y001282D02*
X011699Y001282D01*
X012699Y001282D02*
X012968Y001282D01*
X012952Y001265D02*
X012906Y001202D01*
X012870Y001132D01*
X012846Y001057D01*
X012834Y000979D01*
X012834Y000960D01*
X013313Y000960D01*
X013313Y000920D01*
X012834Y000920D01*
X012834Y000900D01*
X012846Y000823D01*
X012870Y000748D01*
X012906Y000678D01*
X012952Y000614D01*
X013008Y000558D01*
X013071Y000512D01*
X013142Y000476D01*
X013216Y000452D01*
X013294Y000440D01*
X013313Y000440D01*
X013313Y000919D01*
X013354Y000919D01*
X013354Y000440D01*
X013373Y000440D01*
X013451Y000452D01*
X013525Y000476D01*
X013596Y000512D01*
X013659Y000558D01*
X013715Y000614D01*
X013761Y000678D01*
X013797Y000748D01*
X013821Y000823D01*
X013834Y000900D01*
X013834Y000920D01*
X013354Y000920D01*
X013354Y000960D01*
X013834Y000960D01*
X013834Y000979D01*
X013821Y001057D01*
X013797Y001132D01*
X013761Y001202D01*
X013715Y001265D01*
X013659Y001321D01*
X013596Y001367D01*
X013525Y001403D01*
X013451Y001427D01*
X013373Y001440D01*
X013354Y001440D01*
X013354Y000960D01*
X013313Y000960D01*
X013313Y001440D01*
X013294Y001440D01*
X013216Y001427D01*
X013142Y001403D01*
X013071Y001367D01*
X013008Y001321D01*
X012952Y001265D01*
X012867Y001123D02*
X012799Y001123D01*
X012834Y000965D02*
X012834Y000965D01*
X012819Y000806D02*
X012851Y000806D01*
X012928Y000648D02*
X012748Y000648D01*
X012552Y000489D02*
X013117Y000489D01*
X013313Y000489D02*
X013354Y000489D01*
X013354Y000648D02*
X013313Y000648D01*
X013313Y000806D02*
X013354Y000806D01*
X013354Y000965D02*
X013313Y000965D01*
X013313Y001123D02*
X013354Y001123D01*
X013354Y001282D02*
X013313Y001282D01*
X013699Y001282D02*
X018468Y001282D01*
X018410Y001223D02*
X018334Y001039D01*
X018334Y000840D01*
X018410Y000656D01*
X018550Y000516D01*
X018734Y000440D01*
X018933Y000440D01*
X019117Y000516D01*
X019257Y000656D01*
X019334Y000840D01*
X019410Y000656D01*
X019550Y000516D01*
X019734Y000440D01*
X019933Y000440D01*
X020117Y000516D01*
X020257Y000656D01*
X020334Y000840D01*
X020334Y001039D01*
X020257Y001223D01*
X020117Y001364D01*
X019933Y001440D01*
X019734Y001440D01*
X019550Y001364D01*
X019410Y001223D01*
X019334Y001039D01*
X019334Y000840D01*
X019334Y001039D01*
X019257Y001223D01*
X019117Y001364D01*
X018933Y001440D01*
X018734Y001440D01*
X018550Y001364D01*
X018410Y001223D01*
X018368Y001123D02*
X013800Y001123D01*
X013834Y000965D02*
X018334Y000965D01*
X018348Y000806D02*
X013816Y000806D01*
X013739Y000648D02*
X018419Y000648D01*
X018615Y000489D02*
X013550Y000489D01*
X016830Y001757D02*
X025574Y001757D01*
X025574Y001916D02*
X016989Y001916D01*
X017147Y002074D02*
X025574Y002074D01*
X025574Y002233D02*
X020485Y002233D01*
X020714Y002391D02*
X025668Y002391D01*
X025826Y002550D02*
X020873Y002550D01*
X021031Y002709D02*
X025985Y002709D01*
X026143Y002867D02*
X021190Y002867D01*
X021348Y003026D02*
X026302Y003026D01*
X026460Y003184D02*
X021507Y003184D01*
X021665Y003343D02*
X026619Y003343D01*
X026777Y003501D02*
X021824Y003501D01*
X021983Y003660D02*
X026824Y003660D01*
X026824Y003818D02*
X022141Y003818D01*
X022265Y003977D02*
X026824Y003977D01*
X026824Y004135D02*
X022314Y004135D01*
X022314Y004294D02*
X026824Y004294D01*
X026824Y004453D02*
X022314Y004453D01*
X022314Y004611D02*
X026824Y004611D01*
X026824Y004770D02*
X022314Y004770D01*
X022314Y004928D02*
X026824Y004928D01*
X026824Y005087D02*
X022314Y005087D01*
X022314Y005245D02*
X026824Y005245D01*
X026824Y005404D02*
X022835Y005404D01*
X022942Y005562D02*
X026824Y005562D01*
X026824Y005721D02*
X022964Y005721D01*
X022916Y005879D02*
X026824Y005879D01*
X026824Y006038D02*
X022736Y006038D01*
X022557Y006197D02*
X026824Y006197D01*
X026824Y006355D02*
X022097Y006355D01*
X022105Y006347D02*
X022105Y006347D01*
X021938Y006514D02*
X026824Y006514D01*
X026824Y006672D02*
X021814Y006672D01*
X021814Y006831D02*
X026824Y006831D01*
X026824Y006989D02*
X021814Y006989D01*
X021814Y007148D02*
X026924Y007148D01*
X027083Y007306D02*
X021879Y007306D01*
X023192Y007465D02*
X027204Y007465D01*
X027248Y007623D02*
X023446Y007623D01*
X023490Y007668D02*
X023490Y007668D01*
X023605Y007782D02*
X027417Y007782D01*
X027829Y007148D02*
X027924Y007148D01*
X027765Y006989D02*
X027501Y006989D01*
X027607Y006831D02*
X027344Y006831D01*
X027344Y006672D02*
X027448Y006672D01*
X029589Y008099D02*
X031074Y008099D01*
X031074Y007941D02*
X023763Y007941D01*
X021056Y006038D02*
X020932Y006038D01*
X021062Y006033D02*
X021062Y006033D01*
X021215Y005879D02*
X020811Y005879D01*
X022314Y005404D02*
X022332Y005404D01*
X020783Y003818D02*
X016891Y003818D01*
X016792Y003660D02*
X020625Y003660D01*
X020466Y003501D02*
X016951Y003501D01*
X016855Y003597D02*
X016855Y003597D01*
X017109Y003343D02*
X020308Y003343D01*
X020149Y003184D02*
X017268Y003184D01*
X016227Y002867D02*
X015940Y002867D01*
X016064Y003026D02*
X016104Y003026D01*
X015594Y003026D02*
X015573Y003026D01*
X015573Y002867D02*
X015594Y002867D01*
X015573Y003343D02*
X015594Y003343D01*
X015594Y003501D02*
X015573Y003501D01*
X015573Y003660D02*
X015594Y003660D01*
X016841Y004611D02*
X016949Y004611D01*
X016949Y004770D02*
X016842Y004770D01*
X016890Y005562D02*
X016949Y005562D01*
X016949Y005721D02*
X016794Y005721D01*
X013294Y009050D02*
X029265Y009050D01*
X029989Y008416D02*
X031074Y008416D01*
X031074Y008258D02*
X029830Y008258D01*
X030147Y008575D02*
X031074Y008575D01*
X031074Y008733D02*
X030268Y008733D01*
X030314Y008892D02*
X031074Y008892D01*
X031074Y009050D02*
X030314Y009050D01*
X030314Y009209D02*
X031074Y009209D01*
X031074Y009367D02*
X030314Y009367D01*
X030314Y009526D02*
X031074Y009526D01*
X031074Y009684D02*
X030314Y009684D01*
X030314Y009843D02*
X031074Y009843D01*
X031074Y010002D02*
X030314Y010002D01*
X030314Y010160D02*
X031074Y010160D01*
X031074Y010319D02*
X030334Y010319D01*
X030334Y010477D02*
X031074Y010477D01*
X031074Y010636D02*
X030334Y010636D01*
X030186Y010794D02*
X031074Y010794D01*
X031074Y010953D02*
X030054Y010953D01*
X030212Y011111D02*
X031074Y011111D01*
X031011Y011270D02*
X030334Y011270D01*
X030334Y011428D02*
X030852Y011428D01*
X030694Y011587D02*
X030334Y011587D01*
X030235Y011746D02*
X030535Y011746D01*
X030376Y011904D02*
X030076Y011904D01*
X029591Y011904D02*
X029076Y011904D01*
X029235Y011746D02*
X029432Y011746D01*
X029334Y011587D02*
X029334Y011587D01*
X029334Y011428D02*
X029334Y011428D01*
X029334Y011270D02*
X029334Y011270D01*
X029455Y011111D02*
X029212Y011111D01*
X029054Y010953D02*
X029613Y010953D01*
X029481Y010794D02*
X029186Y010794D01*
X029334Y010636D02*
X029334Y010636D01*
X029334Y010477D02*
X029334Y010477D01*
X029334Y010319D02*
X029334Y010319D01*
X028455Y011111D02*
X028212Y011111D01*
X028334Y011270D02*
X028334Y011270D01*
X028334Y011428D02*
X028334Y011428D01*
X028334Y011587D02*
X028334Y011587D01*
X028432Y011746D02*
X028235Y011746D01*
X028076Y011904D02*
X028591Y011904D01*
X030459Y012565D02*
X031584Y011440D01*
X031584Y006815D01*
X031709Y006690D01*
X031682Y006038D02*
X032494Y006038D01*
X033174Y006038D02*
X033278Y006038D01*
X033300Y006016D02*
X033174Y006143D01*
X033174Y005830D01*
X033220Y005784D01*
X033300Y005864D01*
X033484Y005940D01*
X033683Y005940D01*
X033484Y005940D01*
X033300Y006016D01*
X033339Y005879D02*
X033174Y005879D01*
X033828Y005879D02*
X034154Y005879D01*
X034154Y005721D02*
X034008Y005721D01*
X034074Y005562D02*
X034154Y005562D01*
X034154Y005404D02*
X034084Y005404D01*
X034044Y005245D02*
X034154Y005245D01*
X034154Y005087D02*
X033938Y005087D01*
X033604Y004770D02*
X033563Y004770D01*
X033563Y004611D02*
X033604Y004611D01*
X033889Y006038D02*
X034154Y006038D01*
X034154Y006197D02*
X034024Y006197D01*
X034084Y006355D02*
X034154Y006355D01*
X034154Y006514D02*
X034084Y006514D01*
X034028Y006672D02*
X034154Y006672D01*
X034154Y006831D02*
X033900Y006831D01*
X033803Y006989D02*
X034154Y006989D01*
X034154Y007148D02*
X033999Y007148D01*
X034069Y007306D02*
X034154Y007306D01*
X034154Y007465D02*
X034084Y007465D01*
X034049Y007623D02*
X034154Y007623D01*
X034154Y007782D02*
X033948Y007782D01*
X034154Y007941D02*
X033685Y007941D01*
X033683Y007940D02*
X033484Y007940D01*
X033300Y008016D01*
X033174Y008143D01*
X033174Y007737D01*
X033300Y007864D01*
X033484Y007940D01*
X033683Y007940D01*
X033482Y007941D02*
X033174Y007941D01*
X033174Y008099D02*
X033217Y008099D01*
X033219Y007782D02*
X033174Y007782D01*
X033950Y008099D02*
X034154Y008099D01*
X034154Y008258D02*
X034049Y008258D01*
X034084Y008416D02*
X034154Y008416D01*
X034154Y008575D02*
X034069Y008575D01*
X033997Y008733D02*
X034154Y008733D01*
X034154Y008892D02*
X033799Y008892D01*
X034154Y009050D02*
X033174Y009050D01*
X033174Y008892D02*
X033369Y008892D01*
X033174Y009209D02*
X034154Y009209D01*
X034154Y009367D02*
X033174Y009367D01*
X033174Y009526D02*
X034154Y009526D01*
X034154Y009684D02*
X033174Y009684D01*
X033174Y009843D02*
X034154Y009843D01*
X034154Y010002D02*
X033174Y010002D01*
X033174Y010160D02*
X034154Y010160D01*
X034154Y010319D02*
X033174Y010319D01*
X033174Y010477D02*
X034154Y010477D01*
X034154Y010636D02*
X033174Y010636D01*
X033174Y010794D02*
X034154Y010794D01*
X034154Y010953D02*
X033327Y010953D01*
X033486Y011111D02*
X034154Y011111D01*
X034154Y011270D02*
X033645Y011270D01*
X033770Y011428D02*
X034154Y011428D01*
X034154Y011587D02*
X033799Y011587D01*
X033799Y011746D02*
X034154Y011746D01*
X034154Y011904D02*
X033799Y011904D01*
X033799Y012063D02*
X034154Y012063D01*
X034154Y012221D02*
X033799Y012221D01*
X033799Y012380D02*
X034154Y012380D01*
X034154Y012538D02*
X033716Y012538D01*
X033651Y012603D02*
X033651Y012603D01*
X033557Y012697D02*
X034154Y012697D01*
X034154Y012855D02*
X033428Y012855D01*
X033587Y013014D02*
X034154Y013014D01*
X034154Y013172D02*
X033742Y013172D01*
X033808Y013331D02*
X034154Y013331D01*
X034154Y013490D02*
X033814Y013490D01*
X033814Y013648D02*
X034154Y013648D01*
X034154Y013807D02*
X033814Y013807D01*
X033814Y013965D02*
X034154Y013965D01*
X034154Y014124D02*
X033814Y014124D01*
X033814Y014282D02*
X034154Y014282D01*
X034154Y014441D02*
X033814Y014441D01*
X033814Y014599D02*
X034154Y014599D01*
X034154Y014758D02*
X033814Y014758D01*
X033814Y014916D02*
X034154Y014916D01*
X034154Y015075D02*
X033814Y015075D01*
X033814Y015234D02*
X034154Y015234D01*
X034154Y015392D02*
X033814Y015392D01*
X033814Y015551D02*
X034154Y015551D01*
X034154Y015709D02*
X033814Y015709D01*
X033814Y015868D02*
X034154Y015868D01*
X034154Y016026D02*
X033814Y016026D01*
X033814Y016185D02*
X034154Y016185D01*
X034154Y016343D02*
X033814Y016343D01*
X033814Y016502D02*
X034154Y016502D01*
X034154Y016660D02*
X033814Y016660D01*
X033814Y016819D02*
X034154Y016819D01*
X034154Y016977D02*
X033814Y016977D01*
X033814Y017136D02*
X034154Y017136D01*
X034154Y017295D02*
X033814Y017295D01*
X033814Y017453D02*
X034154Y017453D01*
X034154Y017612D02*
X033814Y017612D01*
X033814Y017770D02*
X034154Y017770D01*
X034154Y017929D02*
X033754Y017929D01*
X033615Y018087D02*
X034154Y018087D01*
X034154Y018246D02*
X033456Y018246D01*
X033314Y018404D02*
X034154Y018404D01*
X034154Y018563D02*
X033334Y018563D01*
X033334Y018721D02*
X034154Y018721D01*
X034154Y018880D02*
X033334Y018880D01*
X033334Y019039D02*
X034154Y019039D01*
X034154Y019197D02*
X033334Y019197D01*
X033334Y019356D02*
X034154Y019356D01*
X034004Y019514D02*
X033269Y019514D01*
X033128Y019673D02*
X033846Y019673D01*
X032539Y019673D02*
X032116Y019673D01*
X032096Y019687D02*
X032159Y019641D01*
X032215Y019585D01*
X032261Y019522D01*
X032297Y019452D01*
X032321Y019377D01*
X032334Y019299D01*
X032334Y018960D01*
X031854Y018960D01*
X031854Y018920D01*
X032334Y018920D01*
X032334Y018580D01*
X032321Y018503D01*
X032297Y018428D01*
X032261Y018358D01*
X032215Y018294D01*
X032159Y018238D01*
X032096Y018192D01*
X032025Y018156D01*
X031951Y018132D01*
X031873Y018120D01*
X031854Y018120D01*
X031854Y018919D01*
X031813Y018919D01*
X031813Y018120D01*
X031794Y018120D01*
X031716Y018132D01*
X031642Y018156D01*
X031571Y018192D01*
X031508Y018238D01*
X031452Y018294D01*
X031406Y018358D01*
X031370Y018428D01*
X031346Y018503D01*
X031344Y018518D01*
X031344Y018041D01*
X031344Y017838D01*
X031266Y017651D01*
X030622Y017007D01*
X029844Y016228D01*
X029844Y014450D01*
X031435Y014450D01*
X031622Y014372D01*
X031766Y014229D01*
X031844Y014041D01*
X031844Y013838D01*
X031766Y013651D01*
X031622Y013507D01*
X031435Y013430D01*
X029461Y013430D01*
X029437Y013420D01*
X029230Y013420D01*
X029039Y013499D01*
X028893Y013645D01*
X028814Y013836D01*
X028814Y014043D01*
X028824Y014067D01*
X028824Y016338D01*
X028824Y016541D01*
X028901Y016729D01*
X029901Y017729D01*
X030324Y018151D01*
X030324Y019041D01*
X030334Y019065D01*
X030334Y019359D01*
X030410Y019543D01*
X030550Y019684D01*
X030734Y019760D01*
X030933Y019760D01*
X031117Y019684D01*
X031257Y019543D01*
X031334Y019359D01*
X031334Y019065D01*
X031334Y019065D01*
X031334Y019299D01*
X031346Y019377D01*
X031370Y019452D01*
X031406Y019522D01*
X031452Y019585D01*
X031508Y019641D01*
X031571Y019687D01*
X031642Y019723D01*
X031716Y019747D01*
X031794Y019760D01*
X031813Y019760D01*
X031813Y018960D01*
X031854Y018960D01*
X031854Y019760D01*
X031873Y019760D01*
X031951Y019747D01*
X032025Y019723D01*
X032096Y019687D01*
X032265Y019514D02*
X032398Y019514D01*
X032334Y019356D02*
X032325Y019356D01*
X032334Y019197D02*
X032334Y019197D01*
X032334Y019039D02*
X032334Y019039D01*
X032334Y018880D02*
X032334Y018880D01*
X032334Y018721D02*
X032334Y018721D01*
X032331Y018563D02*
X032334Y018563D01*
X032354Y018404D02*
X032285Y018404D01*
X032354Y018246D02*
X032167Y018246D01*
X032356Y018087D02*
X031344Y018087D01*
X031344Y017929D02*
X032422Y017929D01*
X032333Y017900D02*
X032143Y017900D01*
X031874Y017630D01*
X031874Y017440D01*
X032333Y017440D01*
X032333Y017439D01*
X032334Y017439D01*
X032334Y016980D01*
X032524Y016980D01*
X032794Y017249D01*
X032794Y017439D01*
X032334Y017439D01*
X032334Y017440D01*
X032333Y017440D01*
X032333Y017900D01*
X032333Y017770D02*
X032334Y017770D01*
X032333Y017612D02*
X032334Y017612D01*
X032333Y017453D02*
X032334Y017453D01*
X032333Y017439D02*
X031874Y017439D01*
X031874Y017249D01*
X032143Y016980D01*
X032333Y016980D01*
X032333Y017439D01*
X032333Y017295D02*
X032334Y017295D01*
X032333Y017136D02*
X032334Y017136D01*
X032680Y017136D02*
X032854Y017136D01*
X032854Y016977D02*
X030593Y016977D01*
X030434Y016819D02*
X031062Y016819D01*
X031143Y016900D02*
X030874Y016630D01*
X030874Y016440D01*
X031333Y016440D01*
X031333Y016439D01*
X031334Y016439D01*
X031334Y015980D01*
X031524Y015980D01*
X031794Y016249D01*
X031794Y016439D01*
X031334Y016439D01*
X031334Y016440D01*
X031794Y016440D01*
X031794Y016630D01*
X031524Y016900D01*
X031334Y016900D01*
X031334Y016440D01*
X031333Y016440D01*
X031333Y016900D01*
X031143Y016900D01*
X031333Y016819D02*
X031334Y016819D01*
X031333Y016660D02*
X031334Y016660D01*
X031333Y016502D02*
X031334Y016502D01*
X031333Y016439D02*
X030874Y016439D01*
X030874Y016249D01*
X031143Y015980D01*
X031333Y015980D01*
X031333Y016439D01*
X031333Y016343D02*
X031334Y016343D01*
X031333Y016185D02*
X031334Y016185D01*
X031333Y016026D02*
X031334Y016026D01*
X031571Y016026D02*
X032854Y016026D01*
X032854Y015868D02*
X029844Y015868D01*
X029844Y016026D02*
X031096Y016026D01*
X030938Y016185D02*
X029844Y016185D01*
X029958Y016343D02*
X030874Y016343D01*
X030874Y016502D02*
X030117Y016502D01*
X030275Y016660D02*
X030904Y016660D01*
X030751Y017136D02*
X031987Y017136D01*
X031874Y017295D02*
X030910Y017295D01*
X031068Y017453D02*
X031874Y017453D01*
X031874Y017612D02*
X031227Y017612D01*
X031315Y017770D02*
X032014Y017770D01*
X031854Y018246D02*
X031813Y018246D01*
X031813Y018404D02*
X031854Y018404D01*
X031854Y018563D02*
X031813Y018563D01*
X031813Y018721D02*
X031854Y018721D01*
X031854Y018880D02*
X031813Y018880D01*
X031813Y019039D02*
X031854Y019039D01*
X031854Y019197D02*
X031813Y019197D01*
X031813Y019356D02*
X031854Y019356D01*
X031854Y019514D02*
X031813Y019514D01*
X031813Y019673D02*
X031854Y019673D01*
X031551Y019673D02*
X031128Y019673D01*
X031269Y019514D02*
X031402Y019514D01*
X031343Y019356D02*
X031334Y019356D01*
X031334Y019197D02*
X031334Y019197D01*
X030539Y019673D02*
X021707Y019673D01*
X021865Y019514D02*
X030398Y019514D01*
X030334Y019356D02*
X021904Y019356D01*
X021904Y019039D02*
X030324Y019039D01*
X030334Y019197D02*
X021384Y019197D01*
X021283Y019197D02*
X019384Y019197D01*
X019283Y019197D02*
X013384Y019197D01*
X013283Y019197D02*
X011384Y019197D01*
X011283Y019197D02*
X000514Y019197D01*
X000514Y019039D02*
X010764Y019039D01*
X010887Y018880D02*
X000514Y018880D01*
X000514Y018721D02*
X000745Y018721D01*
X000604Y018563D02*
X000514Y018563D01*
X000514Y018404D02*
X000539Y018404D01*
X000522Y018246D02*
X000514Y018246D01*
X000514Y018087D02*
X000533Y018087D01*
X000514Y017929D02*
X000599Y017929D01*
X000514Y017770D02*
X000733Y017770D01*
X000514Y017612D02*
X001237Y017612D01*
X001396Y017453D02*
X000514Y017453D01*
X000514Y017295D02*
X001554Y017295D01*
X001713Y017136D02*
X000514Y017136D01*
X000514Y016977D02*
X001871Y016977D01*
X002030Y016819D02*
X000514Y016819D01*
X000514Y016660D02*
X002189Y016660D01*
X002347Y016502D02*
X000514Y016502D01*
X000514Y016343D02*
X000974Y016343D01*
X000709Y016185D02*
X000514Y016185D01*
X000514Y016026D02*
X000589Y016026D01*
X000523Y015868D02*
X000514Y015868D01*
X000514Y015709D02*
X000522Y015709D01*
X000514Y015551D02*
X000549Y015551D01*
X000514Y015392D02*
X000614Y015392D01*
X000514Y015234D02*
X000770Y015234D01*
X000514Y015075D02*
X001385Y015075D01*
X001544Y014916D02*
X000514Y014916D01*
X000514Y014758D02*
X001702Y014758D01*
X001861Y014599D02*
X000514Y014599D01*
X000514Y014441D02*
X002019Y014441D01*
X002034Y014282D02*
X000514Y014282D01*
X000514Y014124D02*
X002034Y014124D01*
X002034Y013965D02*
X000514Y013965D01*
X000514Y013807D02*
X000886Y013807D01*
X000672Y013648D02*
X000514Y013648D01*
X000514Y013490D02*
X000574Y013490D01*
X000522Y013331D02*
X000514Y013331D01*
X000514Y013172D02*
X000522Y013172D01*
X001009Y012538D02*
X002034Y012538D01*
X002034Y012380D02*
X001009Y012380D01*
X001009Y012221D02*
X002034Y012221D01*
X002034Y012063D02*
X001009Y012063D01*
X001009Y011904D02*
X002034Y011904D01*
X002034Y011746D02*
X001009Y011746D01*
X001009Y011587D02*
X002034Y011587D01*
X002034Y011428D02*
X001009Y011428D01*
X001009Y011270D02*
X002034Y011270D01*
X002034Y011111D02*
X001009Y011111D01*
X001009Y010953D02*
X002034Y010953D01*
X002034Y010794D02*
X001009Y010794D01*
X001009Y010636D02*
X002034Y010636D01*
X001947Y010477D02*
X001009Y010477D01*
X001662Y010319D02*
X001788Y010319D01*
X002034Y012697D02*
X001462Y012697D01*
X001641Y012855D02*
X002034Y012855D01*
X002034Y013014D02*
X001725Y013014D01*
X001767Y013172D02*
X002034Y013172D01*
X002034Y013331D02*
X001767Y013331D01*
X001715Y013490D02*
X002034Y013490D01*
X002034Y013648D02*
X001617Y013648D01*
X001404Y013807D02*
X002034Y013807D01*
X003134Y014758D02*
X009009Y014758D01*
X008851Y014916D02*
X003134Y014916D01*
X003134Y015075D02*
X008764Y015075D01*
X008078Y016026D02*
X011924Y016026D01*
X012184Y016185D02*
X007958Y016185D01*
X007646Y017617D02*
X007399Y017617D01*
X007170Y017712D01*
X006994Y017887D01*
X006900Y018116D01*
X006900Y018364D01*
X006994Y018593D01*
X007170Y018768D01*
X007399Y018863D01*
X007646Y018863D01*
X007875Y018768D01*
X008051Y018593D01*
X008145Y018364D01*
X008145Y018116D01*
X008051Y017887D01*
X007875Y017712D01*
X007646Y017617D01*
X007934Y017770D02*
X025225Y017770D01*
X024896Y017612D02*
X002086Y017612D01*
X001927Y017770D02*
X007111Y017770D01*
X006977Y017929D02*
X001769Y017929D01*
X001756Y018087D02*
X006911Y018087D01*
X006900Y018246D02*
X001767Y018246D01*
X001751Y018404D02*
X006917Y018404D01*
X006982Y018563D02*
X001685Y018563D01*
X001544Y018721D02*
X007123Y018721D01*
X007922Y018721D02*
X011046Y018721D01*
X011283Y018721D02*
X011384Y018721D01*
X011384Y018880D02*
X011283Y018880D01*
X011283Y019039D02*
X011384Y019039D01*
X010764Y019356D02*
X000514Y019356D01*
X000514Y019514D02*
X010802Y019514D01*
X010961Y019673D02*
X000514Y019673D01*
X002244Y017453D02*
X024737Y017453D01*
X024627Y017295D02*
X002403Y017295D01*
X002561Y017136D02*
X024561Y017136D01*
X024513Y016977D02*
X002720Y016977D01*
X002879Y016819D02*
X024513Y016819D01*
X024513Y016660D02*
X003037Y016660D01*
X003132Y016502D02*
X024568Y016502D01*
X025844Y015868D02*
X026389Y015868D01*
X026400Y015915D02*
X026376Y015809D01*
X026366Y015726D01*
X027253Y015726D01*
X027253Y015566D01*
X026366Y015566D01*
X026376Y015483D01*
X026400Y015377D01*
X026436Y015274D01*
X026483Y015176D01*
X026541Y015084D01*
X026609Y014999D01*
X026686Y014922D01*
X026771Y014854D01*
X026864Y014796D01*
X026962Y014748D01*
X027065Y014712D01*
X027171Y014688D01*
X027254Y014679D01*
X027254Y015566D01*
X027413Y015566D01*
X027413Y014679D01*
X027496Y014688D01*
X027602Y014712D01*
X027705Y014748D01*
X027803Y014796D01*
X027896Y014854D01*
X027981Y014922D01*
X028058Y014999D01*
X028126Y015084D01*
X028184Y015176D01*
X028231Y015274D01*
X028267Y015377D01*
X028291Y015483D01*
X028301Y015566D01*
X027414Y015566D01*
X027414Y015726D01*
X028301Y015726D01*
X028291Y015809D01*
X028267Y015915D01*
X028231Y016018D01*
X028184Y016116D01*
X028126Y016208D01*
X028058Y016293D01*
X027981Y016370D01*
X027896Y016438D01*
X027803Y016496D01*
X027705Y016544D01*
X027602Y016579D01*
X027496Y016604D01*
X027413Y016613D01*
X027413Y015726D01*
X027254Y015726D01*
X027254Y016613D01*
X027171Y016604D01*
X027065Y016579D01*
X026962Y016544D01*
X026864Y016496D01*
X026771Y016438D01*
X026686Y016370D01*
X026609Y016293D01*
X026541Y016208D01*
X026483Y016116D01*
X026436Y016018D01*
X026400Y015915D01*
X026440Y016026D02*
X026054Y016026D01*
X026213Y016185D02*
X026526Y016185D01*
X026659Y016343D02*
X026333Y016343D01*
X026398Y016502D02*
X026875Y016502D01*
X027254Y016502D02*
X027413Y016502D01*
X027413Y016343D02*
X027254Y016343D01*
X027254Y016185D02*
X027413Y016185D01*
X027413Y016026D02*
X027254Y016026D01*
X027254Y015868D02*
X027413Y015868D01*
X027414Y015709D02*
X028824Y015709D01*
X028824Y015551D02*
X028299Y015551D01*
X028270Y015392D02*
X028824Y015392D01*
X028824Y015234D02*
X028211Y015234D01*
X028119Y015075D02*
X028824Y015075D01*
X028824Y014916D02*
X027974Y014916D01*
X027725Y014758D02*
X028824Y014758D01*
X028824Y014599D02*
X025844Y014599D01*
X025844Y014441D02*
X028824Y014441D01*
X028824Y014282D02*
X025844Y014282D01*
X025844Y014124D02*
X028824Y014124D01*
X028814Y013965D02*
X025854Y013965D01*
X025841Y013807D02*
X028826Y013807D01*
X028891Y013648D02*
X025776Y013648D01*
X025606Y013490D02*
X029061Y013490D01*
X029844Y014599D02*
X030981Y014599D01*
X030844Y014737D02*
X031131Y014450D01*
X031333Y014450D01*
X031333Y014939D01*
X031334Y014939D01*
X031334Y014450D01*
X031536Y014450D01*
X031824Y014737D01*
X031824Y014939D01*
X031334Y014939D01*
X031334Y014940D01*
X031824Y014940D01*
X031824Y015143D01*
X031536Y015430D01*
X031334Y015430D01*
X031334Y014940D01*
X031333Y014940D01*
X031333Y014939D01*
X030844Y014939D01*
X030844Y014737D01*
X030844Y014758D02*
X029844Y014758D01*
X029844Y014916D02*
X030844Y014916D01*
X030844Y014940D02*
X031333Y014940D01*
X031333Y015430D01*
X031131Y015430D01*
X030844Y015143D01*
X030844Y014940D01*
X030844Y015075D02*
X029844Y015075D01*
X029844Y015234D02*
X030934Y015234D01*
X031093Y015392D02*
X029844Y015392D01*
X029844Y015551D02*
X032854Y015551D01*
X032854Y015709D02*
X029844Y015709D01*
X028824Y015868D02*
X028278Y015868D01*
X028227Y016026D02*
X028824Y016026D01*
X028824Y016185D02*
X028141Y016185D01*
X028008Y016343D02*
X028824Y016343D01*
X028824Y016502D02*
X027792Y016502D01*
X027763Y017136D02*
X029309Y017136D01*
X029467Y017295D02*
X027992Y017295D01*
X028150Y017453D02*
X029626Y017453D01*
X029784Y017612D02*
X028219Y017612D01*
X028285Y017770D02*
X029943Y017770D01*
X030101Y017929D02*
X028304Y017929D01*
X028304Y018087D02*
X030260Y018087D01*
X030324Y018246D02*
X028285Y018246D01*
X028219Y018404D02*
X030324Y018404D01*
X030324Y018563D02*
X028151Y018563D01*
X027992Y018721D02*
X030324Y018721D01*
X030324Y018880D02*
X027763Y018880D01*
X026904Y018880D02*
X021780Y018880D01*
X021621Y018721D02*
X026675Y018721D01*
X026516Y018563D02*
X008063Y018563D01*
X008129Y018404D02*
X026339Y018404D01*
X026181Y018246D02*
X008145Y018246D01*
X008134Y018087D02*
X026022Y018087D01*
X025864Y017929D02*
X008068Y017929D01*
X011621Y018721D02*
X013046Y018721D01*
X012887Y018880D02*
X011780Y018880D01*
X011904Y019039D02*
X012764Y019039D01*
X012764Y019356D02*
X011904Y019356D01*
X011865Y019514D02*
X012802Y019514D01*
X012961Y019673D02*
X011707Y019673D01*
X013283Y019039D02*
X013384Y019039D01*
X013384Y018880D02*
X013283Y018880D01*
X013283Y018721D02*
X013384Y018721D01*
X013621Y018721D02*
X019046Y018721D01*
X018887Y018880D02*
X013780Y018880D01*
X013904Y019039D02*
X018764Y019039D01*
X018764Y019356D02*
X013904Y019356D01*
X013865Y019514D02*
X018802Y019514D01*
X018961Y019673D02*
X013707Y019673D01*
X012483Y016185D02*
X020197Y016185D01*
X020283Y016185D02*
X020384Y016185D01*
X020384Y016026D02*
X020283Y016026D01*
X020283Y015868D02*
X020384Y015868D01*
X020384Y015709D02*
X020283Y015709D01*
X020283Y015551D02*
X020384Y015551D01*
X020384Y015392D02*
X020283Y015392D01*
X020283Y015075D02*
X020384Y015075D01*
X020384Y014916D02*
X020283Y014916D01*
X020283Y014758D02*
X020384Y014758D01*
X020384Y014599D02*
X020283Y014599D01*
X020283Y014441D02*
X020384Y014441D01*
X020384Y014282D02*
X020283Y014282D01*
X020272Y014282D02*
X018904Y014282D01*
X018904Y014124D02*
X021764Y014124D01*
X021764Y014004D02*
X022097Y013670D01*
X022570Y013670D01*
X022904Y014004D01*
X022904Y014476D01*
X022570Y014810D01*
X022097Y014810D01*
X021764Y014476D01*
X021764Y014004D01*
X021802Y013965D02*
X018865Y013965D01*
X018904Y014004D02*
X018570Y013670D01*
X018097Y013670D01*
X017764Y014004D01*
X017764Y014476D01*
X018097Y014810D01*
X018570Y014810D01*
X018904Y014476D01*
X018904Y014004D01*
X018707Y013807D02*
X021961Y013807D01*
X021764Y014282D02*
X020395Y014282D01*
X020731Y014441D02*
X021764Y014441D01*
X021887Y014599D02*
X020846Y014599D01*
X020896Y014758D02*
X022046Y014758D01*
X022621Y014758D02*
X023009Y014758D01*
X022851Y014916D02*
X020904Y014916D01*
X020904Y015075D02*
X022764Y015075D01*
X022780Y014599D02*
X024824Y014599D01*
X024824Y014441D02*
X022904Y014441D01*
X022904Y014282D02*
X024824Y014282D01*
X024824Y014124D02*
X022904Y014124D01*
X022865Y013965D02*
X024814Y013965D01*
X024826Y013807D02*
X022707Y013807D01*
X023658Y014758D02*
X024824Y014758D01*
X024824Y014916D02*
X023816Y014916D01*
X023904Y015075D02*
X024824Y015075D01*
X024824Y015234D02*
X023904Y015234D01*
X023904Y015392D02*
X024824Y015392D01*
X024824Y015551D02*
X023829Y015551D01*
X023670Y015709D02*
X024824Y015709D01*
X025844Y015709D02*
X027253Y015709D01*
X027254Y015551D02*
X027413Y015551D01*
X027413Y015392D02*
X027254Y015392D01*
X027254Y015234D02*
X027413Y015234D01*
X027413Y015075D02*
X027254Y015075D01*
X027254Y014916D02*
X027413Y014916D01*
X027413Y014758D02*
X027254Y014758D01*
X026942Y014758D02*
X025844Y014758D01*
X025844Y014916D02*
X026693Y014916D01*
X026548Y015075D02*
X025844Y015075D01*
X025844Y015234D02*
X026456Y015234D01*
X026397Y015392D02*
X025844Y015392D01*
X025844Y015551D02*
X026368Y015551D01*
X026453Y016660D02*
X028873Y016660D01*
X028992Y016819D02*
X026453Y016819D01*
X026453Y016977D02*
X029150Y016977D01*
X031344Y018246D02*
X031500Y018246D01*
X031382Y018404D02*
X031344Y018404D01*
X032794Y017453D02*
X032854Y017453D01*
X032854Y017295D02*
X032794Y017295D01*
X032854Y016819D02*
X031605Y016819D01*
X031763Y016660D02*
X032854Y016660D01*
X032854Y016502D02*
X031794Y016502D01*
X031794Y016343D02*
X032854Y016343D01*
X032854Y016185D02*
X031729Y016185D01*
X031574Y015392D02*
X032854Y015392D01*
X032854Y015234D02*
X031733Y015234D01*
X031824Y015075D02*
X032854Y015075D01*
X032854Y014916D02*
X031824Y014916D01*
X031824Y014758D02*
X032854Y014758D01*
X032854Y014599D02*
X031686Y014599D01*
X031456Y014441D02*
X032854Y014441D01*
X032854Y014282D02*
X031712Y014282D01*
X031809Y014124D02*
X032854Y014124D01*
X032854Y013965D02*
X031844Y013965D01*
X031830Y013807D02*
X032854Y013807D01*
X032854Y013648D02*
X031763Y013648D01*
X031579Y013490D02*
X032705Y013490D01*
X031334Y014599D02*
X031333Y014599D01*
X031333Y014758D02*
X031334Y014758D01*
X031333Y014916D02*
X031334Y014916D01*
X031333Y015075D02*
X031334Y015075D01*
X031333Y015234D02*
X031334Y015234D01*
X031333Y015392D02*
X031334Y015392D01*
X026904Y017136D02*
X026513Y017136D01*
X026672Y017295D02*
X026675Y017295D01*
X021384Y018721D02*
X021283Y018721D01*
X021283Y018880D02*
X021384Y018880D01*
X021384Y019039D02*
X021283Y019039D01*
X020887Y018880D02*
X019780Y018880D01*
X019904Y019039D02*
X020764Y019039D01*
X020764Y019356D02*
X019904Y019356D01*
X019865Y019514D02*
X020802Y019514D01*
X020961Y019673D02*
X019707Y019673D01*
X019384Y019039D02*
X019283Y019039D01*
X019283Y018880D02*
X019384Y018880D01*
X019384Y018721D02*
X019283Y018721D01*
X019621Y018721D02*
X021046Y018721D01*
X019924Y016026D02*
X012743Y016026D01*
X014621Y014758D02*
X015009Y014758D01*
X014780Y014599D02*
X017887Y014599D01*
X017764Y014441D02*
X014904Y014441D01*
X014904Y014282D02*
X017764Y014282D01*
X017764Y014124D02*
X014904Y014124D01*
X014865Y013965D02*
X017802Y013965D01*
X017961Y013807D02*
X014707Y013807D01*
X015658Y014758D02*
X017009Y014758D01*
X016851Y014916D02*
X015816Y014916D01*
X015904Y015075D02*
X016764Y015075D01*
X016764Y015234D02*
X015904Y015234D01*
X015904Y015392D02*
X016764Y015392D01*
X016838Y015551D02*
X015829Y015551D01*
X015670Y015709D02*
X016997Y015709D01*
X017904Y015075D02*
X019764Y015075D01*
X019764Y014916D02*
X017816Y014916D01*
X017658Y014758D02*
X018046Y014758D01*
X018621Y014758D02*
X019771Y014758D01*
X019821Y014599D02*
X018780Y014599D01*
X018904Y014441D02*
X019936Y014441D01*
X024891Y013648D02*
X007995Y013648D01*
X008093Y013490D02*
X025061Y013490D01*
X031170Y012221D02*
X032422Y012221D01*
X032344Y012063D02*
X031328Y012063D01*
X031487Y011904D02*
X032344Y011904D01*
X032344Y011746D02*
X031645Y011746D01*
X031074Y007782D02*
X030750Y007782D01*
X030919Y007623D02*
X031074Y007623D01*
X031074Y007465D02*
X030964Y007465D01*
X033174Y007143D02*
X033174Y006737D01*
X033300Y006864D01*
X033484Y006940D01*
X033683Y006940D01*
X033484Y006940D01*
X033300Y007016D01*
X033174Y007143D01*
X033174Y006989D02*
X033364Y006989D01*
X033268Y006831D02*
X033174Y006831D01*
X024468Y001282D02*
X024199Y001282D01*
X024299Y001123D02*
X024368Y001123D01*
X024334Y000965D02*
X024334Y000965D01*
X024319Y000806D02*
X024348Y000806D01*
X024419Y000648D02*
X024248Y000648D01*
X024052Y000489D02*
X024615Y000489D01*
X023615Y000489D02*
X023052Y000489D01*
X023248Y000648D02*
X023419Y000648D01*
X023348Y000806D02*
X023319Y000806D01*
X023334Y000965D02*
X023334Y000965D01*
X023299Y001123D02*
X023368Y001123D01*
X023468Y001282D02*
X023199Y001282D01*
X022468Y001282D02*
X022334Y001282D01*
X022334Y001334D02*
X022228Y001440D01*
X021439Y001440D01*
X021334Y001334D01*
X021334Y000545D01*
X021439Y000440D01*
X022228Y000440D01*
X022334Y000545D01*
X022334Y001334D01*
X022334Y001123D02*
X022368Y001123D01*
X022334Y000965D02*
X022334Y000965D01*
X022334Y000806D02*
X022348Y000806D01*
X022334Y000648D02*
X022419Y000648D01*
X022277Y000489D02*
X022615Y000489D01*
X021390Y000489D02*
X021050Y000489D01*
X021025Y000476D02*
X021096Y000512D01*
X021159Y000558D01*
X021215Y000614D01*
X021261Y000678D01*
X021297Y000748D01*
X021321Y000823D01*
X021334Y000900D01*
X021334Y000920D01*
X020854Y000920D01*
X020854Y000960D01*
X021334Y000960D01*
X021334Y000979D01*
X021321Y001057D01*
X021297Y001132D01*
X021261Y001202D01*
X021215Y001265D01*
X021159Y001321D01*
X021096Y001367D01*
X021025Y001403D01*
X020951Y001427D01*
X020873Y001440D01*
X020854Y001440D01*
X020854Y000960D01*
X020813Y000960D01*
X020813Y000920D01*
X020334Y000920D01*
X020334Y000900D01*
X020346Y000823D01*
X020370Y000748D01*
X020406Y000678D01*
X020452Y000614D01*
X020508Y000558D01*
X020571Y000512D01*
X020642Y000476D01*
X020716Y000452D01*
X020794Y000440D01*
X020813Y000440D01*
X020813Y000919D01*
X020854Y000919D01*
X020854Y000440D01*
X020873Y000440D01*
X020951Y000452D01*
X021025Y000476D01*
X020854Y000489D02*
X020813Y000489D01*
X020813Y000648D02*
X020854Y000648D01*
X020854Y000806D02*
X020813Y000806D01*
X020813Y000960D02*
X020334Y000960D01*
X020334Y000979D01*
X020346Y001057D01*
X020370Y001132D01*
X020406Y001202D01*
X020452Y001265D01*
X020508Y001321D01*
X020571Y001367D01*
X020642Y001403D01*
X020716Y001427D01*
X020794Y001440D01*
X020813Y001440D01*
X020813Y000960D01*
X020813Y000965D02*
X020854Y000965D01*
X020854Y001123D02*
X020813Y001123D01*
X020813Y001282D02*
X020854Y001282D01*
X021199Y001282D02*
X021334Y001282D01*
X021334Y001123D02*
X021300Y001123D01*
X021334Y000965D02*
X021334Y000965D01*
X021334Y000806D02*
X021316Y000806D01*
X021334Y000648D02*
X021239Y000648D01*
X020617Y000489D02*
X020052Y000489D01*
X020248Y000648D02*
X020428Y000648D01*
X020351Y000806D02*
X020319Y000806D01*
X020334Y000965D02*
X020334Y000965D01*
X020299Y001123D02*
X020367Y001123D01*
X020468Y001282D02*
X020199Y001282D01*
X019468Y001282D02*
X019199Y001282D01*
X019299Y001123D02*
X019368Y001123D01*
X019334Y000965D02*
X019334Y000965D01*
X019319Y000806D02*
X019348Y000806D01*
X019419Y000648D02*
X019248Y000648D01*
X019052Y000489D02*
X019615Y000489D01*
X009759Y004611D02*
X009283Y004611D01*
X010679Y011111D02*
X011113Y011111D01*
X010897Y011270D02*
X010895Y011270D01*
X010494Y011904D02*
X010226Y011904D01*
X010291Y012063D02*
X010494Y012063D01*
X010426Y012221D02*
X010294Y012221D01*
X010294Y012380D02*
X010374Y012380D01*
X010374Y012538D02*
X010294Y012538D01*
X010294Y012697D02*
X010374Y012697D01*
X010374Y012855D02*
X010275Y012855D01*
X010190Y013014D02*
X010374Y013014D01*
X010407Y013172D02*
X009942Y013172D01*
X009725Y013172D02*
X008145Y013172D01*
X008145Y013331D02*
X010514Y013331D01*
X009961Y013807D02*
X007781Y013807D01*
X008103Y013014D02*
X009477Y013014D01*
X009392Y012855D02*
X008019Y012855D01*
X007840Y012697D02*
X009374Y012697D01*
X002534Y014916D02*
X002392Y014916D01*
X002534Y015075D02*
X002234Y015075D01*
X002075Y015234D02*
X002534Y015234D01*
X002534Y015392D02*
X001916Y015392D01*
X001758Y015551D02*
X002534Y015551D01*
X002534Y015709D02*
X001767Y015709D01*
X001766Y015868D02*
X002534Y015868D01*
X002534Y016026D02*
X001700Y016026D01*
X001580Y016185D02*
X002534Y016185D01*
X002506Y016343D02*
X001315Y016343D01*
D26*
X025334Y016677D02*
X025334Y013940D01*
X029334Y013940D02*
X029334Y016440D01*
X030334Y017440D01*
X030834Y017940D01*
X030834Y018940D01*
X027334Y018008D02*
X026664Y018008D01*
X025483Y016827D01*
X025334Y016677D01*
X029334Y013940D02*
X031334Y013940D01*
D27*
X032834Y012940D02*
X033334Y013440D01*
X033334Y016440D01*
X033334Y017690D01*
X032834Y018190D01*
X032834Y018940D01*
X029834Y010440D02*
X029834Y008940D01*
X029459Y008565D01*
X023709Y008565D01*
X023084Y007940D01*
X021834Y007940D01*
X021334Y007440D01*
X021334Y006440D01*
X021834Y005940D01*
X021834Y004190D01*
X020334Y002690D01*
X017084Y002690D01*
X016584Y002190D01*
X017084Y002690D02*
X016584Y003190D01*
D28*
X014584Y001815D02*
X003709Y001815D01*
X003334Y001440D01*
X003334Y000940D01*
X008584Y008690D02*
X008834Y008940D01*
X008834Y011190D01*
X009084Y011440D01*
X010584Y011440D01*
X010834Y011690D01*
X010834Y011815D01*
X010834Y012440D01*
X010834Y011815D02*
X011209Y011440D01*
X013334Y011440D01*
X013584Y011690D01*
X020834Y007940D02*
X021334Y007440D01*
X021334Y006440D02*
X020834Y006440D01*
X020584Y006190D01*
X021834Y005940D02*
X022334Y005940D01*
X022584Y005690D01*
X032834Y005690D02*
X033084Y005440D01*
X033584Y005440D01*
X032834Y005690D02*
X032834Y010940D01*
X033459Y011565D01*
X033459Y012315D01*
X032834Y012940D01*
D29*
X002834Y009440D02*
X002834Y016440D01*
X001145Y018129D01*
X001145Y018240D01*
X001145Y015740D02*
X002334Y014551D01*
X002334Y010440D01*
X001834Y009940D01*
X001334Y009940D01*
X001334Y008940D02*
X002334Y008940D01*
X002834Y009440D01*
X000959Y007940D02*
X000709Y008190D01*
X000709Y012804D01*
X001145Y013240D01*
X000959Y007940D02*
X001334Y007940D01*
M02*
