%
M48
M72
T01C0.0200
T02C0.0320
T03C0.0360
T04C0.0400
T05C0.0440
T06C0.0520
T07C0.0591
T08C0.1180
%
T01
X6584Y3690
X8584Y5315
X9084Y4940
X9959Y4940
X10334Y5315
X10709Y5690
X11084Y6690
X8084Y5690
X3834Y4440
X2584Y5440
X4084Y7940
X8584Y8690
X13584Y11690
X17334Y10940
X18334Y11190
X19209Y11690
X20584Y10940
X19959Y10315
X20084Y9690
X21084Y8440
X22084Y8815
X23084Y7940
X23584Y7440
X22584Y6815
X22584Y5690
X21084Y5690
X20584Y6190
X20209Y6940
X20834Y7940
X23209Y9815
X22834Y10190
X22084Y10190
X24334Y9940
X23209Y11940
X20459Y12940
X17334Y9440
X17834Y4815
X19834Y4690
X14584Y1815
X26084Y7440
X27584Y7440
X28584Y7440
X29084Y7440
X29584Y7440
X30584Y7440
X31709Y6690
X31334Y6190
X29584Y3440
X28584Y3440
X27584Y3440
X26334Y3690
X29209Y9440
T02
X32834Y11940
X32834Y12940
X31334Y13940
X31334Y14940
X31334Y16440
X32334Y17440
X33334Y16440
X30334Y17440
X12834Y12440
X11834Y12440
X10834Y12440
X9834Y12440
X9834Y9440
X10834Y9440
X11834Y9440
X12834Y9440
T03
X15584Y8190
X16584Y8190
X16584Y7190
X15584Y7190
X15584Y6190
X16584Y6190
X16584Y5190
X15584Y5190
X15584Y4190
X16584Y4190
X16584Y3190
X15584Y3190
X15584Y2190
X16584Y2190
T04
X2334Y940
X3334Y940
X4334Y940
X5334Y940
X6334Y940
X7334Y940
X8334Y940
X9334Y940
X10334Y940
X11334Y940
X12334Y940
X13334Y940
X18834Y940
X19834Y940
X20834Y940
X21834Y940
X22834Y940
X23834Y940
X24834Y940
X25834Y940
X26834Y940
X27834Y940
X28834Y940
X29834Y940
X30834Y940
X31834Y940
X33584Y3440
X33584Y4440
X33584Y5440
X33584Y6440
X33584Y7440
X33584Y8440
X29834Y10440
X28834Y10440
X27834Y10440
X27834Y11440
X28834Y11440
X29834Y11440
X30834Y18940
X31834Y18940
X32834Y18940
X1334Y9940
X1334Y8940
X1334Y7940
T05
X25334Y13940
X29334Y13940
T06
X23334Y15240
X22334Y14240
X20334Y15240
X18334Y14240
X17334Y15240
X15334Y15240
X14334Y14240
X12334Y15240
X10334Y14240
X9334Y15240
X11334Y19240
X13334Y19240
X19334Y19240
X21334Y19240
T07
X7523Y18240
X7523Y15740
X7523Y13240
X1145Y13240
X1145Y15740
X1145Y18240
T08
X25483Y16827
X27334Y15646
X27334Y18008
M30
