G75*
G70*
%OFA0B0*%
%FSLAX24Y24*%
%IPPOS*%
%LPD*%
%AMOC8*
5,1,8,0,0,1.08239X$1,22.5*
%
%ADD10C,0.0040*%
%ADD11C,0.0100*%
%ADD12C,0.0080*%
%ADD13C,0.0060*%
%ADD14C,0.0050*%
%ADD15R,0.4200X0.0300*%
%ADD16R,0.0750X0.0200*%
%ADD17R,0.0300X0.0200*%
%ADD18R,0.0200X0.1000*%
%ADD19R,0.0750X0.0300*%
%ADD20C,0.0120*%
%ADD21R,0.0800X0.0200*%
%ADD22R,0.0200X0.0250*%
%ADD23R,0.1900X0.0400*%
%ADD24C,0.0020*%
D10*
X021658Y003428D02*
X021752Y003521D01*
X021939Y003521D01*
X021798Y003521D02*
X021798Y003335D01*
X021752Y003335D02*
X021658Y003428D01*
X021752Y003335D02*
X021939Y003335D01*
X022658Y003335D02*
X022658Y003475D01*
X022705Y003521D01*
X022752Y003521D01*
X022798Y003475D01*
X022798Y003335D01*
X022658Y003335D02*
X022939Y003335D01*
X022939Y003475D01*
X022892Y003521D01*
X022845Y003521D01*
X022798Y003475D01*
X023658Y003475D02*
X023658Y003381D01*
X023705Y003335D01*
X023892Y003335D01*
X023939Y003381D01*
X023939Y003475D01*
X023892Y003521D01*
X023705Y003521D02*
X023658Y003475D01*
X024658Y003475D02*
X024658Y003335D01*
X024939Y003335D01*
X024939Y003475D01*
X024892Y003521D01*
X024705Y003521D01*
X024658Y003475D01*
X025658Y003428D02*
X025752Y003521D01*
X025939Y003521D01*
X025798Y003521D02*
X025798Y003335D01*
X025752Y003335D02*
X025658Y003428D01*
X025752Y003335D02*
X025939Y003335D01*
X026658Y003335D02*
X026658Y003475D01*
X026705Y003521D01*
X026752Y003521D01*
X026798Y003475D01*
X026798Y003335D01*
X026658Y003335D02*
X026939Y003335D01*
X026939Y003475D01*
X026892Y003521D01*
X026845Y003521D01*
X026798Y003475D01*
X027846Y003475D02*
X027846Y003381D01*
X027893Y003335D01*
X028079Y003335D01*
X028126Y003381D01*
X028126Y003475D01*
X028079Y003521D01*
X027893Y003521D02*
X027846Y003475D01*
X028846Y003475D02*
X028846Y003335D01*
X029126Y003335D01*
X029126Y003475D01*
X029079Y003521D01*
X028893Y003521D01*
X028846Y003475D01*
X030002Y003483D02*
X030095Y003389D01*
X030189Y003483D01*
X030746Y003389D02*
X030840Y003482D01*
X030933Y003389D01*
D11*
X000633Y000940D02*
X000635Y000982D01*
X000641Y001024D01*
X000651Y001065D01*
X000664Y001105D01*
X000682Y001144D01*
X000703Y001181D01*
X000727Y001215D01*
X000754Y001247D01*
X000784Y001277D01*
X000817Y001304D01*
X000852Y001327D01*
X000890Y001347D01*
X000929Y001363D01*
X000969Y001376D01*
X001010Y001385D01*
X001052Y001390D01*
X001095Y001391D01*
X001137Y001388D01*
X001178Y001381D01*
X001219Y001370D01*
X001259Y001356D01*
X001297Y001337D01*
X001333Y001316D01*
X001368Y001291D01*
X001399Y001263D01*
X001428Y001232D01*
X001454Y001198D01*
X001476Y001162D01*
X001495Y001125D01*
X001511Y001085D01*
X001523Y001045D01*
X001531Y001003D01*
X001535Y000961D01*
X001535Y000919D01*
X001531Y000877D01*
X001523Y000835D01*
X001511Y000795D01*
X001495Y000755D01*
X001476Y000718D01*
X001454Y000682D01*
X001428Y000648D01*
X001399Y000617D01*
X001368Y000589D01*
X001333Y000564D01*
X001297Y000543D01*
X001259Y000524D01*
X001219Y000510D01*
X001178Y000499D01*
X001137Y000492D01*
X001095Y000489D01*
X001052Y000490D01*
X001010Y000495D01*
X000969Y000504D01*
X000929Y000517D01*
X000890Y000533D01*
X000852Y000553D01*
X000817Y000576D01*
X000784Y000603D01*
X000754Y000633D01*
X000727Y000665D01*
X000703Y000699D01*
X000682Y000736D01*
X000664Y000775D01*
X000651Y000815D01*
X000641Y000856D01*
X000635Y000898D01*
X000633Y000940D01*
X001013Y004001D02*
X001249Y004001D01*
X001013Y004001D02*
X001013Y004847D01*
X002154Y004847D02*
X002154Y004001D01*
X001918Y004001D01*
X023950Y006940D02*
X023952Y006960D01*
X023957Y006980D01*
X023967Y006998D01*
X023979Y007015D01*
X023994Y007029D01*
X024012Y007039D01*
X024031Y007047D01*
X024051Y007051D01*
X024071Y007051D01*
X024091Y007047D01*
X024110Y007039D01*
X024128Y007029D01*
X024143Y007015D01*
X024155Y006998D01*
X024165Y006980D01*
X024170Y006960D01*
X024172Y006940D01*
X024170Y006920D01*
X024165Y006900D01*
X024155Y006882D01*
X024143Y006865D01*
X024128Y006851D01*
X024110Y006841D01*
X024091Y006833D01*
X024071Y006829D01*
X024051Y006829D01*
X024031Y006833D01*
X024012Y006841D01*
X023994Y006851D01*
X023979Y006865D01*
X023967Y006882D01*
X023957Y006900D01*
X023952Y006920D01*
X023950Y006940D01*
X033133Y017690D02*
X033135Y017732D01*
X033141Y017774D01*
X033151Y017815D01*
X033164Y017855D01*
X033182Y017894D01*
X033203Y017931D01*
X033227Y017965D01*
X033254Y017997D01*
X033284Y018027D01*
X033317Y018054D01*
X033352Y018077D01*
X033390Y018097D01*
X033429Y018113D01*
X033469Y018126D01*
X033510Y018135D01*
X033552Y018140D01*
X033595Y018141D01*
X033637Y018138D01*
X033678Y018131D01*
X033719Y018120D01*
X033759Y018106D01*
X033797Y018087D01*
X033833Y018066D01*
X033868Y018041D01*
X033899Y018013D01*
X033928Y017982D01*
X033954Y017948D01*
X033976Y017912D01*
X033995Y017875D01*
X034011Y017835D01*
X034023Y017795D01*
X034031Y017753D01*
X034035Y017711D01*
X034035Y017669D01*
X034031Y017627D01*
X034023Y017585D01*
X034011Y017545D01*
X033995Y017505D01*
X033976Y017468D01*
X033954Y017432D01*
X033928Y017398D01*
X033899Y017367D01*
X033868Y017339D01*
X033833Y017314D01*
X033797Y017293D01*
X033759Y017274D01*
X033719Y017260D01*
X033678Y017249D01*
X033637Y017242D01*
X033595Y017239D01*
X033552Y017240D01*
X033510Y017245D01*
X033469Y017254D01*
X033429Y017267D01*
X033390Y017283D01*
X033352Y017303D01*
X033317Y017326D01*
X033284Y017353D01*
X033254Y017383D01*
X033227Y017415D01*
X033203Y017449D01*
X033182Y017486D01*
X033164Y017525D01*
X033151Y017565D01*
X033141Y017606D01*
X033135Y017648D01*
X033133Y017690D01*
X001883Y019190D02*
X001885Y019232D01*
X001891Y019274D01*
X001901Y019315D01*
X001914Y019355D01*
X001932Y019394D01*
X001953Y019431D01*
X001977Y019465D01*
X002004Y019497D01*
X002034Y019527D01*
X002067Y019554D01*
X002102Y019577D01*
X002140Y019597D01*
X002179Y019613D01*
X002219Y019626D01*
X002260Y019635D01*
X002302Y019640D01*
X002345Y019641D01*
X002387Y019638D01*
X002428Y019631D01*
X002469Y019620D01*
X002509Y019606D01*
X002547Y019587D01*
X002583Y019566D01*
X002618Y019541D01*
X002649Y019513D01*
X002678Y019482D01*
X002704Y019448D01*
X002726Y019412D01*
X002745Y019375D01*
X002761Y019335D01*
X002773Y019295D01*
X002781Y019253D01*
X002785Y019211D01*
X002785Y019169D01*
X002781Y019127D01*
X002773Y019085D01*
X002761Y019045D01*
X002745Y019005D01*
X002726Y018968D01*
X002704Y018932D01*
X002678Y018898D01*
X002649Y018867D01*
X002618Y018839D01*
X002583Y018814D01*
X002547Y018793D01*
X002509Y018774D01*
X002469Y018760D01*
X002428Y018749D01*
X002387Y018742D01*
X002345Y018739D01*
X002302Y018740D01*
X002260Y018745D01*
X002219Y018754D01*
X002179Y018767D01*
X002140Y018783D01*
X002102Y018803D01*
X002067Y018826D01*
X002034Y018853D01*
X002004Y018883D01*
X001977Y018915D01*
X001953Y018949D01*
X001932Y018986D01*
X001914Y019025D01*
X001901Y019065D01*
X001891Y019106D01*
X001885Y019148D01*
X001883Y019190D01*
D12*
X020849Y012058D02*
X020849Y011822D01*
X021597Y011310D02*
X022070Y011310D01*
X022818Y011822D02*
X022818Y012058D01*
X022070Y012570D02*
X021597Y012570D01*
X021722Y009501D02*
X021945Y009501D01*
X024395Y007051D01*
X024395Y006828D01*
X021945Y004379D01*
X021722Y004379D01*
X019272Y006828D01*
X019272Y007051D01*
X021722Y009501D01*
X027334Y010190D02*
X027584Y009940D01*
X028084Y009940D01*
X028334Y010190D01*
X028334Y011690D01*
X028084Y011940D01*
X027584Y011940D01*
X027334Y011690D01*
X027334Y010190D01*
X028334Y010190D02*
X028584Y009940D01*
X029084Y009940D01*
X029334Y010190D01*
X029334Y011690D01*
X029084Y011940D01*
X028584Y011940D01*
X028334Y011690D01*
X029334Y011690D02*
X029584Y011940D01*
X030084Y011940D01*
X030334Y011690D01*
X030334Y010190D01*
X030084Y009940D01*
X029584Y009940D01*
X029334Y010190D01*
X029584Y012072D02*
X030084Y012072D01*
X033334Y008940D02*
X033834Y008940D01*
X034084Y008690D01*
X034084Y008190D01*
X033834Y007940D01*
X034084Y007690D01*
X034084Y007190D01*
X033834Y006940D01*
X034084Y006690D01*
X034084Y006190D01*
X033834Y005940D01*
X034084Y005690D01*
X034084Y005190D01*
X033834Y004940D01*
X034084Y004690D01*
X034084Y004190D01*
X033834Y003940D01*
X034084Y003690D01*
X034084Y003190D01*
X033834Y002940D01*
X033334Y002940D01*
X033084Y003190D01*
X033084Y003690D01*
X033334Y003940D01*
X033084Y004190D01*
X033084Y004690D01*
X033334Y004940D01*
X033084Y005190D01*
X033084Y005690D01*
X033334Y005940D01*
X033084Y006190D01*
X033084Y006690D01*
X033334Y006940D01*
X033084Y007190D01*
X033084Y007690D01*
X033334Y007940D01*
X033084Y008190D01*
X033084Y008690D01*
X033334Y008940D01*
X031334Y003690D02*
X031334Y000690D01*
X031584Y000440D01*
X032084Y000440D01*
X032334Y000690D01*
X032334Y001190D01*
X032084Y001440D01*
X031584Y001440D01*
X031334Y001190D01*
X031084Y001440D01*
X030584Y001440D01*
X030334Y001190D01*
X030084Y001440D01*
X029584Y001440D01*
X029334Y001190D01*
X029084Y001440D01*
X028584Y001440D01*
X028334Y001190D01*
X028084Y001440D01*
X027584Y001440D01*
X027334Y001190D01*
X027084Y001440D01*
X026584Y001440D01*
X026334Y001190D01*
X026084Y001440D01*
X025584Y001440D01*
X025334Y001190D01*
X025334Y000690D01*
X025084Y000440D01*
X024584Y000440D01*
X024334Y000690D01*
X024084Y000440D01*
X023584Y000440D01*
X023334Y000690D01*
X023084Y000440D01*
X022584Y000440D01*
X022334Y000690D01*
X022084Y000440D01*
X021584Y000440D01*
X021334Y000690D01*
X021334Y001190D01*
X021584Y001440D01*
X022084Y001440D01*
X022334Y001190D01*
X022584Y001440D01*
X023084Y001440D01*
X023334Y001190D01*
X023584Y001440D01*
X024084Y001440D01*
X024334Y001190D01*
X024584Y001440D01*
X025084Y001440D01*
X025334Y001190D01*
X025334Y000690D01*
X025584Y000440D01*
X026084Y000440D01*
X026334Y000690D01*
X026584Y000440D01*
X027084Y000440D01*
X027334Y000690D01*
X027584Y000440D01*
X028084Y000440D01*
X028334Y000690D01*
X028584Y000440D01*
X029084Y000440D01*
X029334Y000690D01*
X029584Y000440D01*
X030084Y000440D01*
X030334Y000690D01*
X030584Y000440D01*
X031084Y000440D01*
X031334Y000690D01*
X025334Y001190D02*
X025334Y003690D01*
X021334Y003690D02*
X021334Y001190D01*
X021084Y001440D01*
X020584Y001440D01*
X020334Y001190D01*
X020084Y001440D01*
X019584Y001440D01*
X019334Y001190D01*
X019084Y001440D01*
X018584Y001440D01*
X018334Y001190D01*
X018334Y000690D01*
X018584Y000440D01*
X019084Y000440D01*
X019334Y000690D01*
X019584Y000440D01*
X020084Y000440D01*
X020334Y000690D01*
X020584Y000440D01*
X021084Y000440D01*
X021334Y000690D01*
X021334Y001190D01*
X013834Y001190D02*
X013834Y000690D01*
X013584Y000440D01*
X013084Y000440D01*
X012834Y000690D01*
X012584Y000440D01*
X012084Y000440D01*
X011834Y000690D01*
X011584Y000440D01*
X011084Y000440D01*
X010834Y000690D01*
X010584Y000440D01*
X010084Y000440D01*
X009834Y000690D01*
X009584Y000440D01*
X009084Y000440D01*
X008834Y000690D01*
X008584Y000440D01*
X008084Y000440D01*
X007834Y000690D01*
X007834Y001190D01*
X007584Y001440D01*
X007084Y001440D01*
X006834Y001190D01*
X006584Y001440D01*
X006084Y001440D01*
X005834Y001190D01*
X005584Y001440D01*
X005084Y001440D01*
X004834Y001190D01*
X004584Y001440D01*
X004084Y001440D01*
X003834Y001190D01*
X003584Y001440D01*
X003084Y001440D01*
X002834Y001190D01*
X002584Y001440D01*
X002084Y001440D01*
X001834Y001190D01*
X001834Y000690D01*
X002084Y000440D01*
X002584Y000440D01*
X002834Y000690D01*
X003084Y000440D01*
X003584Y000440D01*
X003834Y000690D01*
X004084Y000440D01*
X004584Y000440D01*
X004834Y000690D01*
X005084Y000440D01*
X005584Y000440D01*
X005834Y000690D01*
X006084Y000440D01*
X006584Y000440D01*
X006834Y000690D01*
X007084Y000440D01*
X007584Y000440D01*
X007834Y000690D01*
X007834Y001190D01*
X008084Y001440D01*
X008584Y001440D01*
X008834Y001190D01*
X009084Y001440D01*
X009584Y001440D01*
X009834Y001190D01*
X010084Y001440D01*
X010584Y001440D01*
X010834Y001190D01*
X011084Y001440D01*
X011584Y001440D01*
X011834Y001190D01*
X012084Y001440D01*
X012584Y001440D01*
X012834Y001190D01*
X013084Y001440D01*
X013584Y001440D01*
X013834Y001190D01*
X025562Y015646D02*
X025562Y015922D01*
X025562Y015646D02*
X026389Y015646D01*
X028278Y015646D02*
X029105Y015646D01*
X029105Y019859D01*
X025562Y019859D01*
X025562Y017772D01*
D13*
X024184Y018090D02*
X024184Y016240D01*
X023334Y016240D01*
X023334Y018090D01*
X024184Y018090D01*
X023334Y018090D02*
X023334Y019490D01*
X024534Y019490D01*
X024534Y019740D01*
X024084Y019740D01*
X024084Y019940D01*
X024534Y019940D01*
X024534Y020240D01*
X016484Y020240D01*
X016484Y019940D01*
X016134Y019940D01*
X016134Y019740D01*
X016484Y019740D01*
X016484Y019490D01*
X017334Y019490D01*
X023284Y019490D01*
X023334Y016240D02*
X021084Y016240D01*
X021084Y015440D01*
X021584Y015440D01*
X021584Y014690D01*
X022834Y014690D01*
X023134Y014690D01*
X023784Y014690D01*
X024184Y016240D01*
X022834Y016240D02*
X022834Y014690D01*
X023134Y014690D02*
X022784Y013840D01*
X021084Y013840D01*
X020584Y013840D01*
X020084Y013840D01*
X020084Y014440D01*
X019584Y014440D01*
X019584Y014740D01*
X019084Y014740D01*
X019084Y015490D01*
X019584Y015490D01*
X019584Y016240D01*
X021084Y016240D01*
X021084Y015440D02*
X021084Y014690D01*
X021084Y014440D01*
X020584Y014440D01*
X020584Y013840D01*
X020084Y013840D02*
X019584Y013840D01*
X019584Y014440D01*
X019584Y014740D02*
X019584Y015490D01*
X019084Y014740D02*
X017834Y014740D01*
X017834Y016240D01*
X017334Y016240D02*
X017334Y018090D01*
X016484Y018090D01*
X016484Y016240D01*
X017334Y016240D01*
X019584Y016240D01*
X021084Y014690D02*
X021584Y014690D01*
X021084Y014440D02*
X021084Y013840D01*
X019584Y013840D02*
X017934Y013840D01*
X017534Y014740D01*
X017834Y014740D01*
X017534Y014740D02*
X016884Y014740D01*
X016484Y016240D01*
X016184Y016240D02*
X015334Y016240D01*
X015334Y018090D01*
X016184Y018090D01*
X016184Y016240D01*
X015784Y014690D01*
X015134Y014690D01*
X014784Y013840D01*
X013084Y013840D01*
X012584Y013840D01*
X012084Y013840D01*
X012084Y014440D01*
X011584Y014440D01*
X011584Y014740D01*
X011084Y014740D01*
X011084Y015490D01*
X011584Y015490D01*
X011584Y016240D01*
X013084Y016240D01*
X013084Y015440D01*
X013584Y015440D01*
X013584Y014690D01*
X014834Y014690D01*
X015134Y014690D01*
X014834Y014690D02*
X014834Y016240D01*
X015334Y016240D02*
X013084Y016240D01*
X013084Y015440D02*
X013084Y014690D01*
X013084Y014440D01*
X012584Y014440D01*
X012584Y013840D01*
X013084Y013840D02*
X013084Y014440D01*
X013084Y014690D02*
X013584Y014690D01*
X012084Y013840D02*
X011584Y013840D01*
X011584Y014440D01*
X011584Y014740D02*
X011584Y015490D01*
X011084Y014740D02*
X009834Y014740D01*
X009834Y016240D01*
X009334Y016240D02*
X009334Y018090D01*
X008484Y018090D01*
X008484Y016240D01*
X009334Y016240D01*
X011584Y016240D01*
X009834Y014740D02*
X009534Y014740D01*
X008884Y014740D01*
X008484Y016240D01*
X009534Y014740D02*
X009934Y013840D01*
X011584Y013840D01*
X010334Y012090D02*
X010334Y011340D01*
X010084Y011340D02*
X009834Y010940D01*
X010084Y010940D01*
X010334Y010540D02*
X010373Y010542D01*
X010412Y010548D01*
X010450Y010557D01*
X010487Y010570D01*
X010523Y010587D01*
X010556Y010607D01*
X010588Y010631D01*
X010617Y010657D01*
X010643Y010686D01*
X010667Y010718D01*
X010687Y010751D01*
X010704Y010787D01*
X010717Y010824D01*
X010726Y010862D01*
X010732Y010901D01*
X010734Y010940D01*
X010732Y010979D01*
X010726Y011018D01*
X010717Y011056D01*
X010704Y011093D01*
X010687Y011129D01*
X010667Y011162D01*
X010643Y011194D01*
X010617Y011223D01*
X010588Y011249D01*
X010556Y011273D01*
X010523Y011293D01*
X010487Y011310D01*
X010450Y011323D01*
X010412Y011332D01*
X010373Y011338D01*
X010334Y011340D01*
X010084Y011340D02*
X009584Y011340D01*
X009834Y010940D01*
X009584Y010940D01*
X009834Y010940D02*
X009834Y010690D01*
X009834Y010940D02*
X009834Y011540D01*
X010134Y011840D02*
X010151Y011838D01*
X010168Y011834D01*
X010184Y011827D01*
X010198Y011817D01*
X010211Y011804D01*
X010221Y011790D01*
X010228Y011774D01*
X010232Y011757D01*
X010234Y011740D01*
X010234Y010140D01*
X010232Y010123D01*
X010228Y010106D01*
X010221Y010090D01*
X010211Y010076D01*
X010198Y010063D01*
X010184Y010053D01*
X010168Y010046D01*
X010151Y010042D01*
X010134Y010040D01*
X009534Y010040D01*
X009517Y010042D01*
X009500Y010046D01*
X009484Y010053D01*
X009470Y010063D01*
X009457Y010076D01*
X009447Y010090D01*
X009440Y010106D01*
X009436Y010123D01*
X009434Y010140D01*
X009434Y011740D01*
X009436Y011757D01*
X009440Y011774D01*
X009447Y011790D01*
X009457Y011804D01*
X009470Y011817D01*
X009484Y011827D01*
X009500Y011834D01*
X009517Y011838D01*
X009534Y011840D01*
X010134Y011840D01*
X010334Y012090D02*
X013334Y012090D01*
X013334Y009790D01*
X010334Y009790D01*
X010334Y010540D01*
X014334Y010190D02*
X014334Y008490D01*
X014384Y008490D01*
X014384Y007890D01*
X014334Y007890D01*
X014334Y005990D01*
X014734Y005990D01*
X014834Y005990D01*
X014834Y009690D01*
X017334Y009690D01*
X017334Y000690D01*
X014834Y000690D01*
X014834Y002390D01*
X014834Y002990D01*
X014834Y004390D01*
X014734Y004390D01*
X014334Y004390D01*
X014334Y005990D01*
X014834Y005990D02*
X015134Y005990D01*
X015134Y004390D01*
X014834Y004390D01*
X014334Y004390D02*
X014334Y003340D01*
X014534Y003190D01*
X014534Y002990D01*
X014534Y002390D01*
X014734Y002390D01*
X014834Y002390D01*
X014534Y002390D02*
X014534Y002190D01*
X014334Y002040D01*
X014334Y000190D01*
X017834Y000190D01*
X017834Y000690D01*
X017934Y000690D01*
X017934Y001190D01*
X017834Y001190D01*
X017834Y004940D01*
X017934Y004940D01*
X017934Y005440D01*
X017834Y005440D01*
X017834Y009190D01*
X017934Y009190D01*
X017934Y009690D01*
X017834Y009690D01*
X017834Y010190D01*
X014334Y010190D01*
X014534Y002990D02*
X014734Y002990D01*
X014834Y002990D01*
X026834Y004820D02*
X026834Y006060D01*
X026834Y006070D02*
X030334Y006070D01*
X030334Y006060D02*
X030334Y005640D01*
X030334Y005240D01*
X030334Y004820D01*
X030332Y004797D01*
X030327Y004774D01*
X030318Y004752D01*
X030305Y004732D01*
X030290Y004714D01*
X030272Y004699D01*
X030252Y004686D01*
X030230Y004677D01*
X030207Y004672D01*
X030184Y004670D01*
X026984Y004670D01*
X026961Y004672D01*
X026938Y004677D01*
X026916Y004686D01*
X026896Y004699D01*
X026878Y004714D01*
X026863Y004732D01*
X026850Y004752D01*
X026841Y004774D01*
X026836Y004797D01*
X026834Y004820D01*
X026834Y006060D02*
X026836Y006083D01*
X026841Y006106D01*
X026850Y006128D01*
X026863Y006148D01*
X026878Y006166D01*
X026896Y006181D01*
X026916Y006194D01*
X026938Y006203D01*
X026961Y006208D01*
X026984Y006210D01*
X030184Y006210D01*
X030207Y006208D01*
X030230Y006203D01*
X030252Y006194D01*
X030272Y006181D01*
X030290Y006166D01*
X030305Y006148D01*
X030318Y006128D01*
X030327Y006106D01*
X030332Y006083D01*
X030334Y006060D01*
X030334Y005640D02*
X030307Y005638D01*
X030280Y005633D01*
X030254Y005623D01*
X030230Y005611D01*
X030208Y005595D01*
X030188Y005577D01*
X030171Y005555D01*
X030156Y005532D01*
X030146Y005507D01*
X030138Y005481D01*
X030134Y005454D01*
X030134Y005426D01*
X030138Y005399D01*
X030146Y005373D01*
X030156Y005348D01*
X030171Y005325D01*
X030188Y005303D01*
X030208Y005285D01*
X030230Y005269D01*
X030254Y005257D01*
X030280Y005247D01*
X030307Y005242D01*
X030334Y005240D01*
X031734Y012440D02*
X031736Y012506D01*
X031742Y012571D01*
X031752Y012636D01*
X031765Y012701D01*
X031783Y012764D01*
X031804Y012827D01*
X031829Y012887D01*
X031858Y012947D01*
X031890Y013004D01*
X031925Y013060D01*
X031964Y013113D01*
X032006Y013164D01*
X032050Y013212D01*
X032098Y013257D01*
X032148Y013300D01*
X032201Y013339D01*
X032256Y013376D01*
X032313Y013409D01*
X032372Y013438D01*
X032432Y013464D01*
X032494Y013486D01*
X032557Y013505D01*
X032621Y013519D01*
X032686Y013530D01*
X032752Y013537D01*
X032818Y013540D01*
X032883Y013539D01*
X032949Y013534D01*
X033014Y013525D01*
X033079Y013512D01*
X033142Y013496D01*
X033205Y013476D01*
X033266Y013451D01*
X033326Y013424D01*
X033384Y013393D01*
X033440Y013358D01*
X033494Y013320D01*
X033545Y013279D01*
X033594Y013235D01*
X033640Y013188D01*
X033684Y013139D01*
X033724Y013087D01*
X033761Y013032D01*
X033795Y012976D01*
X033825Y012917D01*
X033852Y012857D01*
X033875Y012796D01*
X033894Y012733D01*
X033910Y012669D01*
X033922Y012604D01*
X033930Y012539D01*
X033934Y012473D01*
X033934Y012407D01*
X033930Y012341D01*
X033922Y012276D01*
X033910Y012211D01*
X033894Y012147D01*
X033875Y012084D01*
X033852Y012023D01*
X033825Y011963D01*
X033795Y011904D01*
X033761Y011848D01*
X033724Y011793D01*
X033684Y011741D01*
X033640Y011692D01*
X033594Y011645D01*
X033545Y011601D01*
X033494Y011560D01*
X033440Y011522D01*
X033384Y011487D01*
X033326Y011456D01*
X033266Y011429D01*
X033205Y011404D01*
X033142Y011384D01*
X033079Y011368D01*
X033014Y011355D01*
X032949Y011346D01*
X032883Y011341D01*
X032818Y011340D01*
X032752Y011343D01*
X032686Y011350D01*
X032621Y011361D01*
X032557Y011375D01*
X032494Y011394D01*
X032432Y011416D01*
X032372Y011442D01*
X032313Y011471D01*
X032256Y011504D01*
X032201Y011541D01*
X032148Y011580D01*
X032098Y011623D01*
X032050Y011668D01*
X032006Y011716D01*
X031964Y011767D01*
X031925Y011820D01*
X031890Y011876D01*
X031858Y011933D01*
X031829Y011993D01*
X031804Y012053D01*
X031783Y012116D01*
X031765Y012179D01*
X031752Y012244D01*
X031742Y012309D01*
X031736Y012374D01*
X031734Y012440D01*
X032834Y013290D02*
X032834Y013490D01*
X032734Y013390D02*
X032934Y013390D01*
X031434Y013490D02*
X031234Y013490D01*
X031334Y013590D02*
X031334Y013390D01*
X030234Y014440D02*
X030236Y014506D01*
X030242Y014571D01*
X030252Y014636D01*
X030265Y014701D01*
X030283Y014764D01*
X030304Y014827D01*
X030329Y014887D01*
X030358Y014947D01*
X030390Y015004D01*
X030425Y015060D01*
X030464Y015113D01*
X030506Y015164D01*
X030550Y015212D01*
X030598Y015257D01*
X030648Y015300D01*
X030701Y015339D01*
X030756Y015376D01*
X030813Y015409D01*
X030872Y015438D01*
X030932Y015464D01*
X030994Y015486D01*
X031057Y015505D01*
X031121Y015519D01*
X031186Y015530D01*
X031252Y015537D01*
X031318Y015540D01*
X031383Y015539D01*
X031449Y015534D01*
X031514Y015525D01*
X031579Y015512D01*
X031642Y015496D01*
X031705Y015476D01*
X031766Y015451D01*
X031826Y015424D01*
X031884Y015393D01*
X031940Y015358D01*
X031994Y015320D01*
X032045Y015279D01*
X032094Y015235D01*
X032140Y015188D01*
X032184Y015139D01*
X032224Y015087D01*
X032261Y015032D01*
X032295Y014976D01*
X032325Y014917D01*
X032352Y014857D01*
X032375Y014796D01*
X032394Y014733D01*
X032410Y014669D01*
X032422Y014604D01*
X032430Y014539D01*
X032434Y014473D01*
X032434Y014407D01*
X032430Y014341D01*
X032422Y014276D01*
X032410Y014211D01*
X032394Y014147D01*
X032375Y014084D01*
X032352Y014023D01*
X032325Y013963D01*
X032295Y013904D01*
X032261Y013848D01*
X032224Y013793D01*
X032184Y013741D01*
X032140Y013692D01*
X032094Y013645D01*
X032045Y013601D01*
X031994Y013560D01*
X031940Y013522D01*
X031884Y013487D01*
X031826Y013456D01*
X031766Y013429D01*
X031705Y013404D01*
X031642Y013384D01*
X031579Y013368D01*
X031514Y013355D01*
X031449Y013346D01*
X031383Y013341D01*
X031318Y013340D01*
X031252Y013343D01*
X031186Y013350D01*
X031121Y013361D01*
X031057Y013375D01*
X030994Y013394D01*
X030932Y013416D01*
X030872Y013442D01*
X030813Y013471D01*
X030756Y013504D01*
X030701Y013541D01*
X030648Y013580D01*
X030598Y013623D01*
X030550Y013668D01*
X030506Y013716D01*
X030464Y013767D01*
X030425Y013820D01*
X030390Y013876D01*
X030358Y013933D01*
X030329Y013993D01*
X030304Y014053D01*
X030283Y014116D01*
X030265Y014179D01*
X030252Y014244D01*
X030242Y014309D01*
X030236Y014374D01*
X030234Y014440D01*
X030984Y015940D02*
X033684Y015940D01*
X033701Y015942D01*
X033718Y015946D01*
X033734Y015953D01*
X033748Y015963D01*
X033761Y015976D01*
X033771Y015990D01*
X033778Y016006D01*
X033782Y016023D01*
X033784Y016040D01*
X033784Y016840D01*
X033782Y016857D01*
X033778Y016874D01*
X033771Y016890D01*
X033761Y016904D01*
X033748Y016917D01*
X033734Y016927D01*
X033718Y016934D01*
X033701Y016938D01*
X033684Y016940D01*
X030984Y016940D01*
X030967Y016938D01*
X030950Y016934D01*
X030934Y016927D01*
X030920Y016917D01*
X030907Y016904D01*
X030897Y016890D01*
X030890Y016874D01*
X030886Y016857D01*
X030884Y016840D01*
X030884Y016040D01*
X030886Y016023D01*
X030890Y016006D01*
X030897Y015990D01*
X030907Y015976D01*
X030920Y015963D01*
X030934Y015953D01*
X030950Y015946D01*
X030967Y015942D01*
X030984Y015940D01*
X031734Y016440D02*
X032204Y016440D01*
X032454Y016440D02*
X032934Y016440D01*
X032684Y016940D02*
X029984Y016940D01*
X029967Y016942D01*
X029950Y016946D01*
X029934Y016953D01*
X029920Y016963D01*
X029907Y016976D01*
X029897Y016990D01*
X029890Y017006D01*
X029886Y017023D01*
X029884Y017040D01*
X029884Y017840D01*
X029886Y017857D01*
X029890Y017874D01*
X029897Y017890D01*
X029907Y017904D01*
X029920Y017917D01*
X029934Y017927D01*
X029950Y017934D01*
X029967Y017938D01*
X029984Y017940D01*
X032684Y017940D01*
X032701Y017938D01*
X032718Y017934D01*
X032734Y017927D01*
X032748Y017917D01*
X032761Y017904D01*
X032771Y017890D01*
X032778Y017874D01*
X032782Y017857D01*
X032784Y017840D01*
X032784Y017040D01*
X032782Y017023D01*
X032778Y017006D01*
X032771Y016990D01*
X032761Y016976D01*
X032748Y016963D01*
X032734Y016953D01*
X032718Y016946D01*
X032701Y016942D01*
X032684Y016940D01*
X031934Y017440D02*
X031464Y017440D01*
X031214Y017440D02*
X030734Y017440D01*
X028134Y014440D02*
X026534Y014440D01*
X026534Y013440D01*
X028134Y013440D01*
X028134Y014440D01*
X027334Y014190D02*
X027334Y013940D01*
X027334Y013690D01*
X027334Y013940D02*
X026934Y013690D01*
X026934Y014190D01*
X027334Y013940D01*
X026734Y013940D01*
X027334Y013940D02*
X027584Y013940D01*
X017334Y018090D02*
X017334Y019490D01*
X016534Y019490D02*
X015334Y019490D01*
X015334Y018090D01*
X015284Y019490D02*
X009334Y019490D01*
X008484Y019490D01*
X008484Y019740D01*
X008134Y019740D01*
X008134Y019940D01*
X008484Y019940D01*
X008484Y020240D01*
X016534Y020240D01*
X016534Y019940D01*
X016084Y019940D01*
X016084Y019740D01*
X016534Y019740D01*
X016534Y019490D01*
X009334Y019490D02*
X009334Y018090D01*
D14*
X007916Y019952D02*
X007916Y011685D01*
X005908Y011685D01*
X005908Y010503D01*
X002759Y010503D01*
X002759Y011685D01*
X000751Y011685D01*
X000751Y019952D01*
X007916Y019952D01*
X005908Y011685D02*
X002759Y011685D01*
X002334Y010440D02*
X002334Y009940D01*
X001834Y009940D01*
X001834Y007940D01*
X002334Y007940D01*
X002334Y007440D01*
X000134Y007440D01*
X000134Y010440D01*
X002334Y010440D01*
X002334Y009940D02*
X002334Y007940D01*
X014508Y005379D02*
X014733Y005154D01*
X014733Y005455D01*
X014508Y005379D02*
X014959Y005379D01*
X014959Y004994D02*
X014959Y004694D01*
X014959Y004844D02*
X014508Y004844D01*
X014658Y004694D01*
X015508Y008754D02*
X015358Y008904D01*
X015809Y008904D01*
X015809Y008754D02*
X015809Y009055D01*
X016358Y008979D02*
X016358Y008829D01*
X016433Y008754D01*
X016358Y008979D02*
X016433Y009055D01*
X016508Y009055D01*
X016809Y008754D01*
X016809Y009055D01*
X029884Y018340D02*
X029984Y018240D01*
X033684Y018240D01*
X033784Y018340D01*
X033834Y019490D01*
X029964Y018480D02*
X029966Y018500D01*
X029972Y018518D01*
X029981Y018536D01*
X029993Y018551D01*
X030008Y018563D01*
X030026Y018572D01*
X030044Y018578D01*
X030064Y018580D01*
X030084Y018578D01*
X030102Y018572D01*
X030120Y018563D01*
X030135Y018551D01*
X030147Y018536D01*
X030156Y018518D01*
X030162Y018500D01*
X030164Y018480D01*
X030162Y018460D01*
X030156Y018442D01*
X030147Y018424D01*
X030135Y018409D01*
X030120Y018397D01*
X030102Y018388D01*
X030084Y018382D01*
X030064Y018380D01*
X030044Y018382D01*
X030026Y018388D01*
X030008Y018397D01*
X029993Y018409D01*
X029981Y018424D01*
X029972Y018442D01*
X029966Y018460D01*
X029964Y018480D01*
X029884Y018340D02*
X029834Y019490D01*
D15*
X031834Y019790D03*
D16*
X033559Y019540D03*
X030109Y019540D03*
D17*
X031334Y019540D03*
X032334Y019540D03*
D18*
X027884Y013940D03*
D19*
X028509Y013940D03*
X026159Y013940D03*
D20*
X031214Y017190D02*
X031214Y017440D01*
X031214Y017690D01*
X031464Y017690D02*
X031464Y017440D01*
X031464Y017190D01*
X032204Y016690D02*
X032204Y016440D01*
X032204Y016190D01*
X032454Y016190D02*
X032454Y016440D01*
X032454Y016690D01*
D21*
X009834Y010290D03*
D22*
X009834Y009915D03*
X009834Y011965D03*
D23*
X011134Y014240D03*
X010134Y015240D03*
X013534Y014240D03*
X014534Y015240D03*
X018134Y015240D03*
X019134Y014240D03*
X021534Y014240D03*
X022534Y015240D03*
D24*
X017434Y009790D02*
X014734Y009790D01*
X014734Y005990D01*
X014734Y004390D02*
X014734Y002990D01*
X014734Y002390D02*
X014734Y000590D01*
X017434Y000590D01*
X017434Y009790D01*
M02*
