G75*
G70*
%OFA0B0*%
%FSLAX24Y24*%
%IPPOS*%
%LPD*%
%AMOC8*
5,1,8,0,0,1.08239X$1,22.5*
%
%ADD10C,0.0320*%
%ADD11R,0.0340X0.0880*%
%ADD12C,0.0720*%
%ADD13R,0.0710X0.0592*%
%ADD14R,0.0671X0.0592*%
%ADD15C,0.1660*%
%ADD16C,0.0720*%
%ADD17C,0.0760*%
%ADD18OC8,0.0700*%
%ADD19C,0.0700*%
%ADD20OC8,0.0640*%
%ADD21R,0.0592X0.0710*%
%ADD22C,0.0966*%
%ADD23R,0.0316X0.0946*%
%ADD24R,0.0720X0.0720*%
%ADD25C,0.0640*%
%ADD26C,0.0860*%
%ADD27OC8,0.0860*%
%ADD28R,0.0671X0.0277*%
%ADD29R,0.0277X0.0671*%
%ADD30OC8,0.0720*%
%ADD31R,0.0828X0.0513*%
%ADD32OC8,0.0680*%
%ADD33R,0.0592X0.0671*%
%ADD34R,0.0671X0.0710*%
%ADD35R,0.0552X0.0552*%
%ADD36R,0.0474X0.0631*%
D10*
X000959Y000940D02*
X000961Y000962D01*
X000967Y000983D01*
X000976Y001002D01*
X000988Y001020D01*
X001004Y001036D01*
X001021Y001048D01*
X001041Y001057D01*
X001062Y001063D01*
X001084Y001065D01*
X001106Y001063D01*
X001127Y001057D01*
X001146Y001048D01*
X001164Y001036D01*
X001180Y001020D01*
X001192Y001002D01*
X001201Y000983D01*
X001207Y000962D01*
X001209Y000940D01*
X001207Y000918D01*
X001201Y000897D01*
X001192Y000878D01*
X001180Y000860D01*
X001164Y000844D01*
X001147Y000832D01*
X001127Y000823D01*
X001106Y000817D01*
X001084Y000815D01*
X001062Y000817D01*
X001041Y000823D01*
X001021Y000832D01*
X001004Y000844D01*
X000988Y000860D01*
X000976Y000877D01*
X000967Y000897D01*
X000961Y000918D01*
X000959Y000940D01*
X002209Y019190D02*
X002211Y019212D01*
X002217Y019233D01*
X002226Y019252D01*
X002238Y019270D01*
X002254Y019286D01*
X002271Y019298D01*
X002291Y019307D01*
X002312Y019313D01*
X002334Y019315D01*
X002356Y019313D01*
X002377Y019307D01*
X002396Y019298D01*
X002414Y019286D01*
X002430Y019270D01*
X002442Y019252D01*
X002451Y019233D01*
X002457Y019212D01*
X002459Y019190D01*
X002457Y019168D01*
X002451Y019147D01*
X002442Y019128D01*
X002430Y019110D01*
X002414Y019094D01*
X002397Y019082D01*
X002377Y019073D01*
X002356Y019067D01*
X002334Y019065D01*
X002312Y019067D01*
X002291Y019073D01*
X002271Y019082D01*
X002254Y019094D01*
X002238Y019110D01*
X002226Y019127D01*
X002217Y019147D01*
X002211Y019168D01*
X002209Y019190D01*
X033459Y017690D02*
X033461Y017712D01*
X033467Y017733D01*
X033476Y017752D01*
X033488Y017770D01*
X033504Y017786D01*
X033521Y017798D01*
X033541Y017807D01*
X033562Y017813D01*
X033584Y017815D01*
X033606Y017813D01*
X033627Y017807D01*
X033646Y017798D01*
X033664Y017786D01*
X033680Y017770D01*
X033692Y017752D01*
X033701Y017733D01*
X033707Y017712D01*
X033709Y017690D01*
X033707Y017668D01*
X033701Y017647D01*
X033692Y017628D01*
X033680Y017610D01*
X033664Y017594D01*
X033647Y017582D01*
X033627Y017573D01*
X033606Y017567D01*
X033584Y017565D01*
X033562Y017567D01*
X033541Y017573D01*
X033521Y017582D01*
X033504Y017594D01*
X033488Y017610D01*
X033476Y017627D01*
X033467Y017647D01*
X033461Y017668D01*
X033459Y017690D01*
D11*
X030084Y006650D03*
X029584Y006650D03*
X029084Y006650D03*
X028584Y006650D03*
X028084Y006650D03*
X027584Y006650D03*
X027084Y006650D03*
X027084Y004230D03*
X027584Y004230D03*
X028084Y004230D03*
X028584Y004230D03*
X029084Y004230D03*
X029584Y004230D03*
X030084Y004230D03*
D12*
X033584Y004440D03*
X033584Y005440D03*
X033584Y006440D03*
X033584Y007440D03*
X033584Y008440D03*
X033584Y003440D03*
X031834Y000940D03*
X030834Y000940D03*
X029834Y000940D03*
X028834Y000940D03*
X027834Y000940D03*
X026834Y000940D03*
X025834Y000940D03*
X024834Y000940D03*
X023834Y000940D03*
X022834Y000940D03*
X020834Y000940D03*
X019834Y000940D03*
X018834Y000940D03*
X013334Y000940D03*
X012334Y000940D03*
X011334Y000940D03*
X010334Y000940D03*
X009334Y000940D03*
X008334Y000940D03*
X007334Y000940D03*
X006334Y000940D03*
X005334Y000940D03*
X004334Y000940D03*
X003334Y000940D03*
X002334Y000940D03*
X001334Y008940D03*
X001334Y009940D03*
D13*
X008834Y010566D03*
X008834Y011314D03*
X014334Y012066D03*
X015334Y012066D03*
X015334Y012814D03*
X014334Y012814D03*
X016584Y012814D03*
X017584Y012814D03*
X018584Y012814D03*
X018584Y012066D03*
X017584Y012066D03*
X016584Y012066D03*
X013334Y006314D03*
X013334Y005566D03*
X013334Y004564D03*
X012334Y004564D03*
X012334Y003816D03*
X013334Y003816D03*
X012334Y002814D03*
X012334Y002066D03*
X021834Y002066D03*
X022834Y002066D03*
X023834Y002066D03*
X024834Y002066D03*
X025834Y002066D03*
X026834Y002066D03*
X027834Y002066D03*
X028834Y002066D03*
X029834Y002066D03*
X030834Y002066D03*
X030834Y002814D03*
X029834Y002814D03*
X028834Y002814D03*
X027834Y002814D03*
X026834Y002814D03*
X025834Y002814D03*
X024834Y002814D03*
X023834Y002814D03*
X022834Y002814D03*
X021834Y002814D03*
X026334Y010566D03*
X026334Y011314D03*
D14*
X023834Y011566D03*
X023834Y012314D03*
X019834Y012314D03*
X019834Y011566D03*
X019334Y010314D03*
X019334Y009566D03*
X027084Y008814D03*
X027084Y008066D03*
X028084Y008066D03*
X028084Y008814D03*
X029084Y008814D03*
X029084Y008066D03*
X030084Y008066D03*
X030084Y008814D03*
X031084Y008814D03*
X032084Y008814D03*
X032084Y008066D03*
X031084Y008066D03*
X031834Y002814D03*
X031834Y002066D03*
X013334Y002066D03*
X013334Y002814D03*
X004834Y007191D03*
X004834Y007939D03*
D15*
X025483Y016827D03*
X027334Y015646D03*
X027334Y018008D03*
D16*
X030834Y018620D02*
X030834Y019260D01*
X031834Y019260D02*
X031834Y018620D01*
X032834Y018620D02*
X032834Y019260D01*
D17*
X029334Y013940D03*
X025334Y013940D03*
D18*
X031334Y014940D03*
X032834Y011940D03*
D19*
X032834Y012940D03*
X031334Y013940D03*
D20*
X031334Y016440D03*
X032334Y017440D03*
X033334Y016440D03*
X030334Y017440D03*
D21*
X013208Y007190D03*
X012460Y007190D03*
X019960Y002440D03*
X020708Y002440D03*
X003708Y002440D03*
X002960Y002440D03*
X001958Y002440D03*
X001210Y002440D03*
D22*
X001145Y013240D03*
X001145Y015740D03*
X001145Y018240D03*
X007523Y018240D03*
X007523Y015740D03*
X007523Y013240D03*
D23*
X007584Y006501D03*
X007084Y006501D03*
X006584Y006501D03*
X006084Y006501D03*
X004834Y005713D03*
X004334Y005713D03*
X003834Y005713D03*
X003334Y005713D03*
X003334Y003666D03*
X003834Y003666D03*
X004334Y003666D03*
X004834Y003666D03*
X006084Y002879D03*
X006584Y002879D03*
X007084Y002879D03*
X007584Y002879D03*
X008084Y002879D03*
X008584Y002879D03*
X009084Y002879D03*
X009584Y002879D03*
X009584Y006501D03*
X009084Y006501D03*
X008584Y006501D03*
X008084Y006501D03*
D24*
X001334Y007940D03*
X021834Y000940D03*
D25*
X012834Y008880D02*
X012834Y009440D01*
X011834Y009440D02*
X011834Y008880D01*
X010834Y008880D02*
X010834Y009440D01*
X009834Y009160D02*
X009834Y009720D01*
X009834Y012160D02*
X009834Y012720D01*
X010834Y012440D02*
X010834Y013000D01*
X011834Y013000D02*
X011834Y012440D01*
X012834Y012440D02*
X012834Y013000D01*
D26*
X012334Y014850D02*
X012334Y015630D01*
X020334Y015630D02*
X020334Y014850D01*
D27*
X018334Y014240D03*
X017334Y015240D03*
X015334Y015240D03*
X014334Y014240D03*
X010334Y014240D03*
X009334Y015240D03*
X011334Y019240D03*
X013334Y019240D03*
X019334Y019240D03*
X021334Y019240D03*
X023334Y015240D03*
X022334Y014240D03*
D28*
G36*
X022001Y009529D02*
X022474Y010002D01*
X022669Y009807D01*
X022196Y009334D01*
X022001Y009529D01*
G37*
G36*
X022223Y009306D02*
X022696Y009779D01*
X022891Y009584D01*
X022418Y009111D01*
X022223Y009306D01*
G37*
G36*
X022446Y009083D02*
X022919Y009556D01*
X023114Y009361D01*
X022641Y008888D01*
X022446Y009083D01*
G37*
G36*
X022669Y008861D02*
X023142Y009334D01*
X023337Y009139D01*
X022864Y008666D01*
X022669Y008861D01*
G37*
G36*
X022891Y008638D02*
X023364Y009111D01*
X023559Y008916D01*
X023086Y008443D01*
X022891Y008638D01*
G37*
G36*
X023114Y008415D02*
X023587Y008888D01*
X023782Y008693D01*
X023309Y008220D01*
X023114Y008415D01*
G37*
G36*
X023337Y008193D02*
X023810Y008666D01*
X024005Y008471D01*
X023532Y007998D01*
X023337Y008193D01*
G37*
G36*
X023560Y007970D02*
X024033Y008443D01*
X024228Y008248D01*
X023755Y007775D01*
X023560Y007970D01*
G37*
G36*
X023782Y007747D02*
X024255Y008220D01*
X024450Y008025D01*
X023977Y007552D01*
X023782Y007747D01*
G37*
G36*
X024005Y007524D02*
X024478Y007997D01*
X024673Y007802D01*
X024200Y007329D01*
X024005Y007524D01*
G37*
G36*
X024228Y007302D02*
X024701Y007775D01*
X024896Y007580D01*
X024423Y007107D01*
X024228Y007302D01*
G37*
G36*
X020330Y004741D02*
X020803Y005214D01*
X020998Y005019D01*
X020525Y004546D01*
X020330Y004741D01*
G37*
G36*
X020108Y004963D02*
X020581Y005436D01*
X020776Y005241D01*
X020303Y004768D01*
X020108Y004963D01*
G37*
G36*
X019885Y005186D02*
X020358Y005659D01*
X020553Y005464D01*
X020080Y004991D01*
X019885Y005186D01*
G37*
G36*
X019662Y005409D02*
X020135Y005882D01*
X020330Y005687D01*
X019857Y005214D01*
X019662Y005409D01*
G37*
G36*
X019439Y005631D02*
X019912Y006104D01*
X020107Y005909D01*
X019634Y005436D01*
X019439Y005631D01*
G37*
G36*
X019217Y005854D02*
X019690Y006327D01*
X019885Y006132D01*
X019412Y005659D01*
X019217Y005854D01*
G37*
G36*
X018994Y006077D02*
X019467Y006550D01*
X019662Y006355D01*
X019189Y005882D01*
X018994Y006077D01*
G37*
G36*
X018771Y006300D02*
X019244Y006773D01*
X019439Y006578D01*
X018966Y006105D01*
X018771Y006300D01*
G37*
G36*
X020553Y004518D02*
X021026Y004991D01*
X021221Y004796D01*
X020748Y004323D01*
X020553Y004518D01*
G37*
G36*
X020776Y004295D02*
X021249Y004768D01*
X021444Y004573D01*
X020971Y004100D01*
X020776Y004295D01*
G37*
G36*
X020998Y004072D02*
X021471Y004545D01*
X021666Y004350D01*
X021193Y003877D01*
X020998Y004072D01*
G37*
D29*
G36*
X022001Y004350D02*
X022196Y004545D01*
X022669Y004072D01*
X022474Y003877D01*
X022001Y004350D01*
G37*
G36*
X022223Y004573D02*
X022418Y004768D01*
X022891Y004295D01*
X022696Y004100D01*
X022223Y004573D01*
G37*
G36*
X022446Y004796D02*
X022641Y004991D01*
X023114Y004518D01*
X022919Y004323D01*
X022446Y004796D01*
G37*
G36*
X022669Y005019D02*
X022864Y005214D01*
X023337Y004741D01*
X023142Y004546D01*
X022669Y005019D01*
G37*
G36*
X022891Y005241D02*
X023086Y005436D01*
X023559Y004963D01*
X023364Y004768D01*
X022891Y005241D01*
G37*
G36*
X023114Y005464D02*
X023309Y005659D01*
X023782Y005186D01*
X023587Y004991D01*
X023114Y005464D01*
G37*
G36*
X023337Y005687D02*
X023532Y005882D01*
X024005Y005409D01*
X023810Y005214D01*
X023337Y005687D01*
G37*
G36*
X023560Y005909D02*
X023755Y006104D01*
X024228Y005631D01*
X024033Y005436D01*
X023560Y005909D01*
G37*
G36*
X023782Y006132D02*
X023977Y006327D01*
X024450Y005854D01*
X024255Y005659D01*
X023782Y006132D01*
G37*
G36*
X024005Y006355D02*
X024200Y006550D01*
X024673Y006077D01*
X024478Y005882D01*
X024005Y006355D01*
G37*
G36*
X024228Y006578D02*
X024423Y006773D01*
X024896Y006300D01*
X024701Y006105D01*
X024228Y006578D01*
G37*
G36*
X020330Y009139D02*
X020525Y009334D01*
X020998Y008861D01*
X020803Y008666D01*
X020330Y009139D01*
G37*
G36*
X020108Y008916D02*
X020303Y009111D01*
X020776Y008638D01*
X020581Y008443D01*
X020108Y008916D01*
G37*
G36*
X019885Y008693D02*
X020080Y008888D01*
X020553Y008415D01*
X020358Y008220D01*
X019885Y008693D01*
G37*
G36*
X019662Y008471D02*
X019857Y008666D01*
X020330Y008193D01*
X020135Y007998D01*
X019662Y008471D01*
G37*
G36*
X019439Y008248D02*
X019634Y008443D01*
X020107Y007970D01*
X019912Y007775D01*
X019439Y008248D01*
G37*
G36*
X019217Y008025D02*
X019412Y008220D01*
X019885Y007747D01*
X019690Y007552D01*
X019217Y008025D01*
G37*
G36*
X018994Y007802D02*
X019189Y007997D01*
X019662Y007524D01*
X019467Y007329D01*
X018994Y007802D01*
G37*
G36*
X018771Y007580D02*
X018966Y007775D01*
X019439Y007302D01*
X019244Y007107D01*
X018771Y007580D01*
G37*
G36*
X020553Y009361D02*
X020748Y009556D01*
X021221Y009083D01*
X021026Y008888D01*
X020553Y009361D01*
G37*
G36*
X020776Y009584D02*
X020971Y009779D01*
X021444Y009306D01*
X021249Y009111D01*
X020776Y009584D01*
G37*
G36*
X020998Y009807D02*
X021193Y010002D01*
X021666Y009529D01*
X021471Y009334D01*
X020998Y009807D01*
G37*
D30*
X027834Y010440D03*
X028834Y010440D03*
X029834Y010440D03*
X029834Y011440D03*
X028834Y011440D03*
X027834Y011440D03*
D31*
X022562Y011487D03*
X022562Y012392D03*
X021105Y012392D03*
X021105Y011487D03*
D32*
X016584Y008190D03*
X015584Y008190D03*
X015584Y007190D03*
X016584Y007190D03*
X016584Y006190D03*
X015584Y006190D03*
X015584Y005190D03*
X016584Y005190D03*
X016584Y004190D03*
X015584Y004190D03*
X015584Y003190D03*
X016584Y003190D03*
X016584Y002190D03*
X015584Y002190D03*
D33*
X018460Y002440D03*
X019208Y002440D03*
X019208Y004565D03*
X018460Y004565D03*
X024960Y004190D03*
X025708Y004190D03*
X025458Y010565D03*
X024710Y010565D03*
D34*
X001584Y004099D03*
D35*
X001977Y005408D03*
X001190Y005408D03*
D36*
X011585Y006373D03*
X012333Y006373D03*
X011959Y005507D03*
M02*
